<svg width="75" height="75" fill="none" xmlns="http://www.w3.org/2000/svg"><path d="M9.375 7.031a2.346 2.346 0 00-2.344 2.344v56.25a2.346 2.346 0 002.344 2.344h56.25a2.346 2.346 0 002.344-2.344V9.375a2.346 2.346 0 00-2.344-2.344H9.375zm0 2.344h56.25l.002 56.25H9.375V9.375zm7.031 7.031a2.346 2.346 0 00-2.343 2.344v9.375a2.346 2.346 0 002.343 2.344h9.375a2.346 2.346 0 002.344-2.344v-3.42a1.172 1.172 0 00-2.344 0v3.42h-9.375V18.75h7.032a1.172 1.172 0 000-2.344h-7.032zm12.305.586c-.3 0-.6.114-.829.343l-6.788 6.79-1.515-1.516a1.17 1.17 0 10-1.658 1.657l2.344 2.344a1.169 1.169 0 001.657 0l7.617-7.617a1.17 1.17 0 00-.828-2zm5.273 1.758a1.172 1.172 0 000 2.344h25.782a1.172 1.172 0 000-2.344H33.984zm0 4.688a1.172 1.172 0 000 2.343h18.75a1.172 1.172 0 000-2.343h-18.75zM16.406 37.5a2.346 2.346 0 00-2.343 2.344v9.375a2.346 2.346 0 002.343 2.343h9.375a2.346 2.346 0 002.344-2.343v-3.42a1.172 1.172 0 00-2.344 0v3.42h-9.375v-9.375h7.032a1.172 1.172 0 000-2.344h-7.032zm12.305.586c-.3 0-.6.114-.829.343l-6.788 6.789-1.515-1.515a1.17 1.17 0 10-1.658 1.657l2.344 2.344a1.169 1.169 0 001.657 0l7.617-7.618a1.17 1.17 0 00-.828-2zm5.273 1.758a1.172 1.172 0 000 2.343h11.72a1.172 1.172 0 000-2.343h-11.72zm16.407 0a1.172 1.172 0 000 2.343h9.375a1.172 1.172 0 000-2.343H50.39zM33.984 44.53a1.172 1.172 0 000 2.344h9.375a1.172 1.172 0 000-2.344h-9.375zM14.062 58.594c-.646 0-1.171.525-1.171 1.172v2.343a1.172 1.172 0 002.343 0v-2.343c0-.647-.525-1.172-1.171-1.172zm5.86 0c-.647 0-1.172.525-1.172 1.172v2.343a1.172 1.172 0 002.344 0v-2.343c0-.647-.525-1.172-1.172-1.172zm5.86 0c-.648 0-1.173.525-1.173 1.172v2.343a1.172 1.172 0 002.344 0v-2.343c0-.647-.525-1.172-1.172-1.172zm5.859 0c-.647 0-1.172.525-1.172 1.172v2.343a1.172 1.172 0 002.343 0v-2.343c0-.647-.524-1.172-1.171-1.172zm5.859 0c-.647 0-1.172.525-1.172 1.172v2.343a1.172 1.172 0 002.344 0v-2.343c0-.647-.525-1.172-1.172-1.172zm5.86 0c-.648 0-1.172.525-1.172 1.172v2.343a1.172 1.172 0 002.343 0v-2.343c0-.647-.525-1.172-1.172-1.172zm5.859 0c-.647 0-1.172.525-1.172 1.172v2.343a1.172 1.172 0 002.344 0v-2.343c0-.647-.525-1.172-1.172-1.172zm5.86 0c-.648 0-1.173.525-1.173 1.172v2.343a1.172 1.172 0 002.344 0v-2.343c0-.647-.525-1.172-1.172-1.172zm5.858 0c-.646 0-1.171.525-1.171 1.172v2.343a1.172 1.172 0 002.343 0v-2.343c0-.647-.525-1.172-1.172-1.172z" fill="#E4B564"/></svg>