<svg width="75" height="75" fill="none" xmlns="http://www.w3.org/2000/svg"><path d="M37.358 2.344a3.52 3.52 0 00-2.197.773l-1.639 1.314a33.811 33.811 0 01-18.965 7.37l-4.244.284a3.516 3.516 0 00-3.273 3.722l.806 13.545c.92 12.758 6.743 24.403 16.397 32.794l10.808 9.407a3.53 3.53 0 002.307.852c.829 0 1.653-.284 2.307-.852l10.817-9.407c9.65-8.39 15.473-20.04 16.393-32.813l.805-13.522a3.524 3.524 0 00-3.277-3.726l-4.24-.284a33.812 33.812 0 01-18.969-7.37l-1.639-1.314a3.508 3.508 0 00-2.197-.773zm0 2.344c.261 0 .517.086.733.26l1.638 1.314a36.16 36.16 0 0020.28 7.878l4.243.284c.64.041 1.13.6 1.09 1.245l-.806 13.509c-.834 11.545-5.892 22.128-14.287 30.006v-.078a1.171 1.171 0 10-2.344 0v2.175l-9.778 8.5a1.18 1.18 0 01-1.538 0l-9.778-8.5v-2.175a1.171 1.171 0 10-2.343 0v.078c-8.391-7.878-13.454-18.457-14.287-29.992l-.806-13.527a1.176 1.176 0 011.094-1.24l4.239-.285a36.162 36.162 0 0020.284-7.878l1.634-1.314c.22-.174.476-.26.732-.26zm0 3.36c-.467 0-.943.137-1.341.42l-3.012 2.106a34.044 34.044 0 01-17.226 6.07l-.764.05c-.646.042-1.136.6-1.094 1.246a1.175 1.175 0 001.171 1.094c.028 0 .05 0 .078-.005l.76-.046a36.384 36.384 0 0018.42-6.49l3.008-2.106 3.012 2.105a36.125 36.125 0 0010.639 5.109 1.166 1.166 0 001.45-.792 1.173 1.173 0 00-.791-1.456 33.997 33.997 0 01-9.956-4.779L38.703 8.47a2.33 2.33 0 00-1.346-.422zm18.91 8.308a1.174 1.174 0 00-.343 2.32c.943.138 1.904.243 2.861.308l.691.045h.083c.608 0 1.126-.471 1.162-1.09a1.174 1.174 0 00-1.084-1.253l-.696-.042a34.601 34.601 0 01-2.674-.288zm-3.675 9.938c-.303 0-.6.114-.829.348l-16.75 16.745-8.542-8.547a1.177 1.177 0 00-1.661 0 1.172 1.172 0 000 1.657l9.375 9.376a1.175 1.175 0 001.662 0l17.578-17.579a1.172 1.172 0 00-.834-2zm-21.094 31.64c-.646 0-1.172.527-1.172 1.172v2.344a1.171 1.171 0 102.344 0v-2.344a1.17 1.17 0 00-1.172-1.171zm5.86 0c-.646 0-1.173.527-1.173 1.172v2.344a1.171 1.171 0 102.344 0v-2.344a1.17 1.17 0 00-1.172-1.171zm5.858 0c-.645 0-1.171.527-1.171 1.172v2.344a1.171 1.171 0 102.343 0v-2.344a1.17 1.17 0 00-1.172-1.171z" fill="#E4B564"/></svg>