<svg width="234" height="46" fill="none" xmlns="http://www.w3.org/2000/svg"><path fill-rule="evenodd" clip-rule="evenodd" d="M36.497.074c-2.428.074-4.783.223-7.064.52-2.649.37-5.298.89-7.726 1.558-6.476 1.78-11.921 4.6-15.674 8.383C2.575 13.949.588 18.178.588 23c0 4.823 1.987 9.052 5.445 12.539C7.284 36.8 8.83 37.987 10.448 39.1V23.074c0-2.968 4.342-5.416 10.008-5.787v-6.232c0-1.113.588-2.152 1.619-2.968 1.986-1.706 5.666-2.82 9.934-2.82 1.766 0 3.385.223 4.856.52 3.974.89 6.77 2.894 6.77 5.268 0 2.374-2.723 4.377-6.77 5.268-1.471.296-3.09.519-4.856.519-3.9 0-7.359-.965-9.42-2.374v2.82c6.182.148 11.038 2.67 11.038 5.786 0 3.116-4.856 5.639-11.037 5.787v3.562c0 .445.147.816.662.816h2.723v1.632h-3.9c-.957 0-1.693-.816-1.693-1.632v-4.452c-3.238-.223-6.034-1.113-7.873-2.374v13.8c2.722 1.484 5.74 2.67 9.05 3.561a50.888 50.888 0 007.727 1.484c2.281.297 4.636.445 7.064.52h1.104c10.596 0 20.089-2.375 26.932-6.678 6.255-3.932 10.155-9.497 10.155-16.174 0-6.678-3.9-12.242-10.155-16.174C57.616 2.522 48.05.074 37.528.074h-1.03zm4.93 23.297c-2.575 0-4.709-1.706-4.709-3.71 0-2.077 2.134-3.784 4.71-3.784 2.575 0 4.709 1.707 4.709 3.784 0 2.003-2.06 3.636-4.71 3.71zm.074-5.787c1.472 0 2.65.89 2.65 2.077 0 1.113-1.178 2.003-2.65 2.003s-2.649-.89-2.649-2.003c-.073-1.187 1.177-2.077 2.65-2.077zm7.947 2.893c0 .52.074.817.515.817h3.164V23H49.08c-1.03 0-1.692-.816-1.692-1.706v-5.12h2.06v4.303zm7.138-.964c.81 0 1.693-.074 1.693-1.855V16.1h2.06v1.558c0 1.558-.515 3.413-2.65 3.413v1.78h-2.06v-1.78c-2.134-.074-2.649-1.929-2.649-3.413V16.1h2.06v1.558c-.146 1.78.737 1.855 1.546 1.855zM43.414 29.826v-1.632h6.329V29.9h-2.134v5.194h-1.987V29.9h-2.208v-.074zm12.363 1.855c0 1.113.883 1.854 2.722 1.854h1.84v1.633h-2.134c-2.944-.074-4.268-1.41-4.268-3.487 0-2.078 1.325-3.413 4.268-3.487h2.134v1.632h-1.84c-1.913 0-2.722.742-2.722 1.855zm-15.6-.89c3.385-.075 3.532 4.451-.148 4.228H36.35v-1.706h3.827c.809 0 .883-.89 0-.89h-1.62c-1.545 0-2.648-.594-2.648-2.004 0-1.41 1.03-2.3 2.575-2.3h3.68v1.633H38.41c-.809 0-.809.964-.073.964h1.84v.074zm10.743 4.154V28.12h2.06v6.826h-2.06zm-23.62-2.67c0-3.265 2.207-4.081 5.37-4.081h2.061v6.825h-2.06v-1.706h-3.238v1.706h-2.207v-2.745h.073zm5.37-.594h-3.237c0-1.855 1.251-1.93 3.164-1.781v1.78h.074z" fill="#fff"/><path fill-rule="evenodd" clip-rule="evenodd" d="M23.031 11.129c0-2.077 4.047-3.71 9.125-3.71 1.766 0 3.458.223 4.783.52 2.649.667 4.341 1.854 4.341 3.19 0 1.335-1.766 2.523-4.341 3.19-1.398.371-3.017.52-4.783.52-5.078 0-9.125-1.633-9.125-3.71zm-.881 11.648h.514V19.44c4.857.148 8.61 1.706 8.61 3.71 0 2.003-3.753 3.635-8.61 3.709v-2.597h-2.207v2.523c-4.342-.297-7.506-1.855-7.506-3.71s3.238-3.339 7.506-3.71v3.34h1.692v.073zm167.847 6.233c0 2.522 2.207 3.042 3.826 3.042h2.943v2.967h-3.605c-8.463-.222-8.095-12.093 0-12.093h3.605v2.968h-2.943c-1.619 0-3.826.593-3.826 3.116zm8.021-3.117h3.9v9.126h3.311v-9.125h3.9v-2.968h-11.111v2.968zm35.394 9.127v-3.117c0-1.187 0-2.374-1.545-3.264 1.619-.52 1.545-2.449 1.545-3.636v-2.077h-3.679c0 2.3.294 4.229-1.546 4.229h-1.986v-4.23h-3.238V35.02h3.385v-4.896h1.987c.735 0 1.471.445 1.471 1.632v3.264h3.606zM105.374 22.926h-8.095v12.093h3.385v-9.125h3.017c.81 0 .883.593.883 1.41v7.715h3.385v-9.422c-.147-1.41-1.177-2.597-2.575-2.671zm52.172 0h-8.095v12.093h3.385v-9.125h3.017c.809 0 .883.593.883 1.41v7.715h3.385v-9.422c-.074-1.41-1.104-2.597-2.575-2.671zm-27.815-10.313h-4.489v6.752h1.84v-5.12h1.692c.442 0 .515.297.515.816v4.303h1.914v-5.267c-.148-.816-.663-1.41-1.472-1.484zm-7.434 0h-4.488v6.752h1.839v-5.12h1.693c.441 0 .515.297.515.816v4.303h1.913v-5.267c-.074-.816-.662-1.41-1.472-1.484zm7.581 10.313h5.151v12.093h-3.385v-9.125h-1.471c-1.84 0-2.429.667-2.429 3.116v6.01h-3.385v-6.233c0-3.264 1.546-5.935 5.519-5.861zm37.748 0h5.151v12.093h-3.385v-9.125h-1.471c-1.84 0-2.429.667-2.429 3.116v6.01h-3.385v-6.233c0-3.264 1.619-5.935 5.519-5.861z" fill="#fff"/><path fill-rule="evenodd" clip-rule="evenodd" d="M180.283 22.926h5.15v12.093h-3.384v-3.116h-3.9v3.116h-3.385v-6.232c0-3.264 1.545-5.935 5.519-5.861zm1.766 6.01v-3.042c-.663 0-1.546-.075-2.282.074-1.177.222-1.692.964-1.692 2.968h3.974zM135.69 12.613h2.87v6.752h-1.84v-1.707h-2.207v1.706H132.6v-3.487c0-1.854.883-3.264 3.09-3.264zm1.03 3.339v-1.707h-.809c-1.03 0-1.325.371-1.325 1.707h2.134zm2.723 19.068h8.094V22.925h-3.385v9.126h-3.017c-.809 0-.883-.594-.883-1.41v-7.716h-3.385v9.422c.147 1.41 1.104 2.523 2.576 2.671zm73.66 0h8.094V22.925h-3.385v9.126h-3.017c-.809 0-.883-.594-.883-1.41v-7.716h-3.385v9.422c.148 1.41 1.178 2.523 2.576 2.671zm-98.31-15.656h-4.489v-1.706h3.532c.442 0 .515-.223.515-.668h-2.649c-.809-.074-1.398-.742-1.472-1.483v-2.894h1.914v1.929c0 .445.073.816.515.816h1.692v-2.745h1.84v5.267c0 .743-.589 1.41-1.398 1.485zm-7.212-6.751h-4.415v6.752h1.84v-1.336h2.207c1.619 0 1.913-1.113 1.913-1.855v-2.077c-.073-.742-.588-1.41-1.398-1.484h-.147zm-2.575 3.784v-2.152h1.692c.442 0 .515.297.515.816v.742c0 .371-.294.52-.588.52h-1.619v.074zm-6.256-3.784h3.091v1.632h-2.208c-.441 0-.515.297-.515.816v4.303h-1.913v-5.267c.074-.816.736-1.484 1.545-1.484zm16.778 10.313h1.398a6.05 6.05 0 014.268 1.78 6.017 6.017 0 011.766 4.304c0 1.632-.662 3.19-1.766 4.303a5.919 5.919 0 01-4.268 1.78h-1.398a6.047 6.047 0 01-4.268-1.78 6.017 6.017 0 01-1.766-4.303 6.15 6.15 0 011.766-4.304 5.92 5.92 0 014.268-1.78zm1.325 2.968h-1.398c-.884 0-1.619.296-2.208.89-.589.593-.883 1.335-.883 2.226 0 .89.368 1.632.883 2.225.589.594 1.324.89 2.208.89h1.398c.883 0 1.618-.296 2.207-.89.589-.593.883-1.335.883-2.225 0-.89-.368-1.633-.883-2.226-.589-.594-1.324-.89-2.207-.89z" fill="#fff"/><path d="M86.684 12.613h-1.325v22.406h1.325V12.613z" fill="#fff"/></svg>