<svg width="262" height="79" fill="none" xmlns="http://www.w3.org/2000/svg"><path d="M36.563 31.522h-3.94v6.86h4.255c2.521 0 3.94-1.41 3.94-3.332 0-2.195-1.38-3.528-4.255-3.528zm2.363 11.918l-6.264.196v8.9c0 .078-.04.118-.118.118h-5.95c-.078 0-.117-.04-.117-.118V26.464c0-.078.039-.118.118-.118h11.504c4.964 0 8.47 3.372 8.47 8.351-.039 6.234-4.254 8.626-7.643 8.743zm12.253 9.096V26.464c0-.078.04-.118.119-.118h5.988c.079 0 .118.04.118.118v26.072c0 .078-.039.118-.118.118h-5.988c-.08 0-.119-.04-.119-.118zm23.167-21.014h-3.94v6.86h4.255c2.521 0 3.94-1.41 3.94-3.332 0-2.195-1.38-3.528-4.255-3.528zM76.71 43.44l-6.265.196v8.9c0 .078-.04.118-.118.118h-5.989c-.078 0-.118-.04-.118-.118V26.464c0-.078.04-.118.118-.118h11.505c4.964 0 8.47 3.372 8.47 8.351-.039 6.234-4.215 8.626-7.603 8.743zm31.164 3.686c.079 0 .118.039.118.117v5.293c0 .078-.039.118-.118.118h-18.99c-.079 0-.118-.04-.118-.118V26.464c0-.078.039-.118.118-.118h18.123c.079 0 .118.04.118.118v5.254c0 .078-.039.117-.118.117l-12.095.118v5.097l8.313.117c.079 0 .118.04.118.118v4.979c0 .078-.039.118-.118.118l-8.313.078v4.705h12.962v-.04zm21.945-.079c.079 0 .118.04.118.118v5.371c0 .078-.039.118-.118.118h-16.666c-.079 0-.118-.04-.118-.118V26.464c0-.078.039-.118.118-.118h5.989c.079 0 .118.04.118.118v20.544l10.559.04zm4.728 5.489V26.464c0-.078.039-.118.118-.118h5.988c.079 0 .119.04.119.118v26.072c0 .078-.04.118-.119.118h-5.988c-.079 0-.118-.04-.118-.118zm26.83-14.506c.079 0 .118.039.118.117v5.136c0 .079-.039.118-.118.118l-7.564.078v9.057c0 .078-.04.118-.119.118h-5.988c-.079 0-.118-.04-.118-.118V26.464c0-.078.039-.118.118-.118h18.281c.078 0 .118.04.118.118v5.293c0 .078-.04.117-.118.117l-12.174.079v5.998l7.564.079zm28.406 9.096c.079 0 .119.039.119.117v5.293c0 .078-.04.118-.119.118h-18.99c-.079 0-.118-.04-.118-.118V26.464c0-.078.039-.118.118-.118h18.124c.078 0 .118.04.118.118v5.254c0 .078-.04.117-.118.117l-12.096.118v5.097l8.313.117c.079 0 .119.04.119.118v4.979c0 .078-.04.118-.119.118l-8.313.078v4.705h12.962v-.04zm51.061-7.606c0 10.193-8.313 18.466-18.557 18.466-10.244 0-18.557-8.273-18.557-18.466 0-10.194 8.313-18.466 18.557-18.466 10.244 0 18.557 8.233 18.557 18.466z" fill="#fff"/><path d="M237.336 38.422c0-7.684-6.264-13.879-13.947-13.879-7.683 0-13.987 6.195-13.987 13.879 0 7.684 6.265 13.879 13.947 13.879 7.683 0 13.987-6.195 13.987-13.88z" fill="#fff"/><path d="M232.923 35.168c0-3.45-2.797-6.234-6.264-6.234s-6.264 2.784-6.264 6.234 2.797 6.233 6.264 6.233c3.428 0 6.264-2.783 6.264-6.233z" fill="#fff"/></svg>