<svg width="512" height="512" viewBox="0 0 512 512" fill="none" xmlns="http://www.w3.org/2000/svg">
<path d="M178.863 474.947C194.358 474.947 198.737 468.884 198.737 461.137C198.737 453.389 198.737 436.547 198.4 412.632C117.895 429.811 100.716 374.232 100.716 374.232C87.5789 341.558 68.3789 332.463 68.3789 332.463C42.1052 314.947 70.4 315.284 70.4 315.284C99.3684 317.305 114.863 344.59 114.863 344.59C140.8 388.379 182.568 375.579 199.074 368.168C200.421 353.684 206.821 339.874 217.6 329.768C153.263 322.695 85.5579 298.105 85.5579 188.968C85.221 160.674 96 133.053 115.537 112.505C112.168 105.432 102.4 76.4632 117.895 37.0527C117.895 37.0527 142.147 29.3053 197.726 66.3579C245.221 53.5579 295.074 53.5579 342.568 66.3579C397.474 29.6421 422.063 37.0527 422.063 37.0527C437.558 76.1263 427.789 105.095 425.095 112.505C444.632 133.053 455.074 160.674 454.737 188.968C454.737 298.442 387.032 322.358 322.358 329.432C332.463 337.853 341.895 355.368 341.895 381.979C341.895 420.379 341.558 450.695 341.558 459.789C341.558 467.2 344.926 473.263 361.432 473.263L178.863 474.947Z" fill="black"/>
</svg>
