<svg width="65" height="63" fill="none" xmlns="http://www.w3.org/2000/svg"><g clip-path="url(#clip0_1:533)" fill="#000"><path d="M.216 44.686c.017-.003-.126-.062-.125-.073.043-.262.064-.558.28-.717.099-.068.08-.22.116-.33.018-.058.047-.107.105-.13.06-.02.147-.013.279.042.019.008-.072-.093-.072-.109-.001-.152.118-.182.218-.225.1-.047.183-.09.143-.304-.001-.008.043.038.056.046.227.138.213-.02.234-.156.019-.135.074-.227.381.087.018.017-.038-.09-.049-.125-.113-.35.043-.287.18-.238.138.047.259.093.138-.323-.008-.025.054.063.078.089.216.22.323.244.39.183.066-.06.092-.204.135-.302.046-.108.192.008.305.057.115.05.194.027.137-.375-.037-.274.207.065.258.01.132-.14.259-.333.488-.172.22.17.181-.596.53.051.009.02-.018-.122-.015-.14.072-.393.422.317.43-.352 0-.032.07.2.082.198.169-.015.331-.051.495-.084.008-.002-.014-.16-.005-.148.237.35.305-.212.512-.003.194.201.269-.427.504.092.003.01.002-.046.002-.074 0-.518.127-.083.192-.099.158-.039.328.034.485 0 .175-.04.353-.042.532-.036.157.006.306-.127.467-.052.073.035.146-.016.226.035.15.093.302.152.44-.026.077-.1.182-.166.3.046.13.236.292-.272.429.106.006.016.019-.136.027-.137.173-.027.353-.138.52-.032.153.096.351-.38.47.163.005.02.025-.116.034-.125.185-.195.309.258.512-.103.005-.006.002.057.005.071.094.515.39-.52.431.355.002.024.027-.092.041-.127.13-.339.196-.196.263-.073.066.124.132.232.283-.172.01-.025.003.084.006.117.059.608.278.323.457.207.197-.126.176.717.521-.015.121-.247.13.167.2.152.184-.045.397-.137.495.125.09.263.482-.4.417.334-.002.022.052-.111.067-.125.136-.145.186-.02.243.072.059.092.124.148.321-.125.02-.025-.054.206-.043.21.155.083.314.151.474.223.008.003.083-.138.083-.122-.006.427.394.017.45.318.022.142.145.1.253.1.106-.002.197.03.124.311-.003.01.032-.033.05-.055.348-.385.17.03.235.067a.916.916 0 01.211.188c.064.074.126.147.205.203.177.13.331.29.463.489.029.043.065.08.104.117l.116.119a.53.53 0 01.162.296c.017.106.103.197.098.323-.017.248-.027.463.166.672.122.132.22.24.054.308a1.18 1.18 0 00-.104.13c-.068.1-.023.218-.01.341.006.116-.024.241-.24.271-.017.002.122.07.118.082-.017.064-.03.129-.044.195a1.922 1.922 0 01-.056.185.562.562 0 01-.218.3c-.101.058-.089.204-.127.318-.038.106-.124.185-.38.063-.019-.01.069.097.069.11-.004.145-.121.18-.222.213-.1.036-.182.089-.15.294.003.008-.04-.04-.053-.047-.223-.149-.21.019-.236.147-.022.128-.077.228-.376-.098-.016-.018.035.089.046.125.106.347-.048.29-.183.233-.137-.056-.256-.098-.143.32.006.025-.053-.065-.077-.09-.418-.455-.432-.092-.523.107-.048.11-.192-.013-.304-.062-.113-.049-.192-.027-.14.374.034.274-.205-.067-.256-.014-.133.133-.262.332-.49.163-.219-.168-.187.592-.527-.056-.01-.019.015.122.012.143-.075.388-.418-.32-.43.346-.002.03-.07-.2-.08-.2a5.153 5.153 0 00-.495.08c-.008.002.013.16.005.147-.234-.351-.307.206-.512 0-.193-.207-.272.428-.503-.096-.003-.01-.001.046-.001.074-.005.516-.13.082-.193.098-.157.04-.327-.038-.485-.003l-.046.008c.005.052.046.093.199.101.008 0-.053.023-.065.03-.443.271.617.086-.172.463-.022.01.094-.016.132-.02.717-.082-.417.419.434.297.025-.004-.075.036-.103.052-.53.3-.178.343 0 .416.194.08-.559.453.241.358.272-.033-.087.166-.041.207.123.107.304.197.129.393-.177.195.577.105-.068.44-.02.01.12-.024.14-.024.383.023-.316.382.346.317.03-.003-.196.08-.196.09.021.136.06.268.102.398.002.006.158-.033.145-.026-.332.247.227.219.04.42-.183.196.447.142-.04.43-.008.005.046-.008.073-.012.507-.098.097.088.121.138.059.121.011.275.068.395.066.135.1.277.124.425.023.13.182.215.142.365-.019.068.046.114.014.192-.059.145-.08.286.126.346.114.034.2.095.03.252-.19.176.334.149.011.374-.014.01.136-.029.139-.022.074.128.227.23.178.395-.046.154.463.138-.008.422-.018.01.116-.023.129-.02.238.07-.137.331.265.35.008 0-.052.023-.065.03-.442.271.617.086-.172.463-.022.01.094-.016.132-.02.718-.082-.416.419.434.297.026-.003-.074.036-.103.052-.53.3-.178.343 0 .416.194.08-.558.453.242.358.272-.033-.088.166-.042.207.123.107.304.197.13.393-.177.195.577.105-.07.44-.018.01.122-.024.14-.024.384.023-.314.382.348.317.03-.003-.196.08-.196.09.02.137.059.268.102.398.001.006.157-.034.144-.026-.332.247.228.219.04.42-.183.196.447.142-.04.43-.008.005.046-.008.074-.012.507-.098.097.088.12.138.06.121.012.275.069.395.065.135.1.277.124.425.022.13.181.215.141.365-.019.068.047.114.015.192-.06.145-.083.275.122.334l-1.913.589c.078-.146-.337-.16-.014-.385.014-.01-.136.029-.139.022-.074-.128-.227-.23-.178-.395.046-.154-.463-.138.008-.42.018-.011-.116.022-.129.019-.238-.07.137-.33-.265-.35-.008 0 .052-.022.065-.03.442-.27-.617-.085.172-.462.022-.011-.094.015-.132.02-.718.081.416-.42-.435-.297-.025.003.075-.037.104-.053.53-.299.178-.343 0-.416-.194-.079.558-.453-.242-.358-.272.034.088-.166.041-.207-.122-.106-.303-.196-.128-.393.176-.194-.578-.104.068-.44.02-.01-.12.024-.14.024-.383-.022.315-.381-.347-.317-.03.004.196-.08.196-.09a2.427 2.427 0 00-.102-.397c-.001-.007-.157.033-.144.025.332-.247-.228-.218-.04-.42.183-.196-.447-.142.04-.43.008-.005-.047.008-.074.013-.507.098-.097-.089-.12-.138-.06-.122-.012-.276-.069-.396a1.514 1.514 0 01-.124-.424c-.022-.13-.181-.215-.141-.366.019-.068-.046-.114-.015-.191.06-.146.08-.287-.125-.347-.115-.033-.2-.097-.03-.252.19-.175-.335-.148-.012-.373.014-.01-.135.028-.138.022-.075-.129-.228-.231-.178-.396.046-.154-.463-.138.008-.421.017-.011-.116.022-.13.019-.238-.07.138-.331-.265-.35-.008 0 .053-.022.066-.03.442-.27-.618-.085.171-.462.023-.011-.094.016-.132.02-.717.081.417-.42-.434-.297-.025.003.075-.037.103-.053.53-.299.179-.343 0-.416-.194-.08.559-.453-.241-.358-.272.033.087-.166.041-.207-.122-.106-.304-.196-.129-.393.177-.194-.577-.104.069-.44.019-.01-.121.024-.14.024-.384-.022.315-.382-.347-.317-.03.004.196-.08.196-.09a2.424 2.424 0 00-.102-.397c-.002-.007-.158.033-.145.025a.34.34 0 00.09-.089c-.142.032-.373.029.06.282.022.013-.081-.017-.115-.023-.601-.096-.355.156-.26.324.101.184-.721.006-.037.429.232.144-.174.076-.162.136.028.158.114.344-.147.386-.26.043.385.44-.33.301-.021-.005.11.056.123.07.287.255-.485.103.074.464.025.015-.204-.06-.209-.05-.07.12-.122.245-.17.373-.002.006.145.07.129.07-.415-.013.04.313-.232.354-.266.04.259.39-.3.312-.01-.002.039.022.064.036.458.24.021.128.008.184-.03.131-.164.221-.195.353a1.529 1.529 0 01-.169.408c-.064.116.006.282-.12.374-.056.043-.034.117-.107.158-.137.076-.242.174-.12.349.069.096.097.199-.135.215-.259.017.169.323-.226.299-.017-.002.124.062.123.068-.022.146.033.323-.11.42-.132.091.275.394-.27.323-.02-.004.105.053.111.065.143.202-.315.172-.011.438.006.005-.056-.014-.07-.017-.515-.064.428.45-.425.253-.024-.005.085.046.116.066.611.383-.588.068.152.502.022.013-.082-.017-.115-.024-.601-.095-.355.157-.26.325.101.184-.721.006-.037.429.232.144-.174.076-.163.136.029.158.115.344-.146.386-.26.043.385.44-.33.301-.021-.005.109.056.123.07.287.255-.485.103.074.464.025.017-.204-.06-.209-.051-.07.12-.122.245-.17.374-.002.006.145.07.129.07-.415-.013.04.313-.232.354-.266.04.259.39-.301.312-.01-.002.04.022.065.036.458.24.02.128.008.184-.03.131-.164.221-.195.353a1.527 1.527 0 01-.169.408c-.064.116.006.282-.12.374-.057.043-.034.117-.107.158-.137.076-.282.147-.158.32l-1.864-.728c.153-.065-.12-.317.274-.293.017.002-.124-.062-.123-.068.023-.146-.033-.323.11-.42.132-.092-.275-.394.27-.323.021.004-.105-.055-.11-.064-.144-.203.314-.173.01-.44-.006-.004.056.015.07.018.515.064-.428-.45.425-.253.024.005-.084-.046-.116-.066-.611-.384.59-.069-.151-.502-.023-.013.08.017.114.023.601.095.355-.156.261-.324-.102-.184.72-.006.037-.43-.233-.143.173-.075.162-.135-.029-.159-.115-.344.146-.386.26-.043-.385-.44.33-.301.022.005-.109-.056-.123-.07-.286-.255.485-.103-.073-.464-.026-.017.203.06.208.05.07-.12.122-.244.17-.373.002-.006-.145-.071-.129-.071.415.014-.04-.312.233-.353.265-.04-.26-.39.3-.312.01.002-.04-.022-.065-.036-.458-.24-.02-.129-.008-.184.03-.131.164-.222.196-.353a1.53 1.53 0 01.168-.408c.064-.114-.006-.282.12-.374.057-.043.034-.117.108-.158.136-.076.241-.174.119-.349-.069-.096-.097-.199.135-.215.26-.017-.169-.323.226-.3.017.002-.124-.06-.123-.067.023-.146-.033-.323.11-.42.132-.091-.275-.394.27-.323.021.004-.104-.053-.11-.064-.144-.203.314-.173.01-.44-.006-.004.056.015.07.018.516.064-.428-.45.425-.253.024.005-.084-.046-.116-.066-.61-.384.59-.069-.151-.502-.023-.013.08.017.114.023.601.095.355-.156.261-.324-.102-.184.72-.006.037-.429-.233-.144.173-.076.162-.136-.029-.159-.115-.344.146-.386.261-.043-.385-.44.331-.301.02.005-.11-.056-.124-.07-.286-.255.485-.103-.073-.464-.026-.017.203.06.208.05.07-.12.123-.245.17-.373.002-.006-.144-.07-.129-.07.416.013-.04-.313.233-.354.265-.04-.26-.39.3-.312.01.002-.04-.022-.065-.036-.458-.24-.02-.129-.008-.184.03-.131.164-.222.196-.353.012-.052.03-.104.049-.155-.011-.033-.024-.071-.033-.12-.005-.021-.026.115-.035.125-.186.188-.307-.257-.514.098-.005.006-.002-.057-.003-.071-.09-.515-.393.519-.428-.358 0-.024-.029.092-.041.127-.13.337-.2.197-.264.072-.067-.125-.13-.232-.285.171-.01.024-.002-.084-.005-.117-.052-.611-.277-.326-.455-.21-.199.122-.17-.716-.523.009-.124.245-.129-.168-.199-.152-.183.038-.397.135-.494-.131-.048-.133-.166-.03-.268.006-.101.038-.186.019-.146-.345.003-.022-.054.11-.068.125-.139.14-.186.014-.244-.078-.057-.09-.122-.15-.324.12-.02.024.057-.205.046-.212a6.193 6.193 0 00-.474-.227c-.008-.004-.084.136-.084.12.003-.215-.092-.217-.199-.21-.106.007-.226.03-.248-.118-.02-.145-.145-.107-.253-.107-.106 0-.199-.042-.12-.317.004-.01-.033.033-.052.054-.357.378-.17-.04-.233-.076-.166-.098-.256-.29-.412-.412a1.938 1.938 0 01-.452-.517c-.107-.183-.339-.312-.358-.574-.003-.058-.028-.107-.047-.161a.386.386 0 01-.028-.177c.013-.12.05-.24.048-.349a.447.447 0 00-.113-.321c.065-.108-.003-.228-.019-.355-.027-.134-.006-.269.209-.318zm8.594 6.488c0-.005.003-.01.005-.016l-.043-.01c-.013-.003.01.01.038.026zm-6.762-5.767c.03.019.019.031-.148.112a.35.35 0 00.062-.014c.035-.01.074-.018.074-.018.05.05.179.048.137.165-.014.057.088.033.15.036.059.005.073.037-.086.255-.011.016.092-.073.103-.076.105-.035.105.038.12.102.01.063.055.11.214-.002.007-.005-.032.047-.038.06-.116.231.024.155.123.11.1-.043.173-.06-.015.335-.01.022.062-.073.088-.101.24-.263.222-.127.22.006-.004.13.017.248.271-.095.016-.02-.029.078-.038.11-.086.29-.051.382.02.39.074.008.183-.068.27-.112.093-.048.085.133.115.24.03.107.1.145.309-.196.14-.233.076.171.14.159.159-.03.339-.129.4.13.072.256.408-.417.347.303-.001.022.045-.114.056-.13.221-.31.178.47.466-.126.013-.027-.029.209-.019.214.137.049.275.085.418.109.007.001.045-.154.048-.14.07.412.312-.095.413.162.105.253.336-.337.398.226.002.01.013-.044.02-.07.126-.5.128-.052.188-.053.144-.002.274.104.419.098.159-.005.315.014.472.046.138.027.285-.094.421-.003.064.04.132-.007.2.049.128.104.27.167.397-.008.071-.098.162-.158.27.047.124.232.255-.274.393.094.006.016.01-.138.017-.14.155-.037.304-.158.462-.07.15.082.256-.416.437.102.006.02.005-.117.011-.128.127-.215.317.2.425-.189.001-.008.012.056.017.07.196.481.209-.589.452.249.006.023.002-.095.003-.133.024-.36.111-.24.202-.14.09.102.18.182.181-.245 0-.025.027.08.04.11.236.563.339.215.436.047.102-.182.423.592.398-.21-.013-.273.165.096.211.051.12-.115.218-.296.414-.115.202.174.108-.572.456.065.011.019-.027-.119-.026-.14.008-.191.107-.114.195-.076.087.04.167.043.11-.283-.004-.03.095.19.104.187.135-.032.264-.08.385-.14.007-.003-.054-.15-.043-.139.29.295.174-.248.393-.098.111.073.122-.043.145-.123.024-.081.065-.122.264.074a.369.369 0 00-.034-.066c-.24-.456.046-.108.085-.145.04-.042.097-.06.154-.08a.35.35 0 00.145-.086c.071-.095.159-.166.233-.23a.127.127 0 00.035-.056c.005-.023.005-.045.008-.065.01-.043.012-.076.066-.086.054-.01.01-.055.076-.063.052-.008.102-.025.114-.052.007-.026-.01-.06-.101-.087-.11-.035-.204-.033-.047-.051a.53.53 0 00.094-.03c.06-.029-.02-.046-.055-.057-.048-.016-.05-.027.113-.124.014-.008-.133.043-.134.042-.014-.013-.034-.023-.051-.032-.022-.01-.044-.019-.062-.029-.03-.02-.065-.049-.044-.112.009-.06-.1-.033-.158-.036-.067-.004-.081-.038.068-.265.012-.017-.089.076-.1.081-.111.04-.105-.038-.129-.101-.02-.062-.057-.114-.22.004-.005.005.031-.049.037-.061.106-.233-.025-.159-.128-.11-.105.048-.169.06.003-.337.01-.022-.06.075-.086.103-.239.27-.218.128-.223-.001-.003-.129-.022-.249-.27.1-.016.02.027-.08.035-.111.153-.586-.132-.365-.299-.274-.09.046-.09-.13-.123-.24-.031-.107-.098-.145-.306.202-.139.234-.08-.171-.142-.159-.162.037-.337.13-.405-.123-.074-.26-.404.423-.35-.303.001-.022-.043.114-.056.13-.22.315-.183-.47-.466.133-.013.029.027-.209.018-.213a2.126 2.126 0 00-.42-.107c-.007-.001-.045.154-.046.14-.074-.412-.312.101-.415-.158-.109-.249-.333.337-.401-.222-.002-.01-.013.044-.02.073-.122.5-.127.052-.185.052-.144.002-.276-.1-.42-.095-.16.01-.317-.013-.473-.041-.14-.024-.284.092-.421.006-.064-.04-.132.007-.2-.049-.128-.103-.27-.165-.396.011-.072.097-.161.163-.27-.044-.127-.234-.252.277-.394-.092-.006-.016-.01.138-.016.14-.154.036-.302.16-.46.074-.152-.081-.254.42-.44-.102-.006-.019-.003.118-.01.129-.125.22-.317-.201-.42.193-.002.008-.013-.056-.02-.068-.199-.481-.203.589-.453-.246-.006-.023 0 .095-.002.133-.02.36-.11.24-.202.141-.09-.1-.18-.18-.178.247 0 .026-.027-.079-.04-.109-.24-.559-.34-.212-.434-.043-.098.187-.43-.59-.394.215.014.273-.167-.098-.213-.05-.118.12-.215.296-.41.12-.1-.087-.13.056-.172.143-.045.087-.102.114-.283-.203-.011-.02.028.119.027.14-.005.19-.102.118-.191.078-.09-.04-.166-.04-.105.285.006.03-.096-.188-.107-.185a1.73 1.73 0 00-.381.144c-.007.003.057.15.046.14-.143-.146-.191-.084-.223-.002s-.05.177-.165.104c-.11-.07-.118.046-.14.126-.023.079-.056.123-.263-.07-.006-.007.021.041.035.066.25.448-.038.11-.076.146-.08.082-.223.082-.285.17-.07.094-.141.166-.216.229-.062.062.011.18-.083.196-.022.005-.027.02-.031.032-.002.013-.007.024-.035.028-.06.011-.096.029-.11.054-.011.024.022.054.106.075-.058.008-.008.03.023.046z"/><path d="M4.212 16.406c-.022-.113-.022-.227-.027-.34.002-.108.011-.211.022-.316.021-.182-.044-.373.035-.549.039-.08.02-.17.069-.253.095-.154.173-.314.095-.499-.041-.101-.05-.23.12-.321.195-.095-.077-.37.216-.442.013-.003-.081-.047-.078-.055.044-.19.044-.402.181-.554.121-.14-.09-.442.304-.45.014 0-.064-.05-.065-.062-.037-.226.3-.258.172-.537-.004-.006.036.012.047.012.19.006.15-.114.139-.224-.01-.107.01-.2.299-.122.016.005-.045-.047-.062-.068-.155-.2-.03-.236.085-.27.115-.037.218-.076.034-.309-.011-.014.056.016.078.02.428.085.356-.193.378-.383.026-.208.565-.006.277-.482-.095-.165.181-.083.212-.15.077-.172.128-.384.365-.41.118-.015.115-.139.147-.237.031-.095.093-.163.322-.053.015.006-.044-.07-.047-.086-.037-.3.451-.044.294-.486-.006-.02.113.089.122.08.15-.107.29-.226.436-.34.007-.004-.05-.095-.04-.091.303.09.244-.306.49-.287.12.013.16-.089.218-.17.056-.083.132-.143.305-.03.007.004-.007-.03-.014-.049-.105-.334.115-.117.177-.158.16-.096.35-.131.518-.215.181-.1.385-.168.589-.222.092-.022.176-.065.265-.104a.746.746 0 01.164-.048.46.46 0 01.094-.06c.016-.008-.137-.036-.137-.049.005-.274-.07-.575.076-.828.075-.115.01-.263-.001-.4-.008-.137.028-.268.326-.306.022-.003-.104-.059-.108-.074-.053-.157.047-.268.127-.379.08-.114.135-.23.025-.426-.004-.007.058.013.074.012.283-.008.208-.178.18-.338-.015-.079-.02-.155.036-.198.059-.04.175-.049.394.008.024.007-.07-.068-.095-.098-.239-.288-.051-.345.113-.396.162-.057.322-.095.057-.452-.016-.023.083.027.116.036.317.074.444.016.503-.101.063-.111.06-.28.085-.418.03-.149.237-.135.39-.163.16-.026.256-.102.096-.49-.104-.265.28-.079.34-.162.08-.113.153-.241.251-.338.099-.095.218-.166.395-.136.173.027.213-.149.292-.277.04-.063.088-.114.16-.117.074-.002.176.05.314.18.016.016-.035-.118-.032-.14.037-.217.206-.184.35-.178.145 0 .274-.01.28-.36.002-.03.11.185.129.18a11.2 11.2 0 00.38-.117c.127-.038.256-.067.383-.103.011-.003-.014-.162 0-.15.18.156.295.083.415 0 .121-.075.245-.172.395-.073.145.098.257-.024.383-.09.124-.062.26-.086.4.181.004.01.009-.046.014-.074.092-.516.219-.078.322-.089.26-.008.512.095.77.09.283.023.568.064.841.143.237.08.52.011.738.171.097.076.228.07.326.163.091.089.191.16.295.217.105.055.22.08.362.049.154-.032.347-.022.404.263.034.157.164.155.291.174.127.017.253.052.236.277-.002.019.098-.098.11-.092.236.14.546.21.683.477.065.118.23.133.358.19.129.055.207.169.099.44-.008.02.103-.06.119-.059.165.03.216.168.275.29.054.13.12.24.353.236.01 0-.038.042-.046.057-.132.248.064.26.21.318.146.055.26.147-.05.469-.017.017.094-.029.134-.035.374-.067.336.12.29.294-.042.174-.074.326.37.272.027-.003-.064.057-.087.083-.213.234-.236.378-.167.489.067.11.22.19.332.279.126.096-.008.273-.059.42-.052.151-.03.27.391.324.293.04-.085.285-.035.376.063.124.14.25.18.383a.436.436 0 01-.084.409c-.107.136.03.258.105.39.038.069.055.121.022.177-.035.055-.122.11-.302.164-.02.007.122.02.142.032.359.222-.414.453.236.673.03.01-.211.031-.213.047-.02.227-.023.455-.02.681 0 .011.16.022.146.032-.391.228.153.459-.086.687-.232.221.385.446-.165.665-.01.003.046.01.075.015.513.094.066.187.074.279.02.222-.071.443-.052.663a4.4 4.4 0 01-.007.735c-.017.217.11.432.026.65-.038.1.011.205-.043.312-.1.201-.16.417.017.611.112.122.209.2.048.263-.029.032-.065.07-.094.117-.117.194.275.4-.1.6-.016.008.138.021.14.032.033.24.15.478.052.717-.09.222.401.445-.132.665-.02.008.118.022.128.033.206.228-.23.46.15.686.007.005-.058.011-.072.016-.503.212.564.438-.302.649-.024.006.095.02.131.033.71.223-.523.462.326.686.026.006-.082.022-.114.033-.595.217-.272.457-.124.662.162.221-.668.446.124.686.269.081-.134.222-.1.31.086.229.232.463.006.686-.226.224.52.45-.197.667-.02.006.122.02.142.031.359.222-.414.452.236.673.03.01-.211.032-.213.048-.02.226-.023.454-.02.68 0 .012.16.023.146.032-.391.228.153.46-.086.687-.232.222.385.447-.165.665-.01.003.046.011.075.016.513.093.066.187.074.279.02.221-.071.443-.052.663.022.245.012.49-.007.734-.017.217.11.433.026.651-.038.1.011.204-.043.312-.1.2-.16.416.017.61.099.11.163.251-.046.417-.235.186.275.4-.1.6-.016.008.138.02.14.032.033.24.15.478.052.717-.09.222.401.445-.132.665-.02.008.118.02.128.033.206.228-.23.46.15.686.007.005-.058.01-.072.016-.503.212.564.438-.302.649-.024.006.095.02.131.033.71.223-.523.462.326.685.026.007-.082.023-.114.034-.595.216-.272.457-.124.661.162.222-.668.447.124.687.269.081-.134.222-.1.31.086.229.232.463.006.686-.226.223.52.45-.197.667-.02.006.122.02.142.031.359.222-.414.453.236.673.03.01-.211.032-.213.048-.02.226-.023.454-.02.68 0 .011.16.023.146.032-.391.228.153.46-.086.687-.232.222.385.446-.165.665-.01.003.046.011.075.016.513.093.066.187.074.278.016.173-.036.344-.05.516.103-.084.21-.163.319-.24.134-.092.264-.188.375-.303a1.18 1.18 0 00.275-.418c.005-.014.06.027.08.03.39.016.552-.273.77-.528.213-.252.493-.47.967-.22.025.014.012-.113.028-.16.153-.464.57-.488.95-.477.189.005.388.015.55-.031.151-.043.29-.15.415-.383.016-.029.073.07.111.098.35.248.673.282.996.242.323-.04.65-.15.954-.204.334-.057.636.149.927.285.296.136.595.2.986-.12.276-.219.57.258.807.284.618.067 1.275.105 1.776.504.25.2.574.172.88.207.278.026.508.092.663.507.01.025.08-.103.111-.116.3-.101.528.057.776.176.243.119.512.19.786-.108.024-.027.046.217.08.222.203.027.402.038.57.032l-.014-.01c.006.005.011.007.017.01.035-.002.07-.002.1-.005a.178.178 0 00.066-.089.414.414 0 00.022-.14.998.998 0 00-.011-.162c-.029-.228-.097-.475.019-.735.113-.256.005-.52-.073-.782-.078-.264-.121-.529.122-.83.008-.012-.049-.023-.078-.033-.537-.17-.122-.454-.16-.685-.092-.553-.084-1.124-.18-1.7a10.2 10.2 0 01-.116-.995 15.91 15.91 0 01-.03-.986c.001-.573-.132-1.138-.045-1.708.04-.261-.008-.53.051-.81.107-.524.183-1.078.02-1.588-.101-.319-.19-.526-.023-.684.032-.082.073-.18.106-.301a.839.839 0 00.03-.188c.002-.032.004-.064.004-.097l-.002-.047-.003-.029c-.01-.133-.033-.269-.05-.405a1.236 1.236 0 01.014-.418.898.898 0 01.192-.409c.02-.022-.13-.072-.127-.104.04-.668.065-1.368.353-1.99.062-.146.1-.296.127-.453.027-.157.043-.32.083-.473a1.26 1.26 0 01.178-.44.96.96 0 01.405-.33c.027-.012-.08-.104-.073-.139.027-.166.09-.316.172-.459.084-.14.188-.267.283-.399.2-.26.382-.52.418-.891.002-.014.064.01.085.003a.635.635 0 00.385-.285c.084-.128.128-.291.195-.437.065-.147.14-.291.266-.386.129-.092.305-.138.56-.092.028.005-.027-.11-.03-.158a.588.588 0 01.189-.497c.12-.113.29-.171.45-.236.159-.067.32-.124.439-.234a.572.572 0 00.141-.213.907.907 0 00.06-.322c.002-.032.1.03.145.037.212.03.392.018.554-.022.16-.04.296-.12.428-.207.13-.089.246-.198.36-.309.117-.106.23-.217.34-.315.25-.207.61-.191.94-.221a1.16 1.16 0 00.464-.137c.143-.083.265-.236.375-.467.075-.16.24-.172.41-.155.174.022.353.076.471.032.61-.22 1.279-.458 1.93-.268.32.105.632-.04.955-.093.32-.067.647-.041.914.339.016.023.069-.114.104-.128a.804.804 0 01.485-.037c.156.04.307.11.458.17.15.056.299.123.46.13a.955.955 0 00.525-.136c.036-.02.028.227.07.241a16.45 16.45 0 011.795.683c.027.012.127-.119.143-.095.105.16.23.266.372.345.142.079.291.14.447.193.157.052.312.11.456.187a.993.993 0 01.376.313c.195.268.5.379.785.527.279.157.541.352.578.765.001.014.054-.013.082-.024.276-.098.385-.014.444.116.06.128.075.297.167.388.444.45.762 1 1.124 1.51.403.567.729 1.19.975 1.846.213.575.52 1.137.57 1.77.008.145.038.288.065.434.027.145.04.297.035.452-.032.586-.07 1.181.068 1.743.02.08.038.165.051.255a1.309 1.309 0 01-.199.868c-.146.232-.113.503-.103.78.011.277-.005.557-.237.785-.02.02.126.081.122.11-.084.63-.11 1.277-.35 1.864-.22.543.104 1.232-.56 1.65-.025.016.1.084.102.116.044.626-.537 1.087-.335 1.755.003.013-.062.01-.08.02-.634.39.225 1.248-.76 1.527-.027.008.077.08.104.117.128.188.141.345.097.486-.047.144-.158.29-.26.424-.108.138-.211.273-.254.43-.05.156-.027.335.099.57.016.03-.102.026-.147.045-.114.048-.21.103-.296.163.088.092.206.192-.187.155l-.02.023c.02.006.037.014.048.019.654.297-.572.12.22.45.024.01-.083-.007-.116-.01-.606-.03-.328.18-.212.327.126.16-.71.078.026.402.25.11-.161.087-.14.143.052.144.162.307-.088.373-.25.067.444.368-.281.314-.023-.002.116.04.132.05.32.206-.463.148.14.422.028.012-.21-.034-.213-.026a2.08 2.08 0 00-.11.366c-.002.006.153.05.137.05-.41.032.087.286-.175.354-.255.066.316.33-.248.323-.01 0 .043.015.07.025.488.17.04.117.036.168-.01.125-.125.225-.135.348a1.4 1.4 0 01-.099.398c-.044.113.053.26-.057.359-.05.046-.016.112-.081.16-.124.087-.208.191-.059.337.084.08.129.17-.095.217-.252.05.22.275-.17.305-.016.002.132.041.132.048.003.138.087.293-.035.402-.115.101.337.326-.209.334-.02 0 .113.036.121.044.177.166-.277.203.069.404.006.003-.058-.006-.072-.006-.517.014.502.353-.37.293-.023-.002.092.03.127.044.67.263-.566.149.241.438.024.01-.082-.004-.116-.004-.609.001-.318.196-.194.335.135.152-.703.117.05.398.256.095-.155.095-.133.15.061.14.18.294-.065.375-.246.08.465.337-.264.328-.022 0 .118.033.135.043.334.183-.45.174.17.408.03.011-.21-.019-.214-.011-.041.12-.067.244-.084.367-.002.007.156.04.141.041-.407.06.107.274-.15.36-.25.084.338.302-.222.337-.01 0 .045.013.072.02.5.13.05.113.05.164.002.123-.106.23-.104.353.001.136-.026.267-.066.399-.033.115.072.25-.022.356-.044.049-.002.11-.06.163-.112.096-.186.207-.021.332.103.078.194.13.032.148-.03.014-.07.031-.1.053-.13.094.25.243-.137.315-.016.004.137.024.137.03.017.133.13.268.023.387-.097.112.385.26-.154.345-.02.003.116.017.127.025.2.13-.245.234.126.37.008.002-.057.002-.072.005-.252.046-.11.108-.014.165.096.057.147.11-.286.163-.024.003.095.011.132.017.355.057.224.113.111.175-.113.06-.208.125.217.166.025.003-.083.014-.115.02-.297.065-.364.13-.34.187.028.06.15.113.23.163.17.106-.647.29.153.36.272.022-.124.128-.087.174.095.115.248.225.036.367-.212.146.546.185-.154.38-.02.006.122-.003.141.002.372.077-.381.292.279.334.03.001-.209.042-.209.052-.006.125.005.248.027.37.002.007.161-.01.147-.003-.37.177.187.225-.03.382-.212.155.416.178-.11.384-.01.003.046-.001.074-.003.516-.032.082.09.097.138.042.115-.027.25.015.366.046.128.06.26.065.395.005.12.148.213.092.346-.027.061.034.107-.006.175-.075.128-.111.257.086.325.11.038.187.1.001.232-.208.15.314.156-.027.344-.014.008.137-.019.14-.013.062.12.205.223.142.372-.06.14.445.144-.045.387-.019.01.116-.016.13-.013.228.073-.161.3.238.33.008 0-.054.018-.067.024-.458.238.606.094-.204.422-.022.01.096-.013.132-.016.716-.062-.444.381.41.28.026-.003-.076.033-.106.047-.542.27-.194.316-.022.384.188.072-.578.42.22.329.271-.03-.093.153-.048.191.117.097.295.178.114.36-.181.184.568.085-.083.408-.019.01.121-.025.14-.023.38.009-.32.36.339.281.03-.003-.196.08-.196.089.02.125.053.245.094.362.002.005.156-.038.145-.028-.332.24.224.19.038.383-.181.19.44.108-.038.399-.008.005.045-.01.073-.016.503-.12.097.075.121.119.059.108.013.252.072.358.066.115.105.242.133.373.024.117.186.171.151.309-.016.063.05.097.021.158a.167.167 0 00-.011.03l.001-.008-1.5 1.32a.684.684 0 00-.134-.22 1.927 1.927 0 01-.09-.104c-.02-.017-.035-.023-.05-.038-.063-.049-.097-.115.049-.25.013-.01-.132.041-.137.035-.089-.127-.248-.214-.213-.385.037-.153-.468-.104-.014-.41.017-.01-.115.029-.128.027-.243-.055.124-.328-.278-.324-.008 0 .051-.026.064-.034.434-.281-.619-.055.159-.452.022-.011-.094.019-.13.025-.713.104.41-.418-.435-.27-.025.004.075-.039.104-.055.524-.305.173-.334-.004-.4-.192-.073.56-.445-.236-.339-.273.035.088-.161.042-.2-.122-.1-.3-.186-.12-.375.18-.186-.573-.1.079-.422.02-.01-.12.024-.14.022-.382-.024.323-.363-.337-.306-.03.004.199-.074.197-.084a2.172 2.172 0 00-.086-.381c-.001-.006-.157.03-.145.02.342-.229-.217-.215-.022-.403.193-.182-.435-.152.066-.412.007-.005-.047.005-.075.01-.51.076-.091-.089-.113-.136-.051-.12.006-.265-.045-.382a1.356 1.356 0 01-.09-.411c-.012-.125-.164-.217-.112-.358.024-.065-.036-.111 0-.184.07-.135.105-.268-.092-.34-.11-.04-.19-.108-.003-.244.208-.152-.317-.17.027-.358.014-.008-.139.016-.14.01-.06-.129-.204-.241-.132-.396.065-.141-.44-.18.062-.4.019-.009-.118.007-.129.002-.227-.093.178-.299-.22-.364-.007-.001.056-.015.069-.02.472-.203-.598-.162.239-.42.023-.006-.096.004-.134.002-.72-.02.477-.342-.382-.345-.025 0 .08-.024.112-.037.569-.21.229-.299.065-.397-.178-.108.633-.34-.17-.382-.274-.015.117-.144.08-.191-.101-.122-.263-.244-.053-.396.208-.15-.546-.212.159-.405.02-.006-.123-.002-.142-.006-.369-.1.393-.296-.267-.376-.03-.003.21-.033.21-.042.01-.135.003-.266-.01-.4 0-.006-.16-.004-.146-.009.383-.155-.157-.277.08-.427.23-.138-.387-.277.162-.41.01-.002-.046-.007-.075-.011-.514-.065-.067-.117-.075-.173-.023-.14.085-.261.07-.394-.012-.146.007-.29.035-.432.026-.127-.092-.265-.001-.386.041-.058-.002-.12.059-.178.112-.107.187-.223.022-.354-.104-.083-.194-.138-.03-.157.03-.016.07-.034.101-.057.13-.097-.246-.263.139-.333.016-.003-.135-.028-.137-.035-.017-.14-.118-.295 0-.417.108-.113-.361-.31.186-.36.02-.001-.114-.028-.124-.036-.186-.16.266-.227-.09-.412-.007-.003.057.003.07.002.516-.044-.52-.337.354-.323.024 0-.092-.027-.127-.04-.68-.239.561-.177-.256-.438-.026-.008.082.001.116 0 .607-.025.312-.212.186-.352-.137-.153.701-.136-.056-.408-.257-.093.153-.101.129-.157-.062-.142-.181-.3.065-.386.247-.084-.463-.347.266-.336.022 0-.118-.033-.135-.044-.33-.192.454-.174-.16-.421-.03-.011.209.022.214.014a2.31 2.31 0 00.094-.377c.001-.006-.155-.044-.14-.046.408-.05-.097-.285.163-.365.253-.076-.324-.325.239-.337a.355.355 0 00-.072-.024c-.493-.155-.043-.117-.04-.17.005-.126.12-.23.126-.357.007-.141.043-.276.094-.406.043-.115-.054-.262.054-.365.05-.048.015-.116.08-.163.122-.09.208-.197.059-.342-.085-.081-.13-.175.097-.22.25-.051-.22-.282.173-.31.016 0-.132-.042-.132-.048-.002-.14-.084-.298.041-.407.116-.101-.334-.336.215-.336.02 0-.111-.038-.12-.047-.173-.173.28-.201-.06-.413-.006-.005.057.008.072.008.517-.002-.492-.37.378-.289.024.002-.089-.033-.124-.049a.933.933 0 01-.157-.082 1.418 1.418 0 01-.142.002c-.21-.027-.416-.081-.563-.051l-.286.05-.266.043a5.26 5.26 0 01-.445.051c-.297.02-.593 0-.883-.112-.575-.225-1.165.516-1.717-.195-.016-.02-.046.123-.073.142a.576.576 0 01-.383.11c-.13-.002-.263-.035-.397-.059-.264-.036-.54-.032-.726.336-.018.033-.11-.195-.147-.19a7.182 7.182 0 00-1.512.427c-.022.01.011.168-.013.162a.641.641 0 00-.418.022 1.112 1.112 0 00-.337.212c-.105.084-.205.174-.312.25a.871.871 0 01-.367.15c-.28.037-.44.268-.61.463a.961.961 0 01-.284.253.699.699 0 01-.437.08c-.013 0 .01.051.022.08.196.524-.266.337-.407.503-.336.379-.729.72-1 1.156a14.46 14.46 0 00-.816 1.485c-.212.457-.244.966-.441 1.431-.095.215-.084.46-.181.695-.166.443-.307.909-.134 1.365-.118.495.275 1.076-.1 1.592-.016.022.138.054.14.082.033.615.15 1.232.052 1.843-.089.57.401 1.143-.132 1.708-.02.021.118.056.128.086.103.291.047.586.01.878.048.034.098.067.039.122-.075.072.398.024-.075.182v.005c.035-.006.099-.017.107-.017.214.01-.2.16.181.134.008 0-.056.015-.068.02-.48.16.574-.015-.261.22h-.002c.011 0 .1-.017.132-.02.705-.096-.486.223.353.097.026-.003-.08.022-.11.033-.569.18-.241.17-.085.187.17.02-.63.249.155.14.268-.036-.119.083-.082.097.095.038.251.064.041.165s.531 0-.159.203c-.02.006.121-.02.14-.022.364-.021-.382.194.267.114.03-.004-.205.05-.205.055-.008.06 0 .116.016.17l.078-.013a.34.34 0 01.067-.01c-.37.136.173.08-.05.185-.216.102.4.03-.127.195a.647.647 0 00.073-.011c.508-.082.075.032.088.052.03.05-.048.122-.016.171a.279.279 0 01.032.18c-.007.054.13.081.059.151-.032.032.02.048-.026.084-.087.07-.137.133.048.146.103.006.172.028-.024.11-.221.092.29.043-.067.165-.016.005.137-.022.139-.02.044.05.171.087.089.163-.077.07.416.028-.096.186-.019.007.116-.017.127-.017.215.014-.202.157.183.138.008 0-.055.014-.068.017-.482.15.576-.003-.263.217-.023.006.094-.013.133-.017.706-.084-.49.213.354.102.026-.003-.08.021-.111.03-.573.168-.243.164-.088.184.17.022-.633.236.158.143.269-.032-.12.079-.083.095.096.04.251.068.041.164-.211.097.535.011-.159.2-.02.006.121-.02.14-.02.365-.015-.383.194.268.115a3.9 3.9 0 01-.17.04c-.023.004-.037.009-.037.009a.312.312 0 00.013.149l.077-.013c.039-.006.074-.014.067-.011-.37.133.17.063-.052.163-.217.101.397.005-.124.185-.01.003.044-.01.073-.014.504-.105.075.025.089.044.032.045-.043.117-.011.162a.242.242 0 01.036.166c-.003.054.134.068.069.14-.03.034.024.044-.02.083-.084.073-.128.141.056.135.115-.003.213-.014.064.046-.026.016-.059.035-.083.053-.1.078.29.012-.056.167-.014.006.134-.035.136-.033.05.045.176.066.102.148-.07.078.415-.017-.08.192-.019.008.113-.03.124-.03.215-.01-.186.174.192.112.008-.001-.054.02-.066.026-.465.2.57-.072-.239.24-.022.008.092-.024.129-.033.692-.166-.463.267.361.057.026-.006-.076.03-.107.043-.548.232-.224.19-.068.19.17 0-.601.311.169.118.262-.066-.11.094-.072.103.099.026.256.033.059.155-.197.124.528-.063-.135.217-.02.008.117-.035.136-.038.358-.065-.356.238.279.08a.483.483 0 01-.088.034c-.027.01-.054.02-.074.029a.154.154 0 00-.035.016.375.375 0 00.035.163l.074-.023c.037-.01.072-.022.066-.019-.352.18.18.056-.028.186-.202.126.4-.024-.103.207-.008.005.045-.013.072-.02.493-.148.078.02.092.04.036.043-.032.124.005.169.04.048.052.107.054.17.001.056.138.064.078.141-.029.037.027.043-.015.086-.078.079-.117.15.067.134.102-.007.173.004-.01.111-.204.122.293-.002-.044.173-.014.008.132-.041.134-.04.05.044.18.06.11.147-.066.081.413-.034-.069.198-.017.01.111-.035.123-.036.213-.02-.179.184.198.106.008-.002-.052.022-.065.028-.455.222.566-.091-.229.252-.022.01.09-.028.127-.038.684-.191-.451.287.364.046.026-.008-.074.033-.104.048-.54.254-.217.2-.06.194.17-.005-.59.334.174.114.26-.074-.107.097-.068.106.098.022.257.026.065.155-.193.13.526-.079-.127.222-.02.01.116-.038.135-.041.356-.075-.348.248.281.071.015-.005-.035.016-.087.038-.026.011-.053.022-.073.032l-.035.016c0 .058.017.112.04.163 0 0 .038-.011.074-.024a.774.774 0 01.064-.02c-.347.19.183.05-.023.186-.197.133.4-.035-.096.21-.008.005.042-.014.07-.022.488-.16.077.02.093.038.039.045-.028.127.01.17a.27.27 0 01.059.17c.003.055.14.06.08.139-.026.036.03.042-.012.085-.075.082-.159.165.024.144l-1.866.725c.093-.088-.25-.017.082-.198.014-.008-.13.045-.134.043-.053-.044-.183-.058-.113-.147.064-.084-.415.04.064-.201.017-.01-.112.036-.123.038-.214.02.174-.188-.202-.106-.008.001.053-.022.066-.029.451-.228-.567.098.224-.258.022-.01-.091.029-.127.04-.683.198.448-.291-.366-.044a.867.867 0 01.105-.048c.537-.26.214-.203.057-.198-.17.005.587-.337-.177-.115-.259.076.105-.099.067-.108-.1-.024-.257-.027-.065-.157.192-.131-.526.076.127-.223.02-.01-.116.038-.135.041-.356.073.348-.248-.282-.074-.028.008.196-.081.196-.084a.42.42 0 00-.04-.166s-.038.01-.074.023a.239.239 0 01-.066.02c.347-.19-.183-.056.023-.19.199-.132-.4.028.098-.213a.489.489 0 00-.071.022c-.492.154-.078-.02-.094-.04-.038-.044.03-.127-.008-.172a.272.272 0 01-.056-.174c-.001-.057-.14-.063-.08-.142.028-.037-.026-.045.014-.087.076-.081.116-.152-.069-.138-.102.008-.175-.005.01-.113.205-.121-.293-.001.044-.174.014-.008-.132.041-.133.04-.051-.044-.182-.063-.11-.15.067-.083-.415.028.068-.2.018-.008-.113.033-.124.035-.214.014.178-.184-.199-.113-.008.002.053-.02.066-.026.458-.216-.57.08.232-.252.022-.01-.093.027-.127.035-.688.179.456-.28-.365-.056-.025.007.077-.031.105-.046.544-.243.22-.196.062-.196-.171 0 .597-.321-.173-.123-.26.066.108-.096.07-.107-.099-.027-.258-.036-.06-.16.197-.124-.53.06.133-.22.02-.007-.117.034-.137.037-.359.06.357-.238-.28-.086-.028.007.2-.072.2-.077a.433.433 0 00-.034-.17s-.04.01-.076.021a.427.427 0 01-.066.018c.355-.176-.18-.064.029-.192.203-.124-.4.011.105-.209a.853.853 0 00-.072.019c-.496.135-.078-.025-.092-.044-.035-.048.035-.129 0-.176a.283.283 0 01-.05-.179c0-.057-.136-.073-.074-.149.029-.035-.025-.046.018-.087.08-.077.124-.147-.06-.144-.115.002-.214.01-.066-.05.025-.017.059-.037.083-.056.1-.08-.293-.022.054-.174.014-.006-.134.033-.137.03-.05-.05-.178-.078-.102-.161.07-.078-.418-.007.083-.202.019-.007-.115.026-.126.026-.216-.005.191-.174-.19-.136-.009 0 .053-.018.066-.023.474-.177-.576.026.25-.237.022-.008-.094.017-.13.024-.705.11.48-.24-.36-.106-.025.003.08-.024.11-.035.566-.192.238-.18.08-.206-.17-.03.63-.25-.161-.161-.27.031.12-.078.082-.094-.095-.038-.251-.066-.041-.163.212-.096-.533-.008.159-.198.02-.006-.12.02-.14.02-.364.015.383-.19-.267-.116a.553.553 0 01.092-.024.976.976 0 00.078-.02.117.117 0 00.037-.01.422.422 0 00-.015-.168l-.078.011a.73.73 0 01-.066.01c.372-.13-.174-.081.049-.18.216-.1-.4-.033.129-.192a.66.66 0 00-.073.01c-.51.078-.075-.031-.088-.052-.03-.049.048-.12.018-.169a.264.264 0 01-.03-.177c.006-.056-.13-.083-.06-.15.032-.032-.02-.047.026-.083.087-.068.137-.131-.048-.142-.103-.007-.172-.027.024-.11.221-.091-.29-.04.069-.164.015-.005-.137.022-.139.02-.044-.05-.17-.085-.087-.161.076-.072-.415-.026.095-.185.02-.007-.116.018-.127.017-.215-.013.202-.157-.181-.135-.008 0 .055-.014.068-.019.482-.153-.574.01.262-.217.024-.006-.094.015-.13.02-.705.091.488-.219-.353-.099-.026.004.08-.022.111-.031.571-.174.244-.167.088-.184-.169-.019.631-.245-.156-.14-.267.037.12-.08.083-.094-.096-.037-.252-.062-.042-.163.21-.102-.531.001.16-.201.02-.007-.122.02-.14.022-.363.022.381-.195-.268-.111-.03.003.205-.052.205-.055a.422.422 0 00-.014-.168l-.078.012-.067.012c.363-.135-.148-.081.038-.178a.117.117 0 00-.022-.042c-.549-.5-1.134.561-1.676-.301-.014-.024-.054.095-.084.131-.576.706-1.196-.52-1.77.325-.018.025-.056-.083-.086-.114-.562-.593-1.184-.271-1.71-.124-.175.05-.352.007-.528-.055.017.04.029.079-.04.07-.097-.013.307.267-.172.03-.017-.01.1.061.109.07.159.137-.237-.05.07.175.006.005-.05-.027-.063-.033-.451-.224.449.348-.316-.057-.02-.011.08.05.111.07.592.39-.491-.195.221.265.023.015-.073-.038-.101-.052-.532-.268-.274-.07-.164.035.12.114-.616-.27.048.163.225.147-.136-.035-.113-.005.054.076.16.185-.054.105-.215-.081.408.327-.228-.002-.019-.01.103.065.12.076.29.214-.397-.142.146.219.025.015-.185-.102-.188-.1a.19.19 0 00-.076.09c-.002.002.137.084.122.078-.358-.164.093.144-.133.056-.22-.085.292.26-.2.015a1.44 1.44 0 00.061.04c.436.272.042.061.04.078-.002.043-.1.029-.102.072-.001.047-.032.079-.07.104-.033.024.057.119-.033.11-.041-.005-.008.034-.064.023-.103-.02-.175-.02-.038.098.076.067.12.12-.076.038-.22-.092.202.198-.139.038-.014-.006.118.073.118.075.008.052.087.145-.017.131-.097-.013.306.268-.172.03-.018-.01.098.062.108.07.159.138-.237-.05.07.176l-.062-.034c-.452-.223.448.349-.317-.057-.02-.01.08.051.112.072.591.39-.492-.197.22.264.023.014-.072-.038-.101-.052-.531-.268-.273-.07-.164.035.121.114-.615-.271.048.163.226.147-.135-.035-.113-.005.054.076.16.185-.054.104-.215-.08.409.328-.227-.001-.02-.01.103.065.119.076.29.214-.396-.143.146.218.026.016-.184-.101-.188-.1a.19.19 0 00-.076.09c-.001.002.137.085.123.078-.358-.163.092.144-.134.057-.22-.085.293.26-.2.015l.062.04c.435.271.041.06.04.078-.002.043-.1.029-.102.071-.002.048-.032.08-.07.105-.034.024.057.119-.034.11-.041-.005-.008.034-.063.023-.104-.02-.175-.02-.039.098.086.075.163.135.02.063-.03-.009-.064-.022-.093-.03-.117-.031.202.198-.138.038-.014-.006.118.073.118.075.008.052.087.145-.018.131-.097-.013.307.268-.172.03-.017-.01.099.062.108.07.16.138-.236-.05.07.176l-.061-.034c-.452-.223.448.349-.317-.057-.02-.01.08.051.111.072.592.39-.491-.197.221.264.023.014-.073-.038-.101-.052-.532-.268-.274-.07-.164.035.12.114-.616-.271.047.163.226.147-.135-.035-.112-.005.054.076.16.185-.054.104-.215-.08.408.328-.228-.001-.019-.01.103.065.12.076.29.213-.397-.143.146.218.025.016-.185-.101-.188-.1a.19.19 0 00-.076.09c-.002.002.136.085.122.078-.358-.163.092.144-.133.057-.22-.085.292.26-.2.014a.497.497 0 00.061.04c.436.273.041.062.04.08-.002.042-.1.028-.102.07-.001.048-.032.08-.07.105-.033.024.057.119-.033.11-.042-.005-.008.034-.064.023-.103-.02-.175-.02-.038.098.076.067.12.119-.076.038-.22-.092.202.198-.139.038-.014-.006.118.073.118.075.008.052.087.145-.018.13-.097-.012.307.268-.171.031-.018-.01.098.062.108.07.159.137-.237-.05.07.175a.73.73 0 01-.062-.033c-.452-.223.448.348-.317-.057-.02-.01.08.05.112.071.591.39-.492-.196.22.265.023.014-.072-.038-.101-.052-.531-.268-.274-.07-.164.034.121.114-.615-.27.048.163.226.148-.135-.034-.113-.004.054.076.16.185-.054.104-.215-.08.409.328-.228-.001-.019-.01.104.064.12.076.29.213-.396-.143.146.218.025.016-.184-.101-.188-.1a.189.189 0 00-.076.09c-.002.002.137.084.123.078-.358-.163.092.144-.134.057-.22-.085.292.26-.2.014a.704.704 0 00.062.04c.435.272.04.062.04.08-.002.042-.1.028-.102.07-.002.048-.032.08-.07.105-.034.023.057.118-.034.11-.041-.006-.008.034-.063.023-.104-.02-.214-.046-.077.071l-1.727-1.01c.118.032-.16-.177.18-.017.014.006-.118-.073-.118-.075-.008-.052-.087-.145.018-.131.097.013-.307-.268.171-.03.018.01-.098-.062-.108-.07-.159-.138.237.05-.07-.176l.062.034c.452.223-.448-.349.317.057.02.01-.08-.051-.112-.072-.591-.39.492.197-.22-.264-.023-.014.073.038.101.052.531.268.274.07.164-.035-.12-.114.615.271-.048-.163-.226-.147.135.035.113.005-.054-.076-.16-.185.054-.105.215.081-.41-.327.228.002.019.01-.104-.065-.12-.076-.29-.213.396.143-.146-.218-.025-.018.184.101.188.1a.19.19 0 00.076-.09c0-.002-.137-.085-.122-.078.357.163-.093-.144.133-.057.22.084-.293-.26.2-.015a1.532 1.532 0 00-.061-.04c-.436-.272-.042-.06-.04-.078.001-.043.1-.029.102-.072.001-.047.031-.079.07-.104.033-.022-.058-.119.033-.11.041.006.008-.034.064-.023.103.02.174.02.038-.098-.077-.067-.12-.119.076-.038.22.092-.202-.198.139-.038.014.006-.118-.073-.118-.075-.008-.052-.088-.145.017-.13.097.012-.307-.268.172-.031.017.01-.099-.062-.108-.07-.16-.137.237.05-.07-.175a.73.73 0 01.062.033c.451.223-.449-.349.316.057.021.01-.08-.05-.111-.071-.592-.39.492.196-.221-.265-.022-.014.073.038.102.052.531.268.273.07.163-.034-.12-.114.616.27-.047-.163-.226-.148.135.034.113.004-.054-.076-.16-.185.054-.104.215.08-.409-.328.227.001.02.01-.103-.065-.119-.076-.291-.213.396.143-.146-.218-.026-.018.184.101.187.1a.188.188 0 00.077-.09c0-.002-.137-.084-.123-.078.358.163-.092-.144.134-.057.22.084-.293-.26.2-.014a1.56 1.56 0 00-.062-.04c-.436-.272-.041-.062-.04-.08.002-.042.1-.028.102-.07.002-.048.032-.08.07-.105.034-.022-.057-.118.034-.11.04.006.008-.034.063-.023.103.02.175.02.038-.098-.085-.074-.162-.135-.019-.063.029.01.064.022.093.03.117.032-.202-.198.138-.038.014.006-.118-.073-.118-.075-.008-.052-.087-.145.018-.131.097.013-.307-.268.171-.03.018.01-.098-.062-.108-.07-.159-.138.237.05-.07-.175a.73.73 0 01.062.033c.452.223-.448-.348.317.057.02.01-.08-.05-.111-.072-.592-.389.49.197-.221-.264-.023-.014.073.038.101.052.531.268.274.07.164-.034-.12-.114.615.27-.048-.163-.226-.148.136.034.113.004-.054-.076-.16-.185.054-.104.215.08-.408-.328.228.001.019.01-.104-.065-.12-.076-.29-.213.396.143-.146-.218-.025-.017.185.101.188.1a.19.19 0 00.076-.09c0-.002-.137-.085-.122-.078.358.163-.093-.144.133-.057.22.084-.292-.26.2-.014a1.414 1.414 0 00-.061-.04c-.436-.272-.042-.062-.04-.08.002-.042.1-.028.102-.07.001-.048.032-.08.07-.105.033-.022-.058-.119.033-.11.041.006.008-.034.064-.023.103.02.175.02.038-.098-.077-.066-.12-.119.076-.038.22.092-.202-.198.139-.038.014.006-.118-.073-.118-.074-.008-.053-.088-.146.017-.132.097.013-.307-.267.172-.03.017.01-.099-.062-.108-.07-.16-.137.237.05-.07-.175-.006-.005.05.027.062.033.452.223-.449-.348.316.057.021.011-.08-.05-.11-.071a2.797 2.797 0 01-.149-.103c-.382.047-.765.057-1.137-.089-.579-.225-1.16.518-1.722-.196-.018-.02-.053.122-.083.14-.574.359-1.167-.41-1.74.237-.027.03-.08-.21-.122-.212-.293-.01-.587-.016-.88-.02l-.44-.001h-.333l-.136-.005c-.034-.001-.081.157-.108.14a1.316 1.316 0 00-.274-.12 1.449 1.449 0 00-.27-.08c-.091-.019-.183-.025-.277-.038a3.228 3.228 0 00-.13-.016c.012.032-.007.044-.155-.019h-.006c.022.016.111.07.111.073.002.062.075.166-.035.163-.102-.003.296.287-.19.06-.017-.008.1.064.107.072.153.147-.25-.029.053.205.006.005-.051-.027-.064-.033-.458-.214.438.367-.334-.028-.02-.011.08.052.11.072.585.401-.503-.175.204.295.022.014-.073-.038-.104-.052-.537-.258-.286-.051-.181.063.114.123-.627-.252.03.193.223.152-.14-.025-.12.008.047.086.147.206-.072.133-.221-.071.397.348-.245.027-.02-.01.103.065.117.077.285.224-.407-.123.13.249.025.017-.187-.101-.19-.098a.335.335 0 00-.094.119c-.001.001.135.085.123.079-.363-.154.08.164-.151.087-.226-.075.281.279-.218.043l.062.04c.432.278.036.07.033.09-.008.053-.111.048-.12.1-.007.058-.044.1-.088.137-.04.031.046.137-.051.137-.045 0-.013.045-.072.038-.108-.012-.186-.001-.054.126.073.07.113.13-.087.055-.224-.084.192.215-.155.063-.014-.006.117.075.117.076.001.062.074.166-.035.163-.102-.003.296.287-.19.06-.017-.007.1.064.107.072.153.147-.25-.029.052.206l-.063-.034c-.458-.213.437.368-.334-.028-.02-.011.08.052.11.073.585.4-.503-.176.203.294.022.014-.073-.038-.103-.052-.538-.258-.287-.05-.181.063.114.124-.627-.252.03.193.222.152-.14-.025-.121.008.048.086.148.206-.072.133-.22-.071.398.349-.245.027-.019-.01.104.065.118.078.285.223-.407-.124.129.248.025.018-.186-.101-.19-.098a.335.335 0 00-.093.119c-.002.001.135.085.122.079-.362-.154.08.165-.15.087-.227-.074.28.279-.219.043l.062.041c.433.277.037.07.034.09-.008.052-.112.048-.12.1-.008.057-.044.1-.089.136-.04.032.046.138-.05.138-.045 0-.013.044-.072.038-.108-.013-.186-.002-.054.125.082.079.157.142.01.074-.028-.008-.064-.02-.093-.025-.124-.022.192.215-.154.063-.014-.006.116.075.116.076.002.062.075.167-.035.163-.102-.003.296.287-.19.06-.017-.008.1.064.107.072.153.147-.25-.029.053.206l-.064-.034c-.458-.214.438.368-.334-.028-.02-.011.08.052.11.073.585.4-.503-.176.204.294.022.014-.074-.038-.104-.052-.538-.258-.286-.05-.181.063.114.124-.627-.252.03.193.223.152-.14-.025-.12.008.047.086.147.206-.072.133-.221-.071.397.348-.245.027-.02-.01.103.065.117.078.285.223-.407-.124.13.248.025.018-.187-.101-.19-.098a.334.334 0 00-.094.119c-.002.001.135.085.123.079-.363-.154.08.165-.152.087-.225-.074.282.279-.217.043l.062.04c.432.278.036.07.033.091-.008.052-.111.048-.12.1-.007.057-.044.1-.088.136-.04.032.046.138-.051.138-.045 0-.013.044-.072.038-.108-.013-.186-.002-.054.125.073.071.113.13-.087.055-.225-.084.192.215-.155.063-.014-.006.116.075.116.076.002.062.075.167-.035.164-.101-.004.296.286-.189.06-.017-.008.099.063.107.071.152.147-.25-.029.052.206l-.063-.034c-.458-.213.437.368-.334-.028-.02-.011.08.052.11.073.585.4-.503-.176.203.294.022.014-.073-.038-.103-.052-.538-.258-.287-.05-.182.063.115.124-.626-.251.03.194.223.151-.14-.026-.12.008.047.085.148.205-.072.132-.221-.07.398.349-.245.027-.019-.01.104.065.118.078.285.223-.407-.124.129.248.025.018-.186-.1-.19-.098a.335.335 0 00-.093.119c-.002.002.135.085.122.08-.362-.154.08.164-.151.086-.226-.074.282.279-.218.043l.062.041c.433.277.037.07.034.09-.008.053-.112.048-.12.1-.008.057-.044.1-.089.136-.04.032.046.138-.05.138-.045 0-.013.044-.072.038-.108-.013-.224-.029-.092.098l-1.728-1.01c.124.022-.15-.195.196-.044.014.006-.116-.075-.116-.076-.002-.062-.075-.166.035-.163.102.003-.296-.287.19-.06.017.008-.1-.064-.107-.072-.153-.147.25.029-.053-.206l.064.034c.458.214-.438-.368.334.028.02.011-.08-.052-.11-.072-.585-.401.503.175-.204-.295-.022-.014.073.038.104.052.537.258.286.05.181-.063-.114-.123.627.252-.03-.193-.223-.152.14.025.12-.008-.047-.086-.147-.206.072-.133.221.071-.397-.348.245-.027.02.01-.103-.065-.118-.078-.284-.223.408.124-.128-.248-.026-.018.186.101.189.098a.334.334 0 00.094-.119c.001-.001-.136-.085-.123-.079.363.154-.08-.165.151-.087.226.075-.281-.279.218-.043l-.062-.04c-.432-.278-.036-.07-.033-.091.008-.052.111-.048.12-.1.007-.057.044-.1.087-.136.04-.032-.047-.138.05-.138.045 0 .013-.044.072-.038.108.013.186.002.054-.125-.073-.071-.113-.13.088-.055.224.084-.193-.215.154-.063.014.006-.116-.075-.116-.076-.002-.062-.075-.167.035-.163.102.003-.296-.287.189-.06.017.007-.099-.064-.107-.072-.152-.147.25.029-.052-.206l.064.034c.458.213-.438-.368.334.028.02.011-.08-.052-.11-.073-.585-.4.502.176-.204-.294-.022-.014.073.038.104.052.537.258.286.05.181-.063-.115-.124.627.251-.03-.194-.223-.151.14.026.12-.007-.047-.086-.147-.206.072-.133.221.07-.398-.349.245-.027.02.01-.103-.065-.118-.078-.284-.223.407.124-.128-.248-.026-.018.186.1.189.098a.338.338 0 00.094-.119c.001-.002-.136-.085-.123-.08.363.155-.08-.164.151-.086.226.074-.281-.279.218-.043l-.062-.041c-.432-.277-.036-.07-.033-.09.008-.053.111-.048.119-.1a.22.22 0 01.087-.136c.04-.032-.046-.138.051-.138.045 0 .013-.044.072-.038.108.013.186.002.054-.125-.083-.08-.157-.142-.011-.074.028.008.065.02.094.025.124.022-.193-.215.154-.063.014.006-.116-.075-.116-.076-.002-.062-.075-.167.035-.163.102.003-.296-.287.19-.06.017.007-.1-.064-.107-.072-.153-.147.25.029-.053-.206l.064.034c.458.213-.438-.368.334.028.02.011-.08-.052-.11-.073-.585-.4.503.176-.204-.294-.022-.014.073.038.104.052.537.258.286.05.181-.063-.114-.124.627.252-.03-.193-.223-.152.14.025.12-.008-.047-.086-.147-.206.072-.133.221.071-.397-.349.245-.027.02.01-.103-.065-.117-.078-.285-.223.407.124-.13-.248-.025-.018.187.101.19.098a.334.334 0 00.094-.119c.001-.002-.135-.085-.123-.079.363.154-.08-.165.151-.087.226.074-.281-.279.218-.043l-.062-.041c-.432-.277-.036-.07-.033-.09.008-.053.111-.048.12-.1.007-.057.042-.1.087-.136.04-.032-.046-.138.05-.138.045 0 .013-.044.072-.038.108.013.186.002.054-.125-.073-.071-.113-.13.087-.055.225.084-.192-.216.155-.064.014.007-.116-.074-.116-.076-.002-.061-.075-.166.035-.163.102.004-.296-.286.189-.06.017.008-.099-.063-.107-.071-.152-.147.25.028-.052-.206-.006-.005.05.027.064.033.457.214-.438-.367.334.029.02.011-.08-.052-.11-.073-.585-.4.502.176-.204-.294-.022-.015.073.038.104.052.537.258.286.05.18-.063-.114-.124.628.251-.03-.194-.222-.152.14.026.123-.008-.047-.085-.148-.205.072-.133.22.072-.398-.348.245-.026.019.01-.104-.065-.118-.078-.285-.223.407.123-.129-.248-.025-.018.186.1.19.098a.335.335 0 00.093-.12c.002 0-.135-.085-.122-.078.362.153-.08-.165.15-.087.227.074-.28-.279.219-.043l-.062-.041c-.433-.277-.037-.07-.034-.09.008-.053.112-.048.12-.1a.22.22 0 01.087-.136c.014-.012.013-.032.008-.053l-.23-.12a1.67 1.67 0 01-.42-.353.923.923 0 01-.187-.548c0-.016-.055.002-.089.007-.29.036-.412-.083-.453-.241-.043-.16-.028-.342-.103-.469-.36-.631-.474-1.361-.543-2.06-.04-.427-.028-.694-.03-1.019.002-.315.01-.63.02-.943.017-.558-.11-1.112-.028-1.672.038-.258-.01-.522.042-.8.1-.519.16-1.071-.018-1.571a1.298 1.298 0 01-.087-.5c.008-.202.04-.425.171-.651.137-.254.109-.539.105-.838.004-.149.012-.299.051-.443a.874.874 0 01.248-.393c.021-.019-.114-.096-.106-.128.13-.524.276-1.07.544-1.547h-.135c.117-.193-.276-.417.1-.619.016-.007-.139-.02-.14-.031-.034-.24-.15-.478-.053-.717.09-.222-.4-.445.132-.665.021-.008-.117-.023-.127-.033-.207-.228.23-.46-.15-.686-.007-.005.058-.01.072-.016.503-.212-.564-.438.302-.649.024-.006-.095-.02-.132-.033-.709-.223.524-.462-.326-.686-.025-.006.083-.022.115-.033.595-.217.272-.457.124-.662-.162-.221.668-.446-.124-.687-.269-.08.133-.221.1-.31-.086-.228-.232-.462-.006-.685.226-.224-.52-.45.197-.667.02-.006-.123-.02-.142-.032-.36-.221.414-.452-.237-.672-.03-.01.212-.032.213-.048.021-.226.024-.454.021-.68 0-.012-.16-.023-.146-.032.391-.228-.153-.46.086-.687.232-.222-.385-.447.165-.665.01-.003-.046-.011-.075-.016-.513-.093-.066-.187-.074-.279-.02-.221.071-.443.052-.663a4.353 4.353 0 01.006-.735c.018-.216-.11-.432-.027-.65.038-.1-.01-.204.043-.312.1-.201.161-.416-.017-.611-.099-.11-.162-.25.046-.415.235-.185-.275-.399.1-.6.016-.008-.138-.02-.14-.032-.033-.239-.15-.478-.052-.717.09-.221-.401-.445.132-.665.02-.007-.118-.02-.127-.033-.207-.228.229-.459-.15-.685-.008-.005.057-.011.072-.016.502-.212-.565-.439.302-.65.024-.005-.096-.02-.132-.032-.71-.224.523-.463-.326-.686-.026-.006.082-.022.114-.033.595-.217.272-.458.124-.662-.162-.222.668-.446-.124-.687-.269-.08.134-.221.1-.31-.085-.228-.232-.462-.006-.686.226-.223-.52-.45.197-.666.021-.007-.122-.02-.141-.032-.36-.221.413-.453-.237-.673-.03-.01.211-.031.213-.047.02-.226.024-.454.02-.68 0-.012-.16-.023-.146-.032.392-.228-.152-.46.086-.688.232-.221-.385-.446.165-.665.01-.003-.046-.01-.074-.015-.514-.094-.067-.187-.075-.279-.02-.222.072-.443.052-.663a4.362 4.362 0 01.007-.735c.017-.217-.11-.432-.027-.65.038-.1-.011-.205.043-.312.1-.201.16-.417-.018-.611-.111-.122-.208-.2-.047-.263.028-.032.065-.07.093-.117.118-.193-.275-.4.1-.6.017-.008-.138-.02-.14-.032-.033-.239-.149-.478-.052-.717.09-.222-.4-.445.132-.665.02-.008-.118-.022-.127-.033-.207-.228.229-.46-.15-.686-.008-.005.058-.01.072-.016.503-.212-.565-.438.302-.649.024-.006-.095-.02-.132-.033-.71-.223.523-.462-.326-.685-.025-.007.083-.023.115-.034.594-.216.272-.457.124-.661-.163-.222.668-.447-.124-.687-.27-.081.133-.222.1-.31-.043-.115-.1-.23-.12-.346a.387.387 0 01.007-.17.318.318 0 01.099-.143c.108-.098-.028-.189-.1-.274-.036-.043-.055-.087-.024-.135.026-.047.106-.101.278-.17.02-.009-.124-.002-.145-.009-.192-.068-.103-.17-.052-.278.057-.106.055-.21-.284-.223-.031 0 .2-.075.198-.087a4.162 4.162 0 00-.053-.282c-.024-.092-.062-.18-.095-.271-.003-.008-.158.036-.146.025.149-.155.084-.239-.007-.302-.095-.065-.205-.114-.138-.252.06-.133-.056-.182-.158-.23-.098-.051-.157-.115.027-.341.007-.008-.043.016-.07.027-.475.21-.128-.1-.189-.157a.927.927 0 01-.146-.237c-.043-.084-.08-.176-.155-.235-.16-.134-.278-.305-.426-.451-.127-.136-.335-.168-.436-.334-.044-.08-.143-.093-.186-.192-.08-.182-.22-.324-.448-.26-.126.032-.26.05-.293-.2-.02-.14-.128-.116-.227-.108-.1.013-.194.02-.208-.187-.002-.017-.066.122-.075.12-.102-.017-.207-.022-.309-.031a.438.438 0 01-.284-.095c-.081-.063-.193 0-.291.033-.1.03-.183.008-.239-.269-.005-.02-.035.113-.046.122-.108.089-.192.011-.288-.024-.092-.04-.192-.058-.293.125-.003.008-.006-.057-.01-.07-.083-.257-.184-.123-.271-.018-.09.1-.169.155-.29-.271-.006-.024-.01.095-.019.133-.035.177-.074.236-.122.234-.046.003-.1-.049-.156-.096-.108-.097-.23-.176-.245.253 0 .025-.032-.078-.047-.108-.145-.283-.26-.318-.349-.27-.09.049-.152.186-.215.277-.068.095-.201-.026-.326-.075-.12-.049-.229-.02-.171.379.041.266-.217-.046-.274.015-.068.08-.127.173-.203.23-.075.06-.161.095-.3.046-.14-.048-.154.11-.192.215-.035.113-.097.17-.388-.06-.017-.014.059.108.064.128.036.201-.107.165-.22.182-.113.013-.21.06-.054.357.015.026-.164-.137-.175-.129-.04.029-.078.057-.116.087l-.102.102c-.066.07-.13.139-.195.212-.007.006.11.117.094.114-.218-.06-.24.054-.255.161-.013.113-.006.23-.162.238-.148.012-.114.149-.114.255 0 .109-.032.188-.322.139-.01-.002.037.03.059.047.421.31-.006.17-.035.246a.911.911 0 01-.146.239c-.048.08-.097.161-.12.253-.022.101-.063.196-.09.295a3.32 3.32 0 01-.096.294c-.073.173.037.375-.076.543-.025.043-.03.087-.038.135a.486.486 0 01.154.07c.083.06.2.02.3.03.1.006.193.048.21.246.002.015.048-.065.06-.066.236-.043.287.296.57.166.007-.003-.01.038-.01.048 0 .188.125.148.235.142.11-.008.21.013.128.3-.004.017.05-.044.07-.06.204-.147.24-.018.276.097.038.114.073.22.315.048.014-.011-.018.055-.024.077-.093.42.181.368.377.398.211.036-.023.563.473.304.17-.086.07.188.137.22.172.084.376.155.393.386.008.233.507.033.261.481-.008.013.072-.041.087-.043.15-.01.158.103.182.2.022.098.062.179.288.114.02-.006-.094.106-.088.117.105.149.208.296.32.439.005.006.097-.048.094-.037-.109.3.299.24.267.485-.032.229.413.163.192.506-.003.006.03-.008.05-.014.332-.113.117.104.157.166.098.149.135.33.227.483.107.166.186.347.258.53.062.163.208.292.224.477.005.085.065.152.064.247-.002.176.008.353.172.468.087.067.16.171.062.338-.116.182.257.283.043.498-.01.01.093.002.095.01.027.098.07.193.099.291.025.1.04.204.017.309-.02.096.046.19.081.288.016.049.026.096.003.149-.022.054-.07.106-.162.152-.014.006.078.023.084.036.067.114.008.22-.028.325-.038.104-.075.202.025.34.003.005-.04 0-.049.003-.19.054-.129.171-.1.293.024.117.01.236-.288.207-.018-.001.05.043.067.064.167.191.04.262-.081.315-.124.057-.221.107-.053.351.01.016-.057-.014-.081-.017-.221-.029-.315.022-.369.109-.05.089-.059.215-.09.317-.034.114-.188.106-.304.126-.117.027-.196.076-.13.356.04.197-.228.046-.282.108-.148.16-.323.352-.58.291-.125-.031-.195.08-.285.157-.088.073-.19.103-.333-.11-.008-.012 0 .083-.008.099-.071.136-.186.087-.29.059-.102-.03-.196-.038-.27.186-.006.021-.04-.136-.054-.136l-.563.02c-.008 0-.015.108-.022.099-.19-.255-.367.108-.544-.052-.17-.155-.342.253-.506-.113-.003-.006-.008.03-.012.05-.073.34-.142.042-.212.047-.167.013-.335-.05-.502-.038a3.83 3.83 0 01-.557-.008c-.164-.013-.328.071-.493.014-.076-.025-.154.007-.235-.03-.153-.066-.315-.109-.463.008-.092.073-.153.138-.199.03-.024-.019-.052-.044-.089-.063-.146-.08-.304.18-.453-.07-.007-.01-.016.092-.026.092-.18.02-.362.097-.544.032-.167-.06-.338.264-.502-.09-.007-.013-.016.077-.025.085-.174.136-.347-.154-.52.096-.004.005-.009-.038-.013-.047-.16-.336-.334.372-.49-.203-.005-.015-.016.064-.026.087-.175.469-.35-.35-.536.21-.006.017-.015-.056-.025-.077-.16-.399-.355-.193-.53-.106-.095.048-.178-.07-.265-.139-.088-.068-.177-.084-.317.161-.097.168-.176-.117-.253-.109-.202.02-.439.064-.586-.14-.072-.099-.198-.058-.314-.051-.114.006-.22-.041-.203-.295.001-.016-.053.065-.069.072-.146.056-.211-.056-.276-.15-.066-.097-.137-.162-.352-.055-.02.01.06-.13.05-.14a5.448 5.448 0 01-.238-.216c-.079-.071-.152-.15-.225-.228-.007-.006-.094.056-.093.043.024-.168-.057-.235-.155-.298-.091-.068-.202-.131-.188-.267.014-.132-.096-.187-.173-.271-.082-.08-.137-.179.001-.34.005-.005-.032.001-.05.003-.357.031-.103-.157-.13-.235-.063-.205-.038-.422-.073-.623zm31.054 40.359l-.104.016c.196.09.172.049.104-.016zm-.164.025l-.07.01c.08.03.162.06.07-.01zm-9.687-9.166c.003.07.01.14.014.208.043.025.099.063.17.117.018.012-.08-.094-.089-.11-.176-.327.438.154.06-.386-.017-.025.157.143.163.138a1.31 1.31 0 00.242-.203c.003-.003-.1-.125-.088-.117.337.214.056-.256.296-.147.23.11-.092-.424.342-.075a.395.395 0 00-.043-.061c-.299-.418.024-.106.051-.14.065-.08.202-.077.267-.158a.813.813 0 01.272-.2c.09-.047.094-.208.224-.202.06.003.069-.065.14-.052.134.024.247.016.217-.182-.02-.113.003-.198.184-.07.204.146-.002-.328.286-.07.013.012-.068-.12-.065-.123.073-.087.104-.247.248-.226.134.02-.041-.455.328-.054.014.016-.053-.105-.054-.116-.016-.23.3.09.199-.288-.002-.008.033.046.043.057.337.385-.104-.589.41.111.014.019-.038-.087-.053-.122-.254-.668.438.35.118-.442-.01-.023.048.067.068.094.373.476.315.145.333-.029.02-.19.483.504.229-.253-.084-.258.15.073.173.025.057-.122.092-.307.283-.145.188.164-.019-.556.364.058.012.02-.04-.115-.043-.134-.046-.37.354.297.194-.34-.006-.03.094.188.102.186.105-.022.202-.06.298-.104.005-.002-.05-.152-.04-.141.24.326.146-.214.33-.027.176.183.066-.43.346.052.005.008-.011-.044-.018-.073-.128-.497.06-.092.097-.114.091-.052.217-.001.306-.053a.895.895 0 01.327-.088c.1-.01.163-.16.282-.107.054.023.087-.037.15.001.115.072.223.102.266-.093.027-.119.04-.222.107-.073.022.025.048.057.075.08.113.094.117-.308.292.037.008.014-.02-.136-.015-.14.1-.054.184-.192.313-.123.116.069.125-.44.326.067.008.019-.011-.116-.008-.128.068-.22.248.191.29-.198 0-.008.014.055.018.068.177.48.117-.587.344.25.006.024-.005-.095-.005-.133.003-.714.282.483.27-.37 0-.026.021.079.03.11.176.575.242.247.32.092.088-.17.27.643.306-.153.014-.271.114.123.152.087.097-.095.198-.25.317-.035.114.218.181-.526.318.184.003.02.003-.122.008-.141.089-.361.223.405.304-.247.003-.03.02.209.028.21.105.018.21.018.315.011.005 0 .01-.16.013-.145.108.384.213-.157.32.084.098.232.216-.38.303.169.002.01.007-.046.01-.075.059-.51.089-.063.13-.07.104-.013.202.082.304.066a.817.817 0 01.339.028c.098.026.208-.093.302-.003.043.041.095-.002.138.055.083.11.174.181.283.013.06-.092.136-.15.185.068.054.244.22-.247.26.136 0 .016.028-.134.034-.136.113-.017.242-.117.336-.001.084.104.273-.36.28.18 0 .02.03-.114.038-.123.143-.186.164.264.342-.086.003-.006-.007.057-.007.071-.006.51.32-.51.23.355-.002.024.031-.09.044-.125.26-.665.089.556.383-.244.01-.024-.01.083-.011.114-.043.597.138.312.269.195.143-.128.022.695.34-.038.11-.247.062.157.111.138.125-.053.274-.16.307.084.03.243.36-.43.233.281-.004.02.047-.112.058-.128.213-.306.064.453.374-.125.014-.027-.055.203-.05.207.093.056.19.094.29.127.005.002.067-.146.065-.131-.038.399.255-.065.268.194.008.252.339-.278.222.266-.001.01.023-.04.035-.064.239-.455.107-.028.148-.018.046.01.083.041.118.073a.912.912 0 01.447-.322c.028-.009-.072-.11-.064-.145.078-.333.306-.581.528-.823.108-.124.216-.246.307-.382.088-.14.156-.291.193-.477.003-.014.062.015.084.012a.64.64 0 00.412-.249c.095-.122.157-.279.24-.418.081-.14.168-.28.305-.36.137-.081.318-.11.568-.04.029.008-.014-.11-.011-.159.013-.234.108-.383.243-.478.137-.093.309-.142.476-.188.172-.043.337-.087.466-.187.132-.096.229-.244.267-.51.005-.031.094.04.14.053a1.3 1.3 0 001.008-.11c.28-.145.53-.37.783-.529a.82.82 0 01.462-.118c.166-.002.336.012.503.022.334.008.64-.038.922-.481.097-.148.264-.136.433-.094.168.045.339.127.464.1.161-.036.325-.063.489-.089l.248-.036c.074-.01.15-.016.224-.02.297-.02.593 0 .883.112.578.225 1.159-.518 1.722.196.017.02.052-.122.083-.14a.579.579 0 01.108-.055l.054-.018.04-.016a.37.37 0 01.149-.02c.103.015.199.027.305.048a.46.46 0 00.293-.044c.08-.067.146-.16.145-.35-.002-.033.141.161.168.149.178-.083.34-.21.501-.352.153-.153.304-.318.434-.517.013-.02-.105-.129-.084-.135a.476.476 0 00.197-.101c-.383-.152.021-.1.026-.15.012-.126.133-.222.146-.349.014-.14.059-.27.115-.4.049-.114-.043-.265.07-.363.052-.044.019-.114.087-.16.126-.084.26-.163.118-.318l.165.046.022-.263c.027-.29.093-.567.436-.76.011-.006-.036-.04-.06-.06-.426-.374.071-.478.129-.706.138-.55.381-1.067.513-1.615.145-.606.315-1.205.485-1.8.148-.527.151-1.083.342-1.596.09-.237.09-.497.19-.75.189-.473.327-.996.205-1.493a1.486 1.486 0 01-.045-.464 1.213 1.213 0 01.177-.528c.136-.21.052-.445.003-.676-.07-.231-.108-.458.041-.711.013-.022-.143-.032-.148-.055-.108-.54-.345-1.034-.43-1.574a1.049 1.049 0 00-.149-.348c-.071-.108-.157-.208-.227-.314-.067-.107-.138-.21-.166-.337a.921.921 0 01.024-.443c.008-.027-.127.014-.15-.004a1.213 1.213 0 01-.254-.304c-.066-.112-.114-.237-.18-.352-.065-.116-.128-.235-.223-.328a.801.801 0 00-.366-.21c-.011-.002.028-.053.03-.072a.414.414 0 00-.146-.37c-.096-.084-.233-.132-.353-.189-.121-.058-.237-.115-.309-.221-.072-.105-.095-.263-.05-.504.004-.027-.101.04-.145.05-.425.1-.548-.153-.7-.406-.078-.122-.161-.242-.28-.306-.121-.061-.282-.061-.5.053-.027.014 0-.097-.006-.14-.067-.378-.277-.58-.531-.67-.251-.104-.546-.096-.79-.121a.639.639 0 01-.358-.162c-.108-.087-.217-.183-.331-.269a.657.657 0 00-.385-.149c-.143-.003-.304.053-.485.216-.123.11-.236.047-.352-.04-.114-.084-.23-.198-.335-.2-.542.002-1.075.107-1.59-.121-.263-.106-.525.025-.773.118a.872.872 0 01-.379.058c-.13-.016-.267-.094-.421-.246-.02-.017-.028.128-.051.152a.59.59 0 01-.366.166c-.129.018-.266.007-.402.003-.27.005-.544.046-.676.439-.011.035-.137-.176-.174-.166a7.878 7.878 0 00-1.455.628c-.02.013.032.166.008.163a.675.675 0 00-.417.076 1.58 1.58 0 00-.313.252c-.092.101-.181.204-.281.29a.827.827 0 01-.35.194.617.617 0 00-.326.212 2.44 2.44 0 00-.232.32c-.153.216-.309.407-.69.409-.012 0 .018.049.031.077.244.504-.235.364-.36.545-.301.413-.669.788-.901 1.25a16.841 16.841 0 00-.703 1.555c-.095.234-.133.486-.184.732a4.53 4.53 0 01-.169.736c-.084.221-.059.468-.145.71-.065.232-.133.468-.138.726a2.508 2.508 0 00-.002.19l.005.095.002.066.003.05c.011.129.036.259.076.384.099.313.19.514.024.67-.032.08-.072.177-.103.294-.132.489.246 1.021-.136 1.524-.015.023.137.056.139.084.025.608.14 1.213.054 1.811-.041.279.068.553.124.824.059.269.062.531-.178.813-.018.022.12.04.133.067.263.516-.082 1.16.373 1.692.01.011-.053.035-.066.05-.211.308-.033.572.097.848.13.273.215.563-.189.885-.022.017.1.046.14.074.38.266.274.602.174.928-.1.332-.195.638.21 1.003.023.024-.088.064-.123.099-.326.316-.436.64-.552 1.044-.072.208-.129.434-.294.687a1.66 1.66 0 01-.741.629 1.123 1.123 0 01-.644.088c-.198-.026-.376-.088-.546-.137-.343-.098-.654-.141-1.057.196-.282.228-.605-.244-.85-.267-.321-.032-.65-.06-.968-.137a2.52 2.52 0 01-.461-.158 1.58 1.58 0 01-.109-.054 1.717 1.717 0 01-.269-.188c-.227-.198-.535-.162-.818-.179-.285-.017-.544-.085-.708-.502-.01-.025-.081.103-.115.114-.615.203-.98-.671-1.657-.136-.03.025-.035-.22-.075-.23-.543-.118-1.06-.191-1.556-.186-.024 0-.05.16-.067.145-.512-.384-1.01.231-1.546.097-.237-.068-.434.093-.62.23-.191.137-.379.25-.73.134-.013-.003.001.052.006.082.04.273-.033.34-.146.355-.111.017-.261-.016-.344.049-.402.306-.88.581-1.242.945-.4.407-.78.815-1.108 1.255-.294.395-.407.868-.66 1.276-.118.192-.145.423-.26.638-.216.404-.362.898-.214 1.357.087.26.137.546-.069.993-.235.476.276 1.026-.1 1.542-.019.036.135.07.137.096zM11.99 18.905c2.272 0 6.568-.256 6.568-1.223 0-.968-4.297-1.224-6.568-1.224s-6.568.256-6.568 1.224c-.002.967 4.295 1.224 6.568 1.224z"/></g><defs><clipPath id="clip0_1:533"><path fill="#fff" d="M0 0h65v63H0z"/></clipPath></defs></svg>