<svg width="120" height="30" fill="none" xmlns="http://www.w3.org/2000/svg"><g clip-path="url(#clip0)" fill="#000"><path d="M17.41 24.49c-.103.574-.595.915-1.328.792-5.248-.872-10.213-1.905-15.406-3.06-.462-.103-.744-.391-.662-.756l.028-.122c.193-.852 1.589-.922 1.9-2.322L5.266 4.04c.311-1.4-.838-2.042-.645-2.894l.028-.121c.083-.365.437-.509.864-.413 2.69.602 3.783.88 6.485 1.413.43.085.695.359.623.726l-.024.122c-.167.858-1.374.957-1.656 2.364L8.09 19.488c-.202 1.01.096 2.09 1.216 2.307 1.37.266 1.801.389 3.174.638 3.474.582 3.322-4.3 4.853-4.047.182.03.252.048.435.078.256.05.473.306.386.845l-.743 5.18zm17.748 2.41c-.199.795-2.154.832-3.952.642-1.96-.207-2.807-.688-2.765-1.817-.924.805-2.425 1.354-4.57 1.07-3.476-.46-5.66-2.367-4.688-5.493.953-3.066 4.101-4.228 7.088-3.83 1.32.177 2.305.614 2.968 1.167l.025-.092c.622-3.643.843-5.22-.768-5.428-2.136-.277-2.46 3.925-5.245 3.52-1.315-.192-1.945-1.117-1.578-2.301.771-2.49 4.126-3.048 7.242-2.681 3.658.43 6.424 3.137 5.918 7.037a969.828 969.828 0 00-.7 5.54c-.264 2.2 1.239 1.81 1.025 2.665zm-6.767-3.416l.26-1.418c.282-1.857-.347-2.657-1.265-2.774-.95-.121-1.852.611-2.214 1.859-.627 2.162-.4 4.154.928 4.321 1.068.135 2.005-.952 2.291-1.988zm27.362 4.781l-.002.124c-.007.374-.348.587-.819.578a244.89 244.89 0 01-6.735-.211c-.505-.022-.798-.254-.781-.628.002-.05.004-.074.005-.124.041-.903 1.362-1.221 1.321-2.66-.04-2.236-.06-3.354-.096-5.591-.032-3.092-.592-4.269-2.04-4.341-1.414-.072-2.159 1.101-2.263 2.908l-.392 6.788c-.083 1.432 1.368 1.887 1.32 2.79l-.006.125c-.02.374-.334.576-.839.548a241.94 241.94 0 01-7.264-.492c-.504-.04-.788-.283-.758-.656l.01-.124c.075-.902 1.575-1.157 1.686-2.588l.476-6.126c.117-1.492-1.583-1.818-1.507-2.719l.008-.093c.03-.373.368-.532.836-.713a218.624 218.624 0 004.64-1.819c.823-.353 1.204.201 1.166.823l-.088 1.464c.959-1.442 2.616-2.17 4.705-2.096 3.599.128 5.928 3.193 5.952 6.691.12 2.162.183 3.242.31 5.404.073 1.438 1.17 1.833 1.155 2.738zm19.602-.241l-.007-.124c-.056-.903 1.257-1.362 1.162-2.793l-.393-5.913c-.094-1.432-1.417-1.785-1.464-2.532l-.007-.124c-.021-.343.26-.516.696-.763a220.675 220.675 0 004.667-2.655c.857-.508 1.44-.058 1.491.532l.955 11c.124 1.43 1.66 1.668 1.742 2.569l.011.124c.035.372-.28.621-.784.666a242.79 242.79 0 01-7.225.555c-.504.032-.82-.168-.844-.541zm-.69-19.333c-.113-1.774 1.229-3.2 3.367-3.363 2.107-.162 3.652 1.042 3.81 2.813.157 1.74-1.177 3.242-3.332 3.407-2.187.168-3.734-1.114-3.845-2.857zm30.213 15.735l.021.123c.064.369-.232.642-.698.72-2.664.453-3.998.664-6.67 1.055-.5.073-.832-.1-.886-.47l-.017-.123c-.129-.896 1.111-1.455.802-2.86-.458-2.19-.686-3.285-1.14-5.476-.61-3.031-1.38-4.082-2.818-3.883-1.404.195-1.918 1.486-1.683 3.28l.884 6.742c.187 1.423 1.699 1.598 1.82 2.495l.017.123c.05.371-.22.63-.722.696-2.89.386-4.336.56-7.233.875-.502.054-.827-.131-.867-.504l-.013-.123c-.095-.9 1.33-1.43 1.173-2.857l-.677-6.108c-.165-1.488-1.894-1.49-1.989-2.39a4.882 4.882 0 01-.01-.092c-.038-.372.263-.592.688-.858a221.747 221.747 0 004.22-2.654c.744-.5 1.222-.028 1.302.591l.186 1.455c.674-1.596 2.168-2.62 4.237-2.938 3.56-.548 6.43 2.02 7.109 5.458.524 2.102.787 3.152 1.317 5.251.338 1.398 1.494 1.58 1.647 2.472zm13.428-16.365l.029.11c.159.604-.983 1.403-.558 3.023l1.893 7.226c1.295 4.945-1.376 8.2-5.195 9.2-4.122 1.08-7.435.421-8.004-1.75-.252-.961.126-2.205 1.583-2.587 2.967-.777 3.779 3.444 6.046 2.909.969-.225 1.575-1.5.74-4.686l-.115-.44c-.586.564-1.408 1.014-2.369 1.266-3.297.864-7.102-.547-8.239-4.888-1.08-4.121 1.333-7.689 4.712-8.575 1.347-.352 2.574.128 3.474.538-.069-.599.292-1.406 1.118-1.505l3.921-.499c.481-.067.842.191.964.658zm-4.279 10.34l-1.41-5.384c-.461-1.759-1.922-3.079-2.939-2.813-1.072.281-1.314 1.372-.9 3.29.35 1.787 2.535 7.44 4.433 7.06.776-.175 1.111-1.026.816-2.152zm-40.122 9.597l.004.125c.015.374-.26.604-.698.621l-4.475.173c-.499.02-.825-.282-.843-.75l-.01-.283c-.907.913-2.233 1.467-3.764 1.526-3.787.147-7.492-2.405-7.69-7.537-.18-4.663 3.17-7.96 7.115-8.113 1.315-.05 2.39.222 3.258.752l-.161-4.16c-.057-1.474-1.723-1.596-1.758-2.503l-.004-.094c-.013-.344.254-.7.687-.843l4.826-1.66c.896-.315 1.375-.147 1.407.7l.75 19.402c.056 1.438 1.322 1.767 1.356 2.644zm-6.693-2.878l-.233-6.039c-.078-2.003-1.53-3.858-2.967-3.803-1.535.06-2.328 1.438-2.326 3.946.007 2.632 1.275 8.6 3.625 8.603 1.063-.01 1.967-1.015 1.901-2.707z"/></g><defs><clipPath id="clip0"><path fill="#fff" d="M0 0h120v30H0z"/></clipPath></defs></svg>