<svg width="89" height="80" fill="none" xmlns="http://www.w3.org/2000/svg"><g clip-path="url(#clip0_1:879)"><path d="M9.115 56.413l7.313 5.104 14.794 1.224 17.993-.585 5.909-3.143 1.17-7.502-7.079-3.51 4.082-33.453 1.259-6.36-.596-4.504-3.114-1.59-4.305-.596-12.255 3.113-9.87-1.788-11.13-.729-6.358 1.59-3.578 6.558 1.259 7.684 5.034 13.315h-3.51l-4.174 2.981-.53 7.353 3.976 9.936 3.71 4.902z" fill="#fff"/><path d="M54.671 19.082c.089-.123.089-.212.071-.3a.726.726 0 00-.177-.23c-.176-.14-.353-.281-.317-.44.105-.406.264-.706.088-1.111a.878.878 0 01-.053-.424c.017-.14.053-.282.088-.44.035-.142.053-.3.053-.442a.881.881 0 00-.176-.458c-.018-.018.07-.053.105-.07.46-.336.212-.724.089-1.165-.106-.37.812-.6.424-1.111-.248-.335.07-.53.141-.776.194-.724.406-1.465.406-2.24 0-.318.07-.583.124-.883.123-.758.159-1.57.017-2.346-.017-.158-.07-.3-.088-.458-.017-.159-.053-.3-.053-.476-.035-.812-.388-1.64-.9-2.382-.212-.3-.495-.564-.742-.864-.248-.318-.707-.67-1.202-.953-.494-.282-1.042-.458-1.43-.582a2.082 2.082 0 00-.318-.088c-.16-.053-.389-.088-.636-.141a9.515 9.515 0 00-1.784-.106c-1.272.053-2.437.3-2.614.318-.706.07-1.378.3-2.049.458-.335.089-.636.194-.971.247-.654.07-1.272.3-1.89.406-.336.053-.672.123-1.025.159-.318.017-.618.106-.936.176-.318.07-.636.088-.954-.018-.07-.017-.159.142-.247.16-.318.087-.654.035-.971.017-.16 0-.318 0-.495.018a1.361 1.361 0 00-.477.194c-.017 0-.035-.036-.053-.053-.212-.194-.406-.212-.6-.141-.195.052-.389.194-.583.3-.177.088-.354-.071-.548-.212-.194-.141-.406-.23-.618-.018-.053.053-.106.106-.159.106-.318 0-.618-.106-.936-.141-.318-.035-.618-.018-.936.194-.018.017-.053-.07-.088-.106-.407-.441-.778-.053-1.202.053-.388.106-.741-.459-1.236-.318-.671.194-1.395.124-2.049-.14-.441-.177-.812 0-1.219.087-.353.071-.67-.723-1.165-.352-.036.035-.071.035-.106.07-.195.23-.336.177-.495-.035-.353-.476-.777-.176-1.219-.035-.37.106-.653-.741-1.148-.37-.035.035-.07.052-.106.052-.653.124-1.236-.635-1.925-.07-.018.017-.07-.106-.124-.16-.3-.334-.67-.228-1.042-.14-.37.088-.724.159-1.042-.247-.088-.106-.335.176-.494.176-.69 0-1.378.124-2.05-.07-.476-.124-.83-.036-1.271.211-.177.106-.389-.053-.6-.158-.23-.106-.46-.194-.672.052-.053.053-.088.124-.141.124-.159.035-.336.035-.512.035-.177 0-.336 0-.512.036a1.568 1.568 0 00-.495.123c-.159.07-.318.159-.442.318-.017.035-.123-.071-.176-.089-.406-.14-1.396.318-2.261.918-.442.3-.848.635-1.201.882a2.39 2.39 0 01-.512.317c-.16.07-.3.123-.442.123-.159 0-.141.37-.247.512-.512.582-.848 1.288-1.343 1.834a1.382 1.382 0 00-.318.618c-.035.212-.035.44-.07.67-.018.194-.247.335-.424.512-.177.176-.318.388-.159.67.124.194.088.317.035.441-.07.123-.159.23-.194.353-.212.776-.23 1.587-.23 2.381 0 .3.053.6.053.917-.053.759.089 1.535.283 2.258.035.159.088.3.124.459.035.158.07.3.088.476.088.723.353 1.411.583 2.099.106.317.23.6.318.935.194.67.459 1.323.724 1.958.124.317.265.617.37.952.195.635 1.82 4.78 2.103 5.38.159.335.989 2.505 1.095 2.84.212.6.547 1.13.653 1.782a.626.626 0 00.071.158l2.031-.793c.07-.265-.018-.494-.3-.653-.3-.176-.46-.335-.283-.705.283-.565-.618-.67-.636-1.041 0-.441.036-.847-.282-1.2-.424-.494-.124-1.323-.848-1.693-.018-.018.035-.088.053-.123.23-.547-.194-.777-.53-1.094-.282-.265.353-.953-.247-1.182-.389-.159-.23-.476-.318-.723-.23-.706-.442-1.411-.813-2.046-.159-.265-.212-.512-.282-.794-.212-.688-.442-1.358-.742-1.993-.124-.265-.23-.477-.283-.776-.088-.688-.353-1.341-.53-2.011-.07-.282-.176-.53-.176-.83 0-.334-.07-.775-.124-1.216a8.08 8.08 0 01-.106-1.2c0-.07 0-.37.018-.776s.088-.935.177-1.446c.106-.512.23-1.023.388-1.394.07-.194.141-.353.194-.476.053-.124.089-.212.106-.23.3-.511.583-1.058.954-1.534.089-.124.177-.23.265-.335.053-.053.088-.106.141-.159.053-.053.106-.088.177-.141.124-.088.23-.176.336-.247.123-.088.212-.176.335-.265.23-.176.477-.352.724-.511.265-.159.53-.318.848-.423a3.98 3.98 0 00.407-.177c.123-.07.264-.141.406-.194.141-.053.282-.106.424-.141.141-.035.3-.035.459 0 .07.018.123-.159.212-.194.141-.07.3-.088.46-.106.158-.018.317-.018.476-.018.159 0 .318-.017.46-.052.158-.036.3-.106.44-.212.018 0 .036.035.054.053.441.37.742.035 1.148-.194.159-.088.353.07.547.194.195.123.389.23.6.017.054-.052.107-.105.142-.105.618.017 1.219.388 1.855-.018.018-.018.053.07.088.106.389.44.777.088 1.201-.018.389-.088.707.494 1.219.37a3.335 3.335 0 012.067.212c.441.177.812.018 1.236-.053.353-.07.671.724 1.166.37.035-.035.07-.035.106-.07.194-.23.335-.176.494.035.371.477.777.16 1.219.018.353-.123.689.741 1.183.353.036-.035.071-.053.106-.053.654-.141 1.254.582 1.926 0 .017-.018.088.106.123.159.318.317.671.194 1.042.106.354-.106.707-.177 1.042.211.089.106.318-.176.477-.194.672 0 1.36-.14 2.032.053.459.124.812.053 1.236-.176.353-.194.795.635 1.236.176.053-.053.106-.106.16-.123.317-.036.653.035.988.035.336 0 .654-.053.954-.3.035-.018.106.088.16.124.352.211 1.324-.053 2.278-.336.971-.282 1.89-.6 2.314-.317.123.07.265-.247.423-.3.654-.194 1.29-.494 1.961-.44.46.034.742-.23 1.113-.424.159-.088.37.053.565.158.212.106.406.16.565-.088.248-.335.46-.07.689-.035.654.07 1.29.07 1.89.23.106.035.23.052.336.087.105.036.23.071.318.142.247.158.476.335.724.494.106.088.247.176.353.264l.176.141c.054.053.107.088.142.124.159.14.318.3.388.546.177.512.407 1.041.513 1.659.017.14.053.282.07.405.018.141.036.283.018.424-.018.6-.018 1.234-.088 1.87-.036.317-.053.617-.142.952-.07.317-.335 1.552-.6 2.787a22.355 22.355 0 00-.318 1.834c-.035.265-.053.512-.07.706-.018.194-.018.353-.018.44 0 .195-.053.918-.018 1.659.035.74.159 1.5.212 1.693.123.618.406 1.182.636 1.782l1.943-.988c-.053-.07-.053-.159-.16-.194-.158-.053-.264-.123-.3-.212a.418.418 0 01.053-.423z" fill="#043C3A"/><path d="M62.024 58.317l3.6-2.4 4.396-1.059h10.593l6.076 2.364.296 2.236-7.723 2.659-12.997-.675-4.241-3.125z" fill="#fff"/><path d="M61.486 59.35c-.07.107-.07.195-.018.265a.389.389 0 00.248.142c.194.07.424.088.441.194.07.282.142.546.495.617.247.035.353.212.512.353a.598.598 0 00.654.141c.017 0 0 .053 0 .088.035.406.424.282.741.23.142-.018.177.14.248.282.07.14.159.246.37.123.283-.176.336.07.495.123.424.16.866.318 1.325.336.194 0 .335.07.512.123a5.49 5.49 0 001.307.23c.177 0 .336 0 .512.052.407.16.866.142 1.307.177.177.017.354-.018.548.053.406.14 1.166.088 1.59.123.088 0 .794.035 1.5.035.708 0 1.414-.017 1.502 0 .424.053.848-.017 1.254-.035.212-.018.407-.053.618-.035.407.053.813-.053 1.22-.088.211-.018.423-.053.653-.07.194 0 .388-.071.583-.107.194-.053.388-.07.618 0 .053.018.088-.106.141-.123.195-.07.406-.053.618-.053.212 0 .424-.035.566-.23l.035.036c.353.264.512-.035.706-.247.16-.177.654.406.778 0 .017-.035.017-.106.053-.106.37-.088.9.053 1.095-.423 0-.018.07.035.088.053.424.211.495-.16.653-.353.089-.088.23-.07.407-.053.176.018.353 0 .441-.123.248-.371.636-.6 1.13-.812.336-.159.354-.459.372-.74.017-.124.212-.195.388-.3.16-.124.3-.283.106-.477-.035-.035-.035-.053-.07-.088-.248-.124-.23-.212-.053-.37a.367.367 0 00.123-.265.251.251 0 00-.106-.212.537.537 0 00-.23-.159 1.837 1.837 0 00-.264-.123c-.142-.053-.071-.23-.071-.388 0-.088 0-.159-.053-.23-.053-.052-.124-.088-.265-.088h-.106c-.23-.07-.318-.264-.477-.423a.542.542 0 00-.265-.176c-.106-.036-.247-.036-.424.035-.017 0 0-.088 0-.141-.035-.3-.318-.3-.583-.3-.264 0-.494 0-.547-.353-.018-.088-.265.088-.353.053-.407-.106-.848-.123-1.184-.37-.23-.177-.459-.159-.777-.053-.247.088-.282-.618-.653-.335-.036.035-.089.07-.124.07-.389-.053-.707-.406-1.166-.106-.017.018-.035-.088-.053-.123-.159-.23-.76-.194-1.36-.177-.6.036-1.183.053-1.36-.264-.053-.088-.212.141-.3.123-.424 0-.848.07-1.236-.088-.283-.123-.495.035-.76.141-.212.088-.46-.547-.724-.176-.177.247-.3.035-.46 0-.441-.053-.9 0-1.36.017-.176 0-.335.053-.512.036-.441-.053-.883 0-1.324.07-.195.036-.354.07-.548.053-.442-.035-.865.07-1.29.141-.194.036-.37.071-.582.089-.424.017-.83.123-1.254.211-.212.053-.389.106-.618.124-.212.017-.99.194-1.75.423-.776.23-1.518.582-1.695.688-.106.07-.494.247-.865.494a4.19 4.19 0 00-.512.388c-.142.123-.248.247-.3.282-.089.088-.142.177-.213.265-.053.106-.123.194-.159.317-.035.106-.106.212-.14.335-.019.053-.036.124-.072.177a2.904 2.904 0 00-.053.194.194.194 0 000 .141h2.173c.088-.018.124-.035.124-.053 0-.018-.053-.035-.142-.088-.194-.088-.247-.212.071-.159.124.018.159.018.177-.018.017-.017-.018-.07-.053-.123-.053-.106-.142-.247-.018-.265.053 0 .124-.017.177-.017.053 0 .123 0 .159-.018a.268.268 0 00.212-.176c.017-.07.088-.106.159-.141.07-.036.158-.036.247-.053.159-.036.318-.089.335-.335 0-.018.053.035.089.053.194.105.3.088.37.017.071-.07.124-.194.195-.317.053-.089.23 0 .37.07.142.07.283.106.319-.106.035-.282.265-.105.406-.14.406-.071.812-.124 1.183-.283.16-.07.3-.07.477-.07a6.807 6.807 0 001.201-.195c.16-.052.3-.105.477-.088.424.036.83-.053 1.237-.123.176-.018.318-.07.512-.053.406.07 1.095-.07 1.501-.07.088 0 .76-.036 1.413-.036.671-.018 1.325 0 1.43.018.39.07.796.035 1.184.053.195 0 .389 0 .583.035.371.106.76.053 1.148.106.195.017.406.017.6.07.177.053.372.036.566.036.194 0 .37.035.53.176.035.035.124-.07.177-.088.406-.036.67.352 1.13.123 0 0 0 .035.018.035.123.37.406.16.689.053.123-.035.176.106.23.247.07.124.14.23.335.106.035-.035.088-.07.123-.07.16.053.3.176.442.246.141.071.318.106.565 0 .018 0 0 .053 0 .089.018.194.106.229.23.229.123 0 .282-.07.406-.07.124 0 .159.105.194.229a.354.354 0 00.07.14c.036.036.072.072.16.072.406-.018.706.211.706.476 0 .176.23.14.389.229.088.035-.07.123-.177.159-.123.053-.194.07 0 .123.036 0 .036.018.071.035.23.053.194.106-.018.106-.106 0-.176 0-.212.018-.035.018-.035.035-.017.07 0 .018.017.036.035.053.018.018.018.036.035.071.018.053.053.106.071.159.018.088-.159.053-.318.035-.159-.018-.265-.035-.212.141.018.018.018.053.018.07-.018.071-.088.107-.16.124-.07.018-.158.035-.246.053-.16.035-.3.088-.283.388 0 .018-.088-.053-.141-.07-.3-.142-.389.017-.495.176-.124.141-.265.282-.583.053-.088-.053-.07.194-.159.23-.335.123-.653.334-1.06.264-.282-.035-.441.053-.618.282-.159.177-.565-.423-.724-.053-.018.035-.035.088-.053.106-.353.088-.777-.141-1.042.247-.018.018-.07-.07-.106-.106-.23-.176-.742.018-1.272.159-.53.141-1.077.247-1.307-.035-.053-.089-.159.158-.265.176-.194.018-.388.053-.583.088a1.317 1.317 0 01-.582-.053c-.265-.106-.46.07-.707.177-.212.088-.46-.53-.689-.16-.159.248-.282.019-.441 0-.424-.07-.848-.034-1.272-.034-.16 0-.318.017-.495-.018-.406-.106-.812-.106-1.236-.106-.177 0-.336 0-.512-.053-.389-.106-.795-.106-1.184-.158-.176-.018-.353-.036-.53-.071-.37-.106-.76-.141-1.13-.212-.194-.035-.37-.053-.547-.123-.177-.053-.866-.23-1.502-.459-.318-.106-.636-.23-.883-.317-.247-.106-.424-.177-.495-.212a2.637 2.637 0 01-.583-.353c-.052-.035-.105-.088-.14-.123-.054-.036-.071-.07-.107-.106-.035-.035-.053-.07-.07-.088-.018-.018-.036-.036-.036-.053-.07-.124-.176-.212-.106-.318h-2.172c.017.07 0 .159.088.23.124.088.23.158.247.246.089 0 .071.089-.035.23zm-7.636 2.012c.423-.3.776-.635 1.077-.952.141-.159.282-.317.388-.476.106-.159.212-.3.3-.424.16-.264.283-.458.336-.582.053-.14.23-.44.389-.846.176-.406.335-.9.477-1.394.282-1.005.406-1.993.441-2.258.124-.793.088-1.587.194-2.381l-2.172-.106c.018.141-.018.265.053.406.194.388.265.688-.07 1.04-.266.265-.213.547-.107.847.089.283.23.565.124.776-.265.53-.53.918-.548 1.517 0 .212-.07.388-.158.565a3.08 3.08 0 01-.319.511c-.123.16-.211.336-.3.494-.035.089-.07.177-.088.283-.035.088-.035.194-.053.317 0 .018-.088.018-.141.035-.336.053-.477.212-.619.388-.07.089-.123.212-.176.318-.07.106-.124.23-.212.353-.141.194-.424.176-.707.158-.282 0-.53 0-.689.318a.51.51 0 01-.441.3c-.159.017-.336 0-.512.017-.936.177-1.925.23-2.932.406-.407.07-.777.053-1.184.053-1.007 0-2.03.035-3.038.159-.406.053-.76.106-1.2.07-1.008-.07-2.032.036-3.039.088-.424.018-.812.089-1.271.053-.99-.088-2.685.071-3.674.071-.212 0-1.837.035-3.462.053-1.625.017-3.25.017-3.48 0-.954-.07-1.925-.018-2.879-.035-.46-.018-.918.017-1.395-.07-.901-.142-1.82-.142-2.703-.283-.459-.07-.936-.141-1.395-.282-.406-.124-.848-.194-1.254-.3-.106-.036-.212-.053-.318-.088-.106-.036-.212-.071-.3-.124a2.65 2.65 0 01-.566-.335c-.088-.07-.264.018-.37-.018a2.723 2.723 0 01-.619-.264 1.525 1.525 0 01-.282-.177l-.283-.176c-.37-.23-.76-.459-1.236-.53-.018 0-.018-.052-.018-.07-.265-.652-.83-.652-1.413-.829-.247-.07-.353-.353-.46-.635-.123-.282-.282-.529-.635-.564-.088 0-.177 0-.23-.053-.159-.141-.3-.3-.441-.477-.142-.176-.265-.335-.406-.511a3.751 3.751 0 00-.46-.459 1.87 1.87 0 00-.583-.335c-.035-.017 0-.106 0-.158-.017-.353-.194-.565-.406-.724-.212-.176-.494-.3-.706-.494-.407-.352-.283-1.093-.778-1.552-.688-.635-1.183-1.535-1.43-2.434-.07-.318-.212-.547-.371-.776-.16-.23-.336-.424-.512-.653-.142-.194-.106-.494-.089-.794.018-.3-.017-.6-.318-.811-.035-.035-.07-.088-.123-.106-.3-.123-.353-.335-.248-.635.23-.67-.264-1.058-.618-1.57-.282-.423.354-1.164-.212-1.658a.77.77 0 01-.106-.123c-.106-.194-.141-.424-.159-.635-.017-.212-.017-.441-.035-.653 0-.106-.018-.212-.035-.318-.018-.105-.036-.211-.07-.317a1.152 1.152 0 00-.142-.3 1.077 1.077 0 00-.212-.282c-.018-.018.088-.124.123-.194.124-.23.142-.459.124-.67-.018-.23-.088-.441-.159-.67-.053-.23-.106-.46-.088-.671.017-.106.035-.212.088-.318a.776.776 0 01.247-.3c.053-.052.018-.14-.017-.264-.018-.053-.053-.123-.07-.176-.019-.053-.019-.124-.019-.16.036-.193.071-.405.124-.599l.07-.3c.036-.088.071-.194.107-.282.035-.088.07-.194.123-.282.053-.088.106-.177.16-.247.105-.177.247-.3.406-.423.106-.089.212-.16.282-.247.088-.07.16-.177.23-.265.159-.159.265-.388.424-.617.123-.194.424-.194.689-.177.264 0 .53 0 .688-.282.036-.053.071-.141.142-.159.353-.123.76-.123 1.13-.123.371 0 .724-.018 1.13-.194.036-.018.089.123.142.158.176.16.547.248 1.024.371s1.06.3 1.66.53c.3.123.584.246.866.387a8.1 8.1 0 01.777.441c.477.318.813.618.901.9.053.159.46.088.654.194.194.123.388.247.6.37.194.124.389.247.583.388.389.265.724.582 1.007.935.194.247.388.423.618.565.106.07.23.14.353.194.106.07.23.14.354.229.194.141.264.44.353.723.07.3.194.547.547.617.248.053.371.177.424.336.07.158.088.335.177.476.017.035.053.088.07.123-.053 0-.088-.017-.14-.017a.625.625 0 00-.301.07c-.07.036-.141.07-.23.036-.212-.089-.406 0-.583.07-.07.018-.14.088-.23.07-.105-.034-.229 0-.352.054-.124.053-.23.123-.318.14-.018 0-.106.036-.212.089s-.248.106-.389.194c-.283.141-.53.318-.583.335-.194.035-.318.212-.459.318-.07.053-.106.14-.212.176-.194.053-.283.247-.389.388-.07.07-.106.159-.194.212-.159.106-.053.388-.37.37-.036 0 .07.106.07.141 0 .106-.106.141-.194.194-.089.053-.142.124 0 .3 0 0-.036-.017-.053-.017-.407-.124-.177.14-.053.335.106.158-.672-.141-.354.158.036.036.089.071.089.089-.089.14-.46.14-.124.476.018.017-.07-.018-.106-.018-.424-.07-.106.177-.018.318.089.123-.459.035-.335.211.176.247.106.406-.106.512-.16.07.018.212.123.353.089.106-.67.035-.282.23.035.017.035.034.07.034.23.088.195.124 0 .124-.441.018-.105.176.054.317.14.106-.69.07-.283.247.035.018.053.018.07.036.177.176-.512.246.106.476a.949.949 0 01-.14.017c-.301.053-.177.142-.054.247.106.089.194.177-.194.23-.106.017.194.088.194.123.018.159.142.335-.053.476-.141.106-.07.194.141.3.177.089-.653.177-.23.282.054.018.107.018.107.036.018.159-.318.37.123.494.018 0-.106.035-.14.053-.248.105-.071.352.088.564.158.212.282.423-.071.582-.088.053.194.035.212.07.053.16.23.283.07.477-.105.141.124.176.265.23.124.052-.6.352-.123.317.318-.018.07.106.053.159-.018.194.088.335.141.493.018.071.088.106.07.177-.035.194.036.335.142.476.035.053.088.106.07.194-.035.177.089.318.142.459.035.07.07.123.07.211 0 .16.089.3.16.441.035.071.07.124.07.212 0 .159.354 1.111.46 1.217.052.07.211.565.23.635.017.141.193.23.105.406 0 .017 0 .017.018.035l2.049-.758c.14-.106.106-.16-.106-.141-.23.017-.336 0-.071-.16.406-.264-.389-.052-.283-.176.124-.14.265-.282.071-.317-.265-.053.247-.406-.318-.335-.018 0 .053-.035.088-.053.354-.247.036-.212-.176-.23-.177-.017.583-.405.106-.317-.318.053-.089-.088-.089-.159-.017-.176-.017-.335-.176-.458-.07-.053-.053-.124-.053-.177 0-.158-.036-.317-.16-.44-.052-.054-.105-.089-.087-.177.07-.194-.071-.318-.142-.459-.035-.053-.106-.105-.07-.176.07-.176-.142-.388-.16-.547-.017-.07-.317-.935-.3-1.005.036-.16-.07-.283-.106-.424-.017-.07-.07-.123-.035-.211.053-.16-.053-.265-.07-.406-.018-.07-.054-.141-.036-.212.018-.07-.035-.123-.07-.176-.036-.053-.036-.124.105-.194.036-.018-.123-.018-.14-.035-.072-.053 0-.124.034-.177.036-.07.036-.14-.159-.212 0 0 .036 0 .053-.017.407-.088.089-.159-.123-.265-.177-.088.671-.14.247-.247-.053-.017-.106-.017-.106-.035.018-.141.371-.23-.07-.406-.018 0 .07 0 .105-.017.424-.053.036-.159-.088-.265-.106-.088.424-.106.265-.23-.212-.158-.194-.317.018-.422.141-.071-.053-.177-.16-.283-.088-.088.654-.017.266-.194l-.07-.035c-.23-.088-.195-.106 0-.106.44.018.105-.123-.054-.264-.124-.106.671.035.283-.177-.036-.017-.053-.035-.053-.035-.142-.177.512-.088-.036-.424-.017-.017.106.018.142.018.3.035.194-.07.106-.176-.089-.106-.142-.212.23-.124.105.018-.16-.14-.142-.158.018-.142-.035-.318.194-.336.16-.017.124-.105-.017-.282-.106-.159.635.212.318-.07-.036-.036-.071-.071-.071-.089.053-.105.406 0 .123-.352-.017-.018.089.053.124.07.247.106.23-.123.265-.317.035-.212.106-.388.406-.16.071.072-.088-.175-.07-.193.07-.088.106-.282.318-.194.14.07.088-.141.088-.282 0-.07.124.053.212.14.088.089.159.142.088-.07-.106-.3.07-.07.124-.07.141 0 .247-.089.37-.16.054-.017.071-.087.142-.07.159.053.265-.017.371-.088.053-.035.088-.07.159-.053.141.07.247-.017.37-.035.054 0 .107-.035.16-.018.123.036.23.018.353.018.053 0 .124-.018.177.018a.524.524 0 00.176.052c.089.018.177.053.283.071.194.053.389.123.442.123.053 0 .212.106.3.177.159.3.353.564.441.917.142.459.318.917.495 1.376.159.459.335.917.512 1.376.035.106.07.194.124.282.035.106.053.194.088.3.053.194.106.388.141.617.036.23.089.477.16.706.052.23.123.459.176.706.106.476.23.952.336 1.41.053.212.106.424.14.636.036.211.072.44.107.652.053.477.123.935.212 1.411l.035.177.018.088.018.053c.017.07.035.159.053.23.105.317.353.581.67.74.16.07.336.123.513.123.088 0 .177 0 .265-.017a.329.329 0 00.123-.035c.036-.018.106-.036.089-.036.247-.105.512-.194.724-.3.124-.053.23-.105.336-.158l.317-.159c.212-.106.424-.194.654-.282.212-.07.707-.3 1.36-.512.636-.23 1.466-.423 2.314-.582a29.213 29.213 0 012.42-.335c.353-.035.67-.07.936-.088.265-.018.46-.036.565-.036.124-.017.424-.035.795-.052.37-.018.848-.018 1.307-.018h.689c.23 0 .441.018.618.018.389.017.671.017.795.017.212.018.441.018.653 0h.654c.441 0 .883.035 1.325.106a.502.502 0 00.23 0l.105-2.17c-.3-.176-.653-.194-1.042 0-.389.212-.689.283-1.077-.035-.6-.494-1.22.318-1.714.176-.6-.176-1.095-.335-1.748-.176-.212.053-.442.07-.671.053-.23 0-.46-.035-.69-.053-.459-.035-.935-.035-1.36.282-.017.018-.088-.053-.14-.088a1.106 1.106 0 00-.901-.106c-.283.088-.566.247-.848.388-.248.106-.548-.017-.866-.088-.318-.07-.636-.123-.918.177a.804.804 0 01-.566.264c-.194.018-.388 0-.6.035l-.406.089-.407.123-.406.124-.388.14a8.67 8.67 0 00-1.466.706c-.142.088-.3.159-.442.212-.07-.441-.159-.864-.265-1.288-.018-.105-.053-.194-.07-.3-.036-.088-.054-.194-.089-.282a3.213 3.213 0 01-.106-.617 9.364 9.364 0 00-.282-1.535c-.142-.511-.318-1.005-.46-1.5-.07-.21-.123-.405-.212-.616a5.412 5.412 0 01-.194-.636 8.722 8.722 0 00-.618-1.799 50.036 50.036 0 00-.424-.935c-.07-.158-.141-.282-.212-.423-.07-.141-.124-.264-.194-.37a6.953 6.953 0 01-.142-.3l.089-.088c-.036 0-.036-.053-.106-.018-.018 0-.018.018-.035.018-.036-.071-.071-.141-.124-.23.035-.088 0-.105-.053-.105-.035-.053-.053-.124-.088-.195-.036-.07-.089-.14-.124-.211-.177-.282-.371-.618-.565-.953-.106-.176-.23-.335-.336-.511l-.37-.53a21.927 21.927 0 00-2.42-2.769c-.177-.176-.354-.37-.548-.547a13.428 13.428 0 01-.583-.494l-.3-.229-.318-.23c-.212-.14-.407-.299-.619-.44-.406-.265-.812-.512-1.218-.812-.371-.3-.777-.546-1.184-.793-.406-.247-.865-.494-1.307-.741-.459-.247-.954-.459-1.466-.688-.459-.212-.953-.318-1.466-.406-.512-.088-1.024-.176-1.554-.335-.124-.035-.3.106-.442.141-.547.07-1.095.07-1.625.177-.547.105-1.077.3-1.448.74-.018.018-.053 0-.088 0a1.154 1.154 0 00-.936.389c-.053.052-.106.123-.16.194-.052.07-.088.14-.14.211-.089.141-.177.3-.266.459a.748.748 0 01-.318.3c-.14.088-.3.14-.459.247a1.55 1.55 0 00-.424.335c-.123.14-.176.317-.176.529 0 .088.017.194-.018.265-.106.229-.23.458-.353.688-.106.229-.23.476-.3.705-.071.247-.142.494-.16.74 0 .248 0 .512.107.76.017.035-.071.088-.106.123a.95.95 0 00-.212.476 1.32 1.32 0 00.017.459c.053.3.212.6.283.917.088.282 0 .564-.053.882a2.229 2.229 0 00-.053.494c0 .176.035.335.106.511.194.477.353.97.477 1.464a8.8 8.8 0 01.23 1.5c.052.67.388 1.111.706 1.623.124.229.07.529.035.846-.017.318.018.635.318.864.035.036.07.089.124.106.318.142.37.336.282.67-.088.353.018.636.177.883.177.247.406.458.636.688.177.194.141.511.159.829.018.317.07.652.424.829.053.035.106.053.141.105.3.353.442.812.618 1.253.195.423.442.847.972 1.023.035.018-.018.159 0 .247.035.564.459.9.865 1.235.194.158.406.335.565.529.071.106.142.212.195.335.053.123.088.264.106.423.017.159.441.212.618.37.689.689 1.519 1.27 2.137 2.012.406.493.848.758 1.448.934 0 .036.142.124.23.212.124.106-.654-.194-.247.035.265.16.017.07-.018.106-.07.053-.159.124-.106.247.018.053-.018.053-.053.088-.088.053-.141.124-.106.23.018.035.036.088-.018.105-.14.036-.106.142-.123.23 0 .035.035.088-.035.106-.142.035-.089.211-.142.282-.017.035-.194.511-.23.53-.088.052-.07.14-.105.21-.018.036 0 .089-.053.107-.106.035-.071.14-.089.211-.017.035-.017.088-.053.106-.07.053.142.23-.14.194-.036 0 .105.07.105.088.088.124-.336.036 0 .265 0 0-.035-.018-.053-.018-.406-.106-.124.053.053.177.141.105-.653-.177-.265.035.035.017.106.053.088.053-.035.07-.388 0 0 .247.018 0-.07-.018-.088-.035-.406-.106-.053.07.053.176.088.088-.406-.07-.265.053.194.159.16.247-.053.247-.141 0 .035.123.141.211.089.071-.635-.158-.264.053l.07.036c.23.106.194.106 0 .07-.424-.106-.106.053.053.177.124.088-.653-.16-.265.053a.217.217 0 01.053.035c.16.14-.494-.035.07.264.019.018-.105-.035-.14-.035-.583-.141.459.353-.283.159-.106-.035.177.106.177.123 0 .088.106.212-.106.212-.142 0-.089.07.088.194.159.106-.654-.159-.265.053.035.018.088.053.088.053 0 .07-.37.017.018.247.018.017-.106-.035-.141-.035-.513-.106.388.617-.336.44-.106-.017.159.106.159.124 0 .088.088.212-.124.212-.14 0 .036.106.142.194.088.07-.672-.142-.248.053.283.14.018.07-.017.088-.106.053-.07.159-.089.247-.017.035.036.07-.017.106-.124.052-.124.14-.106.229 0 .035.017.088-.036.106-.106.053-.07.14-.106.229-.017.035 0 .07-.035.106-.07.053-.07.141-.088.23 0 .034 0 .087-.035.105-.071.053-.248.547-.23.635.018.053-.088.3-.124.335-.053.07.036.177-.106.194-.017 0 0 .018 0 .018l2.067.688c.159.035.176 0-.018-.088-.194-.106-.282-.16.018-.089.46.106-.283-.194-.16-.194.16 0 .354.018.213-.07-.194-.141.406-.018-.089-.265a.36.36 0 00.089.018c.406.088.123-.053-.036-.159-.14-.088.672.141.248-.07-.283-.142-.018-.071 0-.089.07-.07.141-.123.07-.247-.035-.053.018-.07.053-.088.071-.053.124-.14.089-.23-.018-.034-.053-.087.017-.105.142-.035.089-.141.106-.23 0-.035-.035-.087.036-.105.141-.035.07-.212.123-.282.018-.036.16-.512.195-.53.088-.052.07-.14.088-.211.018-.035-.018-.088.053-.106.106-.035.053-.141.088-.212.018-.035 0-.088.053-.105.07-.053-.141-.212.142-.195.035 0-.107-.052-.124-.07-.088-.106.318-.035-.018-.247 0 0 .036 0 .053.018.406.105.124-.053-.053-.177-.141-.106.654.159.265-.053l-.106-.053c.035-.07.389 0 0-.247a.36.36 0 00.088.018c.407.106.054-.07-.053-.176-.106-.089.407.07.265-.053-.194-.159-.159-.23.053-.247.142 0-.035-.124-.14-.212-.09-.07.635.159.264-.053l-.07-.035c-.23-.106-.195-.106 0-.053.423.106.105-.053-.054-.176-.123-.089.636.158.265-.036-.035-.017-.053-.035-.053-.035-.159-.141.495.035-.07-.264-.018-.018.106.035.141.035.583.159-.46-.353.283-.141.106.035-.177-.106-.16-.124 0-.088-.105-.212.107-.194.141 0 .088-.07-.089-.194-.141-.106.636.176.265-.035a1.224 1.224 0 01-.088-.053c.018-.07.37 0-.018-.247-.017-.018.106.035.142.035.494.124-.354-.635.353-.405.106.035-.16-.106-.16-.124 0-.088-.087-.212.125-.194.14 0-.036-.106-.124-.212-.088-.088.653.177.247-.053-.282-.158 0-.07.035-.088.106-.053.071-.158.106-.23.018-.034-.017-.087.036-.087.123-.036.123-.124.123-.212 0-.035-.017-.088.036-.106.106-.035.088-.14.106-.212.017-.035 0-.07.035-.105.07-.053.088-.141.106-.212.018-.035 0-.088.053-.106.018-.017.053-.07.088-.123.16.088.318.176.477.282.195.123.406.247.618.37.212.124.424.212.654.283.106.035.23.053.353.07.124.018.247.018.371 0 .035 0 .053.053.088.124-.158.017-.335.017-.211.14.176.177-.424.089.035.389a.385.385 0 00-.106-.018c-.424-.07-.141.106.018.247.14.124-.69-.088-.265.141.282.159.017.106-.018.141-.088.106-.177.23-.124.388.018.071-.035.089-.07.142-.089.105-.16.229-.124.37.018.053.035.123-.035.159-.16.088-.124.229-.16.37-.017.053.018.124-.052.159-.16.088-.106.335-.16.44-.017.054-.247.795-.282.848-.106.088-.088.229-.123.352-.018.053 0 .124-.071.177-.124.088-.07.229-.124.352-.017.053-.017.124-.07.177-.089.088.123.282-.177.317-.035 0 .106.07.106.089.07.158-.353.14-.018.37h-.053c-.424-.053-.123.106.053.247.142.106-.67-.07-.282.141l.106.053c-.036.106-.407.124-.018.353a.385.385 0 00-.106-.018c-.424-.053-.07.124.035.247.089.106-.441.018-.282.159.194.194.141.317-.071.37-.141.035.035.159.141.265.089.088-.653-.053-.282.141l.07.035c.23.106.195.124 0 .088-.424-.052-.106.124.053.247.124.106-.67-.052-.282.142a.218.218 0 01.053.035c.159.158-.512.088.053.37.017.018-.106-.017-.142-.017-.6-.053.477.405-.3.3-.106-.018.177.105.177.14 0 .124.088.283-.124.336-.159.035-.106.123.088.264.16.106-.67-.053-.282.141.035.018.088.053.088.053-.018.124-.388.124 0 .353.018.018-.106-.018-.141-.018-.53-.017.37.83-.389.741-.106-.017.16.106.16.141-.018.124.088.283-.142.353-.159.053.035.159.124.265.088.088-.69-.035-.265.159.282.14.017.088-.036.14-.106.107-.088.248-.106.389-.017.053.018.105-.035.158-.124.106-.141.23-.124.37 0 .054.018.124-.035.16-.124.106-.088.247-.106.37-.018.053 0 .124-.035.176-.07.106-.088.23-.106.353-.018.053 0 .124-.053.177-.088.106-.283.882-.265 1.023.018.07-.106.476-.141.529-.053.106.035.247-.124.317-.018 0-.018.018 0 .036l2.12.511c.158 0 .176-.035-.018-.14-.195-.107-.283-.16.018-.142.476.035-.3-.23-.16-.265.177-.035.371-.052.23-.176-.194-.159.406-.141-.088-.37h.106c.424.035.141-.106-.036-.23-.14-.106.69.035.248-.159-.3-.123-.018-.105 0-.14.07-.124.159-.23.088-.389-.035-.07.018-.106.053-.14.088-.107.141-.23.106-.371-.018-.053-.035-.106.018-.159.141-.088.106-.247.123-.37 0-.053-.035-.124.036-.16.14-.087.088-.334.14-.44.019-.053.178-.794.23-.847.089-.106.071-.23.106-.353.018-.052 0-.123.053-.176.124-.088.071-.23.107-.335.017-.053.017-.124.052-.177.089-.088-.14-.282.16-.317.035 0-.107-.07-.124-.088-.088-.141.353-.159 0-.37h.053c.424.035.123-.107-.053-.248-.142-.105.671.053.282-.14l-.106-.054c.036-.105.407-.123 0-.352-.017 0 .071 0 .106.017.424.035.053-.123-.053-.247-.105-.106.442-.017.283-.159-.194-.176-.159-.3.07-.37.142-.035-.035-.159-.14-.264-.089-.089.653.052.282-.142l-.07-.035c-.23-.106-.195-.123 0-.088.423.053.105-.106-.054-.247-.123-.106.671.07.283-.141-.035-.018-.053-.035-.053-.035-.159-.16.512-.089-.053-.37-.018-.019.106.017.141.017.6.053-.459-.406.3-.3.107.018-.176-.106-.176-.141 0-.124-.088-.282.124-.335.159-.036.105-.124-.089-.265-.159-.106.671.07.283-.141a1.224 1.224 0 01-.088-.053c.017-.123.388-.123 0-.353-.018-.017.105.018.14.018.513.053-.335-.83.407-.706.106.018-.159-.106-.159-.14.018-.124-.07-.283.141-.336.16-.035-.017-.159-.123-.264-.088-.089.689.07.265-.142-.283-.14 0-.088.035-.123.106-.106.088-.247.141-.37.018-.053-.017-.106.036-.142.123-.088.141-.229.141-.352 0-.053-.018-.124.053-.16.124-.087.106-.228.141-.352.018-.053.018-.123.053-.159.089-.105.106-.229.124-.335.018-.053.018-.123.053-.176.088-.088.353-.847.353-.97 0-.036.053-.194.106-.318.477.088 1.007.159 1.52.194 1.412.141 2.79.141 3.25.53.123.105.458-.16.688-.16.99.018 1.978-.105 2.914.089.654.14 1.148-.07 1.731-.194.495-.106 1.113.67 1.696.194.406-.318.706-.035 1.06-.018 1.042.07 2.084-.017 3.126-.035.406 0 .777-.07 1.201-.035 1.007.07 2.049.017 3.056-.053.441-.036.83-.07 1.29-.053.988.053 1.995-.053 2.984-.106.46-.018.883-.07 1.36-.07h.247l-.14.052c.017 0 0 .018.07 0 .212-.053.3-.053.035.07-.424.195.353-.035.23.036-.142.088-.3.194-.124.176.23-.017-.3.247.23.124.017 0-.053.035-.089.035-.388.177-.07.106.124.088.159-.017-.618.3-.159.177.3-.088.053.035.053.07-.018.089-.035.177.07.194.054.018.018.053.018.089-.017.088-.017.158.071.194.035.017.088.017.053.07-.088.106 0 .141.053.212.018.017.07.035.035.088-.088.106.071.176.071.247 0 .035.177.406.159.459-.035.088.035.123.07.194.018.035.054.053.036.088-.053.088.053.123.07.176.018.035.054.053.036.106-.035.07.247.053 0 .194-.035.018.124-.017.141-.017.142.017-.23.229.177.14 0 0-.035.018-.053.018-.371.177-.053.106.159.07.177-.034-.6.3-.177.195.053-.018.106-.035.106-.018.018.053-.282.247.16.141.017 0-.054.036-.09.036-.37.194 0 .088.142.07.124-.017-.353.212-.177.194.248-.017.265.053.106.177-.105.088.107.052.248.035.123 0-.565.3-.16.194.036 0 .036 0 .072-.018.23-.07.211-.053.035.035-.389.195-.035.106.159.071.159-.018-.583.3-.177.194.035 0 .053-.017.07-.017.213-.018-.388.282.213.105.017 0-.089.053-.124.07-.53.265.583-.07-.124.265-.088.053.195-.035.212-.035.053.053.212.053.053.194-.106.088-.035.088.195.053.176-.035-.583.3-.177.194.053-.018.106-.035.106-.018.035.053-.265.23.159.142.018 0-.088.052-.124.07-.459.247.672.141 0 .459-.088.053.177-.035.195-.018.053.053.194.07.035.194-.106.088.088.053.23.035.106 0-.601.318-.16.177.3-.088.054.035.036.07-.035.089.035.142.07.212.018.018.071.035.036.07-.07.106-.018.16.053.212.035.018.07.036.035.07-.053.09.036.142.053.195.018.035.053.053.035.088-.017.07.036.141.071.194.018.035.053.053.035.088-.017.088.142.477.213.53.035.017.105.246.105.282 0 .07.142.07.036.194-.018.017 0 .017.017.017l2.014-.829c.141-.088.124-.106-.07-.053-.213.053-.3.071-.036-.07.424-.212-.353.053-.23-.035.142-.106.3-.194.124-.177-.23.035.3-.247-.23-.106-.017 0 .053-.035.089-.053.37-.194.07-.105-.124-.07-.159.035.6-.318.141-.176-.3.088-.053-.036-.053-.053.018-.089.036-.177-.088-.194-.053-.018-.017-.053-.017-.089.017-.088.017-.158-.071-.194-.035-.017-.088-.017-.053-.07.088-.106-.018-.141-.053-.194-.018-.018-.07-.035-.035-.07.088-.107-.071-.177-.089-.248 0-.035-.194-.406-.176-.44.035-.089-.036-.124-.071-.195-.018-.035-.053-.035-.035-.088.053-.088-.053-.124-.071-.176-.018-.036-.053-.053-.035-.106.035-.07-.248-.035 0-.194.035-.018-.124.035-.142.017-.141-.017.23-.229-.176-.14 0 0 .035-.018.053-.018.37-.194.053-.106-.16-.07-.176.034.601-.3.177-.195-.053.018-.106.035-.106.018-.017-.053.283-.247-.159-.141-.017 0 .053-.036.089-.036.37-.194 0-.088-.142-.07-.123.017.354-.212.177-.194-.247.017-.265-.036-.106-.177.106-.088-.106-.053-.247-.035-.124 0 .565-.3.159-.194-.036 0-.036 0-.07.018-.23.07-.213.053-.036-.036.388-.194.053-.106-.142-.07-.158.018.583-.3.177-.194-.035 0-.053.017-.07.017-.212.018.406-.282-.212-.105-.018 0 .088-.053.14-.071.53-.264-.582.07.124-.264.089-.036-.194.035-.212.035-.053-.053-.212-.07-.035-.194.106-.088.035-.088-.194-.053-.177.035.6-.3.176-.194-.052.017-.105.035-.105.017-.036-.052.264-.229-.16-.14-.017 0 .089-.054.124-.071.46-.23-.671-.141 0-.459.089-.053-.176.035-.194.018-.053-.053-.194-.07-.036-.194.106-.089-.088-.053-.23-.036-.105 0 .602-.3.16-.176-.3.088-.053-.035-.035-.07.053-.089-.036-.142-.071-.212-.018-.018-.07-.035-.035-.07.07-.107.017-.16-.053-.212-.036-.018-.071-.036-.036-.089.053-.088-.017-.14-.053-.194-.017-.035-.053-.053-.035-.088.018-.07-.018-.123-.053-.194-.018-.035-.053-.053-.035-.088.017-.053-.036-.247-.089-.388.177-.018.354-.018.53-.035.477-.036.954-.089 1.449-.089.088 0 .23-.017.423-.017-.3.23.39-.053.3.053-.105.14-.247.264-.07.264.247-.017-.23.353.3.212.018 0-.053.035-.088.053-.335.247-.035.159.177.141.176-.018-.548.423-.106.265.3-.106.07.053.088.105.018.124.018.265.177.318.053.018.035.088.053.141 0 .124.035.247.159.317.053.036.106.053.07.124-.053.159.07.23.142.335.035.035.105.053.07.124-.053.158.142.282.177.388.017.053.353.67.353.74-.018.124.088.212.141.318.018.053.089.088.071.159-.035.14.088.194.141.3.018.053.071.088.071.158 0 .124.283.106.07.318-.017.017.124-.018.142-.018.159.053-.177.318.23.247 0 0-.036.018-.036.035-.335.247-.017.16.194.124.177-.018-.547.388-.123.282.053-.018.106-.035.106-.018.035.106-.23.336.212.247.017 0-.053.036-.088.053-.354.247.035.124.194.141.141 0-.318.283-.124.283.265 0 .318.106.177.3-.088.123.123.088.282.088.124 0-.53.388-.123.264.035 0 .035 0 .07-.017.23-.07.212-.035.053.07-.353.247-.017.16.195.141.159-.017-.548.389-.124.283.035 0 .053-.018.07-.018.213.018-.335.388.283.212.018 0-.088.053-.123.088-.495.335.618-.018-.036.388-.088.053.195-.035.212-.018.071.088.248.141.106.318-.088.123 0 .14.23.123.194-.017-.548.388-.141.282.053-.017.106-.035.106-.017.07.088-.23.335.23.247.017 0-.09.053-.124.07-.424.3.777.353.14.741-.088.053.195-.017.213 0 .07.088.23.141.106.318-.088.123.123.088.265.106.123.017-.566.388-.106.264.3-.088.07.07.053.106-.018.141.088.23.141.335.018.035.088.07.07.124-.035.14.036.247.124.335.036.035.089.07.071.14-.035.142.07.23.124.336.017.053.07.088.07.141 0 .124.07.212.124.318.035.053.07.088.07.158 0 .124.283.812.354.882.053.053.176.406.176.477.018.105.16.158.089.3 0 .017 0 .017.017.017l2.014-.829c.141-.088.124-.141-.088-.088-.23.035-.318.035-.053-.106.406-.247-.371 0-.265-.106.123-.123.265-.247.088-.264-.247-.018.265-.335-.282-.23-.018 0 .052-.035.088-.053.353-.229.053-.158-.16-.158-.176 0 .584-.388.124-.265-.3.07-.07-.07-.07-.106-.018-.123 0-.264-.142-.335-.053-.035-.035-.088-.035-.141a.417.417 0 00-.141-.335c-.053-.035-.106-.053-.07-.124.07-.158-.054-.247-.124-.335-.036-.035-.089-.07-.071-.14.07-.16-.124-.283-.16-.407-.017-.053-.335-.688-.317-.758.018-.124-.088-.212-.124-.318-.017-.052-.088-.088-.07-.158.035-.141-.089-.212-.124-.3-.018-.053-.07-.106-.07-.159 0-.124-.283-.124-.071-.318.017-.017-.124.018-.142.018-.159-.053.177-.317-.23-.264 0 0 .036-.018.036-.036.353-.229.035-.159-.194-.14-.177.017.565-.389.123-.283-.052.018-.105.035-.105.018-.036-.106.23-.336-.212-.247-.018 0 .053-.036.088-.053.353-.23-.035-.124-.194-.141-.142 0 .318-.283.123-.283-.265 0-.318-.123-.176-.3.088-.123-.124-.088-.283-.105-.124 0 .53-.388.124-.283-.036 0-.036 0-.071.018-.23.07-.212.035-.053-.07.353-.247.018-.16-.194-.142-.16.018.547-.388.123-.282-.035 0-.053.018-.07.018-.212-.018.335-.388-.283-.23-.017 0 .088-.052.124-.088.494-.352-.618.036.035-.405.088-.053-.194.035-.212.017-.07-.088-.247-.14-.123-.317.088-.124 0-.141-.23-.124-.177.018.547-.388.123-.282-.053.018-.105.035-.105.018-.071-.089.212-.336-.23-.247-.018 0 .088-.053.124-.089.406-.317-.795-.335-.177-.74.088-.053-.194.035-.212.017-.07-.088-.247-.14-.106-.317.088-.124-.124-.088-.265-.106-.124 0 .548-.406.106-.265-.3.089-.07-.053-.053-.105.018-.142-.088-.23-.159-.336-.018-.035-.088-.053-.07-.123.035-.141-.036-.247-.142-.335-.035-.035-.088-.07-.07-.141.035-.141-.089-.23-.142-.318-.017-.053-.07-.088-.07-.14 0-.124-.071-.213-.142-.318-.035-.053-.07-.089-.07-.16 0-.105-.23-.581-.354-.793a9.71 9.71 0 001.678-.547c.583-.053 1.06-.3 1.466-.6z" fill="#043C3A"/><path d="M71.563 78.525c.495-.017-.247-.405-.07-.493.194-.106.406-.177.3-.388-.16-.283.494-.353.035-.724-.018-.017.07 0 .106 0 .442-.035.177-.264.035-.458-.123-.177.742-.088.318-.37-.265-.195.018-.195.053-.3.124-.248.248-.512.23-.794-.018-.124.053-.194.106-.3.123-.247.212-.494.23-.776 0-.106-.018-.212.07-.318.194-.23.194-.511.247-.776.018-.106 0-.23.089-.317.194-.212.194-.688.282-.935.036-.106.442-1.658.513-1.764.14-.23.159-.494.212-.741.035-.123.035-.247.105-.353.16-.212.142-.476.212-.723.036-.124.053-.265.124-.37.124-.212-.07-.53.265-.688.035-.018-.088-.089-.106-.141-.053-.265.424-.406.106-.741h.053c.442-.036.177-.265.018-.477-.124-.176.724-.088.353-.37-.035-.035-.106-.07-.088-.088.07-.23.477-.353.106-.706-.018-.017.07 0 .106 0 .441-.035.106-.282.017-.458-.07-.177.477-.16.353-.389-.088-.158-.105-.3-.07-.423a.548.548 0 01.088-.176c.018-.036.035-.053.07-.088l.018-.018.018-.018v.088a.301.301 0 01-.123.23.547.547 0 01-.23.106c-.16.017-.283-.07-.371-.142-.035-.035-.088-.017-.159 0-.07.018-.177.036-.265.018-.106-.017-.194-.07-.23-.14-.035-.072 0-.019.018-.019.018.018.07.018.124.018.035 0 .053.018.088.018.247-.018.247.035.088.176-.353.3.036.3.265.388.195.07-.53.494-.053.494.036 0 .071 0 .071.018.265.158-.265.617.406.617.018 0-.088.07-.123.106-.46.44.706.282.088.794-.088.07.23.035.247.088.124.23.336.406.248.705-.071.212.052.3.317.37.212.054-.512.512-.053.512.053 0 .106 0 .124.018.106.212-.141.564.353.617.018 0-.088.07-.106.106-.388.424 1.078 1.111.477 1.623-.088.07.212.035.248.088.123.23.335.424.247.723-.053.212.176.247.353.353.141.088-.512.53-.018.494.336-.018.106.159.106.265.036.282.195.511.3.758.036.106.124.177.142.282.018.283.141.53.282.759a.737.737 0 01.142.317c.018.265.177.494.282.724.053.105.106.211.142.335.053.247.176.476.282.705.053.106.124.212.142.353.035.247.653 1.782.794 1.993.071.124.371.935.407 1.059.053.229.265.405.212.67 0 .018.017.035.035.053l2.031-.776c.124-.141.088-.23-.141-.23-.247-.017-.353-.053-.106-.264.388-.318-.424-.176-.353-.353.088-.212.212-.388 0-.494-.283-.123.176-.582-.424-.6-.018 0 .053-.053.07-.07.336-.3-.017-.318-.247-.388-.194-.07.53-.512.035-.494-.335.018-.105-.177-.14-.265-.072-.264-.124-.547-.319-.758-.088-.088-.088-.194-.106-.3a2.01 2.01 0 00-.3-.758c-.07-.089-.141-.16-.141-.283.017-.3-.16-.511-.283-.758-.053-.106-.141-.177-.141-.318.017-.282-.283-.652-.353-.9-.036-.105-.69-1.57-.707-1.693-.035-.264-.177-.476-.283-.705-.053-.124-.123-.212-.14-.353-.019-.265-.195-.459-.284-.688-.053-.123-.123-.23-.14-.37-.036-.247-.372-.37-.213-.688.018-.036-.141-.018-.159-.036-.194-.176.089-.564-.37-.652 0 0 .035-.018.035-.035.318-.3-.018-.3-.283-.37-.212-.054.512-.495.053-.495-.053 0-.124 0-.124-.017-.07-.23.16-.565-.335-.618-.018 0 .053-.053.088-.07.336-.3-.088-.283-.265-.388-.159-.089.283-.406.053-.53-.318-.14-.406-.405-.318-.705.07-.212-.176-.247-.353-.353-.141-.088.512-.476.053-.494-.035 0-.053-.017-.088 0h-.089c-.017 0-.035 0-.07-.017-.053-.036-.07-.071-.089-.106-.053-.089-.053-.194-.07-.37a.705.705 0 00-.265-.424.857.857 0 00-.46-.124c-.317.018-.582.23-.759.441-.07.089-.177.141-.3.212a1.24 1.24 0 00-.371.247l-.088.088c-.018.018-.018.035-.036.053 0 0-.017 0-.017.018-.036.017-.053.017-.071.035-.018.035 0 .088.088.159.036.017.053.035.053.053.124.282-.583.335-.035.723.018.018-.106 0-.16.018-.635.07.407.652-.405.688-.106 0 .159.158.141.229-.035.247.018.529-.23.705-.176.124-.14.265.018.477.141.176-.707.088-.353.37.035.035.088.07.088.088-.053.23-.46.37-.088.706.018.017-.106 0-.16.017-.564.089.16 1.535-.617 1.57-.106 0 .14.16.123.23-.053.247 0 .529-.247.723-.177.123-.018.317.07.494.071.159-.724.088-.317.37.265.194-.018.194-.07.265-.142.247-.16.529-.23.793-.036.106 0 .212-.071.318-.16.23-.212.494-.248.758-.017.124-.017.23-.088.336-.159.229-.176.494-.23.758-.035.124-.035.23-.088.353-.123.23-.159.476-.23.74-.035.124-.035.248-.105.371-.124.23-.583 1.817-.6 2.082-.019.14-.266.97-.319 1.093-.07.194-.053.406-.176.582l2.084.6c-.018-.035.035-.07-.035-.123-.23-.283-.3-.389.017-.389z" fill="#043C3A"/><path d="M73.287 49.104c.053-.264.335-1.164.653-2.081.124-.353.23-.688.354-1.006-.548-.106-1.096-.194-1.608-.353-.282-.088-.547-.105-.812-.158-.6-.106-1.219-.177-1.802-.37-.265-.089-.512-.107-.777-.142-.618-.07-1.254-.159-1.837-.37-.247-.088-.495-.07-.742-.124-.636-.106-1.271-.158-1.89-.335-.212-.07-.353-.37-.653-.106-.442.406-.671-.423-.99-.37-.37.07-.706.23-1.077.035-.547-.282-1.166-.247-1.748-.3-.142-.017-.371.247-.442.124-.23-.406-1.077-.441-1.907-.424-.848 0-1.678.071-1.926-.211-.035-.035-.07-.177-.106-.159-.583.37-1.112-.035-1.66-.07-.053 0-.088.052-.141.088-.424.388-.69-.477-1.007-.318-.389.194-.689.23-1.078.07-.547-.229-1.148-.14-1.713-.14-.141 0-.353.282-.424.176-.494-.723-1.095.159-1.625-.159-.247.194-.547.335-.67.635a.112.112 0 000 .106c.07.582-.778.318-.849.653-.088.405-.035.882-.6.882-.265 0-.354.07-.265.352.017.036 0 .071 0 .124.07.564-.742.353-.848.653-.141.352-.177.723-.53.952-.53.335-.954.811-1.148 1.411-.141.441-.777.37-.9.688-.054.159-.072.335-.124.494.317.018.653.106.971.035.088-.017.177-.158.247-.14.3.14.583.14.883.123.283-.018.583-.07.866-.018.318.053.636.035.936.053.583.035 1.201-.018 1.766.123.3.071.583.053.883.071.601.035 1.22.053 1.802.176.141.036 1.148.124 2.155.23 1.007.105 2.013.211 2.155.229.618.088 1.678.106 2.278.3.265.088.53.07.795.088.636.07 1.272.07 1.872.282.265.089.477.07.742.089a9.753 9.753 0 011.89.264c.247.053.46.141.742.124.653-.018 1.29.14 1.925.282.23.053.407.353.69.088.44-.406.67.476 1.006.37.406-.14.777-.388 1.077.089.018.035.053.123.071.105.636-.44 1.113.23 1.678.106.424-.088.689.141 1.024.353.283.176.795-.547 1.078-.018.053.106.106.177.176.212 0-.053.018-.106.036-.123.23-.388.318-.988.477-1.447.017-.23.6-2.01.67-2.293z" fill="#fff"/><path d="M72.043 53.039c.035.018.07.035.124.035.159.018.106-.088.017-.14-.07-.036-.106.035-.141.105zM48.032 42.154c-.088.088-.158.159-.247.194l.3-.14c-.017-.018-.035-.054-.053-.054z" fill="#fff"/><path d="M75.936 44.2a6.139 6.139 0 00-.583-.071c-.265-.018-.477-.106-.724-.177-.6-.176-1.237-.335-1.855-.388-.265-.017-.477-.035-.742-.123-.583-.247-1.236-.282-1.854-.388-.265-.035-.513-.035-.778-.141-.282-.124-.706-.194-1.112-.247a13.2 13.2 0 01-1.148-.177c-.142-.035-1.13-.194-2.138-.352-1.006-.16-1.995-.318-2.137-.353-.583-.159-1.2-.194-1.784-.265-.3-.035-.583-.035-.883-.123-.565-.177-1.166-.16-1.748-.23-.3-.035-.619-.053-.919-.123-.565-.124-1.166.07-1.713-.265-.07-.035-.16.106-.248.106-.6.07-1.148-.406-1.766-.053-.018 0-.018-.035-.035-.053-.336-.44-.689-.14-1.078.036-.318.14-.618-.706-1.042-.3-.053.035-.106.105-.141.105-.565-.052-1.113-.423-1.678 0-.018.018-.053-.07-.07-.105-.354-.441-.707-.053-1.078.07-.265.088-.512-.23-.83-.282l-.3-.07-.548.44a.448.448 0 00-.159.23 2.598 2.598 0 01-1.148 1.41c-.353.23-.406.583-.53.953-.106.3-.918.089-.848.653 0 .035-.018.07 0 .123.088.265-.018.353-.265.353-.565 0-.512.477-.6.882-.07.335-.919.07-.848.653v.106c-.212.547-1.095.547-.954 1.376 0 .035-.123 0-.194 0-.83.053-.353 1.287-1.325 1.234-.123 0-.035.336-.106.441-.159.212-.3.424-.46.635h-.193l.088.124c-.106.14-.23.264-.371.388l-1.872 1.535 2.896-.089a.84.84 0 01.212.018c.036 0 .071.018.106.018h.106a.472.472 0 00.212-.053c.071-.036.142-.07.212-.124.07-.035.142-.106.23-.159.141-.105.3.036.477.16.176.123.353.21.53 0 .035-.054.07-.107.123-.107.265-.017.53.053.813.089.265.035.547.017.812-.212.018-.018.07.106.124.141.282.265 1.095.141 1.925.07.424-.035.83-.052 1.184-.035.353.035.618.124.741.318.071.106.283-.159.424-.159.583.018 1.201-.053 1.767.194.388.176.706 0 1.077-.088.318-.07.6.74 1.025.317.282-.282.441.018.653.07.636.142 1.272.16 1.908.23.247.035.476 0 .741.07.601.177 1.237.23 1.855.265.265.018.512.018.777.089.583.158 1.219.194 1.82.264.282.035.547.053.83.106.583.123 1.183.194 1.766.265.3.035.583.053.865.123.283.07 1.378.247 2.49.423 1.114.177 2.209.353 2.491.37.318.018 2.314.389 2.614.46.23.052.46.088.69.123l.176.035c.018 0 .212.035.353.053.3.035.618 0 .901-.035.159-.053.247-.265.23-.653-.018-.423 0-.67.264-.652.213 0 .248-.247.23-.53 0-.282-.053-.564.053-.67.247-.23.495-.406.53-.935.035-.353.194-.547.353-.794.142-.247.265-.529.16-.97 0-.017.07-.017.105-.017.477-.124.354-.635.336-1.112-.018-.194.194-.282.37-.388.177-.105.336-.264.195-.564-.177-.406.124-.476.23-.723.194-.441.388-.9.547-1.359l.371-1.181-1.183-.23zM48.01 42.152c.017-.017.035.018.053.053l-.3.141a.506.506 0 00.247-.194zm24.021 10.883c.035-.052.07-.14.142-.105.07.053.14.158-.018.14a.252.252 0 01-.124-.035zm1.89-6.032c-.318.917-.6 1.834-.653 2.081-.071.3-.654 2.082-.742 2.346-.16.477-.248 1.059-.477 1.447a.254.254 0 00-.035.123.557.557 0 01-.177-.211c-.283-.53-.795.194-1.078.017-.335-.23-.6-.458-1.024-.353-.565.124-1.042-.546-1.678-.105-.018.017-.035-.071-.07-.106-.3-.477-.672-.212-1.078-.089-.336.106-.565-.776-1.007-.37-.3.265-.459-.035-.689-.088-.635-.141-1.271-.3-1.925-.282-.265 0-.495-.07-.742-.124a9.762 9.762 0 00-1.89-.264c-.265 0-.477 0-.741-.089-.601-.211-1.255-.211-1.873-.282-.265-.035-.512 0-.795-.088-.582-.194-1.66-.212-2.278-.3a66.195 66.195 0 00-2.155-.23c-1.007-.105-2.014-.21-2.155-.228-.583-.124-1.2-.124-1.801-.177-.3-.017-.583 0-.884-.07-.583-.142-1.183-.089-1.766-.124-.318-.018-.618 0-.936-.053-.283-.035-.583 0-.866.018-.282.017-.582 0-.883-.124-.07-.035-.159.124-.247.141-.318.071-.636-.017-.971-.035.053-.159.053-.335.123-.494.124-.335.76-.247.901-.688.194-.6.618-1.093 1.148-1.41.353-.23.406-.583.53-.953.106-.3.918-.089.848-.653 0-.035.017-.07 0-.123-.088-.265.017-.353.265-.353.565 0 .512-.476.6-.882.071-.335.919-.07.848-.653v-.106c.106-.3.424-.44.671-.635.513.3 1.13-.582 1.625.16.071.105.283-.177.424-.177.583 0 1.184-.088 1.713.14.39.16.69.107 1.078-.07.318-.158.6.706 1.007.318.053-.035.106-.088.141-.088.548.035 1.06.44 1.66.07.036-.017.071.106.106.159.248.282 1.095.23 1.926.212.847-.018 1.678.017 1.907.423.07.106.3-.141.442-.124.583.053 1.2.018 1.748.3.371.194.707.036 1.078-.035.318-.053.565.776.989.37.3-.264.424.036.653.106.619.177 1.272.23 1.89.335.248.036.477.036.742.124.6.194 1.219.3 1.837.37.265.036.512.053.777.141.583.212 1.201.265 1.802.37.282.054.547.09.812.16.53.158 1.078.247 1.608.352-.036.265-.16.618-.283.953z" fill="#043C3A"/><path d="M84.957 44.551c-.035-.035-.106-.088-.106-.123.035-.247.106-.476.159-.723.035-.247 0-.494-.23-.706-.017-.018.071-.053.089-.07.194-.177.194-.336.106-.477-.071-.14-.23-.282-.318-.423-.07-.123 0-.282.07-.459.071-.176.124-.352-.017-.529a2.307 2.307 0 01-.477-1.5c0-.37-.3-.546-.53-.758-.106-.088-.018-.282.035-.476.053-.194.053-.37-.212-.423-.035 0-.053-.035-.106-.035-.265 0-.3-.089-.194-.318.212-.494-.247-.564-.583-.706-.07-.035-.088-.105-.088-.194v-.14c0-.018 0-.054-.018-.107-.017-.035 0-.053 0-.07 0-.194-.017-.37-.282-.335-.036 0-.071 0-.106-.018-.442-.212-.23-.988-1.007-.9-.018 0 .035-.105.053-.158.141-.723-1.06-.353-.795-1.217.035-.106-.283-.036-.37-.124-.337-.335-.743-.6-.902-1.058a.402.402 0 00-.106-.212c-.017-.017-.017-.035-.035-.035l-.018-.018-.035-.035a.782.782 0 00-.265-.212 1.197 1.197 0 00-1.236 0c-.036.018-.071.053-.106.07-.018.019-.036.019-.053.019-.036.017-.07.017-.124 0-.088-.018-.194-.053-.282-.071-.195-.053-.407-.053-.46.212-.017.053-.017.123-.053.158-.212.142-.459.194-.689.335-.23.124-.423.3-.459.635 0 .036-.123-.035-.176-.035-.371 0-.866.67-1.166 1.482-.318.829-.318 1.623-.69 1.887-.105.089.178.283.178.424.017.3.088.582.159.864.07.282.123.547.14.847.019.423.354.617.637.829.123.088.07.317.07.529 0 .212.071.406.354.388.388-.035.3.265.441.44.336.371.76.636 1.184.865-.018.036-.036.053-.053.088-.124.195-.212.37-.371.53-.354.352-.6.811-.866 1.234-.123.194-.212.406-.37.582-.301.406-.53.847-.743 1.306-.106.23-.194.458-.317.688a2.047 2.047 0 00-.142.282 9.082 9.082 0 01-.194.476c-.124.353-.265.794-.406 1.235-.265.864-.477 1.746-.513 1.976a88.003 88.003 0 01-.53 2.063c-.123.424-.105.882-.353 1.288-.017.018-.017.035-.017.053l-.018.053-.018.07a.666.666 0 000 .265c.018.176.089.37.16.494.088.017.123.053.264.017.371-.053.6-.07.53.16-.035.176.177.176.424.14.247-.035.512-.105.583-.017.159.176.265.37.724.352.3-.017.46.106.636.212.194.106.406.176.812.053.018 0 0 .053 0 .088.018.388.495.247.919.177.177-.036.212.14.265.282.07.141.159.264.46.123.388-.194.405.07.582.141.512.177 1.024.37 1.607.424.23.017.406.106.6.176.495.177 1.025.335 1.555.406.212.017.406.035.618.141.053.035.124.053.177.088 0 0 .159.053.265.053.123.018.247 0 .37-.018.495-.07.92-.44 1.096-.917l.035-.088.018-.053v-.018l.017-.052.018-.089.035-.194c.018-.123.053-.247.071-.37.035-.212.035-.406.141-.617.124-.212.195-.547.265-.865a4.47 4.47 0 00.089-.476v-.035c0-.036.017-.07.017-.106.018-.07.018-.141.018-.212 0-.14-.035-.282-.07-.423a1.493 1.493 0 00-.424-.635 1.22 1.22 0 00-.69-.318 8.103 8.103 0 00-.406-.053 40.163 40.163 0 00-1.095-.158 5.429 5.429 0 00-.53-.07c.16-.195.3-.389.477-.565.177-.16.336-.37.477-.565.141-.211.265-.44.406-.635.142-.212.248-.458.424-.67.16-.194.212-.441.3-.67.089-.23.195-.459.407-.635.053-.036-.053-.177-.053-.23.035-.247.194-.458.318-.688a.903.903 0 00.07-.776c0-.017.036-.017.053-.017.248-.106.3-.247.265-.406-.017-.159-.123-.335-.194-.512-.07-.14.124-.247.283-.388.23-.14.353-.3.141-.494zm-7.701-2.293c-.035-.017-.053-.017-.088-.035-.018-.018-.053-.018-.07-.035.017 0 .034.017.034.017.036.018.053.018.071.036.035 0 .053.017.053.017zm4.15 9.896l-.017.017.018-.017.017-.035.018-.018c-.017.018-.017.035-.035.053z" fill="#043C3A"/><path d="M71.078 33.175c-.07 0-.07.106-.053.159a.328.328 0 00.124-.036c.141-.07.018-.123-.07-.123zm-25.912 5.309a.747.747 0 01-.088.3l.16-.282c-.036-.018-.072-.036-.072-.018z" fill="#fff"/><path d="M44.572 47.18c.053.159.141.317.194.476.283-.176.6-.3.813-.53.053-.052.035-.228.123-.246.318-.053.566-.23.795-.406.23-.176.442-.388.689-.529.283-.159.53-.335.795-.512.494-.317.971-.705 1.501-.934.283-.124.512-.3.76-.46.512-.317 1.007-.67 1.572-.916.141-.053 1.007-.565 1.89-1.076.883-.494 1.766-.988 1.89-1.059.547-.282 1.43-.9 2.013-1.076.283-.088.46-.247.689-.388.547-.317 1.077-.688 1.696-.864.265-.088.441-.212.653-.37.53-.353 1.095-.635 1.678-.882.23-.106.46-.16.671-.318.53-.388 1.13-.635 1.731-.882.212-.088.53.053.618-.335.124-.6.83 0 1.042-.282.248-.335.407-.776.919-.565.035.018.106.07.124.053.247-.723 1.042-.458 1.43-.882.283-.335.654-.3 1.042-.3.336-.017.318-.9.866-.635a.594.594 0 00.265.071c-.018-.053-.053-.088-.053-.123-.053-.441-.318-.988-.46-1.465-.088-.264-.653-2.063-.776-2.346-.107-.247-.407-1.146-.69-2.081a54.522 54.522 0 01-.3-1.023c-.494.23-1.006.476-1.519.653-.265.088-.512.229-.76.352-.547.265-1.094.582-1.677.741-.265.07-.477.212-.707.335-.547.3-1.112.6-1.713.776-.247.071-.441.23-.671.336-.583.282-1.13.617-1.731.829-.212.07-.495-.106-.583.3-.124.582-.795.052-1.024.282-.265.282-.442.6-.866.652-.6.089-1.077.477-1.59.777-.123.07-.159.405-.282.352-.424-.194-1.13.265-1.802.776-.67.494-1.325 1.041-1.695.953-.053-.018-.16-.088-.177-.07-.265.652-.919.617-1.378.917-.035.017-.053.105-.07.158-.124.565-.848.018-1.007.335-.212.37-.424.6-.83.688-.583.124-1.007.547-1.484.9-.106.088-.106.441-.23.388-.83-.3-.812.759-1.413.811-.088.3-.247.6-.176.9 0 .035.035.07.07.088.389.424-.441.706-.317 1.023.158.388.476.741.035 1.076-.212.142-.248.265-.018.441.035.036.035.07.07.089.39.423-.388.705-.317 1.023.106.37.282.688.123 1.076-.23.582-.3 1.217-.105 1.816.14.477-.424.777-.336 1.112z" fill="#fff"/><path d="M72.91 33.598c-.266-.335-.39-.547-.177-.688.176-.124.053-.335-.124-.565-.159-.229-.37-.44-.353-.582.053-.335.159-.617-.106-1.058-.177-.3-.159-.564-.177-.847a1.182 1.182 0 00-.424-.882c-.017-.017.053-.053.071-.07.318-.37-.088-.723-.389-1.094-.123-.159 0-.335.089-.529.088-.194.123-.406-.16-.565-.388-.211-.176-.476-.229-.723-.106-.476-.194-.952-.353-1.41l-.389-1.183-1.095.53c-.176.088-.335.194-.512.282-.212.123-.424.176-.653.264-.601.212-1.184.459-1.731.776-.23.124-.407.265-.672.318-.618.141-1.165.494-1.748.758-.23.124-.442.265-.724.336-.3.07-.69.247-1.06.44-.371.195-.742.406-1.025.53-.123.053-1.042.494-1.943.952-.9.441-1.819.918-1.943.953-.565.211-1.077.547-1.607.829-.265.14-.494.3-.795.405-.547.195-1.042.547-1.554.83-.265.14-.53.317-.83.44-.53.23-.9.741-1.537.777-.07 0-.07.176-.141.229-.442.406-1.166.335-1.466.97 0 .018-.035-.017-.053-.017-.53-.16-.654.282-.866.652-.176.3-.918-.23-1.024.353-.018.07-.018.141-.053.159-.477.282-1.148.3-1.378.988 0 .017-.088-.036-.123-.036-.548-.14-.6.37-.83.688-.16.23-.548.124-.848.247l-.283.123-.194.689a.509.509 0 000 .282c.194.6.123 1.234-.106 1.816-.16.389.017.706.123 1.076.089.318-.688.6-.317 1.024.035.035.035.07.07.088.23.159.194.282-.017.44-.46.318-.142.689.035 1.077.123.317-.707.6-.318 1.023.035.035.053.07.07.088.142.565-.565 1.076.018 1.676.018.017-.106.07-.159.106-.636.529.46 1.252-.353 1.781-.106.07.177.282.177.423v.794l-.16.106.142.053c-.018.176-.035.353-.07.53l-.266 1.005c-.123.423.389.758.742.493l1.201-.917.16-.106a.372.372 0 00.105-.07c.036-.018.053-.053.089-.07a1.17 1.17 0 00.14-.16l.107-.211a.929.929 0 00.088-.265c.053-.158.265-.14.477-.14.212 0 .406-.036.424-.318 0-.053 0-.141.035-.16.212-.175.477-.264.707-.405a.998.998 0 00.547-.635c.018-.035.124.036.177.053.37.053.971-.529 1.607-1.076.318-.264.636-.529.936-.705.3-.177.583-.265.795-.177.124.053.142-.3.248-.37.494-.318.953-.741 1.536-.864.407-.089.565-.424.83-.706.212-.247.919.247 1.007-.335.053-.388.353-.247.565-.335.6-.247 1.13-.618 1.696-.935.212-.124.389-.282.654-.37.582-.212 1.13-.53 1.66-.883.23-.14.424-.282.689-.388.583-.211 1.095-.547 1.625-.846.247-.124.477-.283.742-.389.547-.229 1.077-.529 1.59-.81.264-.142.511-.283.794-.407.265-.105 1.272-.6 2.278-1.11a62.93 62.93 0 002.244-1.147c.265-.16 2.102-1.023 2.402-1.147.212-.088.424-.212.636-.317l.159-.071c.017-.018.194-.088.318-.159.264-.158.512-.352.706-.564.124-.088.07-.318-.177-.635zm-1.731-.424c.088 0 .211.053.07.124a.255.255 0 01-.123.035c0-.053-.018-.159.052-.159zm-25.912 5.31c0-.018.035 0 .088.017l-.158.283a.682.682 0 00.07-.3zm25.594-5.204c-.548-.264-.53.618-.866.635-.406.018-.76-.017-1.042.3-.389.441-1.166.159-1.43.882 0 .018-.071-.035-.124-.053-.513-.211-.671.212-.919.565-.212.282-.9-.3-1.042.282-.088.388-.389.247-.618.335-.6.247-1.201.494-1.731.882-.212.159-.442.23-.671.318-.583.246-1.166.529-1.678.881-.212.142-.389.283-.654.37-.618.177-1.148.548-1.695.865-.23.124-.424.3-.69.388-.6.177-1.465.794-2.013 1.076-.123.07-1.007.547-1.89 1.059-.883.494-1.766 1.005-1.89 1.076-.547.247-1.042.6-1.572.917-.247.159-.477.335-.76.458-.547.23-1.006.618-1.5.935-.265.16-.513.353-.795.512-.248.123-.46.335-.69.529-.229.176-.476.353-.794.406-.07.017-.053.194-.124.247-.212.229-.53.352-.812.529-.053-.159-.16-.318-.194-.476-.089-.336.459-.635.317-1.094-.194-.6-.123-1.235.106-1.817.16-.388-.017-.705-.123-1.076-.088-.317.689-.6.318-1.023-.036-.035-.036-.07-.07-.088-.23-.159-.195-.282.017-.441.459-.335.141-.688-.035-1.076-.124-.318.706-.6.317-1.023-.035-.035-.053-.07-.07-.088-.089-.3.088-.6.176-.9.6-.053.583-1.111 1.413-.811.124.035.124-.318.23-.388.46-.336.9-.759 1.484-.9.406-.088.618-.317.83-.688.177-.3.9.23 1.007-.335.017-.053.017-.141.07-.159.46-.3 1.13-.264 1.378-.917.018-.035.124.053.177.07.37.089 1.024-.458 1.695-.952.671-.494 1.378-.97 1.802-.776.123.053.159-.282.282-.353.513-.3.99-.688 1.59-.776.424-.07.6-.388.866-.653.23-.229.9.3 1.024-.282.088-.388.371-.23.583-.3.6-.212 1.166-.547 1.73-.829.23-.106.407-.247.672-.335.6-.176 1.166-.476 1.713-.776.23-.124.442-.265.707-.335.583-.177 1.13-.494 1.678-.741.247-.124.494-.247.76-.353.512-.176 1.024-.423 1.518-.653.089.318.195.67.3 1.024.283.917.584 1.834.69 2.08.105.283.688 2.065.777 2.347.14.476.423 1.005.459 1.464 0 .035.017.07.053.123-.053-.017-.142-.035-.247-.088z" fill="#043C3A"/><path d="M83.105 29.222l-.035-.088-.018-.035v-.018l-.018-.035-.035-.088-.088-.177c-.053-.105-.106-.229-.16-.335-.088-.194-.211-.353-.247-.582-.035-.247-.159-.547-.3-.847-.07-.158-.141-.3-.212-.44l-.018-.036-.053-.106a1.19 1.19 0 00-.123-.194c-.088-.123-.195-.211-.3-.3a1.459 1.459 0 00-.707-.264c-.106 0-.388-.035-.76.14-.088.054-.211.107-.353.177-.282.142-.636.335-.989.512-.159.088-.318.159-.477.247.018-.247.018-.476.07-.741.054-.247.072-.494.054-.74l-.053-.76c0-.264-.07-.51-.053-.793.018-.247-.088-.476-.141-.723-.053-.247-.106-.477-.036-.759.018-.07-.141-.106-.176-.159-.106-.229-.124-.494-.16-.74-.035-.247-.123-.494-.406-.653 0 0 .018-.035.036-.053.141-.23.088-.37-.018-.494-.106-.123-.282-.194-.46-.3-.14-.07-.052-.282 0-.476.054-.194.054-.388-.229-.423-.053 0-.141-.018-.159-.036-.123-.211-.194-.458-.3-.67a.774.774 0 00-.6-.44c-.018 0 .017-.071.035-.124.053-.265-.035-.388-.195-.459-.14-.07-.353-.088-.512-.159-.141-.07-.176-.229-.212-.405-.053-.177-.106-.37-.318-.424-.53-.159-.953-.494-1.271-.935-.212-.3-.548-.264-.883-.317-.142-.018-.177-.23-.248-.406-.07-.176-.176-.335-.424-.212-.035.018-.07.018-.106.036-.212.159-.3.106-.353-.141-.106-.512-.53-.318-.883-.247-.07.017-.124-.036-.194-.088-.036-.036-.053-.071-.089-.124-.017-.018-.017-.035-.07-.07-.036-.018-.036-.036-.053-.071-.106-.159-.23-.282-.424-.106-.035.018-.053.053-.088.053-.477.088-.76-.67-1.343-.141-.017.018-.035-.106-.053-.159-.3-.67-1.077.318-1.342-.529-.036-.106-.265.141-.371.123-.46-.07-.954-.053-1.343-.335a.599.599 0 00-.212-.106c-.017 0-.035-.017-.052-.017h-.018l-.053-.018c-.106-.018-.23-.018-.336-.018-.441.036-.848.318-1.007.724-.017.035-.035.088-.052.123 0 .018-.018.036-.018.053-.018.035-.053.053-.088.07-.071.036-.177.071-.283.106-.194.071-.371.195-.247.441.017.053.053.124.053.16-.089.229-.265.44-.371.67-.106.229-.16.493 0 .793.017.036-.124.053-.16.07-.3.213-.317 1.042-.087 1.87.23.847.688 1.5.547 1.94-.035.124.3.124.389.23.176.23.406.424.636.6.23.194.423.37.618.617.265.335.653.3 1.006.318.16 0 .248.212.371.388.124.159.3.3.513.106.3-.265.406.035.618.088.494.106.989.088 1.466.018v.105c.017.212.035.424 0 .653-.088.494-.018 1.006.017 1.5.018.229.053.458.053.687 0 .494.071 1.006.16 1.5.052.247.105.494.14.758 0 .07.018.177.054.318.035.14.07.335.123.494.106.37.248.793.389 1.234.3.865.636 1.694.724 1.905.106.23.689 1.747.777 1.993.142.424.424.777.46 1.253 0 .018.017.035.017.053l.018.053.035.053c.035.07.088.158.16.229.123.141.282.247.423.3.07-.035.124-.035.23-.141.265-.265.441-.406.53-.194.07.176.247.035.423-.124.177-.176.354-.37.46-.353.247.053.441.142.794-.123.23-.176.442-.176.654-.194.212-.035.442-.088.689-.441.017-.018.035.053.053.07.247.318.547-.088.848-.405.123-.124.247 0 .388.07.142.089.283.124.442-.176.194-.388.37-.176.565-.23.512-.14 1.06-.282 1.537-.581.194-.124.388-.16.6-.212.513-.141 1.025-.318 1.502-.582.194-.106.353-.212.582-.247.071-.018.142-.018.195-.035 0 0 .159-.053.247-.106.106-.053.212-.141.3-.23.442-.388.583-.934.442-1.41zm-4.875-2.046v.018-.088.07zm-9.238-5.591h-.07c.017 0 .035 0 .035-.018.035 0 .053-.018.088-.018h.036c-.036.018-.071.018-.089.035z" fill="#043C3A"/><mask id="mask0_1:879" style="mask-type:alpha" maskUnits="userSpaceOnUse" x="11" y="-1" width="47" height="54"><path d="M56.89 23.12c.124-.334.16-.67-.07-1.022-.035-.053-.053-.124-.088-.159-.142-.123-.195-.23-.212-.37-.018-.124.017-.265.106-.424.176-.352.159-.67.053-.988-.106-.3-.3-.6-.442-.917-.124-.264-.035-.582.035-.917.036-.176.053-.353.036-.512a.89.89 0 00-.248-.476c-.035-.035-.088-.088-.106-.14-.212-.477-.23-.971-.318-1.5-.07-.512-.264-1.023-.724-1.376-.035-.018.053-.177.053-.265.036-.3-.035-.582-.159-.829-.106-.247-.3-.476-.476-.705-.089-.124-.177-.23-.248-.353-.07-.124-.159-.23-.212-.353a1.522 1.522 0 01-.159-.864c.018-.177-.424-.335-.565-.547-.6-.9-1.342-1.711-1.872-2.628a2.883 2.883 0 00-.618-.794 5.529 5.529 0 00-.371-.3 9.698 9.698 0 00-.442-.264c-.265-.142-.353-.477-.512-.777a1.45 1.45 0 00-.283-.44.482.482 0 00-.212-.16 1.324 1.324 0 00-.282-.088c-.089-.017-.195-.017-.265-.07-.389-.318-.76-.688-1.166-1.023a4.15 4.15 0 00-.654-.423c-.123-.053-.23-.106-.353-.16a3.078 3.078 0 00-.388-.087c-.053 0-.071-.16-.124-.247-.318-.512-1.766-1.147-3.25-1.623-.37-.124-.742-.23-1.095-.335-.353-.106-.707-.194-1.007-.3-.3-.106-.583-.194-.812-.3-.23-.106-.407-.212-.512-.335-.124-.141-.53.07-.795.017-1.096-.176-2.226-.194-3.286-.423-.742-.159-1.324.035-1.978.194-.141.035-.282 0-.441-.035-.16-.035-.318-.088-.495-.141-.336-.088-.706-.141-1.007.14a.727.727 0 01-.6.213c-.195 0-.389-.036-.6-.018-.601.07-1.184.212-1.767.353-.565.176-1.148.352-1.713.564-.195.035-.407.124-.619.212-.212.088-.424.176-.653.264-1.095.37-2.155.918-3.127 1.588-.212.141-.406.282-.6.423-.194.141-.406.265-.618.406-.972.582-1.82 1.393-2.632 2.187a8.08 8.08 0 01-.548.547c-.176.194-.353.388-.53.564-.777.794-1.448 1.694-2.048 2.629-.16.229-.283.458-.424.688-.141.229-.283.458-.424.705-.07.124-.194.318-.336.582-.159.265-.318.6-.494.988-.106.194-.177.406-.283.617-.088.212-.194.441-.283.67-.176.46-.37.953-.512 1.447-.653 1.993-.883 4.075-.918 4.622-.018.3-.106 1.393-.106 2.487.018 1.093.106 2.187.159 2.47.035.246.07.51.106.758.035.247.106.494.159.758.088.512.23 1.006.282 1.535 0 .053.018.088.036.14.017.036.035.072.053.124.053.141.07.3.194.441.335.353.495.653.353 1.165-.106.405.07.705.3.97.23.264.495.476.548.758.035.335.088.653.177.97 0 0 7.241 3.846 10.085 13 .07.053.954.46 1.025.494.406.247.76.441 1.13.741.9.706 1.943 1.235 2.985 1.746.424.212.866.353 1.29.636.476.282 1.165.6 1.89.864.353.14.724.264 1.06.37.335.124.653.23.918.318.23.088 1.978.652 3.78 1.058.229.053.441.106.67.141.23.053.442.088.654.124.424.088.83.158 1.184.211.176.036.335.053.494.07.07.018.141.018.212.036.035 0 .07.018.106.018.035 0 .088.017.141.017.389.036.636-.017.742-.035.212-.035.424-.088.636-.194a1.24 1.24 0 00.3-.159c.053-.035.089-.053.142-.088l.07-.053.053-.035c.212-.176.424-.335.636-.512.424-.335.83-.723 1.236-1.075.39-.371.742-.741 1.184-1.094a9.732 9.732 0 001.148-1.111c.177-.194.353-.389.53-.6a18.2 18.2 0 01.53-.6c.088-.106.176-.212.282-.317l.265-.318c.177-.212.354-.44.548-.653.671-.776 1.095-1.764 1.89-2.47.088-.087.053-.299.123-.422.124-.23.265-.459.424-.67.16-.212.318-.424.477-.653.3-.441.583-.9.636-1.464 0-.018.053-.036.07-.036.69-.405.654-1.093.76-1.781.036-.282.3-.494.566-.723.264-.23.476-.53.406-.935-.018-.088-.036-.194-.018-.265.194-.476.442-.917.636-1.393a3.42 3.42 0 00.212-.724c.017-.123.035-.246.053-.388 0-.123 0-.264-.035-.405 0-.036.088-.07.14-.106.601-.547.336-1.235.372-1.905 0-.3.159-.582.318-.9.159-.3.3-.653.265-1.058-.018-.141-.018-.282-.018-.406v-.423c0-.282.018-.565.053-.83.035-.564.141-1.11.247-1.657.177-.741-.053-1.306-.176-1.958-.16-.318 0-.618.106-.935zm-14.306-2.857c-.3.194-.195.406-.089.635.089.23.142.477-.282.6-.106.035.159.23.141.335-.07.406-.07.865-.389 1.182-.106.106-.176.212-.194.335-.017.124 0 .265.035.441.036.141-.158.177-.353.23-.176.052-.335.105-.212.335.018.052.053.105.036.14a.793.793 0 01-.195.23c-.07.07-.159.141-.23.212-.14.14-.229.317-.176.6 0 .035-.124-.018-.177-.018-.318 0-.582.529-.936 1.023a3.415 3.415 0 01-.583.635c-.211.141-.406.212-.6.106-.106-.053-.053.264-.141.317-.336.247-.672.582-1.13.582a.476.476 0 00-.354.159c-.088.088-.177.212-.283.318-.088.088-.265-.036-.424-.106-.159-.07-.3-.124-.37.14-.089.354-.3.107-.46.124-.459.018-.9.159-1.36.194-.176.018-.335.07-.53.036-.441-.089-.883-.071-1.342-.089-.194 0-.371 0-.565-.07-.406-.177-.848-.212-1.254-.335a3.57 3.57 0 01-.566-.194c-.37-.212-.759-.37-1.148-.565-.176-.106-.37-.176-.53-.335-.158-.141-.812-.6-1.36-1.164l-.211-.212c-.071-.07-.124-.14-.195-.211l-.353-.406c-.194-.247-.353-.441-.424-.53-.035-.035-.106-.158-.212-.3a10.134 10.134 0 01-.3-.51c-.053-.089-.088-.177-.141-.265-.036-.088-.089-.177-.106-.247a5.304 5.304 0 01-.142-.335l-.106-.265a1.776 1.776 0 00-.123-.265 1.559 1.559 0 01-.124-.582c0-.035-.018-.07-.035-.105-.036-.053-.018-.124-.106-.16-.248-.105-.371-.229-.106-.458.212-.176.088-.282-.053-.388-.142-.106-.336-.212-.283-.317.141-.283.3-.512.124-.777-.124-.194-.018-.388.035-.582.053-.194.088-.388-.159-.617-.017-.018.07-.035.106-.053.23-.106.265-.23.23-.353-.036-.123-.142-.264-.212-.423-.07-.124.141-.212.282-.3.16-.088.283-.194.089-.388-.265-.265.053-.335.106-.476.176-.424.406-.83.512-1.27.035-.194.159-.318.265-.459a9.38 9.38 0 00.742-1.111c.088-.159.159-.3.318-.423.388-.247.635-.618.971-.935.141-.124.23-.283.424-.353.406-.177.971-.67 1.378-.865.088-.052.724-.37 1.395-.6.177-.052.336-.105.512-.158.16-.035.318-.07.46-.106a5.76 5.76 0 01.53-.088c.423 0 .847-.088 1.271-.106.212 0 .406-.035.618.018.407.106.83.07 1.237.14l.318.054c.106.018.212.035.318.088.088.035.194.053.3.07.106.018.194.036.3.053a.808.808 0 01.53.318c.035.053.141-.07.194-.053a.781.781 0 01.283.106c.088.053.176.123.247.194.177.123.336.23.618.159.018 0 0 .035 0 .053.018.247.106.335.23.352.124.018.3-.017.477-.035.141 0 .141.194.159.388.018.177.053.335.3.265.053-.018.124-.053.141-.018.16.124.23.335.354.494.123.159.282.282.565.265.018 0-.018.07-.035.105-.124.477.3.388.582.512.124.053.106.212.106.388 0 .159 0 .318.16.406.423.211.653.635.653 1.111 0 .159.07.265.159.353.088.088.23.176.318.264.088.089-.018.247-.089.406-.07.159-.123.3.124.37.035.018.053.036.088.036.265.035.265.14.089.3-.177.176-.16.3-.089.405.071.106.248.212.354.318.088.106-.053.247-.16.37-.105.141-.194.265.018.388.036.018.071.036.071.053.106.194 0 .406-.053.6-.07.194-.07.388.23.6.123.017 0 .053-.053.07z" fill="#fff"/></mask><g mask="url(#mask0_1:879)"><path d="M56.89 23.12c.124-.334.16-.67-.07-1.022-.035-.053-.053-.124-.088-.159-.142-.123-.195-.23-.212-.37-.018-.124.017-.265.106-.424.176-.352.159-.67.053-.988-.106-.3-.3-.6-.442-.917-.124-.264-.035-.582.035-.917.036-.176.053-.353.036-.512a.89.89 0 00-.248-.476c-.035-.035-.088-.088-.106-.14-.212-.477-.23-.971-.318-1.5-.07-.512-.264-1.023-.724-1.376-.035-.018.053-.177.053-.265.036-.3-.035-.582-.159-.829-.106-.247-.3-.476-.476-.705-.089-.124-.177-.23-.248-.353-.07-.124-.159-.23-.212-.353a1.522 1.522 0 01-.159-.864c.018-.177-.424-.335-.565-.547-.6-.9-1.342-1.711-1.872-2.628a2.883 2.883 0 00-.618-.794 5.529 5.529 0 00-.371-.3 9.698 9.698 0 00-.442-.264c-.265-.142-.353-.477-.512-.777a1.45 1.45 0 00-.283-.44.482.482 0 00-.212-.16 1.324 1.324 0 00-.282-.088c-.089-.017-.195-.017-.265-.07-.389-.318-.76-.688-1.166-1.023a4.15 4.15 0 00-.654-.423c-.123-.053-.23-.106-.353-.16a3.078 3.078 0 00-.388-.087c-.053 0-.071-.16-.124-.247-.318-.512-1.766-1.147-3.25-1.623-.37-.124-.742-.23-1.095-.335-.353-.106-.707-.194-1.007-.3-.3-.106-.583-.194-.812-.3-.23-.106-.407-.212-.512-.335-.124-.141-.53.07-.795.017-1.096-.176-2.226-.194-3.286-.423-.742-.159-1.324.035-1.978.194-.141.035-.282 0-.441-.035-.16-.035-.318-.088-.495-.141-.336-.088-.706-.141-1.007.14a.727.727 0 01-.6.213c-.195 0-.389-.036-.6-.018-.601.07-1.184.212-1.767.353-.565.176-1.148.352-1.713.564-.195.035-.407.124-.619.212-.212.088-.424.176-.653.264-1.095.37-2.155.918-3.127 1.588-.212.141-.406.282-.6.423-.194.141-.406.265-.618.406-.972.582-1.82 1.393-2.632 2.187a8.08 8.08 0 01-.548.547c-.176.194-.353.388-.53.564-.777.794-1.448 1.694-2.048 2.629-.16.229-.283.458-.424.688-.141.229-.283.458-.424.705-.07.124-.194.318-.336.582-.159.265-.318.6-.494.988-.106.194-.177.406-.283.617-.088.212-.194.441-.283.67-.176.46-.37.953-.512 1.447-.653 1.993-.883 4.075-.918 4.622-.018.3-.106 1.393-.106 2.487.018 1.093.106 2.187.159 2.47.035.246.07.51.106.758.035.247.106.494.159.758.088.512.23 1.006.282 1.535 0 .053.018.088.036.14.017.036.035.072.053.124.053.141.07.3.194.441.335.353.495.653.353 1.165-.106.405.07.705.3.97.23.264.495.476.548.758.035.335.088.653.177.97 0 0 7.241 3.846 10.085 13 .07.053.954.46 1.025.494.406.247.76.441 1.13.741.9.706 1.943 1.235 2.985 1.746.424.212.866.353 1.29.636.476.282 1.165.6 1.89.864.353.14.724.264 1.06.37.335.124.653.23.918.318.23.088 1.978.652 3.78 1.058.229.053.441.106.67.141.23.053.442.088.654.124.424.088.83.158 1.184.211.176.036.335.053.494.07.07.018.141.018.212.036.035 0 .07.018.106.018.035 0 .088.017.141.017.389.036.636-.017.742-.035.212-.035.424-.088.636-.194a1.24 1.24 0 00.3-.159c.053-.035.089-.053.142-.088l.07-.053.053-.035c.212-.176.424-.335.636-.512.424-.335.83-.723 1.236-1.075.39-.371.742-.741 1.184-1.094a9.732 9.732 0 001.148-1.111c.177-.194.353-.389.53-.6a18.2 18.2 0 01.53-.6c.088-.106.176-.212.282-.317l.265-.318c.177-.212.354-.44.548-.653.671-.776 1.095-1.764 1.89-2.47.088-.087.053-.299.123-.422.124-.23.265-.459.424-.67.16-.212.318-.424.477-.653.3-.441.583-.9.636-1.464 0-.018.053-.036.07-.036.69-.405.654-1.093.76-1.781.036-.282.3-.494.566-.723.264-.23.476-.53.406-.935-.018-.088-.036-.194-.018-.265.194-.476.442-.917.636-1.393a3.42 3.42 0 00.212-.724c.017-.123.035-.246.053-.388 0-.123 0-.264-.035-.405 0-.036.088-.07.14-.106.601-.547.336-1.235.372-1.905 0-.3.159-.582.318-.9.159-.3.3-.653.265-1.058-.018-.141-.018-.282-.018-.406v-.423c0-.282.018-.565.053-.83.035-.564.141-1.11.247-1.657.177-.741-.053-1.306-.176-1.958-.16-.318 0-.618.106-.935zm-14.306-2.857c-.3.194-.195.406-.089.635.089.23.142.477-.282.6-.106.035.159.23.141.335-.07.406-.07.865-.389 1.182-.106.106-.176.212-.194.335-.017.124 0 .265.035.441.036.141-.158.177-.353.23-.176.052-.335.105-.212.335.018.052.053.105.036.14a.793.793 0 01-.195.23c-.07.07-.159.141-.23.212-.14.14-.229.317-.176.6 0 .035-.124-.018-.177-.018-.318 0-.582.529-.936 1.023a3.415 3.415 0 01-.583.635c-.211.141-.406.212-.6.106-.106-.053-.053.264-.141.317-.336.247-.672.582-1.13.582a.476.476 0 00-.354.159c-.088.088-.177.212-.283.318-.088.088-.265-.036-.424-.106-.159-.07-.3-.124-.37.14-.089.354-.3.107-.46.124-.459.018-.9.159-1.36.194-.176.018-.335.07-.53.036-.441-.089-.883-.071-1.342-.089-.194 0-.371 0-.565-.07-.406-.177-.848-.212-1.254-.335a3.57 3.57 0 01-.566-.194c-.37-.212-.759-.37-1.148-.565-.176-.106-.37-.176-.53-.335-.158-.141-.812-.6-1.36-1.164l-.211-.212c-.071-.07-.124-.14-.195-.211l-.353-.406c-.194-.247-.353-.441-.424-.53-.035-.035-.106-.158-.212-.3a10.134 10.134 0 01-.3-.51c-.053-.089-.088-.177-.141-.265-.036-.088-.089-.177-.106-.247a5.304 5.304 0 01-.142-.335l-.106-.265a1.776 1.776 0 00-.123-.265 1.559 1.559 0 01-.124-.582c0-.035-.018-.07-.035-.105-.036-.053-.018-.124-.106-.16-.248-.105-.371-.229-.106-.458.212-.176.088-.282-.053-.388-.142-.106-.336-.212-.283-.317.141-.283.3-.512.124-.777-.124-.194-.018-.388.035-.582.053-.194.088-.388-.159-.617-.017-.018.07-.035.106-.053.23-.106.265-.23.23-.353-.036-.123-.142-.264-.212-.423-.07-.124.141-.212.282-.3.16-.088.283-.194.089-.388-.265-.265.053-.335.106-.476.176-.424.406-.83.512-1.27.035-.194.159-.318.265-.459a9.38 9.38 0 00.742-1.111c.088-.159.159-.3.318-.423.388-.247.635-.618.971-.935.141-.124.23-.283.424-.353.406-.177.971-.67 1.378-.865.088-.052.724-.37 1.395-.6.177-.052.336-.105.512-.158.16-.035.318-.07.46-.106a5.76 5.76 0 01.53-.088c.423 0 .847-.088 1.271-.106.212 0 .406-.035.618.018.407.106.83.07 1.237.14l.318.054c.106.018.212.035.318.088.088.035.194.053.3.07.106.018.194.036.3.053a.808.808 0 01.53.318c.035.053.141-.07.194-.053a.781.781 0 01.283.106c.088.053.176.123.247.194.177.123.336.23.618.159.018 0 0 .035 0 .053.018.247.106.335.23.352.124.018.3-.017.477-.035.141 0 .141.194.159.388.018.177.053.335.3.265.053-.018.124-.053.141-.018.16.124.23.335.354.494.123.159.282.282.565.265.018 0-.018.07-.035.105-.124.477.3.388.582.512.124.053.106.212.106.388 0 .159 0 .318.16.406.423.211.653.635.653 1.111 0 .159.07.265.159.353.088.088.23.176.318.264.088.089-.018.247-.089.406-.07.159-.123.3.124.37.035.018.053.036.088.036.265.035.265.14.089.3-.177.176-.16.3-.089.405.071.106.248.212.354.318.088.106-.053.247-.16.37-.105.141-.194.265.018.388.036.018.071.036.071.053.106.194 0 .406-.053.6-.07.194-.07.388.23.6.123.017 0 .053-.053.07z" fill="#87D8C8" stroke="#043C3A" stroke-width="3.6"/></g></g><defs><clipPath id="clip0_1:879"><path fill="#fff" d="M0 0h89v80H0z"/></clipPath></defs></svg>