<svg width="120" height="31" fill="none" xmlns="http://www.w3.org/2000/svg"><g clip-path="url(#clip0_1:790)"><path d="M11.553 2.888h2.628a8.967 8.967 0 014.728.592 8.268 8.268 0 013.781 4.98c.392 1.092.392 1.092 1.338.706h.738V.523H.023v1.524h1.015a2.954 2.954 0 012.306 1.069C4.289 4.617 4.45 6.3 4.45 15.056c0 9.303-.207 11.577-1.106 12.737a2.515 2.515 0 01-1.914 1.001c-1.407.25-1.407.227-1.407.841a.898.898 0 000 .637h15.611a1.417 1.417 0 000-1.296 8.052 8.052 0 00-1.153-.228 7.8 7.8 0 01-1.245-.25 4.105 4.105 0 01-1.34-1.633 4.042 4.042 0 01-.343-2.074c-.23-1.501-.346-4.253-.346-6.528v-1.796h.922c1.15-.035 2.298.087 3.413.364.534.325.989.763 1.332 1.282a4.18 4.18 0 01.651 1.72l.208.705h1.406V10.462h-1.291l-.208.978a4.016 4.016 0 01-.687 1.748 4.085 4.085 0 01-1.411 1.254c-.546.16-1.12.2-1.683.114h-2.652V12.1c0-2.548.138-7.915.23-8.757l.116-.455zM119.47 20.924a8.358 8.358 0 00-4.774-3.57 11.575 11.575 0 01-4.127-2.275 2.257 2.257 0 01-.669-2.024 2.69 2.69 0 01.807-1.91 2.793 2.793 0 011.278-.753 2.827 2.827 0 011.489.002c1.008.283 1.92.83 2.638 1.583a5.703 5.703 0 011.444 2.693c.369 1.023.415 1.023 1.083.75l.416-.159V9.598l-.3-.137a18.052 18.052 0 00-7.079-.955 8.361 8.361 0 00-5.535 2.275 6.283 6.283 0 00-1.554 2.237 6.22 6.22 0 00-.452 2.675 5.353 5.353 0 001.568 3.73 9.397 9.397 0 003.92 2.275c3.575 1.387 4.612 2.274 4.612 3.889a2.97 2.97 0 01-.623 1.888 3.049 3.049 0 01-1.683 1.091 5.77 5.77 0 01-2.444 0 7.104 7.104 0 01-2.745-1.884 6.97 6.97 0 01-1.567-2.915l-.3-.727h-.415c-.198.014-.393.06-.576.136h-.231v6.46h.392c1.558.51 3.165.861 4.796 1.046h2.306c1 .072 2.006-.02 2.975-.273a7.214 7.214 0 003.335-1.56 7.072 7.072 0 002.107-2.99 5.222 5.222 0 00.415-2.046 5.596 5.596 0 00-.507-2.889zM97.748 9.166a10.76 10.76 0 00-8.693.205 10.103 10.103 0 00-3.308 2.552 9.94 9.94 0 00-1.973 3.657 11.99 11.99 0 00-.623 4.548c-.016.84.053 1.677.208 2.502a10.054 10.054 0 002.845 5.351 10.287 10.287 0 005.433 2.792c1.34.166 2.696.166 4.035 0a11.16 11.16 0 003.92-1.479 6.877 6.877 0 002.445-2.274 1.129 1.129 0 00-.554-.705 2.98 2.98 0 00-.737.386 6.666 6.666 0 01-3.874 1.07 6.235 6.235 0 01-2.674-.41 6.163 6.163 0 01-2.238-1.501 5.445 5.445 0 01-1.176-1.547 10.46 10.46 0 01-1.13-4.548v-.887h12.775v-.455c.028-.455.028-.91 0-1.365a9.009 9.009 0 00-1.262-4.568 9.172 9.172 0 00-3.42-3.324zm-6.434 7.87H89.7v-1.343c.53-3.434 1.845-5.481 3.46-5.481 1.613 0 2.305 2.024 2.605 5.732v1.046H94.38l-3.067.045zm-33.159-8.62a4.9 4.9 0 00-2.306.477 7.672 7.672 0 00-3.574 3.525l-.3.546V8.415h-.115c-.277 0-8.809 1.683-9.085 1.797-.277.114-.185.136-.185.546 0 .41 0 .478.185.5l.9.182c.251.006.498.069.722.183.224.114.418.277.568.477.577.75.692 2.07.692 7.687.114 2.53.006 5.063-.323 7.574a1.859 1.859 0 01-.557.989 1.902 1.902 0 01-1.034.49l-.784.159h-.3v.636a.897.897 0 000 .66h12.89v-.66a1.639 1.639 0 000-.66 13.053 13.053 0 01-2.305-.295 2.29 2.29 0 01-.969-.95 2.248 2.248 0 01-.253-1.324c-.185-1.32-.277-5.186-.231-8.143.046-2.956 0-3.138.254-3.343a4.19 4.19 0 012.697-.841c.916.02 1.815.245 2.63.66.281.154.584.268.899.34 0 0 2.306-5.504 2.306-5.754a2.721 2.721 0 00-1.094-.757 2.756 2.756 0 00-1.328-.153zm-15.542 9.552a10.11 10.11 0 00-1.38-4.617 10.274 10.274 0 00-3.37-3.48 12.132 12.132 0 00-10.792-.296 10.318 10.318 0 00-5.05 5.914 14.995 14.995 0 000 8.733 9.503 9.503 0 002.468 4.117 9.414 9.414 0 005.326 2.547 23.57 23.57 0 003.875 0c.474-.07.944-.17 1.406-.295a10.284 10.284 0 004.868-2.983 10.066 10.066 0 002.488-5.091c.23-1.506.284-3.032.161-4.55zM33.021 29.34c-2.306.682-4.036-1.524-4.612-6.164a42.043 42.043 0 010-7.3c.461-3.73 1.637-5.618 3.459-5.618.367-.023.735.042 1.072.188.337.146.634.37.865.653 1.545 1.524 2.306 4.549 2.306 9.098a16.646 16.646 0 01-1.2 7.55 3.497 3.497 0 01-1.89 1.479v.114zM74.527 8.87a7.785 7.785 0 00-1.96 0 8.818 8.818 0 00-3.62.773l-.715.296V5.004a33.456 33.456 0 000-5.004c-.277 0-9.085 1.66-9.224 1.729a.695.695 0 000 .523c0 .477 0 .455 1.038.682.291.064.571.172.83.318.45.418.75.969.853 1.57.263 1.73.348 3.483.254 5.23v19.97l.623.137c.922.204 3.528.636 4.38.727 1.705.134 3.416.134 5.12 0a10.53 10.53 0 005.213-2.012 10.322 10.322 0 003.411-4.379c.425-1.116.719-2.275.876-3.457a20.19 20.19 0 00-.161-4.799 8.706 8.706 0 00-2.281-4.76 8.908 8.908 0 00-4.637-2.609zm-6.041 20.083c0-.296-.23-10.258-.185-14.238V11.6l.669-.159a4.86 4.86 0 011.36 0 2.33 2.33 0 011.43.319 6.86 6.86 0 012.092 2.255c.515.899.817 1.9.883 2.93a24.676 24.676 0 010 4.981 10.86 10.86 0 01-2.675 6.528 3.223 3.223 0 01-1.637.819c-.466.08-.942.08-1.407 0-.438 0-.438-.137-.438-.319h-.092z" fill="#000"/></g><defs><clipPath id="clip0_1:790"><path fill="#fff" d="M0 0h120v31H0z"/></clipPath></defs></svg>