<svg width="120" height="22" fill="none" xmlns="http://www.w3.org/2000/svg"><path d="M0 0h8.798c1.675 0 2.932.416 3.863 1.11 1.024.831 1.583 2.033 1.583 3.512 0 1.71-.699 2.773-2.095 3.42v.092c1.862.601 2.933 2.265 2.933 4.253 0 1.894-.745 3.373-1.956 4.298-1.024.74-2.327 1.063-4.096 1.063H0V0zm7.913 6.933c.931 0 1.63-.509 1.63-1.572 0-1.016-.699-1.525-1.676-1.525H4.84v3.05h3.072v.047zm.419 6.886c1.07 0 1.862-.647 1.862-1.802 0-1.248-.838-1.803-1.862-1.803H4.888v3.652h3.444v-.047zM15.873 0h4.608v17.794h-4.608V0zm5.539 11.462c0-4.02 2.607-6.701 6.656-6.701 4.05 0 6.61 2.727 6.61 6.701 0 4.021-2.56 6.702-6.61 6.702-4.05 0-6.656-2.68-6.656-6.702zm8.658 0c0-2.218-.698-3.605-2.095-3.605-1.396 0-2.048 1.387-2.048 3.605 0 2.219.652 3.652 2.048 3.652 1.397-.046 2.095-1.433 2.095-3.652zm5.12 0c0-4.02 2.607-6.701 6.656-6.701 4.05 0 6.564 2.68 6.564 6.701 0 4.021-2.56 6.702-6.61 6.702-4.003 0-6.61-2.68-6.61-6.702zm8.658 0c0-2.218-.698-3.605-2.095-3.605-1.396 0-2.048 1.387-2.048 3.605 0 2.219.652 3.652 2.048 3.652 1.397-.046 2.095-1.433 2.095-3.652zm5.492-6.378h4.283V6.98h.093c.838-1.479 2.002-2.265 3.864-2.265 1.629 0 2.839.786 3.444 2.173h.093c1.024-1.664 2.374-2.173 3.957-2.173 2.979 0 4.236 2.173 4.236 5.084v7.95h-4.47v-7.164c0-1.294-.419-2.126-1.536-2.126s-1.676 1.017-1.676 2.403v6.887H57.16v-7.164c0-1.294-.42-2.126-1.537-2.126s-1.675 1.017-1.675 2.403v6.887H49.34V5.084zm25.602 11h-.047v1.664h-4.282V0h4.469v6.378h.093c.837-1.11 2.001-1.71 3.63-1.71 3.212 0 5.074 2.866 5.074 6.702 0 4.298-2.002 6.794-5.353 6.794-1.396 0-2.84-.647-3.584-2.08zm4.329-4.76c0-2.034-.745-3.374-2.095-3.374-1.396 0-2.234 1.34-2.234 3.373 0 2.034.884 3.374 2.234 3.374s2.095-1.294 2.095-3.373zm5.12.092c0-3.975 2.653-6.702 6.47-6.702 1.909 0 3.352.601 4.469 1.664 1.49 1.433 2.14 3.652 2.094 6.24H88.86c.186 1.571.93 2.403 2.28 2.403.792 0 1.49-.37 1.77-1.202h4.328c-.745 2.912-3.025 4.345-6.237 4.345-3.957-.046-6.61-2.727-6.61-6.748zm4.469-1.34h4.096c-.093-1.526-.931-2.311-2.002-2.311-1.257-.046-1.955.832-2.094 2.31zm13.638-2.82h.093c.931-1.756 2.141-2.45 3.677-2.45.373 0 .606.047.745.14v3.882h-.093c-2.653-.463-4.189.785-4.189 3.65v5.316h-4.515V5.084h4.282v2.172zm4.981 10.538h4.329c.186.555.744 1.063 1.815 1.063 1.443 0 1.955-.878 1.955-2.218v-.925h-.093c-.698.832-1.676 1.433-3.072 1.433-2.747 0-5.167-2.034-5.167-6.008 0-3.652 1.955-6.471 4.934-6.471 1.722 0 2.746.693 3.444 1.756h.094V5.038H120v11c0 2.033-.698 3.605-1.769 4.53-1.117.97-2.7 1.386-4.515 1.386-3.444.046-5.818-1.34-6.237-4.16zm8.285-6.84c0-1.572-.745-2.866-2.048-2.866-1.257 0-2.048 1.11-2.048 2.866 0 1.71.791 2.911 2.048 2.911 1.257 0 2.048-1.248 2.048-2.911z" fill="#000"/></svg>