<svg width="120" height="45" fill="none" xmlns="http://www.w3.org/2000/svg"><path d="M48.778 34.212c0-.97.634-1.403 1.486-1.403.456 0 .793.103 1.09.248v-3.115c-.455-.227-1.09-.35-1.744-.35-2.795 0-4.44 1.711-4.44 4.537v.269h-1.33v3.032h1.33v7.281h3.608V37.43h2.438v-3.032h-2.438v-.186zm7.514 10.499V34.398h-3.629V44.71h3.629zm.218-13.222c0-1.114-.892-2.083-2.042-2.083-1.11 0-2.023.949-2.023 2.083 0 1.135.912 2.083 2.023 2.083 1.15 0 2.042-.969 2.042-2.083zm4.89 7.735c0-1.072.516-1.67 1.309-1.67.793 0 1.269.577 1.269 1.63v5.527h3.628v-6.56c0-2.495-1.308-4.042-3.45-4.042-1.21 0-2.2.536-2.756 1.547v-1.258h-3.628V44.71h3.629v-5.486zm12.14-5.033c-3 0-4.923 2.703-4.923 5.405 0 3.011 2.11 5.404 4.881 5.404 2.068 0 2.854-1.258 2.854-1.258v.99h3.495V34.439h-3.495v.928s-.89-1.176-2.813-1.176zm.744 3.321c1.406 0 2.11 1.094 2.11 2.084 0 1.072-.766 2.124-2.11 2.124-1.096 0-2.11-.907-2.11-2.083 0-1.176.807-2.125 2.11-2.125zm10.908 1.712c0-1.072.515-1.67 1.308-1.67s1.27.577 1.27 1.63v5.527h3.627v-6.56c0-2.495-1.308-4.042-3.45-4.042-1.209 0-2.2.536-2.755 1.547v-1.258h-3.628V44.71h3.628v-5.486zm7.276.33c0 3.342 2.3 5.446 5.294 5.446a5.06 5.06 0 002.379-.577v-3.425c-.555.413-1.15.62-1.805.62-1.268 0-2.2-.826-2.2-2.064 0-1.237.932-2.062 2.2-2.062.635 0 1.23.185 1.805.577v-3.424a5.325 5.325 0 00-2.32-.536c-3.113 0-5.353 2.29-5.353 5.445zm15.566 1.526c-.377.64-.853.909-1.646.909-.952 0-1.745-.599-1.824-1.486h6.86c.02-.185.04-.433.04-.763 0-3.403-2.082-5.631-5.175-5.631-2.994 0-5.274 2.33-5.274 5.445 0 3.239 2.221 5.446 5.393 5.446 2.24 0 3.925-.99 4.738-2.785l-3.112-1.134zm-3.45-2.742c.079-.764.753-1.341 1.685-1.341s1.606.536 1.685 1.34h-3.37zM0 8.07h7.14l4.156 10.594L15.507 8.07h6.952L11.992 33.15H4.996l2.865-6.646L0 8.07zm29.7-.422c-5.364 0-8.755 4.792-8.755 9.564 0 5.37 3.718 9.627 8.653 9.627 3.682 0 5.07-2.234 5.07-2.234v1.74h6.227V8.07h-6.227v1.66S33.119 7.648 29.7 7.648zm1.324 5.873c2.475 0 3.752 1.95 3.752 3.71 0 1.896-1.368 3.756-3.752 3.756-1.975 0-3.76-1.608-3.76-3.674 0-2.096 1.435-3.792 3.76-3.792zM43.04 26.345V0h6.512v9.794s1.547-2.144 4.787-2.144c3.963 0 6.285 2.941 6.285 7.144v11.551h-6.465v-9.968c0-1.423-.68-2.797-2.221-2.797-1.569 0-2.386 1.395-2.386 2.797v9.968h-6.513zM71.728 7.65c-6.143 0-9.8 4.653-9.8 9.638 0 5.673 4.428 9.55 9.823 9.55 5.23 0 9.805-3.701 9.805-9.455 0-6.296-4.79-9.733-9.828-9.733zm.059 5.925c2.17 0 3.67 1.8 3.67 3.72 0 1.637-1.398 3.656-3.67 3.656-2.083 0-3.645-1.663-3.645-3.674 0-1.938 1.3-3.703 3.645-3.703zM92.406 7.65c-6.143 0-9.8 4.653-9.8 9.638 0 5.673 4.428 9.55 9.823 9.55 5.23 0 9.805-3.701 9.805-9.455 0-6.296-4.79-9.733-9.828-9.733zm.059 5.925c2.17 0 3.67 1.8 3.67 3.72 0 1.637-1.398 3.656-3.67 3.656-2.082 0-3.645-1.663-3.645-3.674 0-1.938 1.3-3.703 3.645-3.703zm14.908 13.158c2.389 0 4.325-1.929 4.325-4.308a4.316 4.316 0 00-4.325-4.308 4.316 4.316 0 00-4.324 4.308 4.316 4.316 0 004.324 4.308zm5.746-10.198h-7.786L112.243 0H120l-6.881 16.535z" fill="#000"/></svg>