<svg width="22" height="22" xmlns="http://www.w3.org/2000/svg"><path d="M11 .811C5.19.811.478 5.481.478 11.239.478 16.997 5.19 21.667 11 21.667c5.81 0 10.522-4.67 10.522-10.428C21.522 5.481 16.81.811 11 .811zm4.804 8.13c.005.103.007.206.007.31 0 3.163-2.43 6.81-6.871 6.81a6.881 6.881 0 01-3.702-1.075 4.873 4.873 0 003.576-.992 2.415 2.415 0 01-2.257-1.662 2.425 2.425 0 001.091-.041 2.4 2.4 0 01-1.937-2.346v-.03c.325.179.697.286 1.094.299a2.386 2.386 0 01-.748-3.196 6.877 6.877 0 004.978 2.5 2.372 2.372 0 01-.063-.545 2.405 2.405 0 012.415-2.393c.695 0 1.323.29 1.763.756a4.872 4.872 0 001.534-.58 2.407 2.407 0 01-1.062 1.323 4.85 4.85 0 001.387-.377 4.88 4.88 0 01-1.205 1.24z"/></svg>