<svg width="22" height="22" xmlns="http://www.w3.org/2000/svg"><path d="M13.143 11.191a2.014 2.014 0 11-4.028 0 2.014 2.014 0 014.028 0z"/><path d="M15.838 7.628a1.872 1.872 0 00-.451-.695 1.87 1.87 0 00-.695-.451c-.213-.083-.533-.182-1.122-.208-.637-.03-.828-.036-2.441-.036-1.614 0-1.805.006-2.442.035-.589.027-.909.126-1.122.209a1.87 1.87 0 00-.694.451c-.2.195-.355.433-.452.695-.083.213-.181.533-.208 1.122-.03.637-.036.828-.036 2.442 0 1.613.007 1.804.036 2.441.027.59.125.909.208 1.122.097.262.25.5.452.694.195.201.432.356.694.452.213.083.533.182 1.122.209.637.029.828.035 2.442.035 1.613 0 1.804-.006 2.44-.035.59-.027.91-.126 1.123-.209a2 2 0 001.146-1.146c.083-.213.182-.533.209-1.122.029-.637.035-.828.035-2.441 0-1.614-.006-1.805-.035-2.442-.027-.589-.126-.909-.209-1.122zm-4.71 6.666a3.102 3.102 0 110-6.205 3.102 3.102 0 010 6.205zm3.226-5.603a.725.725 0 110-1.45.725.725 0 010 1.45z"/><path d="M11.129.67C5.319.67.607 5.38.607 11.19s4.712 10.522 10.522 10.522c5.81 0 10.522-4.712 10.522-10.522C21.65 5.381 16.939.67 11.129.67zm6.005 13.012c-.029.643-.131 1.082-.28 1.467a3.089 3.089 0 01-1.768 1.767c-.384.149-.823.251-1.466.28-.644.03-.85.037-2.491.037-1.64 0-1.847-.007-2.491-.037-.643-.029-1.082-.131-1.466-.28a2.958 2.958 0 01-1.07-.697 2.96 2.96 0 01-.697-1.07c-.15-.384-.252-.824-.281-1.467-.03-.644-.037-.85-.037-2.49 0-1.642.007-1.847.037-2.492.029-.643.13-1.082.28-1.466a2.96 2.96 0 01.697-1.07 2.96 2.96 0 011.07-.697c.385-.15.824-.252 1.467-.281.644-.03.85-.037 2.49-.037 1.642 0 1.848.007 2.492.037.643.03 1.082.131 1.466.28.403.152.769.39 1.07.698.308.301.546.667.697 1.07.15.384.252.823.281 1.466.03.645.037.85.037 2.491s-.007 1.847-.037 2.491z"/></svg>