<svg width="70" height="70" fill="none" xmlns="http://www.w3.org/2000/svg"><path d="M33.036 6.737c-2.03 0-3.768 1.02-4.976 2.481-.458-.123-.912-.261-1.43-.261-2.936 0-5.275 2.195-5.763 5.007-.789-.398-1.64-.687-2.586-.687-3.285 0-5.963 2.699-5.963 5.997 0 .262.07.48.105.721-2.507.707-4.39 2.923-4.39 5.66 0 3.096 2.385 5.579 5.391 5.883-.584.93-.97 1.964-1.056 3.125-2.526.696-4.425 2.937-4.425 5.69 0 3.298 2.678 5.998 5.965 5.998.27 0 .495-.075.745-.113.718 2.49 2.906 4.365 5.614 4.365 1.893 0 3.485-.99 4.573-2.376.543.13 1.09.267 1.7.267 1.454 0 2.798-.434 3.974-1.114.297.105.6.201.91.278-.007 2.737-.332 4.65-.806 5.9-.516 1.362-1.152 1.984-1.76 2.34-.761.444-1.849.518-3.847 1.606a16.537 16.537 0 00-4.26 3.346.874.874 0 101.288 1.184 14.807 14.807 0 013.81-2.994c1.777-.968 2.695-.932 3.89-1.63.956-.558 1.885-1.571 2.515-3.232.57-1.507.904-3.59.917-6.42.985-.12 1.881-.494 2.677-1.009.56.524 1.216.95 1.956 1.185-.302 2.487-.24 4.354.098 5.745.374 1.546 1.098 2.554 1.887 3.152 1.39 1.054 2.647.953 4.43 2.356a10.33 10.33 0 012.312 2.58.875.875 0 101.478-.94 12.038 12.038 0 00-2.707-3.015c-2.103-1.656-3.628-1.749-4.456-2.376-.469-.355-.945-.936-1.244-2.169-.27-1.116-.346-2.801-.056-5.17 1.352-.162 2.467-.96 3.249-2.013.71.226 1.431.44 2.216.44 1.384 0 2.655-.423 3.765-1.077.033.005.08.007.121.012 1.029 1.796 2.91 3.044 5.116 3.044 3.284 0 5.962-2.7 5.962-5.999 0-1.85-.92-3.429-2.237-4.53a8.53 8.53 0 00.02-.214c2.463-.74 4.297-2.954 4.297-5.66 0-2.845-2.025-5.147-4.681-5.75a5.865 5.865 0 00-4.474-4.402c.409-.803.707-1.67.707-2.638 0-3.299-2.677-5.999-5.962-5.999-1.188 0-2.232.441-3.158 1.044-.986-1.933-2.914-3.303-5.221-3.303-.067 0-.1.012-.161.015-.937-2.5-3.257-4.33-6.069-4.33zm0 1.75c2.276 0 4.16 1.585 4.678 3.717a.875.875 0 00.965.661c.255-.034.446-.063.587-.063 1.918 0 3.507 1.293 4.023 3.064a.875.875 0 001.447.385 4.154 4.154 0 012.909-1.19c2.332 0 4.212 1.89 4.212 4.249a4.2 4.2 0 01-1.02 2.734.874.874 0 00.708 1.44c.183-.01.225-.018.126-.018 2.14 0 3.874 1.602 4.151 3.686a.875.875 0 00.764.754 4.208 4.208 0 013.719 4.194 4.227 4.227 0 01-3.509 4.177.875.875 0 00-.692.623l-.471-.502-.303-.055-.7.352-.139.773.535.572.304.053.675-.338c-.012.104-.013.228-.03.323a.875.875 0 00.37.89 4.246 4.246 0 011.88 3.536c0 2.358-1.882 4.249-4.212 4.249-1.714 0-3.175-1.034-3.835-2.514a.875.875 0 00-.812-.52c-.222.003-.272.019-.166.019-.064 0-.219-.033-.496-.055a.875.875 0 00-.548.14 5.689 5.689 0 01-5.313.522.876.876 0 00-1.105.395c-.526.98-1.522 1.642-2.696 1.642-.022 0-.043-.003-.065-.004a.875.875 0 00-.304-.02 3.058 3.058 0 01-2.053-1.188.873.873 0 00-1.246-.142c-.786.644-1.753 1.034-2.825 1.034-.019 0-.037-.003-.056-.003a.875.875 0 00-.285-.015 4.46 4.46 0 01-1.458-.366.875.875 0 00-.827.066c-.98.632-2.135 1-3.382 1-.577 0-1.146-.108-1.725-.277a.875.875 0 00-.988.378c-.748 1.206-2.052 2.008-3.561 2.008-2.092 0-3.788-1.535-4.12-3.551l.304-.154.138-.77-.535-.573-.304-.055-.7.352-.06.332a4.039 4.039 0 01-1.082.167c-2.335 0-4.215-1.89-4.215-4.248a4.215 4.215 0 013.59-4.182.875.875 0 00.743-.908c-.008-.16-.014-.197-.014-.116a5.18 5.18 0 011.54-3.683l.198.036.7-.352.14-.77-.536-.573-.304-.055-.209.104a.875.875 0 00-.598-.072 4.116 4.116 0 01-.95.122c-2.332 0-4.21-1.89-4.21-4.249a4.208 4.208 0 013.71-4.192.875.875 0 00.74-1.092 4.3 4.3 0 01-.165-1.097c0-2.358 1.882-4.247 4.213-4.247 1.048 0 1.985.394 2.733 1.044a.875.875 0 001.444-.745c-.021-.213-.041-.33-.041-.37 0-2.358 1.881-4.25 4.212-4.25.471 0 .928.098 1.388.26a.875.875 0 001.017-.336 4.808 4.808 0 014.002-2.143zm-3.4 5.797l-.701.352-.139.77.537.573.303.055.7-.35.139-.773-.535-.573-.305-.054zm3.399.085l-.701.35-.138.773.536.572.303.055.7-.352.139-.77-.535-.573-.304-.055zm-5.91 2.256l-.7.352-.14.77.536.573.304.055.7-.352.14-.77-.536-.573-.304-.055zm8.403.113l-.7.35-.139.773.535.572.304.055.7-.352.14-.771-.537-.574-.303-.053zm12.397 5.038l-.7.35-.14.773.536.572.304.055.7-.352.14-.77-.536-.575-.304-.053zm-3.281 1.136l-.7.35-.14.773.537.573.303.054.702-.352.137-.77-.535-.575-.304-.053zm-9.835 1.826l-.701.35-.139.772.535.573.305.055.7-.352.139-.771-.535-.574-.304-.053zm3.358.35l-.7.352-.14.772.535.573.305.053.7-.35.139-.773-.535-.572-.304-.055zm3.857.114l-.703.352-.136.771.535.573.304.054.7-.35.139-.772-.537-.573-.302-.055zm-9.649 1.923l-.7.352-.14.77.536.573.304.055.7-.352.14-.77-.536-.573-.304-.055zm7.82.706l-.7.35-.139.773.537.572.302.055.701-.352.138-.773-.535-.572-.304-.053zm-21.1 1.003l-.701.352-.139.773.535.572.305.053.7-.35.139-.773-.537-.572-.302-.055zm3.375.769l-.703.352-.136.773.535.572.304.053.7-.35.139-.773-.537-.572-.302-.055zm29.625 5.479l-.7.352-.14.77.536.573.304.055.7-.35.14-.773-.536-.572-.304-.055zm-3.468.152l-.7.352-.139.773.537.572.302.053.703-.35.137-.773-.535-.572-.305-.055zM45.5 36.75l-.7.352-.14.77.536.573.304.055.7-.352.14-.77-.536-.573-.304-.055zm-24.614 2.72l-.703.351-.137.773.535.572.305.055.7-.352.139-.771-.537-.573-.302-.054zm-3.142 1.45l-.702.352-.137.77.535.573.304.055.701-.35.139-.773-.537-.572-.303-.055z" fill="#E4B564"/></svg>