<svg width="70" height="70" fill="none" xmlns="http://www.w3.org/2000/svg"><path d="M48.578 20a.875.875 0 00-.272 1.699c2.468.927 4.457 2.088 5.787 3.343s1.986 2.555 1.986 3.88c0 1.18-.517 2.332-1.57 3.463-1.051 1.131-2.637 2.205-4.636 3.114-3.997 1.817-9.63 2.975-15.856 2.975-6.226 0-11.858-1.158-15.856-2.975-1.998-.909-3.584-1.983-4.636-3.114-1.052-1.13-1.569-2.283-1.569-3.462 0-1.181.519-2.334 1.574-3.466 1.056-1.132 2.646-2.208 4.65-3.117a.874.874 0 10-.723-1.593c-2.157.978-3.934 2.15-5.207 3.515-1.272 1.365-2.044 2.959-2.044 4.66 0 1.7.768 3.292 2.037 4.656 1.27 1.364 3.042 2.536 5.194 3.514 4.303 1.956 10.14 3.132 16.58 3.132 6.442 0 12.278-1.176 16.581-3.132 2.151-.978 3.925-2.15 5.194-3.514 1.268-1.364 2.037-2.956 2.037-4.655 0-1.911-.968-3.675-2.535-5.154-1.567-1.48-3.747-2.721-6.372-3.707a.876.876 0 00-.344-.062zM5.971 30.816a.875.875 0 00-.861.887c0 2.02.91 3.915 2.437 5.556 1.527 1.641 3.675 3.065 6.287 4.252 5.226 2.375 12.336 3.81 20.183 3.81 7.848 0 14.956-1.435 20.182-3.81 2.613-1.187 4.76-2.61 6.287-4.252 1.527-1.64 2.437-3.536 2.437-5.556a.877.877 0 00-1.498-.626.875.875 0 00-.252.626c0 1.5-.658 2.957-1.969 4.365-1.31 1.408-3.268 2.73-5.728 3.849-4.92 2.236-11.826 3.654-19.459 3.654-7.632 0-14.54-1.418-19.46-3.654-2.46-1.118-4.418-2.44-5.728-3.849-1.31-1.408-1.97-2.865-1.97-4.365a.875.875 0 00-.888-.887z" fill="#E4B564"/><path stroke="#E4B564" stroke-width="2" d="M6 30v30m56-30v30M6 59h55"/></svg>