<svg width="34" height="34" viewBox="0 0 34 34" fill="none" xmlns="http://www.w3.org/2000/svg">
<path d="M22.3813 27.9435C22.4368 27.9527 22.4919 27.9572 22.5463 27.9572C23.0244 27.9572 23.4464 27.6119 23.5276 27.1247L24.5237 21.1481C24.6142 20.6055 24.2476 20.0923 23.7049 20.0018C23.1623 19.9111 22.6491 20.2779 22.5586 20.8206L21.5625 26.7972C21.4721 27.3398 21.8387 27.8531 22.3813 27.9435Z" fill="#FF9846"/>
<path d="M10.5391 27.1246C10.6203 27.6118 11.0423 27.9571 11.5205 27.9571C11.5748 27.9571 11.63 27.9527 11.6854 27.9434C12.2281 27.8529 12.5946 27.3398 12.5042 26.7971L11.5081 20.8205C11.4177 20.2778 10.9045 19.9114 10.3618 20.0017C9.81912 20.0922 9.45256 20.6054 9.54301 21.148L10.5391 27.1246Z" fill="#FF9846"/>
<path d="M33.0039 12.0195H29.4983L21.8286 2.43245C21.485 2.003 20.8582 1.93321 20.4286 2.27693C19.999 2.62058 19.9293 3.24739 20.273 3.67697L26.9471 12.0195H7.05294L13.727 3.67697C14.0707 3.24739 14.001 2.62051 13.5715 2.27693C13.1419 1.93321 12.5151 2.00293 12.1715 2.43245L4.50175 12.0195H0.996094C0.445984 12.0195 0 12.4655 0 13.0156V17C0 17.5501 0.445984 17.9961 0.996094 17.9961H2.23696L6.01495 31.219C6.13707 31.6466 6.52793 31.9414 6.97266 31.9414H27.0273C27.4721 31.9414 27.8629 31.6466 27.9851 31.219L31.763 17.9961H33.0039C33.554 17.9961 34 17.5501 34 17V13.0156C34 12.4655 33.554 12.0195 33.0039 12.0195ZM26.276 29.9492H7.72398L4.30884 17.9961H29.6912L26.276 29.9492ZM32.0078 16.0039C28.5955 16.0039 5.22484 16.0039 1.99219 16.0039V14.0117H32.0078V16.0039Z" fill="#FF9846"/>
<path d="M17 27.957C17.5501 27.957 17.9961 27.511 17.9961 26.9609V20.9844C17.9961 20.4343 17.5501 19.9883 17 19.9883C16.4499 19.9883 16.0039 20.4343 16.0039 20.9844V26.9609C16.0039 27.5111 16.4499 27.957 17 27.957Z" fill="#FF9846"/>
</svg>
