<svg id="фон" xmlns="http://www.w3.org/2000/svg" width="1920" height="1309.06" viewBox="0 0 1920 1309.06">
  <defs>
    <style>
      .cls-1 {
        fill: #7281df;
        opacity: 0.1;
      }

      .cls-1, .cls-2 {
        fill-rule: evenodd;
      }

      .cls-2 {
        fill: #fff;
      }
    </style>
  </defs>
  <path id="Фигура_1" data-name="Фигура 1" class="cls-1" d="M1990.57,166.261C1278.1,306.619,1565.45,897.916,728.422,828.615c-400.506-33.141-685.3,297.7-754.3,439.655L-243.585-273.274c69-141.943,353.8-472.792,754.3-439.651,837.033,69.3,549.673-522,1262.143-662.355Z"/>
  <path id="Фигура_1_копия_2" data-name="Фигура 1 копия 2" class="cls-1" d="M1957.86,60.257C1254.89,241.945,1576.22,815.439,736.675,795.1,334.967,785.392,70,1132.28,9.406,1278L-297.85-248.137c60.592-145.72,325.561-492.609,727.269-482.9C1268.96-710.7,947.631-1284.19,1650.61-1465.88Z"/>
  <path id="Фигура_1_копия" data-name="Фигура 1 копия" class="cls-2" d="M1880.13-3.938c-693.09,216.371-343.68,773.2-1183.194,794.579C295.241,800.889,47.824,1160.51-5.457,1309.06l-382.66-1509c53.282-148.55,300.7-508.169,702.393-518.417C1153.79-739.736,804.382-1296.57,1497.47-1512.94Z"/>
</svg>
