<svg width="512" height="512" viewBox="0 0 512 512" fill="none" xmlns="http://www.w3.org/2000/svg">
<g clip-path="url(#clip0_111_5)">
<path d="M62.4134 28.3081C78.3557 28.3081 90.8383 33.3339 99.9081 43.3387C108.978 53.3436 113.84 65.9665 114.495 81.0907C114.495 96.0278 109.399 108.627 99.1367 118.866C88.8748 129.081 74.8493 134.2 57.1071 134.2H56.4759C39.1545 134.2 25.4329 129.081 15.2176 118.866C5.1193 108.627 0 96.0278 0 81.0907C0 65.7328 5.56344 53.1098 16.7838 43.1751C28.0042 33.2638 43.2452 28.3081 62.4134 28.3081ZM6.70885 176.137H116.178V483.669H6.70885V176.137ZM512 307.345V483.669H402.555V319.196C402.555 298.275 398.253 281.515 389.698 268.752C381.189 256.105 366.953 249.77 346.85 249.77C331.539 249.77 319.243 253.651 310.08 261.458C300.893 269.219 294.231 277.798 290.21 287.218C288.901 290.631 288.083 294.395 287.639 298.579C287.218 302.693 287.031 307.158 287.031 311.856V483.692H176.908C177.376 431.657 177.633 383.924 177.633 340.632V285.956V236.283C177.633 221.158 177.469 208.255 177.212 197.549C177.072 186.936 176.908 179.76 176.908 176.137H287.031V219.686L286.424 220.948H287.031V219.686C290.444 214.333 294.816 208.746 300.145 202.879C305.545 197.035 311.997 191.565 319.851 186.515C327.635 181.513 337.009 177.399 347.995 174.056C359.052 170.76 371.628 169.124 385.958 169.124C403.77 169.124 420.414 171.835 435.935 177.282C451.41 182.729 464.711 191.261 476.025 202.902C487.268 214.473 496.081 228.872 502.486 246.077C508.868 263.235 512 283.665 512 307.345Z" fill="#030104"/>
</g>
<defs>
<clipPath id="clip0_111_5">
<rect width="512" height="512" fill="white"/>
</clipPath>
</defs>
</svg>
