<svg width="63" height="66" fill="none" xmlns="http://www.w3.org/2000/svg"><path d="M34.953.988a1 1 0 00-.848.567L30.258 9.25c-.82.207-5.223 1.438-8.055 6.895l-.027.043-.746 1.875a1.067 1.067 0 00-.368-.063 8.074 8.074 0 00-6.609 3.45L6.371 32.175l-4.742 1.898a.996.996 0 00-.278 1.735.992.992 0 001.02.117l5-2a.996.996 0 00.426-.324l8.277-10.977.02-.031a6.035 6.035 0 014.554-2.567l-3.96 9.926-6.735 7.25.707.68 1.969 1.894c1.758 1.684 4.363 1.84 6.848 1.172 2.484-.668 4.972-2.152 6.851-4.105.45-.473 1.04-1.313 1.879-2.516a275.255 275.255 0 002.828-4.133c1.797-2.668 3.207-4.812 3.461-5.195h22.512A3.986 3.986 0 0161 29c0 2.219-1.781 4-4 4h-2a.999.999 0 00-.984 1c0 .547.437.992.984 1 2.219 0 4 1.781 4 4 0 2.219-1.781 4-4 4h-1a.999.999 0 00-.984 1c0 .547.437.992.984 1 2.219 0 4 1.781 4 4a3.985 3.985 0 01-3.098 3.887.993.993 0 00-.754.777.995.995 0 00.395 1.008A3.473 3.473 0 0156 57.5c0 1.945-1.555 3.5-3.5 3.5H47v-3c0-2.75-2.25-5-5-5-1.676 0-3.09.887-4 2.16-.91-1.273-2.324-2.16-4-2.16-1.676 0-3.09.887-4 2.16-.91-1.273-2.324-2.16-4-2.16-1.676 0-3.09.887-4 2.16-.91-1.273-2.324-2.16-4-2.16-2.75 0-5 2.25-5 5v3H2a1.006 1.006 0 00-.879.496 1.01 1.01 0 000 1.008c.184.312.52.5.879.496h11.426c.777 1.762 2.535 3 4.574 3 1.676 0 3.09-.887 4-2.16.91 1.273 2.324 2.16 4 2.16 1.676 0 3.09-.887 4-2.16.91 1.273 2.324 2.16 4 2.16 1.676 0 3.09-.887 4-2.16.91 1.273 2.324 2.16 4 2.16 2.039 0 3.797-1.238 4.574-3H52.5c3.027 0 5.5-2.473 5.5-5.5 0-1.258-.531-2.324-1.246-3.25C58.664 53.246 60 51.3 60 49c0-1.922-.973-3.563-2.39-4.66C59.597 43.355 61 41.355 61 39c0-1.758-.797-3.305-2.008-4.406C61.31 33.766 63 31.598 63 29c0-2.844-2-5.23-4.664-5.844l.473-1.422c.75-2.25.398-4.664-.762-6.718l1.902-5.7c.106-.304.059-.64-.125-.906a1.005 1.005 0 00-.812-.426c-.438 0-.828.282-.961.7L55.613 16h.723c.875 1.559 1.148 3.395.574 5.105L56.281 23H34.137a.999.999 0 00-1.016.457s-1.805 2.738-3.746 5.621a278.069 278.069 0 01-2.805 4.102c-.828 1.183-1.57 2.156-1.683 2.277-1.614 1.676-3.852 3.004-5.93 3.559-2.074.558-3.867.347-4.941-.684-.79-.758-.942-.906-1.262-1.21l5.652-6.079 5.578-13.988c2.72-5.22 7.211-6.075 7.211-6.075l.48-.093 4.22-8.442a.996.996 0 00-.047-1 1.002 1.002 0 00-.895-.457zM49 11c-.55 0-1 .45-1 1s.45 1 1 1 1-.45 1-1-.45-1-1-1zm4 1c-.55 0-1 .45-1 1s.45 1 1 1 1-.45 1-1-.45-1-1-1zm-6 21c-.55 0-1 .45-1 1s.45 1 1 1 1-.45 1-1-.45-1-1-1zm4 0c-.55 0-1 .45-1 1s.45 1 1 1 1-.45 1-1-.45-1-1-1zm-1 10c-.55 0-1 .45-1 1s.45 1 1 1 1-.45 1-1-.45-1-1-1zm1 10c-.55 0-1 .45-1 1s.45 1 1 1 1-.45 1-1-.45-1-1-1zm-33 2c1.668 0 3 1.332 3 3a.999.999 0 001 .984.999.999 0 001-.984c0-1.668 1.332-3 3-3s3 1.332 3 3c0 .035.004.066.004.098.008.066.023.133.043.199a.894.894 0 00.199.344.95.95 0 00.406.28.816.816 0 00.192.052 1.106 1.106 0 00.395-.016c.066-.016.128-.039.19-.066.032-.016.06-.032.087-.047.086-.055.164-.117.23-.192.043-.05.082-.105.117-.164a.974.974 0 00.13-.375c.003-.039.007-.074.007-.113 0-1.668 1.332-3 3-3s3 1.332 3 3c0 .035.004.066.004.098.008.035.012.07.02.101.058.266.218.492.445.637l.09.047a.676.676 0 00.093.039.816.816 0 00.192.05.417.417 0 00.097.012h.102a1.062 1.062 0 00.387-.093c.058-.032.117-.067.168-.106.027-.02.054-.039.078-.062.101-.09.18-.2.234-.32.016-.032.027-.063.04-.094.007-.036.019-.067.023-.098a.864.864 0 00.02-.098c.003-.039.007-.074.007-.113 0-1.668 1.332-3 3-3s3 1.332 3 3v3c0 1.668-1.332 3-3 3s-3-1.332-3-3c0-.035-.004-.066-.004-.098a1.211 1.211 0 00-.043-.199 1.55 1.55 0 00-.082-.184.882.882 0 00-.117-.16 1.067 1.067 0 00-.223-.195l-.09-.047a.687.687 0 00-.093-.039.937.937 0 00-.094-.031 1.079 1.079 0 00-.297-.031 1.071 1.071 0 00-.195.027.712.712 0 00-.098.031c-.031.008-.063.024-.094.035a.979.979 0 00-.246.168 1.07 1.07 0 00-.187.235c-.016.027-.032.058-.047.086a.955.955 0 00-.04.093c-.007.036-.019.067-.023.098a.842.842 0 00-.027.195V61c0 1.668-1.332 3-3 3s-3-1.332-3-3c0-.035-.004-.066-.004-.098-.008-.035-.012-.07-.02-.101a1.555 1.555 0 00-.058-.192.999.999 0 00-1.254-.535.94.94 0 00-.34.203c-.05.047-.094.098-.137.149-.015.027-.035.058-.05.086-.016.027-.032.058-.047.086a.84.84 0 00-.063.191.842.842 0 00-.027.195V61c0 1.668-1.332 3-3 3s-3-1.332-3-3a.999.999 0 00-1-.984.999.999 0 00-1 .984c0 1.668-1.332 3-3 3s-3-1.332-3-3v-3c0-1.668 1.332-3 3-3z" fill="#E4B564"/></svg>