<svg width="54" height="71" fill="none" xmlns="http://www.w3.org/2000/svg"><path d="M27 .006c-.984 0-1.968.372-2.713 1.117l-2.03 2.031-2.652-1.1h-.002a3.851 3.851 0 00-5.011 2.077l-.006.01L13.476 7h-2.638A3.854 3.854 0 007 10.838v2.639l-2.858 1.11-.01.005a3.853 3.853 0 00-2.077 5.013l1.1 2.653-2.03 2.03a3.852 3.852 0 00-.002 5.425l2.03 2.03-1.1 2.652v.002a3.852 3.852 0 002.078 5.011l.01.004L7 40.523v3.64A3.854 3.854 0 0010.838 48h.101L4.402 63.184l10.111-1.123 5.85 8.546 6.643-15.619 6.63 15.621 5.85-8.548 10.123 1.124-7.152-16.35H43a3.854 3.854 0 003.838-3.837v-2.463l3.013-1.12.018-.007a3.852 3.852 0 002.076-5.014l-1.1-2.652 2.032-2.03a3.854 3.854 0 000-5.427l-2.031-2.03 1.1-2.651a3.854 3.854 0 00-2.077-5.014l-.01-.004-2.86-1.11v-2.638A3.854 3.854 0 0043.163 7h-2.639l-1.111-2.86-.004-.01a3.852 3.852 0 00-5.014-2.075l-2.652 1.1-2.03-2.032A3.824 3.824 0 0027 .006zm0 1.988c.468 0 .936.182 1.299.545l2.974 2.973 3.887-1.61a1.821 1.821 0 012.4.994L39.156 9h4.006C44.19 9 45 9.81 45 10.838v4.006l4.103 1.594a1.822 1.822 0 01.994 2.4l-1.609 3.887 2.973 2.974a1.824 1.824 0 010 2.6l-2.973 2.973 1.61 3.888a1.82 1.82 0 01-.993 2.399l-4.267 1.586v3.853A1.824 1.824 0 0143 44.836h-3.856l-1.586 4.267a1.822 1.822 0 01-2.398.995l-3.887-1.612-2.974 2.975a1.821 1.821 0 01-2.598 0l-2.975-2.975-3.886 1.612a1.822 1.822 0 01-2.4-.996l-.022-.05L14.754 46h-3.916A1.823 1.823 0 019 44.162v-5.006L4.896 37.56a1.822 1.822 0 01-.996-2.4l1.612-3.887L2.537 28.3a1.821 1.821 0 01.002-2.598l2.975-2.974-1.612-3.887a1.822 1.822 0 01.996-2.4L9 14.843v-4.006C9 9.812 9.812 9 10.838 9h4.008l1.593-4.104a1.822 1.822 0 012.4-.994l3.887 1.61 2.975-2.973A1.83 1.83 0 0127 1.994zm1.129 6.063l-.801.402-.158.88.611.655.348.063.8-.4.159-.884-.612-.654-.347-.062zm-4.502.27l-.801.402-.158.88.613.655.346.062.803-.4.156-.883-.611-.654-.348-.063zm8.933.558l-.8.402-.159.881.612.654.347.063.801-.4.158-.883-.61-.655-.349-.062zm-13.216.844l-.801.4-.158.883.61.654.349.063.8-.403.159-.88-.614-.657-.345-.06zm17.293 1.086l-.801.402-.158.88.61.655.349.063.8-.4.159-.884-.612-.654-.347-.063zm-21.11 1.316l-.8.402-.159.881.612.656.347.06.801-.4.158-.882-.613-.655-.346-.062zm24.58 1.559l-.8.402-.159.883.614.654.345.06.801-.4.158-.883-.611-.654-.348-.063zm-27.656 1.742l-.8.4-.159.883.613.654.346.063.803-.403.156-.883-.611-.654-.348-.06zm30.32 1.898l-.8.4-.159.883.614.655.345.062.803-.402.156-.883-.611-.654-.348-.06zm-5.832 1.61L24 31.878l-6.939-6.94-2.12 2.122L24 36.12l15.06-15.06-2.12-2.122zm-26.666.437l-.8.402-.159.881.614.656.345.061.801-.4.158-.883-.611-.655-.348-.062zm34.145 2.15l-.803.403-.156.88.611.655.348.062.8-.4.159-.883-.614-.654-.345-.063zm-35.262 2.22l-.8.4-.159.882.611.655.348.062.8-.402.16-.881-.612-.654-.348-.063zM45 26l-.8.4v.002l-.16.881.612.654L45 28l.8-.402.159-.881-.612-.654L45 26zM9.156 28.254l-.8.402-.159.881.611.654.348.063.8-.4.16-.883-.612-.655-.348-.062zm35.262 2.219l-.803.4-.156.883.611.654.348.063.8-.403.159-.88-.614-.655-.345-.062zm-34.145 2.15l-.8.4-.159.883.614.654.345.063.801-.402.158-.881-.611-.655-.348-.062zm32.498 2.047l-.8.402-.159.881.614.654.345.063.803-.4.156-.883-.611-.655-.348-.062zm-30.32 1.898l-.8.403-.159.883.613.654.346.06.803-.4.156-.883-.611-.654-.348-.063zm27.656 1.74l-.8.403-.159.883.614.654.345.06.803-.4.156-.883-.611-.654-.348-.062zm-24.58 1.561l-.8.4-.159.883.612.655.347.062.801-.402.158-.881-.611-.654-.348-.063zm21.11 1.316l-.801.4-.158.884.61.654.349.063.8-.403.159-.88-.612-.655-.347-.063zm-17.293 1.087l-.801.402-.158.88.61.657.349.06.8-.4.159-.883-.614-.654-.345-.063zm13.216.843l-.8.4-.159.883.612.655.347.062.801-.402.158-.881-.61-.656-.349-.06zm-8.931.559l-.803.4-.156.883.611.654.348.063.8-.402.159-.881-.614-.655-.345-.062zm4.5.27l-.801.4-.158.883.613.654.346.062.8-.402.159-.88-.612-.655-.347-.063zm12.287 3.214l5.975 13.657-7.877-.875-4.465 6.523-5.446-12.832a3.798 3.798 0 001.11-.756l2.029-2.03 2.652 1.1h.002a3.852 3.852 0 005.012-2.078l.008-.017 1-2.692zM13.117 48h.45l1.07 1.963-.045-.096a3.853 3.853 0 005.013 2.078l2.653-1.1 2.029 2.03c.332.332.716.578 1.121.762l-5.457 12.826-4.465-6.523-7.888.876L13.117 48z" fill="#E4B564"/></svg>