<svg width="16" height="16" fill="none" xmlns="http://www.w3.org/2000/svg"><path d="M8 1a5.01 5.01 0 00-5 5c0 .773.316 1.621.754 2.516.437.898 1.008 1.836 1.582 2.691a44.69 44.69 0 002.277 3.11l.387.476.387-.477s1.136-1.394 2.281-3.109c.57-.855 1.14-1.793 1.578-2.691C12.684 7.62 13 6.773 13 6c0-2.754-2.246-5-5-5zm0 1c2.215 0 4 1.785 4 4 0 .469-.246 1.246-.652 2.078-.407.836-.961 1.742-1.512 2.578-.918 1.375-1.543 2.133-1.836 2.5-.293-.367-.918-1.125-1.836-2.5-.55-.836-1.105-1.742-1.512-2.578C4.246 7.246 4 6.468 4 6c0-2.215 1.785-4 4-4zm0 3c-.55 0-1 .45-1 1s.45 1 1 1 1-.45 1-1-.45-1-1-1z" fill="#E4B564"/></svg>