<svg width="105" height="81" fill="none" xmlns="http://www.w3.org/2000/svg"><g clip-path="url(#clip0_1:939)"><path d="M46.112 48.751l1.962 5.94 3.27 3.961 7.523 2.64 7.194-3.63 11.447-7.26 6.214 4.29 2.289 4.95-.327 6.93-29.434.33H35.32l-18.968.33-.654-7.26 2.616-8.58 4.252-5.611 5.56-2.64 17.986-1.32v6.93z" fill="#87D8C8"/><path d="M23.044 27.13l-.864-9.883 31.685-6.104 1.44 12.498 3.457 10.755 3.169 6.686-21.892 4.069-9.794 1.163-5.185-9.883-2.016-9.302z" fill="#fff"/><path d="M62.624 39.83l-.05-.101-.032-.067-.05-.1-.1-.184-.215-.368c-.15-.235-.299-.486-.448-.737a4.151 4.151 0 01-.348-.786c-.017-.067-.166-.084-.182-.134-.166-.452-.365-.87-.58-1.288-.216-.418-.415-.853-.614-1.272-.1-.234-.183-.468-.282-.703-.1-.234-.183-.468-.332-.702-.232-.385-.381-.82-.53-1.255-.15-.435-.266-.887-.465-1.305-.116-.235-.132-.519-.199-.803-.066-.285-.149-.552-.414-.753-.183-.134-.232-.268-.166-.485.1-.318.1-.62.017-.87a1.457 1.457 0 00-.498-.72.44.44 0 01-.133-.502 1.43 1.43 0 00.05-.87c-.066-.268-.232-.519-.48-.736-.183-.168-.2-.335-.084-.57a1.28 1.28 0 00.083-.819c-.05-.268-.199-.502-.43-.703-.25-.2-.233-.384-.1-.652.133-.251.166-.502.116-.753a1.123 1.123 0 00-.365-.67c-.265-.234-.265-.434-.133-.702.316-.686-.232-1.205-.331-1.79-.05-.285.05-.586.1-.904.05-.301.066-.619-.166-.92-.116-.134-.316-.285-.183-.502.2-.335.282-.653.282-.954 0-.318-.133-.619-.381-.92-.133-.167.016-.301.066-.452.1-.284.116-.585.15-.87a5.07 5.07 0 00-.034-.87 14.616 14.616 0 01-.083-.887 4 4 0 01.05-.886c.017-.084.033-.536.066-1.155 0-.318.033-.67.067-1.054.033-.385.05-.787.082-1.188l.017-.15v-.234c0-.218-.033-.436-.116-.637a1.89 1.89 0 00-.763-.953 1.775 1.775 0 00-1.11-.268l-.133.017-.067.016c-.05 0-.083.017-.132.017a1.268 1.268 0 01-.249.034c-.63.1-1.078.184-1.177.2-.514.067-1.21.168-1.89.285l-.05.1c-.017.017-.282-.033-.133.034.431.217.348.318-.1.25-.149-.016.1.084.1.118.066.217-.05.351-.182.485-.033.017-.398-.117-.017.1.497.268.497.385-.033.218-.249-.084-.315-.084-.216-.017.349.251.315.335-.1.234-.115-.033-.082 0 .017.084.067.033.133.1.116.1-.182.084-.033.352-.298.385 0 0-.033-.017-.033 0 .133.218-.017.285-.166.352l.05.05c-.116.117-.05.351-.299.385a.423.423 0 01-.083-.034c.299.335-.116.234-.116.385l.05.05c-.1.034-.265.352-.48.67-.117.167-.25.35-.399.468-.149.134-.315.2-.398.167-.082-.033-.132-.033-.1.134.067.284-.049.418-.28.134-.183-.234-.167-.117-.183.084-.017.267-.133.317-.266.184l-.066-.486.1-.15c.199-.335.348-.67.447-.703.017 0-.05-.05-.05-.05 0-.15.415-.067.1-.385-.017-.017.066.034.083.017.232-.05.15-.285.265-.402l-.05-.05c.15-.067.299-.15.15-.368h.033c.265-.05.1-.301.282-.402.016 0-.067-.067-.133-.1-.1-.067-.133-.1-.017-.084.432.084.448 0 .083-.234-.1-.067-.05-.067.216 0 .53.15.514.034.017-.217-.398-.184-.017-.084.016-.1.133-.135.232-.285.166-.486-.017-.033-.265-.117-.116-.117.43.033.514-.067.083-.268-.15-.067.132-.017.132-.05.034-.084.1-.284.15-.519.05-.217.066-.451.082-.552l-.033-.017c-.05-.083.033-.15.067-.234.033-.083.033-.167-.183-.217-.016 0 .05-.017.067-.034.364-.117.05-.2-.117-.268-.082-.033.05-.1.15-.167.1-.067.166-.134 0-.167-.033 0-.066 0-.083-.017-.116-.134 0-.351-.15-.485-.05-.034.017-.1.017-.167s-.033-.1-.215-.067c-.133.033-.133 0-.033-.084.298-.268.232-.385-.166-.251-.166.067-.017-.067 0-.117.033-.167-.034-.251-.133-.318-.1-.067-.199-.117-.232-.234l-.033.016c-.116 0-.133-.117-.183-.2-.05-.084-.132-.15-.315.016-.016.017.017-.066.017-.083-.017-.168-.133-.201-.232-.218-.116-.016-.216-.016-.282-.15 0-.017-.066.1-.066.083a.283.283 0 00-.216-.117c-.083-.017-.166-.017-.249-.033-.083-.017-.166-.1-.265-.034-.166.117-.315-.117-.48 0-.084.05-.216-.284-.283.1-.016.135-.033.135-.083.017-.132-.368-.265-.351-.282.034 0 .117-.033.117-.082.017-.183-.352-.299-.302-.266.1.017.15-.016.117-.1-.017-.198-.318-.314-.284-.231.1.05.201 0 .168-.116.017-.216-.284-.315-.234-.216.1.066.218.033.202-.083.084-.315-.317-.15.151-.199.235-.05.067-.464-.318-.298.083.033.1.132.251.016.168-.348-.285-.464-.235-.232.184.066.117-.05 0-.1-.017-.215-.1-.265-.017-.298.084-.033.1-.033.217-.149.234-.033 0-.199.2-.348.401-.15.201-.266.435-.282.452-.1.117-.249.352-.265.536 0 .067-.067.1-.1.15-.083.134-.166.268-.182.418 0 .067-.033.118-.05.168-.083.134-.265.234-.116.435.1.134-.315.067-.2.184.167.167-.032.217-.032.318 0 .1-.116.184-.1.284.017.1-.033.184-.066.285-.05.117-.033.25-.083.384-.017.034-.017.084-.017.118-.281.067-.563.133-.829.234-.613.25-1.16-.084-1.641.134-.73.334-1.509.267-2.239.418-.05.017-.099.017-.149.033.465.251.465.352-.05.201-.248-.083-.315-.083-.215-.016.348.234.332.317-.1.217-.116-.033-.083 0 .017.067.066.033.133.1.133.1-.183.084-.017.335-.282.368 0 0-.033-.016-.033 0 .132.218 0 .285-.15.352 0 0 .05.033.05.05-.116.117-.033.335-.265.385-.017 0-.1-.034-.083-.017.315.318-.083.234-.083.368 0 0 .066.05.05.05-.1.034-.232.352-.398.67-.083.15-.166.3-.249.418-.066.084-.199.234-.298.234-.1 0-.133.017-.067.167.067.134.067.252.017.302-.05.05-.182.05-.332-.05-.132-.084-.182-.1-.215-.067s-.05.117-.083.217a.388.388 0 01-.266.268c-.116.033-.232-.017-.331-.1l.066-.402c.116-.251.216-.485.299-.519 0 0-.05-.033-.05-.05-.017-.134.398-.084.066-.368-.016-.017.067.017.083.017.232-.067.133-.285.249-.402 0 0-.05-.033-.05-.05.133-.084.282-.15.133-.352h.033c.265-.05.083-.3.265-.384.017 0-.066-.05-.132-.1-.1-.068-.133-.101-.017-.068.431.084.448 0 .083-.234-.116-.067-.05-.067.215 0 .548.134.531.034.017-.217-.398-.184-.017-.067.017-.1.132-.118.232-.269.149-.453-.017-.033-.265-.117-.116-.1.447.05.514-.033.083-.234-.15-.067.132-.017.132-.034.083-.134.25-.753.299-.937l-.033-.016c-.05-.084.05-.134.1-.201.049-.067.049-.15-.15-.234-.017 0 .05-.017.083-.017.381-.05.083-.167-.066-.268-.067-.05.066-.084.165-.134.116-.05.2-.1.033-.15-.033 0-.066-.017-.082-.017-.1-.15.066-.335-.067-.502-.033-.033.033-.1.05-.167s0-.117-.216-.1c-.132 0-.132-.017-.016-.084.331-.218.282-.368-.133-.285-.166.034-.016-.067 0-.117.067-.15-.016-.268-.1-.351-.099-.084-.198-.15-.231-.285l-.034.017c-.132-.017-.149-.134-.199-.234-.05-.1-.165-.168-.364 0-.017.017.016-.067.016-.084-.05-.184-.182-.217-.298-.217-.133-.017-.249 0-.348-.118-.017-.016-.05.1-.067.1-.182-.133-.381-.066-.547-.066-.1 0-.199-.067-.298.033-.067.084-.15.084-.25.067-.082 0-.181-.016-.248.067-.033.034-.116-.016-.166-.016-.066-.017-.1.016-.066.217.017.134 0 .15-.083.05-.248-.3-.365-.25-.248.117.033.117.016.117-.067.05-.282-.284-.365-.2-.215.151.066.134.016.117-.1.017-.282-.251-.381-.184-.182.15.1.185.05.151-.1.034-.282-.218-.348-.167-.166.134.116.2.083.184-.066.083-.365-.25-.083.168-.116.251-.033.067-.497-.25-.265.1.05.084.182.235.05.151-.398-.25-.481-.2-.183.184.083.1-.05.017-.1-.016-.43-.15-.165.284-.397.3-.034 0-.183.185-.315.369-.133.184-.25.385-.266.402-.1.117-.248.317-.265.485 0 .067-.066.083-.1.134-.082.117-.182.234-.198.401a.501.501 0 01-.067.167c-.083.118-.298.201-.149.419.1.134-.315.05-.216.167.166.184-.05.218-.05.335 0 .117-.115.2-.099.318.017.117-.033.217-.066.334a.827.827 0 00-.033.201c-.58.1-1.161.218-1.758.284-.265.034-.53.168-.78.268-.132.05-.248.1-.38.117-.05 0-.084.017-.133.017h-.066a2.45 2.45 0 00-.349.034h-.016l-.05-.067c0 .05-.017.067-.017.083a1.226 1.226 0 00-.563.251c-.034.017-.067.034-.083.067-.034.017-.05.034-.083.067a1.671 1.671 0 00-.332.485c-.05.034-.116.05-.182.084a4.01 4.01 0 00-.431.25c-.083.051-.15.101-.233.151-.066.05-.149.1-.232.168-.597.435-1.193.887-1.376.92-.016 0 .017.067 0 .084-.083.1-.232.1-.365.15-.132.05-.215.134-.199.385 0 .017-.066-.05-.082-.05-.365.05-.514.385-.813.535-.017 0 .017.067 0 .084-.265.084-.547.167-.613.502l-.034-.017c-.381.017-.464.435-.796.536-.033 0 .017.1.034.167.05.117.033.184-.067.117-.398-.217-.53-.1-.381.318.033.134-.033.117-.249-.05-.447-.352-.563-.184-.282.318.216.384-.082.117-.149.15-.298.15-.58.352-.73.67-.016.05.133.267-.016.2-.415-.2-.58-.117-.398.352.066.15-.15-.017-.182 0-.133.1-.448.351-.746.652-.299.285-.597.57-.713.686l.016.034c-.1.267-.597.167-.48.652 0 .017-.05-.017-.084-.017-.381-.133-.265.168-.248.402 0 .218-.597-.134-.465.234a.284.284 0 01.034.084c-.117.251-.415.335-.514.602-.05.15-.432.034-.233.419.067.134.017.15-.1.1-.38-.134-.497-.017-.298.368.083.167-.082.067-.149.084-.398.083-.398.518-.696.703l.016.033c-.05.301-.597.218-.381.703 0 .016-.066-.017-.083-.017-.414.084-.315.569-.663.703-.017 0 .066.1.05.117-.25.15-.332.418-.498.619-.083.117-.232.184-.249.351-.033.285-.364.368-.43.653-.034.15-.415.1-.183.435.083.117.066.15-.066.117-.398-.084-.498.05-.266.385.067.1.034.15-.083.117-.397-.084-.48.067-.248.402.083.117.033.15-.133.1-.381-.084-.48.067-.215.368.132.167.066.184-.117.134-.348-.067-.447.067-.199.351.15.184.1.218-.082.184-.465-.067-.116.318-.183.485-.05.151-.63.017-.348.385.066.084.199.218.05.184-.481-.067-.58.084-.249.452.1.1-.066.05-.133.067-.53.084-.248.602-.547.82-.033.033-.265.435-.447.836-.183.419-.365.837-.398.887-.15.268-.382.703-.448 1.004-.033.117-.1.184-.15.285-.132.267-.265.518-.331.82a1.796 1.796 0 01-.116.317c-.133.268-.381.486-.298.82.066.218-.365.2-.282.385.132.284-.116.418-.15.62-.033.2-.182.367-.215.568-.017.2-.116.385-.183.569-.082.2-.116.401-.182.602-.066.184-.066.368-.15.552-.082.201-.082.452-.198.653-.083.134.265.385 0 .452-.15.033-.232.1-.183.2 0 .017.017.034.034.034l1.923.502c.182-.05.182-.167-.033-.335-.15-.117-.249-.2.05-.217.364-.017.348-.168.116-.352-.133-.1-.1-.15 0-.2.1-.05.182-.252.282-.52.099-.267.182-.618.281-.953.2-.686.398-1.372.514-1.506.017-.017-.05-.05-.05-.067 0-.267.465-.351.167-.736-.017-.017.082 0 .099 0 .282-.217.232-.585.398-.853 0-.017-.05-.05-.05-.067.183-.2.365-.402.266-.72h.033c.331-.184.232-.568.48-.803.017-.016-.05-.083-.116-.133-.1-.084-.116-.134 0-.134.448.033.514-.117.2-.452-.083-.1-.017-.117.232-.05.547.133.563-.05.116-.385-.349-.268.016-.134.066-.184.215-.251.414-.502.448-.854 0-.05-.216-.2-.067-.184.465.05.58-.067.249-.451-.116-.117.15-.034.166-.067.166-.268.829-1.356 1.011-1.607l-.016-.033c.033-.284.514-.284.282-.72 0-.016.05 0 .082 0 .382.05.216-.217.166-.434-.05-.201.597.033.415-.285-.017-.017-.05-.067-.033-.067.066-.268.348-.368.414-.636.033-.15.415-.083.166-.435-.083-.117-.05-.133.083-.117.381.084.497-.017.249-.368-.1-.15.083-.067.149-.084.381-.1.348-.518.63-.702l-.017-.034c.034-.3.564-.217.332-.702 0-.017.066.016.083.016.398-.067.315-.535.663-.652.017 0-.066-.1-.05-.117.25-.134.332-.385.498-.57.083-.1.232-.15.248-.317.05-.285.382-.318.481-.57.05-.133.415-.016.232-.384-.066-.117-.033-.15.083-.1.382.15.481.05.299-.318-.05-.1-.017-.15.1-.1.38.15.464.033.281-.352-.066-.134-.016-.15.15-.084.348.168.48.05.281-.3-.1-.185-.033-.185.15-.101.331.15.43.05.265-.285-.116-.217-.05-.234.116-.15.414.184.182-.268.282-.419.083-.133.58.151.414-.267-.033-.1-.132-.268 0-.201.431.218.58.117.382-.335-.05-.133.083-.033.149-.016.448.083.431-.318.647-.502.016.067.066.15.149.25.1.134-.15.017-.183.05-.1.135-.348.453-.563.804-.216.351-.431.703-.53.837l.016.033c-.034.285-.548.301-.299.736.017.017-.05 0-.083 0-.398-.033-.199.235-.149.452.05.2-.613.017-.398.335.017.016.05.05.05.067-.05.267-.332.418-.365.702-.017.15-.398.15-.116.452.1.1.066.134-.066.134-.398-.034-.481.1-.2.418.133.134-.066.084-.132.117-.381.184-.249.603-.497.837 0 0 .016.033.033.033.033.302-.514.352-.183.787.017.017-.066 0-.082 0-.183.083-.233.25-.266.401-.033.168-.05.318-.199.435-.016.017.083.084.083.1-.199.202-.215.486-.315.72-.05.134-.182.235-.15.402.05.284-.248.452-.248.736 0 .15-.381.2-.066.469.1.083.1.133-.05.133-.414.017-.48.168-.166.435.083.084.067.134-.05.134-.397.034-.447.184-.116.452.117.1.083.134-.099.134-.381.017-.448.184-.116.418.182.134.116.15-.083.167-.365.017-.415.168-.116.385.199.134.15.184-.033.201-.465.05-.033.351-.033.519-.017.167-.597.184-.233.468.083.067.25.15.1.168-.48.05-.547.217-.15.502.117.083-.049.066-.115.1-.481.217-.083.652-.315.937-.034.05-.133.485-.216.92-.066.452-.15.887-.166.954-.083.284-.199.77-.166 1.087 0 .117-.05.218-.066.318-.066.285-.133.57-.116.87 0 .117-.017.234-.033.335-.066.284-.232.569-.05.87.116.2-.298.284-.182.452.199.234-.017.418 0 .636.016.2-.083.401-.05.602.033.2 0 .385-.033.586-.033.2 0 .418-.033.635-.017.184.033.368 0 .57-.033.217.05.45-.017.685-.033.15.348.301.116.435-.132.084-.199.167-.116.251l.033.034 1.973-.017c.166-.1.133-.2-.116-.318-.165-.067-.298-.117 0-.217.349-.1.282-.252.017-.369-.15-.066-.133-.117-.05-.2.083-.084.116-.285.133-.57.016-.284.033-.635.033-.986 0-.352 0-.72.017-1.004.016-.285.05-.502.1-.57 0-.016-.067-.033-.067-.05-.05-.25.364-.468-.033-.752-.017-.017.082-.017.082-.034.2-.284.067-.619.166-.92 0-.017-.066-.033-.05-.05.133-.235.266-.469.084-.753l.033-.017c.248-.268.066-.602.248-.887.017-.016-.066-.067-.132-.1-.116-.05-.15-.1-.034-.117.448-.084.465-.251.083-.485-.116-.067-.05-.1.216-.117.564 0 .53-.185.017-.402-.398-.167 0-.134.016-.2.15-.302.265-.587.2-.938-.018-.05-.25-.134-.1-.167.464-.067.547-.218.116-.485-.133-.084.132-.067.149-.1.133-.285.448-1.523.564-1.808 0 0-.034-.016-.034-.033-.033-.268.448-.402.117-.77-.017-.017.05-.017.082-.017.398-.033.15-.267.05-.451-.1-.184.58-.117.332-.385-.017-.017-.05-.05-.05-.067 0-.268.249-.452.232-.72 0-.15.382-.184.067-.451-.117-.1-.083-.117.05-.134.397-.017.464-.15.149-.418-.133-.118.05-.084.116-.118.348-.2.199-.585.43-.836 0 0-.032-.017-.032-.034-.05-.3.48-.351.165-.753-.016-.016.067 0 .083 0 .365-.167.166-.602.481-.786.017-.017-.083-.084-.066-.1.199-.184.215-.452.348-.67.066-.117.182-.2.182-.368-.016-.284.299-.401.315-.67.017-.15.398-.133.133-.434-.083-.1-.083-.134.066-.117.398.05.481-.067.216-.385-.083-.084-.05-.134.066-.117.398.05.465-.084.2-.402-.1-.117-.05-.134.115-.117.382.067.465-.067.2-.368-.15-.167-.067-.167.115-.134.349.067.431-.05.2-.334-.15-.184-.1-.201.082-.184.448.083.116-.318.166-.469.05-.15.614.017.348-.351-.066-.084-.199-.218-.05-.184.465.1.58-.017.282-.419-.082-.117.067-.05.133-.05.53-.017.298-.552.597-.72.083-.05.995-1.405 1.061-1.472.133-.167.348-.401.498-.619a.52.52 0 00.033.268s-.033 0-.033.017c-.299.217-.15.602-.365.853-.017.017.066.084.132.117.1.067.133.117.017.134-.448.033-.48.2-.133.468.1.084.034.117-.232.084-.564-.05-.564.15-.05.402.398.2 0 .134-.033.2-.165.285-.298.586-.248.937 0 .05.248.151.1.168-.465.05-.548.217-.133.485.132.084-.133.067-.15.1-.116.302-.398 1.54-.48 1.84 0 0 .032.018.032.034.067.268-.397.452-.033.77.017.017-.05.017-.082.017-.382.083-.117.284 0 .468.116.168-.564.2-.282.435.016.017.066.034.066.05.033.268-.166.486-.1.753.034.15-.331.251.034.452.132.067.1.1-.034.134-.398.1-.43.25-.05.452.166.083-.032.1-.082.15-.299.268-.05.62-.216.92l.033.017c.133.268-.381.469.05.77.017.017-.066.017-.083.033-.149.134-.149.302-.132.452.016.15.05.318-.067.452-.016.017.116.05.1.067-.133.25-.067.502-.083.753-.017.134-.1.267-.033.418.116.251-.116.485-.034.736.05.15-.314.285.067.452.116.05.133.1 0 .134-.381.134-.398.284-.033.452.116.05.1.1 0 .133-.382.134-.382.302 0 .452.149.05.116.1-.05.15-.365.118-.381.285 0 .42.199.066.15.116-.033.183-.348.117-.348.268 0 .385.232.067.199.134.033.2-.431.168.066.335.083.486.033.15-.514.318-.1.485.1.034.282.067.15.134-.448.184-.465.351 0 .502.132.033-.034.084-.083.117-.415.335.083.62-.067.954-.033.1.133 1.74.133 1.84 0 .285.033.77.133 1.054.033.1.016.201.016.318.017.285.017.57.1.837.033.117.05.217.05.334.016.285-.1.603.165.82.166.15-.232.352-.066.452.232.167.1.402.166.586.066.184.016.401.1.585.082.184.082.368.099.553.033.2.083.401.116.602.016.184.116.351.132.535.017.218.15.419.133.636 0 .15.415.2.216.385-.116.1-.166.2-.067.25.017 0 .034.018.034.018l1.923-.486c.133-.134.083-.217-.183-.267-.182-.034-.314-.05-.05-.201.316-.184.233-.301-.066-.352-.165-.033-.149-.083-.1-.167.2-.351-.58-2.694-.463-3.028 0-.017-.067-.017-.067-.034-.1-.234.25-.518-.215-.702-.017 0 .066-.034.083-.05.132-.319-.083-.603-.083-.904 0-.017-.066-.017-.066-.034.066-.25.132-.518-.1-.736 0 0 .017-.017.033-.017.183-.317-.1-.585 0-.903 0-.017-.083-.05-.166-.05-.116-.034-.165-.05-.066-.117.415-.201.381-.352-.033-.469-.133-.033-.083-.083.182-.167.53-.15.481-.318-.083-.385-.43-.05-.05-.134-.033-.184.066-.318.083-.62-.066-.92-.017-.05-.282-.067-.15-.117.432-.184.465-.352-.016-.486-.15-.05.116-.1.116-.134.017-.15.017-.535.017-.92s.016-.77.033-.92l-.033-.017c-.116-.25.298-.485-.116-.736-.017-.017.05-.017.066-.033.365-.151.066-.285-.083-.435-.133-.151.53-.285.216-.452-.017-.017-.067-.034-.067-.034-.083-.25.1-.485.017-.736-.05-.134.298-.284-.083-.435-.133-.05-.116-.1.017-.134.38-.117.414-.267.016-.435-.166-.067.017-.1.066-.15.282-.285.017-.603.166-.904l-.033-.016c-.133-.252.365-.469-.083-.753-.016-.017.066-.017.083-.034.299-.268-.017-.602.216-.87.016-.017-.116-.05-.1-.067.133-.234.067-.485.116-.736.017-.134.116-.251.05-.402-.1-.25.15-.451.1-.72-.034-.15.331-.233-.017-.434-.116-.067-.116-.1.016-.134.398-.084.432-.218.083-.418-.1-.067-.1-.117.017-.134.398-.084.415-.218.066-.435-.132-.084-.083-.117.083-.134.382-.05.415-.2.067-.402-.183-.1-.133-.133.066-.167.348-.05.381-.184.066-.368-.199-.117-.166-.167.017-.184.447-.067.016-.318.016-.485 0-.15.58-.184.216-.435-.083-.067-.265-.15-.1-.168.465-.05.531-.2.116-.468-.116-.067.05-.067.1-.1.48-.185.1-.603.332-.854.033-.033.149-.435.248-.853.1-.402.232-.803.249-.854.1-.25.265-.702.282-.987 0-.1.066-.184.116-.284.05-.1.1-.218.133-.318-.017.351-.017.753-.034 1.205v.87c.017.3.017.619.034.954.033.652.05 1.338.116 2.024.033.335.066.686.1 1.02l.049.503c.016.167.05.334.066.485.083.652.166 1.255.232 1.807.183 1.087.299 1.924.315 2.225 0 .05.083.084.1.134.133.452.15.937.199 1.422.033.235.066.469.133.703.066.234.182.452.348.652.016.034-.05.1-.05.151.033.301.066.602.133.904.066.3.132.585.232.87.182.569.381 1.137.514 1.723.016.05.1.084.1.134.099.485.215.954.347 1.439.15.468.316.92.597 1.338.017.017 0 .05 0 .084.1.586.315 1.138.547 1.69.25.535.498 1.07.664 1.64.033.083.149.15.248.2.166.084.266.201.233.402-.133.736.149 1.305.796 1.69.182.117.232.284.082.602-.298.636.067 1.222.746 1.339.531.083.282.435.382.652.133.285.265.552.414.82l.216.402.116.2.05.1c.016.034.033.051.083.135.348.535.978.853 1.591.82.083 0 .15-.017.233-.034l.116-.017.215-.05a3.15 3.15 0 00.431-.117c.166-.05.25-.335.481-.218.697.335 1.327.268 1.874-.3.182-.185.365.066.53.033 1.161-.15 5.87-.904 7.047-1.071.017 0 .05-.034.067-.05.928-.268 1.94 0 2.802-.57.033-.016.1.034.15.051.646.268 1.093-.117 1.657-.368.514-.234 1.194.335 1.774-.084.05-.033.083-.083.133-.1.929-.234 1.874-.218 2.819-.468.514-.134 1.16.117 1.641-.369.166-.167.315-.167.514-.083.614.284 1.178.2 1.658-.285.2-.2.382-.05.597-.033 1.194.067 2.322-.402 3.499-.469.017 0 .033-.033.066-.05.465-.15.945-.15 1.426-.184.232-.017.481-.05.713-.1l.1-.034c.066-.017.116-.033.182-.05.116-.05.232-.1.332-.184.199-.15.365-.335.447-.552.017-.05.15-.1.216-.184a1.7 1.7 0 00.315-.803 3.246 3.246 0 00-.216-.92zM41.898 6.9c0-.033.017-.067.017-.1.016-.067.016-.134.033-.2.05-.335.1-.653.199-.704l-.066-.033c-.034-.134.364-.117 0-.351a.712.712 0 00.082.016c.216-.067.1-.25.183-.368 0 0-.066-.033-.05-.033.133-.067.266-.117.1-.301h.033c.248-.017.083-.251.265-.285.017 0-.066-.067-.116-.1-.1-.067-.116-.1-.017-.067.398.15.415.1.1-.167-.1-.084-.033-.067.199.05.48.267.464.2.033-.168-.331-.284 0-.066.033-.066.133-.05.249-.1.232-.285 0-.033-.182-.217-.066-.134.365.251.431.251.15-.134-.084-.133.099.067.115.05.05-.033.183-.117.299-.183a2.41 2.41 0 01.298-.151l-.016-.034c.016-.066.083-.016.149 0 .05.017.083 0 .05-.217 0-.017.016.033.033.067.182.335.1.033.116-.134 0-.084.066.05.116.15.05.101.083.185.083.017V2.97c.066-.1.166.067.232-.033.05-.05.1.301.15-.1.016-.134.032-.118.049.016.033.385.05.402.15 0 .049-.167.032.017.049.067.033.134.066.134.116.134.05-.017.116-.033.133.05l.016-.033c.067-.067.067.033.083.083.017.05.033.067.182-.117.017-.016-.016.067-.033.067-.033.15.017.134.067.134s.116 0 .066.1c0 .017.083-.083.083-.066-.017.067 0 .083.033.1s.066.033.083.067c.017.033-.017.1.066.084.083-.017.083.033.067.083-.017.05-.017.084.033.1.033.017-.033.068-.05.084-.017.034-.017.05.182.017.117-.017.133-.017.017.05-.348.15-.348.168.017.15.116 0 .116.018.016.051-.365.117-.348.134.033.15.15 0 .116.034-.05.068-.364.066-.364.117.017.15.2.017.15.034-.033.067-.348.05-.348.084 0 .15.232.034.182.068.017.084-.432.034.05.134.066.201.017.067-.53.05-.133.184.1.034.282.084.133.084-.448-.017-.498.033-.05.2.116.05-.033.034-.1.034-.447.017-.016.268-.198.351-.017 0-.033.034-.05.1-.73.101-1.46.218-2.172.352.05.017-.017.067-.2.1-.148.034-.132.017-.049 0 .083-.016.116-.016.133-.083v-.017c-.017 0-.033 0-.05.017-.017 0-.033.017-.05.017-.215.083-.182.083-.1.016h-.016c-.033 0-.05.017-.083.017l-1.194 1.255c0-.084-.033-.084-.066-.1-.033-.017-.066-.034-.033-.134.05-.15-.017-.184-.1-.218-.016-.017-.05-.017-.066-.033.15-.134.166-.218 0-.168-.016.017-.016.017 0 0-.016.034-.016.05-.033.067-.017-.016-.033-.016-.05-.033.017 0 .05-.017.083-.034zm-.132-.117c-.034.067-.017.067 0 .05.016 0 .05-.016-.017.05-.017-.016-.017-.033-.033-.066l.05-.034zM28.053 8.81c.017-.017.017-.017.05-.034.116-.067.083-.1.016-.134h-.033c.033-.083.05-.133.1-.15 0 0-.05-.034-.067-.034-.033-.117.382-.066.017-.334-.017-.017.083.017.083.017.215-.05.116-.235.215-.335 0 0-.05-.034-.05-.05.133-.05.266-.1.133-.301h.034c.265 0 .099-.251.281-.285.017 0-.066-.067-.116-.117-.1-.084-.116-.117-.016-.067.398.167.43.117.116-.184-.1-.084-.033-.067.199.05.497.268.48.184.05-.167-.332-.285 0-.067.033-.084.149-.067.265-.134.248-.318 0-.033-.199-.2-.066-.134.381.218.464.201.15-.167-.1-.117.115.05.132.034.116-.067.514-.452.613-.502l-.016-.034c0-.067.1-.05.149-.05.066 0 .1-.033 0-.234 0-.017.033.033.05.05.265.268.116 0 .083-.167-.017-.067.083.016.149.1.083.084.15.134.083-.017a.238.238 0 01-.033-.067c.033-.117.182 0 .199-.1.033-.067.166.251.083-.134-.017-.134 0-.117.033 0 .132.351.132.368.116-.033 0-.168.033.016.05.05.05.117.082.117.116.1.033-.016.066-.05.083.017 0 0 0-.033.016-.033.033-.067.05.016.05.066s0 .05.133-.15c0-.017-.017.067-.034.067-.033.134-.033.117.017.1.033-.017.083-.017.017.067 0 .017.082-.084.082-.067-.05.1.034.084.067.134.016.033-.05.084.05.084.082 0 .066.033.05.083-.017.034-.034.084.016.1.033.017-.033.05-.067.068-.033.033-.016.033.166.033.133 0 .133.017.017.05-.381.084-.398.1 0 .15.116.018.116.034 0 .051-.381.05-.381.084.016.15.15.034.116.05-.066.05-.381.018-.381.051-.017.151.2.05.15.067-.05.067-.347 0-.364.034-.032.151.215.067.182.084.016.084-.43-.017.033.15.05.217s-.547 0-.166.184c.1.034.282.1.116.1-.464-.033-.514.017-.066.218.116.05-.033.034-.1.034-.447.016-.016.284-.232.368-.033.016-.132.334-.215.569-.1.016-.2.033-.299.033-.282.033-.58.084-.862.134.116.017.083.033-.166.084-.282.05-.166.066.017.05.166-.017-.083.05.083.033l-1.94.402c.066-.05.016-.05 0-.067.05.017.05.017.066 0zm-12.071 8.316c-.05-.017-.1-.017-.133-.017a.23.23 0 01.067-.05c.016-.017.05-.034.066-.067.033.05.1.15 0 .134zm44.835 23.457l-.43.084c-.565.117-1.128.251-1.709.251-.066 0-.132.134-.199.134-.961.05-1.89.284-2.819.435-.513.084-1.011.084-1.525.25-.879.285-1.824.218-2.752.453-.514.133-1.161-.117-1.642.35-.166.151-.315.185-.514.085-.613-.285-1.16-.218-1.658.25a.452.452 0 01-.514.084c-.614-.284-1.177-.184-1.658.285-.183.184-.348.167-.58.033-.531-.284-1.145-.2-1.543.251-.215.251-.38.218-.663.067a1.157 1.157 0 00-1.442.234c-.25.268-.448.268-.713.15-.697-.317-1.21.252-1.791.386-.564.117-1.244-.335-1.824.184-.133.117-.265.334-.48.217-.697-.351-1.327-.267-1.874.285-.15.15-.299.016-.448-.017-.614-.117-1.178-.017-1.758.134-.282.067-.58.15-.862.217a4.82 4.82 0 01-.431.084c-.066.017-.15.017-.216.033l-.016-.016a1.253 1.253 0 00-.116-.201c-.15-.268-.332-.586-.514-.92-.1-.168-.2-.335-.282-.502a4.02 4.02 0 01-.15-.268l-.132-.268c-.183-.351-.365-.72-.547-1.054a17.248 17.248 0 01-.481-.937c-.265-.569-.464-.987-.498-1.07-.099-.252-.232-.52-.364-.837a27.23 27.23 0 01-.398-.97c-.133-.335-.282-.653-.415-.971a8.482 8.482 0 00-.348-.837c-.166-.368-.249-.736-.381-1.087-.15-.502-.315-1.004-.465-1.49-.083-.25-.165-.501-.248-.736-.067-.25-.15-.501-.233-.752-.132-.402-.232-.77-.348-1.188-.116-.502-.199-1.038-.298-1.556a5.567 5.567 0 00-.2-.753 5.277 5.277 0 00-.248-.72c-.265-.602.05-1.154-.182-1.623-.332-.72-.266-1.489-.398-2.225-.116-.736-.116-1.473-.232-2.175-.1-.703-.133-1.389-.166-2.092-.017-.686-.066-1.388-.083-2.091.547-.017 1.061-.15 1.592-.218.282-.033.564-.033.862-.133.497-.168 1.045-.1 1.559-.252.281-.083.663.1.928-.2.083-.1.166-.117.299-.05.348.2.663.167.945-.134a.252.252 0 01.298-.05c.348.2.663.15.945-.151.1-.117.2-.1.332-.017.298.2.663.15.879-.134.116-.15.215-.134.364-.033.282.184.614.134.813-.134.133-.184.249-.167.398-.084.398.235.68-.15 1.011-.217.315-.067.713.25 1.045-.1.083-.084.15-.218.282-.134.398.234.763.2 1.061-.168.083-.1.166 0 .265.017.697.167 1.31-.251 1.99-.268.199 0 3.648-.636 3.863-.669.597-.1 1.609-.268 2.206-.418.232-.067.43-.067.646-.117.597-.1 1.178-.201 1.758-.352.232-.067.448-.1.696-.15.58-.1 1.227-.134 1.741-.385.349-.168.664.05.929-.117.398-.235.846-.201 1.26-.318.365-.1.73-.15 1.078-.235.016.067.033.151.05.218.066.167.149.318.282.485.165.201-.1.352-.1.536 0 .15 0 .351.017.602.016.251.016.552.033.87.05.653.1 1.406.166 2.159.082.752.165 1.522.248 2.158.1.636.183 1.171.216 1.472 0 .017.033.05.05.067.116.469.149.97.215 1.456.066.485.15.97.464 1.389.017.033-.016.1-.033.167-.215.67.2 1.12.481 1.656.282.486-.199 1.255.299 1.79.033.034.099.084.116.118.05.117.082.234.116.351.033.117.082.234.116.352l.199.702.199.703c.066.234.149.468.265.686.232.485.116 1.188.68 1.59.182.133.232.284.182.501-.133.67.083 1.222.663 1.59.25.15.15.368.183.569.132.602.381 1.138.663 1.69.282.535.597 1.054.813 1.623.016.016.05.033.066.05.133.2.249.418.365.636.1.217.199.451.298.686.1.217.216.451.348.652.033.05.067.1.116.15l-.033-.033zm.15.05c.016 0 .033-.016.082 0h-.083z" fill="#043C3A"/><path d="M55.694 24.637c0-.184 0-.318.15-.067.182.301.281.218.265-.083 0-.168.05-.151.116-.1.082.05.248.033.464-.051.199-.084.464-.184.696-.318.232-.134.481-.268.663-.385.183-.117.332-.2.398-.2.017 0-.016-.067-.016-.067.066-.084.182-.067.282-.084.1-.017.166-.084.132-.318 0-.017.05.05.067.05a.446.446 0 00.331-.15l.133-.134c.05-.05.083-.084.133-.117.016 0-.034-.067-.017-.067.2-.05.431-.1.431-.385 0 0 .017.017.033.017.315.016.315-.352.58-.402.017 0-.032-.084-.066-.15-.066-.1-.066-.151.033-.1.382.217.465.116.25-.269-.067-.117 0-.1.215.05.464.319.514.168.166-.267-.282-.335.033-.1.082-.117.216-.134.415-.285.465-.57 0-.033-.183-.217-.05-.167.415.168.53.084.232-.3-.1-.134.133.016.166-.017.182-.151.713-.97.846-1.155l-.017-.033c0-.218.464-.184.182-.553-.016-.016.05 0 .083.017.382.067.166-.167.067-.351-.083-.167.563.033.331-.234l-.05-.05c0-.1.067-.185.117-.268.05-.084.116-.168.1-.268-.017-.117.364-.1.032-.351-.116-.084-.083-.1.05-.1.398.033.448-.084.1-.319-.15-.1.033-.067.099-.083.166-.067.199-.184.215-.301.017-.118.017-.251.117-.335l-.034-.017c-.099-.217.431-.284.017-.585-.017-.017.066 0 .083 0 .315-.168.016-.469.265-.653.017-.017-.1-.05-.1-.067.15-.167.1-.368.133-.552.017-.1.117-.184.05-.301-.1-.201.133-.352.067-.552-.05-.117.314-.184-.05-.335-.116-.05-.133-.084 0-.1.381-.067.398-.184.033-.335-.1-.034-.1-.084 0-.1.381-.084.381-.201 0-.335-.15-.05-.1-.084.066-.117.365-.084.382-.2 0-.318-.199-.05-.149-.084.033-.134.349-.084.349-.2 0-.284-.232-.05-.182-.1-.016-.15.43-.135-.066-.252-.1-.369-.033-.117.514-.251.1-.368-.1-.034-.282-.05-.15-.1.432-.151.465-.285-.016-.369-.133-.033.033-.067.083-.1.199-.134.182-.251.133-.351-.05-.118-.15-.218-.083-.352.016-.033 0-.351-.05-.686-.05-.318-.1-.636-.1-.686-.016-.217-.05-.569-.149-.77-.033-.066-.016-.15-.033-.234-.017-.2-.05-.418-.133-.602a1.247 1.247 0 01-.066-.234c-.017-.201.066-.452-.182-.586-.166-.084.199-.284.033-.351-.249-.084-.116-.285-.183-.419-.066-.133-.033-.3-.116-.418-.083-.117-.1-.25-.132-.401-.034-.15-.116-.268-.15-.419-.033-.134-.116-.234-.149-.368-.033-.167-.149-.284-.166-.452 0-.117-.414-.066-.232-.234.1-.1.15-.184.05-.2h-.033l-1.824.77c-.116.133-.066.183.182.15.183-.017.315-.034.067.134-.299.2-.2.267.083.234.165-.017.149.033.1.1-.1.15.082.603.248 1.054.182.452.348.92.315 1.038 0 .016.066 0 .066 0 .116.15-.215.418.232.468.017 0-.066.034-.066.05-.133.251.116.419.1.636 0 .017.066 0 .066.017-.05.184-.116.385.132.502 0 0-.016.017-.033.017-.182.25.116.401.017.635 0 .017.083.017.166.017.116 0 .165.017.066.067-.398.184-.365.284.05.335.132.016.083.05-.183.134-.53.15-.464.267.1.267.43 0 .05.084.033.134-.05.234-.083.452.066.653.017.033.282.033.15.083-.415.15-.465.268.016.352.15.033-.116.067-.116.1-.017.218-.017 1.07-.033 1.288l.033.017c.1.167-.315.335.1.519.016 0-.05.016-.067.016-.365.084-.083.201.067.302.132.1-.531.167-.216.3.017.018.066.018.066.034.083.184-.116.335-.033.502.05.1-.315.168.066.318.133.05.1.084-.016.084-.382.05-.415.134-.033.301.166.067-.034.067-.083.1-.282.168-.033.419-.216.603l.033.017c.117.2-.397.25.034.535.016.017-.067 0-.083 0-.315.134-.033.418-.266.552-.016 0 .1.05.1.067-.15.134-.133.318-.182.468-.034.084-.133.134-.084.268.084.2-.198.268-.165.469.016.117-.349.067-.033.3.1.085.1.118-.034.085-.381-.067-.447.016-.132.267.083.067.066.1-.033.084-.382-.084-.415.017-.116.284.116.1.066.117-.1.067-.365-.1-.431-.016-.133.251.166.134.1.134-.083.084-.331-.1-.38-.017-.116.234.166.167.116.167-.05.117-.43-.134-.066.218-.099.318s-.547-.117-.265.218c.066.083.215.217.066.15-.43-.167-.514-.1-.215.268.083.1-.05.033-.116.017-.233-.05-.282.05-.299.167-.033.117-.033.234-.166.268-.033 0-.215.234-.398.451-.182.218-.381.435-.398.452-.149.117-.397.301-.48.485-.034.067-.117.084-.166.117-.15.1-.315.201-.415.352-.05.067-.1.1-.166.134-.165.083-.398.067-.414.351-.017.184-.315-.134-.315.034 0 .25-.216.167-.299.25-.1.1-.248.068-.331.168-.083.1-.2.117-.315.167-.116.05-.232.117-.348.15-.117.034-.2.118-.316.151-.132.017-.248.134-.397.134-.1 0-.05.368-.216.15-.1-.15-.05.068-.133-.033l.547 1.925c0-.218.1.016.1-.168zM45.348 44.916c.182-.084.282-.168.199.134-.083.351.116.401.332.2.116-.117.149-.066.198.017.05.1.233.2.481.268.249.067.547.084.796.084h.663c.183 0 .315.016.365.066 0 0 .017-.067.033-.067.166-.066.282.352.481-.066 0-.017 0 .083.017.083.182.201.398.05.597.117l.033-.067c.15.117.298.235.48.05v.034c.15.251.399.034.564.2.017.018.05-.083.083-.15.05-.117.083-.15.083-.033.017.435.116.452.315.067.05-.117.083-.05.05.217-.05.552.066.536.265 0 .166-.401.1-.017.133.017.182.134.365.234.597.167.033-.016.133-.25.116-.1-.017.452.066.519.315.1.083-.134.017.134.05.15.182.101.928.402 1.11.486 0 0 .017-.033.034-.033.199-.034.182.401.497.083.017-.016 0 .05 0 .084-.05.385.15.134.299.033.149-.083-.067.553.182.302l.05-.05c.182-.017.232.217.414.217.1 0 0 .351.282.05.1-.1.116-.067.067.05-.133.368-.083.419.215.15.133-.116.033.051.033.101 0 .15.067.201.15.234.066.034.165.067.182.168l.033-.017c.1 0 .083.1.1.184.016.084.05.117.265.034.017 0-.05.05-.05.067-.05.133-.016.184.066.234.067.05.133.1.067.2 0 .017.116-.033.1-.016-.017.083 0 .134.016.184.033.05.066.1.066.15.017.067-.05.134.033.184.15.1-.066.252.034.369.05.083-.299.134.066.25.116.034.133.068 0 .084-.382.05-.398.117-.05.251.1.034.1.067-.016.084-.382.017-.398.1-.034.268.133.066.1.083-.066.083-.365 0-.398.084-.05.251.183.1.133.1-.066.1-.348-.016-.381.068-.066.235.199.117.165.134-.017.134-.448-.017 0 .217 0 .334 0 .1-.564.034-.199.268.083.05.249.134.1.134-.465-.034-.531.05-.117.318.117.067-.05.033-.099.05-.464.05-.083.402-.315.535-.033.017-.133.285-.232.553-.1.267-.216.518-.232.552-.1.15-.249.435-.266.636-.016.066-.066.117-.116.167-.1.15-.215.301-.248.485a.564.564 0 01-.1.2c-.116.151-.331.235-.232.503.066.167-.332.033-.249.184.116.234-.116.234-.149.368-.05.134-.182.184-.215.318-.034.134-.117.217-.2.301-.082.1-.132.234-.215.335-.083.083-.1.217-.199.3-.1.101-.116.252-.249.335-.083.05.166.368-.066.302-.133-.05-.216-.05-.182.05 0 .017.016.017.016.033l1.575 1.222c.166.033.183-.05.034-.251-.1-.15-.183-.251.082-.134.316.15.332.033.166-.2-.1-.135-.05-.151.033-.151.183 0 .465-.419.73-.854.249-.435.464-.887.58-.953.017 0-.05-.05-.05-.067.017-.184.448-.151.166-.502-.016-.017.067.016.083.016.266-.1.216-.385.349-.569l-.05-.05c.166-.117.331-.234.215-.485h.033c.299-.1.15-.401.365-.552.017-.017-.066-.067-.116-.117-.1-.067-.116-.117-.016-.1.43.066.464-.05.132-.319-.1-.083-.033-.083.216-.016.53.15.547 0 .05-.285-.382-.217 0-.1.033-.134.165-.184.282-.368.232-.635 0-.034-.249-.151-.1-.134.448.033.53-.067.133-.335-.133-.084.133-.017.15-.05.115-.184.397-1.054.463-1.255l-.033-.017c-.05-.2.398-.284.033-.569-.016-.016.05 0 .083-.016.382-.034.117-.201-.016-.352-.116-.133.564-.133.248-.317a.234.234 0 00-.066-.034c-.066-.2.133-.402.05-.62-.033-.066.05-.116.083-.183.033-.067.016-.134-.182-.184-.133-.034-.117-.067 0-.117.364-.15.364-.318-.05-.385-.183-.017 0-.084.033-.15.1-.168.05-.302-.017-.436-.066-.134-.149-.25-.149-.401h-.033c-.116-.067-.1-.201-.116-.335-.017-.117-.083-.217-.332-.167-.016 0 .05-.05.05-.067.033-.184-.066-.285-.182-.352-.117-.083-.216-.15-.233-.3 0-.017-.099.066-.116.05-.083-.218-.282-.302-.43-.419-.084-.067-.117-.184-.266-.184-.232.017-.265-.284-.48-.301-.117 0-.05-.368-.333-.1-.099.1-.116.083-.099-.05.083-.385-.017-.452-.282-.168-.083.084-.116.067-.083-.05.067-.385-.05-.435-.298-.117-.1.117-.1.067-.083-.1.066-.369-.033-.436-.265-.118-.117.168-.133.117-.1-.083.05-.352-.05-.402-.249-.1-.132.183-.149.15-.132-.034.05-.452-.232-.034-.349-.034-.116-.017-.033-.569-.281-.217-.067.083-.15.25-.133.1.033-.468-.066-.535-.332-.134-.066.117-.05-.05-.05-.1-.082-.485-.43-.084-.596-.301-.034-.034-.315-.117-.614-.184a8.83 8.83 0 00-.646-.134c-.2-.067-.531-.15-.73-.134-.083.017-.15-.034-.216-.067-.198-.05-.38-.117-.596-.084-.083.017-.15 0-.233-.016-.199-.05-.381-.218-.596-.034-.133.134-.2-.284-.299-.15-.166.2-.299 0-.431.033-.15.017-.282-.067-.415-.033-.132.033-.232 0-.348-.017-.116-.017-.232 0-.331-.034-.083-.033-.166 0-.233-.033-.066-.05-.165 0-.182-.084 0-.033-.066.034-.1.084-.05.033-.082.05-.016-.067.1-.15-.05.017.017-.084l-1.393 1.423c.199-.084.066.133.232.05z" fill="#043C3A"/><path d="M51.533 43.895c.066-.167.116-.284.165 0 .05.352.166.301.282.034.067-.15.1-.117.15-.034.099.168.663.218 1.21.251.547.05 1.11.1 1.227.184.017 0 .033-.067.05-.067.199-.033.331.385.597 0 .016-.016 0 .084.016.084.2.234.481.1.713.2.017 0 .033-.066.05-.05.182.134.348.285.597.101 0 0 0 .033.016.033.183.268.481.084.68.268.017.017.067-.067.1-.134.066-.117.1-.134.1-.016.016.451.132.468.364.1.066-.117.083-.05.066.218-.066.552.083.552.315.033.183-.402.116 0 .15.017.215.15.43.267.713.217.033-.017.149-.25.149-.1 0 .451.1.535.381.134.083-.134.033.133.066.15.117.05.398.184.68.285.282.117.58.234.68.284 0 0 .017-.033.033-.033.232-.034.266.435.597.117.017-.017 0 .05 0 .083-.033.385.183.151.348.05.166-.083-.016.57.233.319l.05-.05c.198 0 .265.234.447.25.116 0-.017.352.282.084.1-.084.116-.05.066.067-.166.351-.149.401.2.167.148-.084.032.05.016.1-.033.151 0 .201.066.252.066.05.133.1.1.2h.033c.1.034.033.117.016.201-.033.084-.016.117.232.15.017 0-.066.017-.066.034-.05.05-.083.1-.083.134 0 .05.017.084.033.134.034.084.067.184-.033.268-.016.016.116.033.1.05-.116.15-.067.318-.116.485-.017.084-.117.167-.067.284.083.201-.182.318-.149.52.017.116-.348.1-.033.35.1.084.1.118-.033.1-.398-.033-.448.068-.15.319.083.067.067.117-.033.1-.398-.05-.43.067-.116.318.116.1.067.117-.1.084-.364-.067-.43.05-.132.3.166.135.1.151-.083.118-.348-.067-.398.033-.132.268.182.15.132.184-.05.15-.448-.067-.067.251-.1.385-.033.117-.58-.033-.282.285.067.067.216.2.067.167-.465-.1-.547 0-.2.351.1.1-.049.034-.115.05-.481.017-.183.469-.448.603-.066.05-.68 1.204-.746 1.255-.133.184-.348.502-.415.736-.033.083-.1.134-.149.2-.133.185-.282.352-.348.57-.033.083-.083.15-.133.234-.149.167-.398.284-.331.585.05.201-.365.05-.299.218.083.25-.149.284-.215.435-.067.15-.216.234-.266.385-.05.15-.149.267-.248.385-.1.133-.166.284-.266.401-.1.117-.132.251-.232.368-.116.134-.149.318-.298.435-.1.067.166.402-.083.352-.15-.034-.232-.017-.2.083 0 .017.017.034.017.034l1.625 1.138c.183.016.2-.067.05-.285-.1-.15-.182-.25.083-.15.332.117.348 0 .182-.235-.099-.134-.05-.15.05-.167.398-.034 1.26-1.958 1.526-2.092.016 0-.05-.05-.034-.067.05-.2.481-.167.233-.568 0-.017.066.016.083.016.298-.117.265-.435.447-.619 0 0-.05-.05-.033-.067.182-.134.381-.25.315-.535h.033c.315-.1.232-.452.481-.586.017-.016-.05-.083-.1-.133-.082-.084-.099-.134 0-.118.432.1.481-.016.2-.351-.083-.1-.017-.1.232 0 .514.2.547.05.116-.318-.332-.284.016-.117.066-.15.2-.184.382-.385.382-.687 0-.033-.216-.2-.067-.167.448.1.547-.017.216-.368-.116-.117.132-.017.165-.033.166-.201.664-1.138.78-1.356 0 0-.033-.016-.033-.033 0-.117.116-.184.199-.268.083-.083.116-.184-.034-.368-.016-.017.05 0 .083 0 .382.034.166-.2.067-.385-.083-.167.58-.033.331-.284-.016-.017-.05-.05-.05-.067 0-.234.233-.368.233-.62-.017-.133.364-.15.033-.4-.116-.084-.083-.118.05-.118.398-.017.447-.167.1-.385-.15-.1.032-.083.099-.117.149-.117.182-.267.182-.418 0-.15-.017-.318.066-.469l-.033-.016c-.066-.134.017-.251.066-.385.05-.134.034-.285-.215-.385-.017 0 .066-.033.066-.05.116-.184.067-.352-.016-.502-.034-.084-.083-.15-.1-.234-.033-.084-.033-.168-.033-.268 0-.017-.116 0-.116-.017a.7.7 0 00-.15-.401c-.082-.117-.182-.218-.264-.335-.05-.067-.084-.134-.117-.184-.05-.067-.1-.117-.182-.134-.265-.067-.332-.401-.58-.468-.067-.017-.083-.117-.133-.184-.05-.067-.116-.1-.265.033-.1.084-.133.084-.116-.067.066-.401-.067-.485-.349-.2-.082.083-.116.066-.116-.05.034-.402-.1-.453-.364-.151-.1.117-.117.066-.1-.1.033-.386-.083-.453-.331-.135-.133.168-.133.1-.117-.083.034-.352-.082-.402-.298-.117-.133.184-.166.15-.166-.034.017-.452-.282-.033-.414-.05-.133-.017-.067-.586-.349-.234-.066.083-.165.25-.149.1.017-.468-.116-.552-.381-.15-.083.117-.05-.05-.066-.118-.117-.485-.514-.117-.713-.334-.05-.084-1.377-.402-1.46-.435-.215-.084-.596-.201-.845-.201-.1 0-.166-.05-.249-.084-.216-.067-.448-.15-.68-.15a.681.681 0 01-.265-.05c-.216-.084-.431-.268-.68-.101-.166.117-.199-.318-.332-.2-.199.183-.331-.034-.497-.018-.166 0-.315-.1-.48-.083-.167.017-.316-.034-.465-.067-.166-.033-.332-.017-.498-.067-.149-.033-.298 0-.447-.033-.166-.05-.365.016-.53-.05-.117-.05-.233.317-.332.05-.067-.184-.083.033-.15-.084l-.132 1.991c0-.1.016.134.083-.017z" fill="#043C3A"/><path d="M74.049 66.015l.05-.05h-.2c.05.067.1.117.15.05zm1.426.92a.355.355 0 01-.116-.067l.05.067h.066zm.845 1.004c-.017-.05-.033-.1-.05-.184 0 .033-.017.067-.017.084l.067.1zm-.728-1.957c.033-.017.066-.017.1-.017-.1 0-.183 0-.266.017.05 0 .1.016.166 0zm-3.449-.001c.149.017.265-.017.414-.017.1 0 .183.017.265.017-.248-.033-.497-.067-.68 0zm1.493 0h-.083c.033.017.066.017.083 0z" fill="#87D8C8"/><path d="M81.859 67.253c-.083-.067-.265-.15-.116-.2a.234.234 0 01.1-.034l-.83-.92c-.215-.369-.43-.352-.63.083-.066.134-.1-.033-.165-.084-.432-.435-.83.05-1.26-.1-.084-.033-.863-.017-1.526-.017l-.1 1.054c-.016.118-.033.402-.082.653-.05.25-.1.485-.133.502-.2.167.199.519-.265.585-.067.017-.216-.016-.1.05.415.252.332.369-.116.319-.15-.017.017.066.1.133.348.268-.216.168-.216.268-.017.1.398.402-.05.335-.166-.034-.215-.017-.033.134.282.217.232.318-.1.234-.182-.05-.248-.034-.082.084.298.234.248.35-.116.25-.166-.05-.2-.033-.1.067.299.268.249.368-.133.268-.116-.033-.132 0-.05.084.283.267.216.368-.165.25-.133-.033-.133-.016-.05.084.265.285-.083.184-.083.302-.016.2-.282.2-.265.418.016.134-.1.15-.166.234-.116.134-.15.318-.348.385-.017 0 .066.1.05.1-.282.017-.166.419-.498.385-.016 0-.083-.05-.066-.033.216.451-.249.234-.282.468l.017.034c-.25.05-.233.418-.58.351-.05-.017-.183-.15-.117.017.15.385.033.452-.265.184-.1-.084-.133-.084-.083.05.1.385-.166.15-.249.251-.132.184-.381.1-.53.251-.017 0 0 .05 0 .084-.017.184-.116.117-.2.033-.099-.084-.182-.2-.215-.117-.05.084-.083.218-.149.268-.066.05-.133.05-.216-.134-.016-.034-.033-.084-.033-.067-.1.217-.232.217-.364.167-.133-.05-.233-.134-.382-.117 0 0-.017.034-.033.034a1.714 1.714 0 01-.381-.151 2.882 2.882 0 01-.498-.335c-.315-.284-.497-.619-.53-.753-.017-.033.215-.184.05-.167-.482.067-.515-.134-.133-.401.116-.084-.133-.034-.166-.067-.2-.218-.2-.502-.133-.737.017-.05.398-.117-.033-.15-.564-.05-.614-.218-.066-.301.265-.034.315-.067.199-.1-.415-.118-.415-.268.016-.352.116-.017.067-.05-.05-.084-.066-.016-.165-.05-.149-.067.15-.2-.066-.451.183-.636 0 0 .033 0 .033-.016-.183-.218-.05-.368.083-.519 0 0-.067-.033-.05-.033.1-.201-.017-.452.215-.603.017 0 .1.017.083 0-.348-.284.083-.334.067-.502 0-.016-.067-.05-.05-.05.1-.067.232-.535.431-.97.183-.435.415-.87.597-.87.083 0 .133-.017.017-.134-.2-.218-.183-.335.149-.201.265.1.182.017.066-.134-.05-.067-.033-.067 0-.067h.017l.033-.05c.033-.033.05-.067.083-.1.05-.05.1-.117.215-.251v-.034a3.133 3.133 0 00-.381-.033c-.249.033-.547-.05-.796 0-.232.05-.497.016-.763.016-.281-.016-.53.017-.812.017-.249-.017-.464.034-.73.017-.298-.017-.547.05-.878.017-.216-.034-.2.318-.498.117-.166-.117-.315-.168-.381-.1 0 .016-.017.016-.017.033l.53.82-.53-.82c-.05.184-.116.234-.182.284-.067.05-.116.117-.116.251.016.15.05.251.033.335a.35.35 0 01-.066.1c-.017.017-.05.017-.067.034h-.1c-.364.017-.397.217-.198.468.116.134.066.201-.033.268-.216.15-.514 1.104-.664 2.091-.083.502-.116.988-.149 1.39-.033.4-.05.702-.083.819 0 .017.067.034.067.05.033.168-.05.352-.083.536-.033.184-.017.351.215.518.017.017-.066.034-.083.05-.149.469.1.887.133 1.34 0 .016.066.016.066.05-.016.384 0 .786.315 1.053l-.016.034a.847.847 0 00.033.351c.033.117.083.218.15.318.115.2.248.385.298.62.016.033.116.033.182.016.133-.017.199.017.133.117-.233.435-.05.67.414.586.133-.017.15.066 0 .3-.15.252-.15.42-.066.503.083.083.282.05.53-.1.382-.235.166.117.233.183.315.385.73.703 1.243.787.067.017.232-.201.249-.034.033.251.116.419.232.469.133.05.282-.017.464-.201.116-.134.1.15.166.167.232.084.83.201 1.426.218.597.017 1.177-.084 1.41-.117.016 0 .016-.034.016-.05.166-.1.365-.05.564-.067.182-.017.365-.067.48-.335 0-.017.05.033.084.05.331.268.43-.084.563-.318.067-.1.216-.033.365.017.15.05.298.067.332-.134 0-.033 0-.084.016-.084.282-.25.663-.267.929-.552.132-.15.514 0 .464-.435-.017-.15.033-.167.166-.117.398.184.58.05.48-.385-.032-.184.117-.083.2-.1.248-.05.414-.2.547-.368.15-.167.265-.352.464-.452 0 0-.016-.033 0-.05.066-.184.249-.251.398-.351.15-.1.265-.235.2-.52 0-.016.065.018.099.018.232-.067.348-.251.464-.435.1-.184.199-.385.398-.486.016-.016-.067-.117-.033-.133.298-.218.414-.57.596-.854.1-.167.266-.267.282-.485.05-.351.398-.552.465-.903.033-.201.447-.251.182-.586-.083-.117-.066-.167.066-.184.431-.034.531-.234.25-.57-.084-.1-.05-.166.065-.183.432-.05.498-.268.2-.586-.117-.117-.067-.167.115-.184.398-.05.481-.284.166-.552-.166-.15-.1-.184.1-.217.365-.067.43-.285.132-.52-.198-.15-.149-.217.034-.267.464-.15.033-.468.033-.686.083-.217.663-.368.265-.67z" fill="#043C3A"/><path d="M71.117 66.132c.182.2.116-.15.215-.117.116.033.216 0 .315 0-.116-.067-.249-.134-.315-.067-.083.083-.199.1-.315.1.033 0 .066.034.1.084zm-37.671-.15c.033-.017.066-.017.1-.017-.1 0-.183 0-.266.017.05 0 .116.016.166 0zm-.116.953a.354.354 0 01-.116-.067l.05.067h.066zm-1.427-.92l.05-.05h-.2c.05.067.117.117.15.05zm2.271 1.924c-.016-.05-.033-.1-.05-.184 0 .033-.016.067-.016.084l.066.1zm-2.668-1.958h-.083c.016.017.05.017.083 0zm-2.519.151c.182.2.116-.15.215-.117.116.033.216 0 .315 0-.116-.067-.248-.134-.315-.067-.083.083-.199.1-.315.1.033 0 .066.034.1.084z" fill="#87D8C8"/><path d="M39.73 67.253c-.084-.067-.266-.15-.117-.2a.217.217 0 01.1-.034l-.83-.92c-.215-.369-.43-.352-.63.083-.066.134-.099-.033-.165-.084-.431-.435-.83.05-1.26-.1-.083-.033-.863-.017-1.526-.017l-.1 1.054c-.016.118-.033.402-.082.653-.05.25-.1.485-.133.502-.199.167.199.519-.265.585-.067.017-.216-.016-.1.05.415.252.332.369-.116.319-.15-.017.017.066.1.133.348.268-.216.168-.216.268-.017.1.398.402-.05.335-.166-.034-.215-.017-.033.134.282.217.232.318-.1.234-.182-.05-.248-.034-.082.084.298.234.248.35-.116.25-.166-.05-.2-.033-.1.067.299.268.249.368-.132.268-.117-.033-.133 0-.05.084.282.267.215.368-.166.25-.133-.033-.133-.016-.05.084.266.285-.083.184-.083.302-.016.2-.281.2-.265.418.017.134-.1.15-.166.234-.116.134-.149.318-.348.385-.017 0 .066.1.05.1-.282.017-.166.419-.498.385-.016 0-.083-.05-.066-.033.216.451-.249.234-.282.468l.017.034c-.249.05-.232.418-.58.351-.05-.017-.183-.15-.117.017.15.385.034.452-.265.184-.1-.084-.133-.084-.083.05.1.385-.166.15-.249.251-.132.184-.38.1-.53.251-.017 0 0 .05 0 .084-.017.184-.116.117-.2.033-.099-.084-.181-.2-.215-.117-.05.084-.083.218-.149.268-.066.05-.133.05-.215-.134-.017-.034-.034-.084-.034-.067-.1.217-.232.217-.364.167-.133-.05-.233-.134-.382-.117 0 0-.016.034-.033.034a1.714 1.714 0 01-.381-.151 2.885 2.885 0 01-.498-.335c-.315-.284-.497-.619-.53-.753-.017-.033.215-.184.05-.167-.482.067-.515-.134-.133-.401.116-.084-.133-.034-.166-.067-.199-.218-.199-.502-.133-.737.017-.05.398-.117-.033-.15-.564-.05-.613-.218-.066-.301.265-.034.315-.067.199-.1-.415-.118-.415-.268.016-.352.116-.017.067-.05-.05-.084-.066-.016-.165-.05-.149-.067.15-.2-.066-.451.183-.636 0 0 .033 0 .033-.016-.183-.218-.05-.368.083-.519 0 0-.067-.033-.05-.033.1-.201-.017-.452.216-.603.016 0 .1.017.083 0-.349-.284.082-.334.066-.502 0-.016-.066-.05-.05-.05.1-.067.232-.535.431-.97.183-.435.415-.87.597-.87.083 0 .133-.017.017-.134-.2-.218-.183-.335.149-.201.265.1.182.017.066-.134-.05-.067-.033-.067 0-.067h.017l.033-.05c.033-.033.05-.067.083-.1.05-.05.1-.117.216-.251v-.034a3.214 3.214 0 00-.382-.033c-.249.033-.547-.05-.796 0-.232.05-.497.016-.762.016-.282-.016-.531.017-.813.017-.249-.017-.464.034-.73.017-.298-.017-.547.05-.878.017-.216-.034-.2.318-.498.117-.166-.117-.315-.168-.381-.1 0 .016-.017.016-.017.033-.05.184-.116.234-.182.284-.066.05-.116.117-.116.251.016.15.05.251.033.335-.017.033-.033.067-.066.1-.017.017-.05.017-.067.034h-.1c-.364.017-.397.217-.198.468.116.134.066.201-.033.268-.216.15-.514 1.104-.663 2.091-.083.502-.117.988-.15 1.39-.033.4-.05.702-.083.819 0 .017.067.034.067.05.033.168-.05.352-.083.536-.033.184-.017.351.215.518.017.017-.066.034-.083.05-.149.469.1.887.133 1.34 0 .016.066.016.066.05-.016.384 0 .786.315 1.053l-.016.034a.848.848 0 00.033.351c.033.117.083.218.15.318.115.2.248.385.298.62.016.033.116.033.182.016.133-.017.2.017.133.117-.232.435-.05.67.414.586.133-.017.15.066 0 .3-.149.252-.149.42-.066.503.083.083.282.05.53-.1.382-.235.166.117.233.183.315.385.73.703 1.243.787.067.017.232-.201.249-.034.033.251.116.419.232.469.133.05.282-.017.464-.201.117-.134.1.15.166.167.232.084.83.201 1.426.218.597.017 1.177-.084 1.41-.117.016 0 .016-.034.016-.05.166-.1.365-.05.564-.067.182-.017.365-.067.48-.335 0-.017.05.033.084.05.331.268.43-.084.563-.318.067-.1.216-.033.365.017.15.05.299.067.332-.134 0-.033 0-.084.016-.084.282-.25.664-.267.929-.552.133-.15.514 0 .464-.435-.016-.15.033-.167.166-.117.398.184.58.05.48-.385-.032-.184.117-.083.2-.1.248-.05.414-.2.547-.368.15-.167.265-.352.464-.452 0 0-.016-.033 0-.05.067-.184.249-.251.398-.351.15-.1.266-.235.2-.52 0-.016.066.018.099.018.232-.067.348-.251.464-.435.1-.184.199-.385.398-.486.017-.016-.066-.117-.033-.133.298-.218.414-.57.597-.854.1-.167.265-.267.282-.485.05-.351.398-.552.464-.903.033-.201.447-.251.182-.586-.083-.117-.066-.167.067-.184.43-.034.53-.234.248-.57-.083-.1-.05-.166.067-.183.43-.05.497-.268.198-.586-.116-.117-.066-.167.117-.184.398-.05.48-.284.165-.552-.165-.15-.1-.184.1-.217.365-.067.431-.285.133-.52-.2-.15-.15-.217.033-.267.464-.15.033-.468.033-.686.066-.217.647-.368.265-.67z" fill="#043C3A"/><path d="M29.997 65.981c.15.017.265-.017.415-.017.1 0 .182.017.265.017-.232-.033-.481-.067-.68 0z" fill="#87D8C8"/><path d="M86.983 62.953c-.05-1.021-.083-2.008-.232-3.012-.15-1.07-.464-2.142-.879-3.196-.365-.92-.895-1.79-1.525-2.61l-.282-.351c-.1-.117-.216-.218-.315-.335l-.166-.167c-.05-.05-.116-.1-.166-.15l-.348-.302c-.48-.385-.995-.736-1.525-1.054-.349-.218-.763-.301-1.161-.385-.398-.067-.746-.167-1.045-.351a1.576 1.576 0 00-.282-.168c-.082-.033-.149-.083-.248-.117 0-.017.016-.017.016-.033.133-.318.266-.636.216-.987 0-.034.05-.05.083-.084.348-.335.265-.736.282-1.171 0-.385.53-.686.414-1.188-.016-.034-.033-.084-.016-.117.016-.168.066-.335.099-.502l.1-.502c.066-.335.149-.67.165-1.004 0-.385.282-.787.067-1.205-.083-.15-.05-.25.033-.368.265-.385.298-.803.05-1.205-.1-.167.016-.284.033-.418a4.12 4.12 0 00.05-.636c0-.217 0-.418-.034-.636a10.658 10.658 0 01-.132-1.271c0-.017-.034-.034-.034-.05-.099-.335-.099-.686-.132-1.021-.05-.335-.133-.686-.348-.97-.017-.017.033-.067.033-.118-.017-.418-.166-.82-.299-1.204-.165-.385-.331-.77-.414-1.171-.017-.05-.116-.067-.133-.118-.05-.167-.116-.318-.182-.485-.067-.15-.133-.318-.216-.468l-.497-.904a7 7 0 01-.266-.485c-.05-.084-.099-.167-.149-.234a1.15 1.15 0 00-.182-.218c-.431-.485-.713-1.12-1.194-1.59-.133-.133-.232-.317-.348-.485-.116-.167-.265-.317-.498-.368-.149-.033-.215-.117-.248-.267-.1-.452-.382-.753-.846-.837-.133-.017-.232-.117-.282-.25-.132-.453-.464-.72-.928-.754-.166-.017-.25-.1-.299-.284a.912.912 0 00-.547-.586c.1-.067.216-.2.348-.1.431.3.862.318 1.31.017.116-.084.2.016.315.05.796.284 1.625-.034 2.438.067.033 0 .116 0 .265.016.199 0 .547-.033.862-.234.315-.2.597-.552.697-.987.016-.117.033-.218.033-.335v-.334c0-.067 0-.117-.017-.184a1.346 1.346 0 00-.083-.352c-.166-.451-.53-.82-.962-.953a1.06 1.06 0 00-.315-.067c-.05 0-.1 0-.165-.017h-1.294c-.746-.017-1.99-.034-2.719.017-.282.016-.53-.017-.813-.017-.73-.017-1.459-.034-2.172 0a7.425 7.425 0 01-.862 0l-1.094-.05h-.614c-.033 0-.083 0-.132.016-.083 0-.166.034-.249.067-.166.067-.315.15-.431.268-.299.301-.481.62-.547.987-.034.184-.017.368.033.552a1.7 1.7 0 00.116.251.48.48 0 00.066.1l.05.05c.414.335.597.838.846 1.256.066.1.132.217.182.318.05.117.116.217.166.334.116.218.215.435.331.653.233.418.398.853.564 1.305.183.468.365.954.514 1.456.067.217.133.435.216.652.066.218.132.435.199.67.116.535.298 1.053.381 1.622.066.368.381.703.299 1.038-.05.2-.067.418.033.602.016.017.016.05.033.067.15.251 0 .368.15.535.148.168.248.285.099.553-.183.3-.1.652.132.936.133.168.133.285.1.502-.05.402.166 2.226.199 4.05.016.92 0 1.823-.05 2.56-.05.736-.133 1.288-.182 1.472 0 .033.033.067.033.1-.017.15-.033.318-.067.469-.033.15-.083.301-.116.468-.066.301-.132.62-.05.954 0 .017-.066.05-.066.084-.282.753-.381 1.539-.663 2.292-.017.033.017.083.017.1-.266.586-.564 1.155-.697 1.807 0 .017-.033.017-.033.034-.448.636-.663 1.405-1.144 2.024-.033.05-.017.15-.017.218.017.117-.016.217-.132.267-.232.1-.398.218-.514.385a.127.127 0 00-.034.067l-.016.034c0 .016 0 0-.017.016l-.033.067a.745.745 0 00-.1.268c-.38.251-.745.485-1.127.736-.381.251-.746.519-1.127.77-.365.25-.73.519-1.078.77-.348.25-.68.502-1.011.736-.15.1-.299.217-.432.301-.066.05-.149.084-.215.134-.066.033-.15.084-.216.117a6.75 6.75 0 01-1.525.636c-.216.067-.415.1-.564.134a3.924 3.924 0 00-.365.05c-.05 0-.1.084-.165.084-.548.1-1.111.033-1.659-.05-.547-.084-1.094-.185-1.69-.135-.034 0-.084-.1-.134-.133a42.068 42.068 0 01-1.956-.937 9.407 9.407 0 01-1.824-1.222c-.05-.033-.15-.033-.182-.067-.863-.87-1.576-1.807-2.454-2.677-.017-.017-.017-.067-.034-.1-.315-.67-.696-1.288-1.011-1.924-.332-.636-.614-1.322-.746-2.025-.017-.117-.15-.217-.249-.301a.555.555 0 01-.166-.234.465.465 0 010-.301c.133-.419.183-.804.166-1.172-.033-.368-.15-.72-.331-1.12a.48.48 0 01-.034-.335c.034-.117.133-.218.282-.335.15-.117.282-.234.365-.368a1.07 1.07 0 00.166-.435c.066-.301 0-.636-.183-.97a.693.693 0 01-.082-.319c0-.083.05-.133.082-.184-.331-.066-.646-.167-.928-.05-.348.15-.663.368-.995.435-.017.067-.05.15-.066.218a11.953 11.953 0 00-.332 2.024c-.083 1.255.083 2.209.1 2.376.05.385.132.854.248 1.322.116.485.266.987.448 1.472a12.759 12.759 0 001.277 2.527c.331.485.597.954.928 1.389.896 1.204 1.973 2.325 3.217 3.179.497.351.978.652 1.509.953.663.385 1.36.737 2.106 1.004.73.251 1.508.402 2.255.368.48-.016.895.05 1.293.1.199.034.398.051.597.051a2.34 2.34 0 00.58-.1c.564-.201 1.111-.352 1.658-.536.53-.184 1.061-.385 1.542-.686.116-.067.233-.15.349-.217.116-.067.232-.15.348-.234.215-.151.43-.285.63-.436.398-.267.796-.552 1.177-.836.382-.301.763-.552 1.144-.82.382-.251.78-.519 1.178-.753.43-.268.845-.535 1.276-.803.431-.268.862-.519 1.293-.77.398-.217.78-.435 1.161-.652.382-.218.78-.435 1.194-.636.962-.435 1.89-.97 2.902-1.288.348-.1.613-.302.879-.435a4.14 4.14 0 01.397-.184c.15-.034.299-.05.465-.034.232.034.348-.017.447-.05.05-.017.1-.034.166-.05h.116c-.016 0-.05 0-.083.016.183.134.365.201.564.218.216.033.481.033.746-.017.2-.033.349-.05.498-.017.083.017.149.05.215.1.067.068.133.135.2.252.314.502.828.736 1.442.836.166.034.298.084.414.168.116.083.2.2.299.351.199.301.895.987 1.475 2.158.299.586.58 1.272.796 2.042.216.77.382 1.606.465 2.46.083.853.132 1.723.1 2.543 0 .418-.034.82-.067 1.204l-.05.57c-.017.083-.017.183-.033.267v.1a.19.19 0 01-.116.134c-.017 0-.033 0-.033.017h-.465c-.497 0-.878-.017-1.077-.034-.067 0-.133.067-.2.067-1.243.067-2.503-.318-3.73.1-.033.017-.116-.083-.182-.083-1.576-.184-3.15 0-4.726-.05-.066 0-.133.067-.199.067-1.277-.1-2.57-.201-3.847.016a.234.234 0 01-.1-.033c-1.541-.218-3.083.033-4.625-.1-.116-.017-.266.083-.382.15-.199.117-.381.168-.597.05-.812-.435-1.625-.418-2.454 0-.248.118-.48.067-.746-.2-.564-.553-1.459-.502-2.006.067-.431.434-.663.033-.978.016-1.609-.083-3.217-.134-4.825 0-.233.017-.415.285-.68.134-.846-.435-1.692-.485-2.537-.017-.282.15-.465-.117-.68-.117-1.575-.05-7.959-.05-9.534-.083-.033 0-.066.033-.1.033-1.276.117-2.57-.318-3.83.117-.05.017-.133-.05-.199-.067-.796-.368-1.476-.067-2.271.084-.713.15-1.51-.535-2.355-.2a.468.468 0 01-.199.066c-1.277.084-2.537-.084-3.83.017-.713.05-1.509-.301-2.255.1-.249.134-.448.117-.697 0-.746-.385-1.509-.401-2.255.017-.315.167-.514-.017-.779-.067-.78-.134-1.575-.117-2.354-.1-.398.016-.796.033-1.178.033h-.812c-.017 0-.033-.017-.05-.033 0 0-.017.033-.033.033-.066.017-.133-.05-.133-.117l-.066-.418-.05-.452c-.066-.603-.132-1.188-.398-1.774-.016-.033.067-.117.067-.184.116-.736.116-1.455.165-2.208.05-.736.117-1.49.365-2.192.033-.084-.066-.218-.05-.301.382-1.188.63-2.41 1.095-3.564.116-.318.265-.602.398-.904.066-.15.132-.3.199-.468.066-.15.132-.318.182-.485.1-.285.216-.553.348-.82.15-.268.299-.519.448-.77l.497-.753c.083-.134.166-.25.25-.385.082-.133.165-.25.248-.385.166-.3.431-.552.696-.803.249-.267.464-.569.564-.953.066-.268.199-.419.448-.502.182-.067.364-.134.53-.218.166-.084.299-.2.431-.318a2.397 2.397 0 00.614-.904.88.88 0 01.199-.284.751.751 0 01.315-.134c.398-.05.73-.2 1.028-.368.15-.1.282-.2.415-.334.066-.067.115-.134.182-.218.066-.067.116-.15.182-.234.166-.251.365-.318.68-.285h.332c.116 0 .215-.016.331-.033.05-.017.116-.017.166-.033-.48-.218-.696-.72-.464-1.255.15-.301.1-.485-.083-.603a.206.206 0 01-.066-.05c-.05.05-.116.084-.166.134-.033.034-.15.017-.216 0-.464-.033-.829.15-1.16.368-.166.117-.332.234-.481.368-.15.15-.299.285-.448.435a1.89 1.89 0 01-.497.302c-.183.083-.382.15-.58.234-.2.083-.399.167-.598.284a1.686 1.686 0 00-.464.502c-.033.067-.066.134-.116.184-.249.234-.48.469-.73.703-.248.234-.497.452-.712.703-.233.25-.465.485-.68.736-.216.267-.415.535-.614.82-.199.317-.48.602-.746.903-.133.15-.249.318-.332.502a1.82 1.82 0 00-.165.586.803.803 0 01-.117.368c-.066.1-.149.184-.248.267-.713.486-1.095 1.239-1.045 2.092.033.368-.232.485-.381.736-.415.703-.697 1.49-.912 2.292-.116.402-.2.804-.299 1.205-.1.402-.199.803-.315 1.205-.016.033.017.067.017.1-.05.67-.249 1.322-.365 1.991-.116.67-.166 1.355.066 2.025.017.05-.066.134-.082.2-.133.82-.05 1.657.116 2.477.083.418.182.82.282 1.221l.016.084.017.033.016.067a.79.79 0 00.1.251 2.13 2.13 0 001.094 1.104c.15.067.382 0 .53.017a.865.865 0 00.216.017l.133.017.232.016c.166 0 .315.017.48.017h.963c.63 0 1.276-.016 1.906-.016.697 0 1.344.083 2.073 0 1.21-.134 2.47.083 3.73-.017.714-.05 1.51.301 2.256-.084.248-.134.448-.134.696 0 .746.385 1.492.402 2.239.017a.734.734 0 01.696 0c.746.385 1.509.368 2.255-.017.282-.15.497-.117.78.05.63.368 1.475.385 2.089 0 .331-.2.563-.15.878.034a1.947 1.947 0 001.957 0c.381-.234.647-.201.978-.034.863.435 1.658-.067 2.454-.083.763-.034 1.575.535 2.454.117.2-.1.415-.285.697-.134.845.452 1.69.485 2.536.017.233-.134.398.033.597.083 1.56.435 3.15-.05 4.726.1.464.05 8.722 0 9.236.017 1.442.034 3.863.05 5.289-.016.547-.017 1.045.016 1.559.016 1.41.017 2.835.05 4.228 0a27.281 27.281 0 011.658 0c1.41.034 2.885.184 4.212-.033.878-.134 1.508.284 2.205.134.265-.05.514-.084.78-.1.132 0 .248-.017.38-.017h.315c.067 0 .117 0 .183-.017a2.09 2.09 0 001.26-.569 2.03 2.03 0 00.63-1.255c.1-1.02.249-2.058.2-3.078z" fill="#043C3A"/><path d="M23.028 55.072c-.033.117-.05.2-.1 0-.049-.234-.099-.201-.165-.017-.033.1-.05.084-.083.034-.133-.201-1.227.016-1.36-.084l-.016.05c-.1.05-.216-.217-.315.067 0 .017-.017-.05-.017-.05-.132-.117-.265 0-.398-.034l-.016.05c-.116-.066-.216-.133-.332.017 0 0 0-.016-.017-.016-.132-.151-.265.016-.397-.067-.017 0-.017.05-.034.1-.016.084-.033.1-.05.034-.066-.285-.132-.285-.215 0-.017.083-.033.05-.066-.134-.05-.368-.116-.335-.166.033-.033.285-.05.017-.083.017-.133-.05-.282-.084-.414 0-.017.017-.034.184-.067.1-.066-.284-.149-.318-.215 0-.017.1-.034-.083-.067-.083-.132-.034-.68-.034-.812-.05 0 0 0 .016-.017.016-.116.067-.215-.2-.331.084 0 .017-.017-.034-.017-.05-.066-.251-.133-.05-.199.067-.066.1-.133-.352-.199-.134 0 .016-.016.05-.016.05-.117.067-.216-.05-.332 0-.066.033-.133-.201-.199.067-.017.083-.033.083-.066 0-.067-.251-.133-.268-.2 0-.032.117-.05-.017-.066-.034-.132-.167-.265.017-.398-.067 0 0 0 .017-.016.017-.116.1-.216-.217-.332.1 0 .017-.016-.05-.016-.05-.133-.184-.266.05-.398-.083 0 0-.017.083-.017.067-.116-.067-.216-.017-.332-.017-.066 0-.116-.05-.182 0-.1.1-.215-.05-.315 0-.066.033-.133-.201-.199.05-.017.084-.033.084-.066 0-.067-.251-.133-.268-.2-.017-.016.067-.032.067-.066 0-.066-.25-.132-.25-.199.017-.016.1-.05.067-.066-.033-.05-.251-.133-.251-.182 0-.033.133-.05.1-.083-.017-.05-.234-.116-.234-.166 0-.033.15-.05.134-.083.017-.066-.285-.132.033-.215.067-.067.016-.133-.352-.216-.067-.017.067-.033.2-.066.1-.067-.301-.15-.318-.216-.017-.016.084-.033-.016-.05-.05-.132-.284-.265.034-.397-.067-.034-.033-.747 0-.796-.017-.117-.016-.332-.033-.448.017-.05.017-.083-.017-.133-.017a.891.891 0 00-.365 0 .229.229 0 01-.149 0c-.116-.016-.248-.117-.365.017-.066.1-.132-.184-.182-.084-.083.151-.182.017-.265.034-.083.017-.166-.034-.249-.017-.083.034-.166.017-.249 0-.083-.017-.165.017-.265 0-.083-.017-.15.017-.232 0-.1-.017-.182.034-.282 0-.066-.017-.133.234-.182.084-.034-.084-.067-.134-.1-.084l-.016.017v1.338c.05.1.082.084.132-.083.033-.117.05-.201.1 0 .05.234.1.2.166.017.033-.1.05-.084.082-.034.133.2 1.227-.017 1.36.084l.017-.05c.1-.05.215.217.315-.067 0-.017.016.05.016.05.133.117.266 0 .398.033l.017-.05c.116.067.215.134.331-.017 0 0 0 .017.017.017.133.15.265-.017.398.067.016 0 .016-.05.033-.1.017-.084.033-.1.05-.034.066.285.132.285.215 0 .017-.084.034-.05.067.134.05.368.116.335.165-.034.034-.284.05-.016.083-.016.133.05.282.083.415 0 .017-.017.033-.184.066-.1.067.284.15.317.216 0 .016-.101.033.083.066.083.133.033.68.033.813.05 0 0 0-.017.016-.017.116-.066.216.201.332-.083 0-.017.016.033.016.05.067.251.133.05.2-.067.066-.1.132.352.198.134 0-.017.017-.05.017-.05.116-.067.215.05.332 0 .066-.034.132.2.199-.067.016-.084.033-.084.066 0 .066.25.133.268.199 0 .033-.117.05.017.066.033.133.168.265-.016.398.067 0 0 0-.017.017-.017.116-.1.215.218.331-.1 0-.017.017.05.017.05.133.184.265-.05.398.084 0 0 .016-.084.016-.067.117.067.216.017.332.017.066 0 .116.05.182 0 .1-.1.216.05.316 0 .066-.034.132.2.198-.05.017-.084.034-.084.067 0 .066.25.132.267.199.016.016-.067.033-.067.066 0 .066.251.133.251.199-.016.017-.1.05-.067.066.033.05.251.133.251.183 0 .033-.134.05-.1.083.017.05.234.116.234.166 0 .033-.15.05-.134.082-.017.067.285.133-.033.216-.067.066-.017.133.352.216.067.016-.067.033-.2.066-.1.066.3.149.318.215.016.017-.083.034.017.05.05.133.285.265-.033.398.067.033.034.746 0 .796.017.116.017.332.034.448-.017.05-.016.082.017.132.017a.891.891 0 00.365 0c.05-.017.1-.017.15 0 .115.017.248.117.364-.017.066-.1.133.185.182.084.083-.15.183-.017.266-.033.083-.017.166.033.248.016.083-.033.166-.016.25 0 .082.017.165-.016.265 0 .082.017.149-.016.232 0 .1.017.182-.033.282 0 .066.034.116-.217.165-.05.034.117.05-.033.083.05v-1.338c-.033.134-.05-.034-.083.067zm7.728 3.949c-.033.117-.066.2-.116 0-.05-.234-.132-.2-.198-.017-.034.1-.067.084-.1.034-.166-.201-1.509.017-1.675-.084l-.016.05c-.133.05-.266-.217-.398.067 0 .017-.017-.05-.017-.05-.166-.117-.331 0-.497-.033l-.017.05c-.133-.067-.265-.134-.398.017 0 0 0-.017-.016-.017-.166-.15-.332.017-.481-.067-.017 0-.033.05-.033.1-.017.084-.034.1-.067.034-.083-.285-.166-.285-.265 0-.033.083-.05.05-.083-.134-.066-.368-.15-.335-.215.033-.05.285-.067.017-.1.017-.166-.05-.331-.084-.514 0-.017.017-.05.184-.066.1-.083-.284-.183-.318-.266 0-.033.1-.05-.083-.066-.083-.166-.034-.846-.034-1.011-.05 0 0 0 .016-.017.016-.133.067-.265-.2-.398.084 0 .017-.016-.034-.016-.05-.083-.251-.15-.05-.233.067-.082.1-.165-.352-.248-.134 0 .017-.017.05-.017.05-.133.067-.265-.05-.398 0-.083.033-.166-.2-.232.067-.033.084-.05.084-.066 0-.083-.251-.166-.268-.232 0-.034.117-.05-.017-.083-.034-.166-.167-.332.017-.498-.066 0 0 0 .016-.016.016-.133.1-.266-.217-.398.1 0 .017-.017-.05-.017-.05-.166-.184-.331.05-.48-.083-.017 0-.017.084-.034.067-.133-.067-.265-.017-.398-.017-.066 0-.149-.05-.215 0-.133.1-.266-.05-.398 0-.067.033-.166-.2-.232.05-.034.084-.05.084-.067 0-.083-.25-.166-.267-.232-.017-.017.067-.05.067-.066 0-.083-.25-.166-.25-.232.017-.034.1-.05.067-.083-.033-.067-.251-.15-.251-.216 0-.033.134-.066.1-.1-.017-.066-.234-.148-.234-.198 0-.033.15-.067.134-.1.017-.083-.285-.182.033-.265.067-.083.016-.166-.352-.265-.067-.017.067-.05.2-.067.1-.083-.301-.182-.318-.265-.017-.017.084-.05-.016-.066-.05-.166-.284-.332.034-.498-.067-.05-.033-.912 0-.978-.016-.15-.017-.415-.034-.564.016-.05.017-.116-.016-.166-.016a1.338 1.338 0 00-.447 0 .338.338 0 01-.183 0c-.149-.017-.298-.117-.447.016-.1.1-.166-.184-.232-.083-.117.15-.216.016-.316.033-.099.017-.215-.033-.315-.017a.59.59 0 01-.298 0c-.1-.016-.216.017-.315 0-.1-.016-.199.017-.282 0-.116-.016-.232.034-.348 0-.083-.016-.15.235-.216.084-.033-.084-.083-.134-.116-.084l-.016.017v1.339c.05.1.116.083.166-.084.033-.117.066-.2.116 0 .05.234.132.2.199.017.033-.1.066-.084.099-.034.166.201 1.509-.017 1.675.084l.016-.05c.133-.05.266.217.398-.067 0-.017.017.05.017.05.166.117.331 0 .497.033l.017-.05c.133.067.265.134.398-.017 0 0 0 .017.016.017.166.15.332-.017.481.067.017 0 .033-.05.033-.1.017-.084.034-.1.067-.034.083.285.165.285.265 0 .033-.083.05-.05.083.134.066.368.15.335.215-.033.05-.285.067-.017.1-.017.166.05.331.084.514 0 .017-.017.05-.184.066-.1.083.284.183.317.265 0 .034-.1.05.083.067.083.166.034.846.034 1.011.05 0 0 0-.016.017-.016.133-.067.265.2.398-.084 0-.017.016.033.016.05.083.251.15.05.233-.067.082-.1.165.352.248.134a.17.17 0 01.017-.05c.133-.067.265.05.398 0 .083-.034.166.2.232-.067.033-.084.05-.084.066 0 .083.251.166.268.232 0 .034-.117.05.017.083.033.166.168.332-.016.498.068 0 0 0-.017.016-.017.133-.1.266.217.398-.1 0-.017.017.05.017.05.166.184.332-.05.48.083.017 0 .017-.084.034-.067.133.067.265.017.398.017.066 0 .149.05.215 0 .133-.1.266.05.398 0 .067-.034.166.2.232-.05.034-.084.05-.084.067 0 .083.25.166.267.232.017.017-.067.05-.067.066 0 .083.25.166.25.232-.017.034-.1.05-.067.083.033.067.251.15.251.216 0 .033-.134.066-.1.1.017.066.234.149.234.198 0 .033-.15.067-.134.1-.017.083.285.182-.033.265-.067.083-.016.166.352.265.067.017-.067.05-.2.067-.1.083.301.182.318.265.017.017-.084.05.016.066.05.166.284.332-.034.498.067.05.033.912 0 .978.017.15.016.415.033.564-.017.05-.017.116.017.166.017.149.016.298.033.447 0a.336.336 0 01.183 0c.149.016.298.117.447-.017.1-.1.166.184.233.083.116-.15.215-.016.314-.033.1-.017.216.033.316.017a.6.6 0 01.298 0c.1.016.216-.017.315 0 .1.016.199-.017.282 0 .116.016.232-.034.348 0 .083.033.133-.218.216-.05.05.117.05-.034.1.05v-1.339c-.067.117-.084-.05-.134.067z" fill="#043C3A"/><path d="M45.46 27.73c.297-.15.257-.382-.054-.505-.243-.095-.027-.163-.027-.245a3.693 3.693 0 00-.135-1.214c-.014-.054-.162-.081-.108-.163.203-.26.175-.478-.122-.641-.094-.055.04-.137.027-.191a9.503 9.503 0 00-.338-1.187c-.054-.122-.094-.245-.135-.354-.054-.11-.094-.218-.148-.327-.095-.205-.19-.368-.244-.464 0-.014-.027 0-.027-.014a1.182 1.182 0 01-.135-.218c-.04-.082-.068-.163-.122-.232-.08-.15-.189-.286-.378-.34-.013 0 0-.042 0-.069.014-.286-.23-.327-.432-.409-.095-.04-.108-.163-.149-.273-.04-.109-.095-.218-.23-.231-.027 0-.054.013-.067 0-.284-.178-.514-.45-.825-.573-.094-.027-.162-.123-.243-.177-.081-.055-.176-.11-.31-.055-.095.04-.136.014-.163-.082-.094-.272-.31-.354-.554-.204-.108.068-.135-.041-.19-.096a1.253 1.253 0 00-.607-.177c-.216-.014-.433-.014-.649-.055-.014 0-.014.014-.027.014a.546.546 0 01-.257.014c-.094 0-.175-.014-.27-.014-.176 0-.365.027-.5.19-.014.015-.04-.026-.054-.026-.216-.014-.433.068-.622.163-.189.096-.365.219-.58.273-.028.014-.014.082-.041.096-.325.136-.581.395-.825.64-.135.137-.283.246-.365.437-.135.313-.419.532-.527.872-.027.096-.108.164-.162.246-.054.082-.094.177-.04.314.04.082.027.136-.054.177-.257.109-.338.314-.176.559.04.068.027.136-.04.177-.257.137-.284.355-.109.573.068.082.027.136-.067.191-.217.136-.257.368-.054.545.108.096.08.15-.027.232a.328.328 0 00-.15.26c0 .095.055.177.15.258.121.096.108.164.013.26-.216.231.054.436.095.627.04.19-.244.45.027.64.067.042.175.083.108.164-.203.26-.162.491.135.641.081.041.014.11 0 .164a.83.83 0 00.095.6c.04.095.094.177.135.273.04.095.08.19.094.286.014.055.217.587.487 1.077.135.246.284.491.392.682.108.191.202.314.216.341.095.164.216.368.365.573.148.204.297.395.419.532.094.095.162.218.243.313.216.273.446.573.703.805.108.095.189.19.283.3.244.26.447.586.77.723.203.095.176.368.352.436.27.096.392.341.595.491.203.15.351.355.554.477.203.137.365.3.54.45.19.164.392.314.582.478.162.15.364.259.527.422.202.178.432.314.621.505.122.123.406.068.446.273.027.109.081.204.176.232.013 0 .027 0 .04.013l.5-.627-.5.627c.176.082.284.123.392.15.108.027.216.027.311-.04.108-.083.162-.164.23-.246.067-.068.148-.137.27-.246.216-.081.243-.259.149-.45-.054-.109-.027-.163.04-.245.136-.164.365-1.064.487-1.964.122-.9.162-1.8.216-2.005 0-.013-.027-.04-.04-.054-.014-.314.202-.614-.014-.941-.013-.014.04-.027.04-.04.109-.383.028-.778.055-1.174 0-.013-.04-.04-.027-.054.054-.314.108-.627 0-.955 0-.013.013-.013.013-.027.122-.382-.013-.764.054-1.145 0-.028-.04-.069-.08-.096-.068-.055-.095-.095-.028-.15.23-.204.216-.423-.014-.614-.067-.04-.04-.095.095-.177z" fill="#42B7A5"/><path d="M42.756 27.785c-.108-.041-.08-.069.027-.096.19-.055.19-.15 0-.205-.121-.04-.108-.054-.013-.095.23-.11-.04-.177-.068-.245-.027-.069.257-.205.014-.26-.054-.013-.163-.013-.095-.054.216-.136.216-.232-.054-.246-.068 0 0-.04.027-.068.095-.109.054-.19.014-.259-.054-.068-.122-.123-.109-.218 0-.027-.08-.232-.189-.436-.108-.205-.23-.396-.257-.41a1.395 1.395 0 00-.364-.436c-.054-.027-.068-.082-.108-.123-.109-.109-.217-.232-.365-.3a1.01 1.01 0 01-.163-.095c-.121-.096-.256-.232-.46-.177-.053.027-.094-.028-.12-.069-.028-.04-.068-.095-.122-.054-.014.014-.014.014-.027.014v-.014c-.081.082-.081-.055-.136.027-.053-.014-.094-.027-.135-.027-.027-.068-.067-.11-.108-.096-.04 0-.067.041-.094.096-.068 0-.149-.014-.217.014a.357.357 0 01-.162.04l-.162.041c-.122.028-.23.096-.351.15-.108.041-.19.137-.284.191-.122.068-.19.205-.31.3-.028.014-.028.055-.028.096-.068.068-.108.122-.149.15-.013 0 .014.027.014.04v.014c-.04.014-.054.041-.054.069-.027.027-.054.04-.095.068-.054.054-.08.122-.013.232 0 .013-.04 0-.054 0-.162.122-.135.327-.203.477l.027.027c-.081.123-.162.26-.068.41 0 0-.013 0-.013.013-.135.15-.014.327-.081.49 0 .014.04.028.081.042.068.013.095.04.027.054-.23.096-.216.191.014.246.067.013.04.04-.095.095-.284.096-.243.205.068.205.243 0 .026.068.026.095-.013.164 0 .341.122.477.014.014.162-.013.095.041-.203.15-.19.26.08.246.095 0-.04.068-.04.095.014.082.095.273.19.45.094.191.216.368.27.437h.027c.067.04.08.109.108.177.027.068.081.123.216.082.014 0 0 .027-.013.04-.068.205.094.137.216.123.054-.013.04.082.04.15 0 .069.014.137.108.096.014-.014.027-.027.041-.027.135.027.23.177.378.19.081 0 .108.219.257.041.054-.068.068-.04.068.028.027.218.135.245.243.04.04-.081.054.014.081.041.081.082.176.082.27.069.095-.014.19-.041.284-.028 0 0 0-.013.014-.027.067-.055.148-.027.23-.027.08 0 .162-.027.175-.177 0-.014.027.027.04.027.109.027.19-.027.257-.082.068-.055.135-.123.23-.136.014 0-.013-.069-.013-.069.148-.04.23-.177.324-.286.054-.055.135-.095.149-.177.013-.15.189-.205.216-.355.013-.082.216-.082.067-.245-.054-.055-.054-.068.027-.068.217 0 .257-.096.081-.232-.053-.041-.04-.068.014-.068.216-.028.23-.123.04-.232-.067-.041-.053-.055.041-.082.243-.055.257-.164.054-.245z" fill="#fff"/><path d="M22.281 26.126c.2-.034.332-.067.216.217-.15.352.05.452.365.385.182-.05.215.017.232.15.033.134.232.369.514.653.149.134.315.285.497.435.183.15.382.301.58.452.797.585 1.642 1.104 1.791 1.288.017.017.067-.033.083-.033.315.134.415.652.912.468.017 0-.016.084 0 .1.265.386.73.452 1.078.703.017.017.066-.033.083-.033.249.268.514.519.928.502.017 0 0 .033.017.033.265.402.763.368 1.078.67.033.016.1-.05.166-.1.1-.084.165-.101.165.033.017.485.232.569.597.284.116-.084.15-.017.1.268-.083.569.166.619.53.167.282-.351.183.034.266.084.381.25.812.468 1.276.468.067 0 .2-.234.232-.067.1.486.332.603.68.201.116-.134.1.15.15.167.215.084.746.218 1.293.335.547.117 1.094.2 1.31.234.016 0 .016-.033.033-.033.365-.067.68.385 1.061 0 .017-.017.033.05.05.084.182.384.398.1.63-.034.199-.134.381.552.63.234.017-.016.033-.067.066-.067.349-.067.697.117 1.045.034.199-.05.414.301.613-.084.067-.134.133-.117.183.017.199.385.414.401.613-.017.083-.167.15.017.216.05.431.251.862-.05 1.293.067.017 0 .017-.033.033-.033.332-.184.73.284 1.045-.218.017-.016.033.067.05.067.447.235.829-.15 1.276 0 .034 0 .034-.117.067-.117.365.067.696-.067 1.044-.1.183-.017.382.033.564-.084.299-.2.68-.033.995-.2.182-.084.464.217.58-.202.034-.133.083-.167.183-.05.282.335.48.285.597-.133.033-.118.1-.134.182-.05.282.317.498.267.597-.168.033-.15.1-.134.216 0 .265.301.497.251.547-.167.033-.218.1-.184.248-.034.25.285.465.234.515-.15.033-.251.116-.235.248-.1.365.35.415-.202.614-.302.182-.1.58.368.663-.117.017-.117.017-.318.133-.2.364.35.613.3.646-.218.017-.15.116-.017.183.016.547.235.779-.368 1.243-.384.066 0 .614-.235 1.16-.502.266-.134.548-.251.747-.352.199-.1.348-.184.381-.2.365-.151.962-.436 1.277-.67.116-.1.249-.134.382-.184.348-.167.696-.334 1.011-.569.133-.083.249-.167.381-.234.349-.167.763-.251.962-.62.133-.25.498.018.58-.2.133-.335.448-.335.664-.502.215-.167.48-.25.68-.435.198-.184.414-.301.63-.435.232-.15.447-.335.68-.468.215-.134.38-.302.596-.435.249-.15.448-.385.713-.519.183-.084.116-.535.382-.452.165.05.298.034.331-.1 0-.017 0-.034.017-.05l-1.194-1.59c-.199-.05-.299.067-.265.335.016.2.05.334-.233.184-.314-.184-.43-.034-.397.284.016.184-.05.201-.183.201-.248 0-1.011.552-1.774 1.121-.763.552-1.542 1.104-1.758 1.154-.016 0 0 .067 0 .084-.248.234-.73.067-.779.602 0 .017-.066-.05-.083-.05-.447.05-.713.435-1.094.586-.017 0 0 .084-.017.084-.348.083-.68.15-.862.518 0 .017-.033-.016-.033-.016-.232 0-.398.1-.58.217-.166.117-.332.234-.548.268-.033 0-.033.1-.016.184 0 .134-.017.184-.116.117-.382-.285-.564-.184-.58.284 0 .134-.084.117-.266-.1-.365-.435-.547-.301-.448.268.083.451-.149.1-.232.134-.215.05-.414.1-.597.184-.199.083-.381.167-.547.317-.05.034 0 .302-.116.201-.365-.318-.58-.284-.63.235-.017.167-.15-.067-.215-.05-.2.066-.697.217-1.194.384l-.697.234c-.215.05-.381.1-.48.134 0 0 0 .034-.017.05-.282.201-.73-.1-.929.402 0 .017-.05-.034-.066-.05-.299-.285-.381.033-.547.234-.15.184-.498-.418-.647-.05-.017.033-.017.067-.033.083-.298.168-.663.084-.962.235-.166.083-.447-.218-.564.2-.05.151-.099.134-.182.034-.265-.335-.448-.318-.58.117-.05.184-.133 0-.216-.033-.447-.201-.812.134-1.227.067l-.016.033c-.15.1-.332.05-.498.017-.166-.034-.331-.017-.48.234-.017.017-.034-.067-.05-.067-.415-.234-.796.15-1.21-.017-.017-.016-.05.117-.067.117-.332-.1-.663-.016-.995-.016-.182 0-.348-.067-.547.017-.315.15-.647-.1-.978-.017-.183.05-.382-.318-.597.067-.067.117-.116.133-.183 0-.182-.385-.364-.402-.58-.034-.066.1-.133.1-.182-.017-.166-.401-.365-.401-.58-.033-.084.134-.134.1-.2-.067-.132-.385-.348-.418-.547-.05-.116.2-.166.134-.215-.067-.117-.351-.316-.385-.498-.067-.133.218-.199.167-.249 0-.149-.468-.43 0-.646-.017-.2 0-.299-.585-.597-.217-.067.084-.166.268-.2.1-.115-.485-.314-.569-.63-.167-.082.117-.099-.05-.132-.117-.133-.251-.332-.301-.53-.301-.2-.017-.415 0-.58-.134-.05-.034-.565-.218-1.062-.435-.514-.234-1.045-.469-1.094-.502-.332-.184-.88-.485-1.244-.62-.133-.05-.232-.133-.348-.217-.315-.2-.614-.401-.962-.552-.133-.05-.249-.134-.381-.218-.299-.217-.547-.552-.945-.552-.266 0-.183-.451-.415-.435-.348.034-.464-.284-.68-.401-.232-.117-.381-.352-.613-.452-.232-.117-.398-.284-.58-.452-.2-.167-.415-.318-.598-.502-.165-.15-.364-.284-.53-.451-.183-.201-.431-.352-.597-.586-.116-.167-.448 0-.398-.301.05-.201-.116-.067-.116-.218l-1.492 1.322c.282-.017.132.184.331.15z" fill="#043C3A"/></g><defs><clipPath id="clip0_1:939"><path fill="#fff" d="M0 0h105v81H0z"/></clipPath></defs></svg>