<svg width="95" height="80" fill="none" xmlns="http://www.w3.org/2000/svg"><g clip-path="url(#clip0_1:829)"><path d="M1.887 3.27c.005.002.008.002.003 0h-.003z" fill="#043C3A"/><path d="M57.305 25.855c-.248-.181-.439-.462-.658-.715l-.026-.056a.363.363 0 00-.187-.165 1.349 1.349 0 00-.456-.284c-.026-.009.029-.116.007-.14l-.063-.068a.893.893 0 01.017-.153c.046-.236-.308-.166-.386-.28-.2-.286-.381-.612-.715-.735a5.894 5.894 0 00-.245-.217c-.105-.188-.17-.424-.413-.43-.232-.296-.437-.616-.778-.8a.778.778 0 01-.005-.158c.002-.029-.127.094-.144.077-.05-.045-.097-.092-.147-.138a.054.054 0 00-.003-.03c-.153-.247-.37-.432-.589-.616.01-.03.022-.063.014-.063a.375.375 0 01-.109-.019 3.998 3.998 0 01-.293-.267c-.081-.124-.154-.26-.263-.341a1.41 1.41 0 01-.092-.184c-.005-.014-.051.008-.07.003a.778.778 0 01-.196-.081c-.112-.165-.199-.373-.379-.417-.05-.078-.097-.158-.15-.235-.006-.083-.044-.113-.091-.125a.78.78 0 00-.467-.298l-.214-.185c-.11-.798-1.221-.66-1.233-1.552 0-.028-.089-.002-.13-.009a1.295 1.295 0 01-.279-.08 1.418 1.418 0 00-.139-.112c-.12-.082-.221-.226-.354-.305a2.491 2.491 0 01-.187-.12c-.177-.22-.32-.464-.466-.677-.196-.286-.538-.428-.829-.63-.075-.106-.154-.2-.255-.22a1.23 1.23 0 01-.081-.102c0-.017 0-.03-.004-.034l-.058-.065a1.058 1.058 0 01-.119-.425c-.025-.31-.526-.384-.69-.585-.424-.511-.829-1.073-1.407-1.413-.58-.341-.65-1.197-1.475-1.266-.024-.002.022-.106.008-.14-.267-.646-1.146-.71-1.259-1.508-.005-.037-.175.048-.209.016a77.716 77.716 0 01-1.412-1.39c-.022-.022.038-.13.012-.14-.675-.264-.864-1.024-1.458-1.366-.578-.333-.714-1.119-1.456-1.28-.012-.004.002-.046.007-.072.078-.462-.35-.42-.535-.612-.444-.466-.947-.872-1.391-1.336-.492-.515-1-1.014-1.514-1.507l-.04-.037-.232-.226-.305.003c-.612.007-1.221-.08-1.837-.02-.291.029-.592-.009-.905.032-.587.075-1.211.12-1.778-.012a2.2 2.2 0 00-1.208.034c-.539.175-1.16-.204-1.744.075-.025.012-.06-.102-.093-.104-.696-.024-1.392-.11-2.084-.039-.643.067-1.293-.297-1.93.099-.025.015-.062-.087-.096-.095-.664-.155-1.334.17-1.996-.113-.013-.005-.03.043-.047.053a.75.75 0 01-.466.102c-.024-.013-.048-.029-.07-.04-.051-.028-.1-.016-.15.008-.187-.04-.374-.094-.56-.104-.059-.109-.124-.053-.185.007a.742.742 0 00-.19.058c-.193-.053-.397-.113-.567-.024a.905.905 0 00-.498-.03.15.15 0 00-.13.026c-.075.017-.151.038-.226.055-.109-.05-.189.008-.27.05a.916.916 0 01-.237-.004.732.732 0 01-.165-.146c-.012-.014 0 .054.005.103a.804.804 0 01-.269-.178c-.02-.019-.063.061-.097.085a1.333 1.333 0 01-.335.172c-.018-.02-.066-.103-.071-.094-.109.272-.524-.082-.677.088-.072.08-.22.023-.356-.006-.068-.016-.132-.024-.18-.005a7.953 7.953 0 00-.306-.063c-.645-.121-1.3.496-1.998-.092-.236-.2-.644.1-.901.075-.662-.063-1.344-.174-1.996-.006-.651.169-1.306-.385-1.939.147-.019.015-.058-.09-.094-.106-.646-.267-1.315.308-1.958-.177-.029-.022-.09.157-.137.159-.657.018-1.319.022-1.979.018-.03 0-.066-.119-.092-.109-.595.135-1.167.422-1.526.922a1.657 1.657 0 00-.313.87c-.01.159.009.318.05.468l.015.056c.005.02.008.022.012.034l.024.058c.017.037.035.075.056.112.326.573.04 1.311.595 1.823.01.008-.025.037-.042.058-.303.348.073.535.126.794.122.624.335 1.23.449 1.856.117.696.258 1.386.406 2.077.12.613.124 1.242.288 1.851.075.28.092.58.17.88.153.565.284 1.176.231 1.749-.03.357-.08.59.06.756.032.09.071.196.109.328.15.544-.07 1.165.27 1.713.014.023-.097.071-.095.102.039.69.017 1.385.151 2.064.12.632-.204 1.3.238 1.906.017.022-.083.068-.088.102-.1.665.247 1.312.003 1.984-.005.014.045.027.055.044.202.298.115.619.06.939-.06.32-.087.634.244.926.019.017-.068.063-.095.099-.507.66.44 1.328-.185 1.986-.02.02.063.061.086.095.451.619.23 1.323.121 1.911-.119.641.499 1.294-.09 1.984-.2.235.092.641.063.896-.077.657-.184 1.333-.04 1.983.15.653-.421 1.285.091 1.933.015.019-.094.054-.109.088-.294.631.254 1.322-.258 1.939-.024.029.153.097.15.143-.02.656-.054 1.314-.091 1.97-.002.03-.122.06-.114.084.248.678-.2 1.317-.066 1.985.127.653-.385 1.265-.024 1.93.007.012-.036.03-.058.041-.401.238-.094.536-.122.8-.074.635-.057 1.28-.135 1.915-.088.704-.144 1.41-.21 2.115-.055.624-.212 1.236-.227 1.869-.005.29-.077.583-.075.898.007.59-.032 1.212-.233 1.754a2.2 2.2 0 00-.124 1.197c.102.556-.36 1.116-.169 1.731.009.026-.11.046-.115.077-.121.682-.315 1.353-.349 2.045-.034.645-.497 1.223-.21 1.913.01.026-.098.046-.11.078-.262.624-.054 1.338-.45 1.935-.01.012.035.038.044.056.13.337-.033.63-.16.927-.063.15-.12.3-.128.456a.715.715 0 00.08.37c.022.05.05.073.078.155.016.029-.086.09-.115.148-.152.277-.131.632.013.918.143.29.402.512.679.648.28.14.582.199.87.23l.108.011c.033.004.044.007.068.012.041.01.084.024.124.04a.852.852 0 01.245.17c.02.02.063-.06.097-.084.632-.442 1.332-.202 1.924-.092.645.12 1.3-.496 1.998.092.236.2.644-.1.901-.075.662.063 1.344.173 1.996.005.651-.168 1.306.386 1.94-.146.018-.015.059.09.093.105.646.267 1.315-.307 1.958.177.03.022.09-.156.138-.158a77.02 77.02 0 011.981-.015c.031 0 .067.119.092.109.664-.291 1.334.114 1.997-.065.645-.173 1.297.286 1.936-.122.01-.007.031.034.046.054.273.383.545.05.812.056.643.015 1.286-.053 1.93-.039.712.017 1.425.01 2.137-.005.63-.014 1.258.082 1.892.02.291-.029.592.009.905-.032.587-.075 1.155-.155 1.722-.022v-1.49c-.562.089-1.218-.17-1.802.11-.025.011-.061-.103-.093-.104-.696-.024-1.392-.111-2.086-.04-.643.067-1.293-.297-1.93.1-.025.014-.064-.088-.098-.096-.663-.155-1.334.17-1.995-.112-.014-.005-.031.042-.048.052-.62.374-1.276-.42-1.888.225-.017.017-.062-.072-.096-.099-.648-.527-1.347.39-1.993-.241-.02-.019-.063.06-.097.085-.632.442-1.332.202-1.924.092-.645-.121-1.3.496-1.998-.092-.236-.2-.644.1-.901.075-.662-.063-1.344-.174-1.996-.006-.651.169-1.306-.386-1.939.147-.019.015-.06-.09-.094-.106-.646-.267-1.315.308-1.958-.177-.03-.022-.09.157-.137.159-.66.015-1.322.017-1.982.015-.031 0-.067-.12-.092-.109-.332.146-.665.117-.999.075-.167-.02-.333-.046-.5-.055a2.046 2.046 0 00-.25.002c-.029.002-.024.002-.027.005-.004.002-.005.005-.009.009-.007.005-.012.012-.022.023-.034.036-.071.023-.085-.008-.017-.029-.007-.071.009-.095.015-.026.027-.03.013-.053-.005.005 0-.029 0-.046v-.061a1.066 1.066 0 00-.076-.384c-.005-.012.039-.024.063-.036.428-.197.15-.529.205-.79.131-.635.179-1.283.303-1.917.136-.702.249-1.408.346-2.117.088-.625.275-1.234.31-1.872.016-.292.093-.586.1-.902.011-.594.052-1.22.26-1.765.115-.305.22-.708.124-1.206-.107-.557.354-1.129.143-1.744-.009-.026.109-.05.114-.08.107-.689.275-1.374.277-2.075.005-.647.437-1.26.104-1.938-.012-.025.094-.053.104-.087.22-.647-.04-1.348.3-1.984.006-.012-.04-.034-.049-.05-.316-.65.531-1.242-.066-1.907-.017-.018.075-.056.106-.086.578-.61-.283-1.374.388-1.98.02-.018-.057-.067-.079-.103-.4-.662-.112-1.345.027-1.933.154-.641-.42-1.327.194-1.998.211-.23-.073-.651-.037-.908.095-.66.223-1.343.073-2.001-.148-.657.425-1.304-.104-1.949-.015-.019.092-.058.106-.092.274-.646-.283-1.32.195-1.965.023-.03-.156-.092-.158-.138-.018-.663-.013-1.328-.022-1.99 0-.032.118-.069.107-.094-.302-.663.09-1.344-.098-2.007-.196-.64.241-1.314-.19-1.94-.006-.01.033-.032.054-.047.374-.29.03-.55.02-.816-.019-.648-.12-1.29-.14-1.937a47.37 47.37 0 00-.156-2.142c-.056-.631-.03-1.267-.148-1.898-.056-.289-.048-.593-.116-.903-.14-.58-.258-1.197-.192-1.78.04-.364.09-.6-.056-.768-.034-.092-.077-.198-.117-.332-.165-.547.04-1.187-.317-1.73-.015-.021.094-.076.09-.108-.083-.695-.117-1.403-.3-2.08a2.41 2.41 0 01-.069-.482c-.012-.163-.017-.328-.03-.492-.03-.326-.1-.644-.354-.921-.02-.02.073-.078.074-.114.01-.343-.088-.666-.188-.99-.1-.323-.184-.647-.12-1.004.002-.014-.047-.02-.06-.034-.25-.264-.22-.6-.22-.93.003-.33-.051-.65-.437-.871-.022-.012.052-.076.071-.117.174-.383-.005-.689-.172-.997a1.632 1.632 0 01-.194-.474.274.274 0 01-.006-.058c.003-.005.005-.012.01-.017.005-.012.02-.022.037-.029a.292.292 0 01.165-.008.496.496 0 01-.078-.022c-.104-.045-.143-.128-.131-.19a.131.131 0 01.117-.108.187.187 0 01.085.014c.065.01.157.025.233.04l.461.096c.645.12 1.3-.497 1.998.092.236.2.644-.1.901-.075.662.063 1.344.173 1.996.005.651-.168 1.306.386 1.94-.146.018-.016.059.09.093.105a1.1 1.1 0 00.507.071c.015.206.049.412.146.592.04.08.042.123.04.179-.004.054-.016.11-.018.165-.003.107.032.202.252.244.017.004-.078.043-.083.057-.089.241.275.363.06.637-.006.005.043-.002.053 0 .416.095-.304.493.368.524.019.002-.065.036-.088.053-.462.323.48.324-.089.67-.017.01.065.005.09.01.476.095.295.367.223.574-.077.223.575.303.04.638-.183.112.135.18.127.265-.02.218-.09.449.109.622.202.177-.31.47.246.584.017.003-.086.032-.098.046-.235.243.37.367-.082.639-.02.012.16.007.163.02.043.206.077.412.099.62.002.011-.116.037-.104.043.313.174-.063.432.138.62.192.186-.243.438.184.6.007.003-.033.013-.053.02-.37.12-.034.177-.032.26.001.204.088.401.086.607-.001.226.02.45.048.675.022.199-.063.401.009.6.034.092-.002.187.04.286.079.183.131.382.002.564-.073.102-.119.232.038.383.176.17-.201.367.078.558.012.008-.102.02-.104.03-.024.225-.11.45-.04.673.067.208-.297.419.1.624.015.009-.087.02-.096.031-.155.214.17.43-.112.644-.005.004.043.01.053.016.187.1.081.202.012.306a.314.314 0 00-.024.039.26.26 0 00-.007.075.797.797 0 00.151.497c.167.236.467.336.705.23.024-.012.063.089.112.123a.6.6 0 00.41.097.747.747 0 00.47-.243.185.185 0 00.023-.063c.007-.03.01-.067.016-.1.017-.137.044-.264.34-.114.019.008-.029-.058-.037-.084-.169-.457.161-.447.374-.505.233-.063-.055-.648.522-.39.196.086.076-.218.153-.26.196-.106.43-.185.46-.452.028-.268.571-.025.34-.545-.007-.016.078.05.095.052.337.041.083-.518.573-.323.022.009-.09-.13-.08-.143.099-.113.203-.222.308-.33l.014-.003c.007-.002-.017.03-.03.05-.207.333.091.16.147.224.136.158.332.257.468.413.151.174.318.332.492.485.153.134.23.345.418.445.087.046.13.141.23.184.187.081.362.192.398.415.022.14.024.241.15.2.037.007.081.012.127.03.19.066.12.409.451.344.014-.003-.058.087-.053.095.072.089.131.188.2.278l.025.034.007.008.032.032c.025.024.051.046.078.069a.98.98 0 00.398.181c.295.06.587-.02.8-.197a1.188 1.188 0 00.425-.753l.005-.048.004-.01.017-.039a.744.744 0 00.03-.078c.034-.104.026-.208-.173-.311-.016-.009.086-.02.095-.03.155-.215-.17-.431.112-.645.005-.004-.042-.01-.052-.016-.375-.2.42-.411-.225-.61-.017-.005.071-.02.099-.03.527-.21-.39-.436.241-.645.019-.007-.061-.02-.085-.032-.442-.203-.206-.436-.097-.631.12-.216-.503-.417.08-.66.2-.083-.105-.209-.083-.294.056-.22.153-.45-.024-.656-.177-.204.36-.454-.184-.628-.017-.005.09-.025.102-.037.255-.233-.337-.408.13-.658.022-.012-.16-.017-.162-.032a12.107 12.107 0 01-.075-.648c-.002-.01.117-.034.106-.04-.312-.188.07-.451-.135-.649-.197-.188.237-.46-.199-.617-.007-.003.032-.015.053-.022.367-.14.024-.185.019-.272-.014-.213-.11-.412-.131-.624a4.548 4.548 0 00-.118-.694c-.05-.202.012-.423-.09-.617-.046-.088-.029-.192-.087-.287-.108-.175-.192-.368-.103-.577.05-.117.068-.26-.116-.382-.208-.135.114-.419-.2-.543-.014-.005.094-.042.093-.052-.026-.228.001-.473-.125-.677-.115-.189.184-.49-.255-.59-.017-.003.079-.043.084-.054.092-.252-.278-.378-.068-.665.003-.005-.045.001-.055 0-.417-.089.286-.527-.39-.53-.018 0 .064-.04.086-.059.076-.06.109-.107.119-.15.217-.006.437-.013.655-.008.71.017 1.424.01 2.136-.005.63-.013 1.258.082 1.892.019.291-.029.592.008.905-.032.587-.075 1.211-.12 1.778.012a2.2 2.2 0 001.208-.034c.54-.176 1.16.204 1.744-.075.023-.012.06.102.093.103.694.024 1.392.111 2.084.04.027-.004.054-.004.08-.006l.04.053c-.01.15-.014.31-.004.497.023.394-.17.418.017 1.096.007.026-.044-.042-.05-.032-.092.216.07.843-.095.954-.003.002.022.05.027.068.097.32.036.398-.01.508-.046.109-.076.248.109.668.01.024-.042-.025-.06-.028-.161-.041-.112.215-.066.46.046.245.087.475-.119.403-.012-.005.038.082.053.118.272.675.114.853.025 1.088-.046.127.033.39.075.612.041.223.044.403-.173.382-.15-.012.06.412.039.53-.056.309-.155.606-.036 1.06.126.447-.33.466.09 1.12.012.02-.075-.021-.087-.011-.113.095-.056.316-.018.518.037.204.053.388-.157.432-.019.005.131.133.133.158.005.36-.002.716-.01 1.068 0 .017-.106-.02-.097-.003.25.49-.118.666.034 1.101.153.414-.277.587.095 1.083.007.009-.032.004-.051.004-.359.005-.051.275-.058.415-.019.34.041.707.022 1.045-.02.376-.018.759-.007 1.143.01.338-.085.654-.027 1.006.027.162-.01.315.027.488.072.327.116.662-.017.946a.659.659 0 00.033.646c.173.3-.206.602.073.93.012.014-.102.027-.104.044-.025.367-.112.738-.04 1.107a.47.47 0 01.006.13.832.832 0 01-.007.064l-.005.032-.005.05c-.017.13-.027.268-.017.404.02.27.148.551.45.655.023.006-.048.09-.036.115.09.269.33.446.568.573.243.131.48.221.721.42.01.009.034-.035.05-.042a.67.67 0 01.39-.06l.048.007.032.009a.51.51 0 01.062.022l.122.054c.164.071.327.109.485-.214.009-.017.03.071.05.099.333.527.692-.39 1.025.24.01.02.033-.06.051-.084.325-.442.686-.202.99-.092.332.12.669-.496 1.028.092.122.2.332-.1.464-.075.34.063.693.174 1.026.005.335-.168.672.386.997-.146.01-.015.03.09.048.105.333.267.677-.307 1.007.177.015.022.046-.156.07-.158.34-.015.68-.017 1.019-.015.015 0 .034.119.047.109.342-.291.688.113 1.028-.065.331-.173.667.286.995-.122.005-.007.015.034.024.054.14.383.28.05.416.056.332.015.662-.053.994-.039.366.017.733.01 1.099-.005.325-.014.646.082.973.019.15-.03.305.008.466-.033.301-.075.624-.119.915.012.182.084.3.155.393.036.048-.022.106-.05.176-.07.289-.088.597.204.898-.075.014-.012.032.102.048.104.357.024.716.11 1.073.04.332-.067.665.297.993-.1.012-.015.033.087.05.096.342.155.685-.17 1.027.112.007.005.016-.043.024-.053.318-.374.657.42.971-.224.009-.017.031.071.05.099.333.527.692-.39 1.026.24.005.011.013-.004.022-.026.008-.01.001-.022.022-.033a.452.452 0 01.068-.029 1.22 1.22 0 00.51-.333c.13-.146.208-.31.245-.477a.992.992 0 00.007-.395l.189-.178z" fill="#87D8C8"/><path d="M56.517 9.658c-.005.01.02-.1.019-.102-.07-.044-.13-.15-.225-.1-.085.045-.087-.332-.238.047-.005.014.01-.087.007-.095-.05-.165-.18.144-.213-.146 0-.005-.01.04-.013.05-.121.361-.097-.438-.245.191-.004.017.001-.071 0-.098-.009-.27-.06-.172-.106-.092-.047.081-.088.151-.103-.167-.002-.019-.012.061-.018.085-.102.437-.161.194-.227.08-.077-.122-.152.485-.232-.099-.029-.199-.075.102-.104.079-.076-.062-.163-.167-.23.005-.06.171-.183-.381-.209.158 0 .015-.015-.09-.02-.104-.104-.257-.112.325-.245-.146-.007-.022.01.156.005.16a1 1 0 01-.223.046c-.003 0-.027-.118-.029-.106-.025.294-.171-.083-.214.107-.034.186-.21-.246-.187.169 0 .006-.012-.033-.019-.053-.12-.364-.073-.034-.104-.032-.076.001-.129.085-.2.095a.658.658 0 00-.23.078c-.063.034-.163-.032-.21.048-.013.018-.03.022-.047.029-.03-.036-.064-.072-.047-.08.096-.063.238-.11.12-.266-.119-.153.43-.027-.025-.32-.014-.008.087.028.102.028.284.014-.211-.292.274-.2.022.003-.142-.072-.14-.079.02-.097.055-.189.092-.279.002-.003.116.034.106.026-.237-.196.178-.145.044-.3-.131-.147.335-.086-.019-.31a.252.252 0 01.054.011c.375.087.075-.06.094-.095.044-.087.009-.2.053-.286.047-.096.075-.198.092-.306.013-.093.129-.16.097-.268-.016-.05.032-.084.006-.14-.046-.103-.07-.205.079-.256.083-.03.143-.08.008-.186-.153-.117.244-.126-.013-.272-.01-.007.102.012.103.007.045-.099.15-.187.1-.304-.049-.106.332-.147-.049-.306-.013-.005.087.003.096 0 .166-.08-.142-.225.153-.29.005-.001-.041-.01-.051-.013-.357-.136.442-.151-.192-.313-.017-.005.071-.002.098-.005.534-.054-.37-.236.269-.287.019-.002-.06-.014-.083-.02-.433-.125-.194-.215-.08-.303.122-.1-.492-.206.102-.31.202-.037-.102-.102-.078-.14.059-.105.166-.217-.006-.312-.085-.046.009-.102.058-.157.048-.056.048-.112-.22-.139-.016-.002.09-.017.103-.024.255-.136-.327-.173.138-.343.022-.009-.159.007-.16 0a2.961 2.961 0 01-.073-.323c-.002-.005.114-.036.102-.038-.308-.044.058-.253-.15-.321-.099-.029-.046-.104-.027-.173.02-.068.012-.133-.201-.11-.007 0 .029-.016.048-.026.335-.19.006-.114-.005-.159-.038-.115-.152-.192-.201-.304a1.13 1.13 0 00-.24-.338c-.087-.087-.104-.248-.245-.293-.063-.018-.083-.09-.16-.097-.141-.018-.26-.042-.29-.216-.02-.11-.035-.193-.122-.105-.027.01-.06.026-.093.032-.068.014-.1-.052-.145-.1-.044-.046-.102-.073-.199.044-.008.01.02-.102.014-.103-.121-.065-.24-.179-.385-.131-.064.023-.115-.058-.173-.099-.056-.04-.123-.036-.19.16-.006.015-.008-.089-.013-.097-.12-.158-.238.165-.362-.11-.003-.006-.003.042-.007.052-.046.189-.104.087-.167.022-.06-.066-.126-.098-.137.228 0 .019-.02-.07-.028-.095-.086-.254-.136-.15-.176-.058-.043.094-.08.172-.194-.13-.007-.018 0 .062 0 .087-.017.456-.167.24-.29.159-.136-.092-.066.53-.333-.007-.094-.182-.07.124-.116.112-.115-.029-.248-.099-.289.092-.037.19-.318-.301-.23.231.004.015-.039-.082-.049-.093-.185-.216-.075.358-.34-.058-.012-.019.044.151.037.154-.087.051-.18.087-.274.125-.005.001-.056-.106-.054-.096.022.308-.231-.022-.252.18-.017.198-.303-.181-.214.234.002.006-.019-.03-.03-.048-.202-.327-.096-.009-.135.003-.094.031-.152.135-.245.164a.999.999 0 00-.283.156c-.076.056-.206.02-.26.12-.025.047-.082.038-.102.098-.04.11-.093.197-.236.127-.08-.039-.159-.046-.138.124.025.189-.257-.076-.179.206.004.012-.065-.08-.068-.078-.1.037-.238.024-.284.143-.04.11-.333-.128-.179.25.005.013-.06-.065-.068-.068-.173-.065-.06.255-.311.088-.005-.003.022.036.027.046.157.354-.411-.21-.085.354.009.015-.05-.05-.073-.069-.408-.346.088.426-.39.002-.015-.013.033.053.045.075.212.401-.019.284-.16.26-.155-.024.184.495-.288.133-.161-.123-.003.14-.05.15-.115.022-.268.015-.222.203.048.186-.415-.13-.102.312.008.013-.072-.058-.085-.063-.262-.116.085.353-.335.091-.019-.011.105.118.102.123-.056.083-.12.16-.189.233-.003.003-.095-.072-.09-.061.151.267-.221.076-.153.268.071.186-.346-.029-.09.305a.297.297 0 01-.048-.03c-.323-.207-.09.035-.12.062-.076.066-.08.185-.149.255a1.151 1.151 0 00-.189.262c-.047.083-.177.109-.18.223-.002.052-.056.07-.051.13.012.116.032.228-.128.228l1.254.806c-.03-.11.233-.039.044-.26-.008-.01.09.051.094.048.073-.063.194-.09.189-.208-.002-.109.343.04.075-.265-.01-.012.075.046.083.046.175.024-.03-.248.248-.143.006.002-.03-.029-.037-.037-.24-.298.432.132-.015-.337-.012-.014.06.04.083.053.46.272-.185-.393.354-.048.017.01-.041-.046-.056-.064-.28-.352-.033-.267.1-.252.145.019-.25-.47.247-.133.166.116-.014-.129.029-.137.107-.02.246-.007.188-.187-.054-.182.395.16.087-.284-.008-.014.068.06.082.068.245.137-.08-.347.31-.05.018.014-.097-.124-.092-.129.056-.07.122-.13.19-.185.004-.004.085.085.08.075-.12-.28.206-.031.16-.221-.04-.19.313.115.126-.257-.003-.007.024.024.04.039.264.279.086-.007.118-.024.075-.042.104-.146.182-.185a.865.865 0 00.228-.172c.06-.061.186-.027.221-.126.017-.046.07-.037.084-.093.025-.106.07-.192.206-.12.076.041.146.053.12-.112-.027-.187.239.096.164-.185-.004-.012.06.085.063.083.091-.028.217.007.262-.102.044-.1.29.18.18-.21-.003-.016.047.073.056.078.148.097.083-.231.287-.019.004.003-.015-.039-.017-.05-.088-.373.332.305.13-.314-.005-.017.037.061.053.084.297.445.006-.427.342.113.01.017-.017-.06-.023-.083-.098-.439.085-.26.2-.185.122.081-.02-.526.28-.01.1.175.044-.124.085-.114.104.025.225.102.252-.084.03-.187.284.313.199-.22-.002-.016.036.083.044.095.082.112.099.027.124-.033.026-.06.062-.095.165.13.01.02-.032-.155-.025-.157a.998.998 0 01.235-.076c.003-.002.034.113.035.103.017-.3.179.078.22-.109.053-.185.182.262.207-.153 0-.006.007.034.01.055.067.377.063.044.096.047.07.012.138-.06.206-.044a.718.718 0 00.216.01c.066-.006.1.1.17.051.032-.02.046.024.085-.006.07-.055.151-.075.134.068-.01.088-.032.156.04.057.017-.015.037-.034.057-.045.043-.024.038.032.041.066.003.037.015.05.124-.043.01-.008-.06.084-.06.085.03.058.004.153.094.147.045-.004.002.07-.008.108-.009.04.007.055.19-.028.014-.007-.07.052-.075.059-.047.065.002.068.041.083.04.012.065.041-.049.13l.05-.02c.181-.054.101.023.047.08-.053.059-.078.094.235.016.017-.005-.065.03-.089.044-.236.123-.132.116-.042.128.09.008.172.029-.124.146-.02.007.06-.01.085-.012.447-.044.233.107.137.19-.052.048.077.063.148.092.072.03.084.073-.202.153-.194.051.107.063.087.099-.055.087-.157.172.013.245.17.078-.38.18.155.245.016.001-.09.01-.104.015-.265.085.317.17-.173.252-.022.003.156.013.158.018a1.3 1.3 0 01.007.257c0 .003-.12.003-.109.007.29.1-.12.165.048.262.165.1-.3.14.1.263.007.002-.034 0-.056 0-.383-.007-.055.065-.067.099-.027.081.03.173.004.257-.03.09-.032.183-.04.278-.003.085-.111.148-.066.242.02.044-.022.075.009.124.058.092.08.185-.066.228-.082.024-.14.064-.004.165.153.114-.233.098.014.246.01.007-.102-.018-.104-.015-.05.083-.158.15-.114.258.04.104-.335.079.017.28.014.006-.085-.02-.095-.018-.174.038.107.225-.189.221-.005 0 .04.017.048.022.328.203-.455.024.127.317.016.008-.07-.016-.097-.02-.525-.098.305.305-.318.171-.019-.003.055.029.075.042.383.237.122.244-.009.278-.142.037.398.35-.185.219-.199-.046.058.119.022.143-.093.06-.23.103-.11.251.12.15-.426.012.029.305.013.008-.087-.03-.103-.03-.28-.028.208.292-.27.174-.022-.005.138.077.136.082-.022.09-.061.175-.1.257-.002.003-.113-.041-.104-.034.11.102.068.132.012.156.015-.053.022-.105-.03-.144-.08-.055.263-.211-.14-.19-.016.002.083-.026.09-.032.13-.11-.204-.1.05-.244.004-.004-.043.008-.054.008-.377.036.365-.258-.272-.141-.017.003.067-.027.092-.04.485-.229-.418-.021.158-.288.017-.009-.06.013-.085.017-.442.076-.24-.072-.158-.175.088-.116-.51.047.003-.245.176-.102-.12-.029-.11-.065.029-.092.097-.21-.085-.209-.179.007.286-.304-.227-.132-.015.005.079-.046.089-.057.204-.188-.34.014.053-.278.018-.014-.143.066-.147.06-.049-.057-.081-.123-.122-.188-.002-.003.099-.066.088-.063-.289.085.017-.189-.175-.16-.184.034.16-.284-.22-.117-.006.003.026-.022.043-.036.298-.24.004-.078-.008-.105-.033-.068-.13-.087-.162-.155a.582.582 0 00-.15-.19c-.056-.046-.03-.16-.125-.175-.043-.007-.038-.056-.092-.056-.099-.002-.2.006-.145-.133L47.94 7.072c.097-.022-.058.194.185.047.01-.006-.073.072-.073.075.022.063-.005.163.09.162.092 0-.165.27.182.073.014-.007-.066.058-.07.064-.09.138.208-.006.012.204-.003.004.036-.022.046-.027.34-.168-.279.322.281.009.015-.009-.056.044-.078.061-.414.335.391-.107-.112.277-.016.012.054-.027.076-.037.407-.184.236-.002.168.095-.08.105.49-.134 0 .199-.168.112.114.003.102.034-.028.081-.098.178.077.156.177-.015-.308.264.203.097.015-.005-.082.041-.094.05-.225.154.332-.01-.095.224-.02.01.15-.051.151-.048.038.048.056.104.075.16 0 .004-.11.046-.099.044.295-.042-.068.147.12.145.185.002-.237.19.168.127.007-.001-.033.012-.051.02-.36.132-.036.06-.034.086.001.058.081.095.083.155a.533.533 0 00.048.183c.023.053-.058.126.013.168.033.02.002.053.048.074.085.037.136.088.012.158-.07.039-.112.08.047.102.18.027-.19.126.094.148.012.001-.102.015-.102.018-.014.065-.102.133-.026.187.07.055-.292.128.11.167.015.002-.087.009-.096.012-.15.061.179.116-.107.177-.005.001.042.001.053.003.374.056-.422.106.222.17.017.002-.071.004-.098.007-.53.04.39.138-.245.165-.019 0 .061.008.085.014.437.08.19.132.076.173-.124.042.485.168-.107.165-.199-.004.094.068.065.087-.073.049-.19.088-.032.171.156.087-.399.041.117.196.015.005-.09-.012-.104-.012-.272 0 .274.178-.21.127-.023-.003.15.043.15.048a.592.592 0 01-.025.174c0 .003-.117-.026-.107-.02.269.133-.14.079.014.183.146.107-.307.017.064.199.007.003-.034-.009-.053-.014-.369-.102-.06.029-.073.05-.003.006-.003.013-.005.02-.05.001-.073.012-.005.063.002.03.004.063-.014.086a.374.374 0 00-.066.174l-.003.007c-.038.035-.089.066-.11.108l1.515.646a.096.096 0 00.005-.07.058.058 0 000-.033c.029-.06.296-.022-.003-.216l.005-.002c.022.007.076.026.083.026.03-.004.048-.012.056-.022.046.003.063-.002.004-.043-.012-.056-.055-.124.13-.107.006 0-.038-.017-.047-.024-.07-.039-.088-.063-.083-.076l.039.018c.029-.022.075-.034.104-.056.015-.005.023-.012.02-.022.007-.014.008-.03 0-.054-.027-.085.306.068 0-.196-.012-.01.077.044.085.046.08.02.063-.027.058-.065l.03.006c.01.001-.008-.007-.03-.016-.002-.032.017-.05.136.004.005.001-.032-.027-.04-.034-.27-.267.397.166-.084-.266-.014-.011.06.04.083.055.225.14.163.058.114-.019-.047-.075-.08-.143.18.04.016.011-.044-.043-.06-.062-.3-.326-.074-.22.042-.182.122.043-.284-.427.18-.065.155.126-.03-.107.002-.105.087.005.202.048.13-.114-.07-.165.336.214.025-.224-.009-.014.063.064.074.073.211.166-.105-.31.244.03.015.016-.092-.127-.09-.13a.524.524 0 01.127-.118c.002-.002.077.092.072.082-.126-.269.154.018.1-.155-.048-.173.252.179.075-.194-.004-.007.02.027.034.044.226.31.066.018.088.009.055-.017.067-.107.123-.124a.381.381 0 00.163-.092c.043-.037.134.02.155-.06.01-.037.05-.016.056-.066.015-.088.05-.151.15-.05.056.057.105.088.085-.072-.02-.18.168.15.115-.13-.001-.011.043.094.045.094.064-.003.153.066.185-.022.034-.082.196.25.131-.146-.002-.015.03.081.036.088.097.133.064-.204.195.058.002.005-.008-.04-.01-.051-.039-.374.206.384.107-.255-.001-.017.023.068.031.093.167.504.036-.408.218.2.005.018-.007-.062-.009-.086-.03-.45.082-.219.147-.117.07.112.047-.508.182.068.042.196.042-.107.068-.085.064.053.127.158.17-.01.05-.17.127.382.16-.153.001-.015.008.09.012.104.06.265.112-.313.168.168.002.022.009-.158.012-.158a.571.571 0 01.17-.005c.003 0 0 .119.003.108.074-.287.104.12.172-.056.074-.17.079.29.177-.105.002-.007-.002.034-.003.056-.026.383.037.056.061.066.051.022.116-.035.169-.013.056.027.119.024.178.029.055.001.084.107.15.06.03-.02.046.021.081-.01.069-.059.131-.09.138.05l.46-1.418c-.086.078-.077-.221-.22.029zm-5.723.04c.004.006.005.01.01.016l.004.005a.417.417 0 00-.058-.007c-.007 0 .019-.007.044-.013zm1.639.152c-.031-.027-.062-.046-.084-.04.005-.035.068-.045.26.003-.032.078-.08.124-.176.037zM10.26 40.087c-.002-.014.08.066.088.06.175-.118.4-.178.519-.365.112-.176.488-.003.408-.435-.004-.017.068.06.08.06.253.006.224-.383.556-.264.007.002-.017-.039-.018-.05-.057-.416.552.127.346-.513-.005-.017.055.05.079.067.454.335.134-.55.64-.124.015.013-.018-.063-.021-.089-.073-.478.242-.384.45-.383.225.002.094-.632.572-.222.16.14.121-.182.203-.2.206-.043.44-.037.537-.278.1-.245.524.165.463-.396-.002-.017.056.073.072.081.29.159.23-.455.612-.093.017.017-.04-.155-.027-.162.177-.095.359-.181.546-.256.008-.004.065.102.068.09.075-.345.417-.048.536-.29.12-.232.47.13.508-.322 0-.009.02.029.033.047.207.332.17-.013.25-.032.19-.05.354-.175.544-.224a5.56 5.56 0 00.62-.198c.178-.071.389-.027.56-.137.077-.051.174-.04.258-.102.153-.121.331-.204.529-.116a.274.274 0 00.175.029c.03-.007.06-.02.09-.044.026-.022.07-.06.065-.099.017-.092.068-.044.087-.005.025.04.013.063.078-.061.007-.01-.036.097-.036.097.003.018-.017.039-.054.023-.034-.013-.051-.049-.014-.052.034.002-.034.037-.071.073-.038.039-.033.08.146.192.014.009-.087-.007-.097-.002-.092.051-.07.128-.075.223-.008.1-.032.197-.197.238-.007.002.037.024.044.03.145.152.014.205-.088.262-.103.06-.17.13.09.339.013.012-.072-.01-.1-.012-.278-.015-.232.11-.196.236.035.124.056.25-.27.198-.02-.004.047.042.066.063.31.362.003.448-.18.549-.198.107.246.59-.373.474-.208-.04-.012.216-.073.27-.16.136-.36.25-.325.505.028.259-.536.112-.208.57.01.013-.085-.038-.102-.036-.33.007.022.509-.488.383-.024-.005.11.114.104.127a5.342 5.342 0 01-.35.497c-.006.007-.108-.056-.105-.043.11.34-.34.255-.323.526.012.263-.473.136-.276.545.004.007-.032-.013-.052-.023-.352-.174-.145.1-.201.161-.136.146-.211.345-.349.492-.076.081-.15.164-.22.251l-.101.133-.05.068-.023.034-.012.017-.007.008-.003.004-.002.001v.002c2.308 1.986.64.551 1.155.993.12-.15.32-.224.406-.408.041-.083.128-.128.167-.221.072-.179.175-.347.39-.376.132-.019.233-.013.19-.138a.645.645 0 01.027-.122c.065-.182.397-.094.336-.42-.002-.014.083.063.09.056.175-.122.391-.197.5-.393.102-.183.492-.023.386-.453-.003-.018.07.054.084.054.25-.01.207-.391.54-.293.007.002-.018-.039-.022-.05-.078-.412.557.093.32-.53-.007-.016.058.047.082.062.47.31.104-.56.631-.16.015.012-.02-.061-.026-.087-.095-.47.222-.396.43-.404.225-.01.064-.633.56-.252.167.13.111-.189.191-.21.206-.05.439-.06.524-.307.087-.252.534.143.442-.418-.003-.017.06.071.075.078.298.14.206-.466.608-.124.018.015-.048-.151-.036-.16.172-.104.347-.204.532-.284.009-.003.07.099.073.085.058-.348.414-.071.521-.316.11-.236.475.105.492-.347 0-.008.022.027.034.046.224.32.17-.02.248-.044.187-.058.344-.194.53-.254.208-.062.41-.139.61-.226a.937.937 0 01.264-.063c.067-.006.102-.001.088-.03-.003-.026-.063.002-.085-.051-.017-.051.01-.075.027-.061.014.01.007.042-.05.076-.067.044-.113.026.042.061.086.026.028.056-.014.062-.048.015-.054-.02.003.156.007.012-.098-.036-.103-.027-.128.17-.312.306-.361.522-.048.202-.46.168-.233.547.008.014-.083-.032-.095-.027-.239.082-.084.434-.432.437-.007 0 .029.032.035.042.198.373-.563.069-.153.597.012.016-.068-.027-.097-.035-.27-.079-.252.06-.246.193-.002.02.006.026-.004.056a1.02 1.02 0 00-.105.785c.047.176.125.328.24.47.113.141.273.28.495.38.057.025.178-.055.258-.096a.966.966 0 00.238-.153c.027-.025.072-.063.082-.08 0-.012 0-.023.002-.034a.385.385 0 01.022-.11.203.203 0 01.112-.116c.099-.04.233-.022.342-.027.238-.012.073-.641.58-.267.172.126.116-.194.196-.218.207-.06.447-.086.524-.338.078-.252.55.102.427-.45-.004-.017.064.066.081.073.312.117.18-.48.606-.175.02.013-.06-.148-.048-.157.165-.122.337-.228.512-.331.009-.006.079.091.08.078.026-.356.409-.11.494-.366.087-.248.481.06.454-.394 0-.009.024.025.04.042.253.3.168-.032.242-.064.177-.08.32-.223.499-.293.197-.081.388-.163.573-.263.167-.077.367-.06.516-.174.07-.05.16-.042.233-.107.136-.122.282-.194.459-.105l-.293-1.46c-.088.065-.202.04-.316.04-.114-.002-.225.024-.277.19-.006.014-.05-.091-.062-.09-.117.026-.243.034-.362.058a.806.806 0 00-.325.143c-.09.07-.22.04-.332.056-.112.012-.21.065-.224.287-.002.017-.055-.071-.07-.073-.265-.044-.323.342-.643.189-.007-.003.01.042.01.054-.003.425-.573-.178-.437.487.003.018-.051-.053-.075-.072-.442-.357-.189.55-.682.109-.015-.014.014.063.015.09.048.483-.265.391-.485.396-.241.005-.09.64-.592.259-.171-.13-.12.194-.202.217-.211.06-.454.085-.536.339-.08.253-.558-.099-.432.457.003.017-.065-.066-.082-.071-.318-.112-.177.484-.61.188-.02-.013.063.147.05.157-.164.126-.334.24-.508.348-.008.005-.082-.09-.082-.076-.006.177-.108.209-.22.228l-.02.003.353.568c.005.012.006.015.006.02 0 .009 0 .002.004-.003.012-.012-.009.003-.01 0a.03.03 0 01.012.003l.011.007.007.005.499.38.001-.006a.176.176 0 01.051-.06c.041-.035.096-.06.145-.09.097-.059.17-.137.065-.341-.004-.007.034.012.052.02.363.153.145-.115.2-.181.132-.162.195-.373.324-.538.143-.182.264-.379.375-.583.097-.178.285-.304.337-.512.023-.095.105-.161.12-.268.005-.026.007-.05.014-.077l.037-.119.067-.235a3.52 3.52 0 01.155-.465.58.58 0 00.04-.322.542.542 0 00-.212-.347c-.142-.105-.18-.263-.27-.421a.602.602 0 00-.188-.21.426.426 0 00-.318-.064c-.02.005-.002-.112-.026-.12a1.506 1.506 0 00-.712-.115c-.203.017-.348.068-.443.138-.173.133-.496-.138-.554.304-.002.017-.05-.075-.063-.078-.259-.073-.34.316-.645.131-.007-.003.007.043.005.054-.044.419-.548-.23-.476.443.002.018-.046-.058-.067-.079-.406-.396-.24.524-.69.043-.014-.016.006.064.006.092.002.488-.3.365-.523.35-.244-.01-.147.632-.62.214-.163-.143-.14.184-.223.204-.217.048-.466.061-.568.31-.095.251-.563-.116-.464.445.003.017-.063-.068-.08-.075-.323-.122-.196.486-.633.187-.02-.013.06.148.048.157-.174.125-.35.246-.528.367-.008.005-.085-.087-.085-.073-.012.362-.425.148-.495.423-.066.262-.51.019-.432.47.002.008-.029-.02-.044-.036-.301-.25-.17.07-.242.117-.173.117-.297.296-.466.417-.187.134-.36.287-.527.445-.145.143-.36.21-.471.391-.051.085-.15.12-.196.22-.088.185-.203.355-.427.386-.141.018-.245.018-.203.146-.006.037-.011.081-.028.127-.065.19-.41.124-.344.453.003.013-.088-.058-.095-.052-.172.147-.39.256-.49.468a.267.267 0 01-.133.116l1.235 1.062c.138-.076.316-.119.187-.413-.007-.015.08.041.094.038.252-.065.134-.434.485-.419.006 0-.028-.034-.033-.044-.168-.388.582-.053.201-.607-.01-.015.068.029.095.038.543.164-.039-.575.584-.35.019.006-.036-.053-.048-.077-.226-.43.099-.46.301-.546.223-.095-.155-.627.456-.464.21.054.041-.228.107-.282.176-.138.393-.26.37-.533-.024-.265.56-.15.217-.608-.01-.014.087.032.106.03.343-.039-.044-.525.483-.46.024.003-.12-.104-.114-.118.092-.197.196-.387.3-.58.004-.008.115.036.11.024-.162-.328.306-.343.235-.624-.034-.134.076-.2.16-.282.081-.082.134-.179-.014-.355-.005-.007.036.003.056.006.388.062.116-.15.155-.23.044-.098.068-.203.093-.309.026-.11.048-.2.094-.323.095-.261.165-.554.131-.931-.017-.165-.025-.35-.095-.553a1.016 1.016 0 00-.39-.522c-.168-.104-.31-.226-.505-.255-.362-.046-.66.007-.966-.063-.116-.05-.257-.063-.373.124-.127.211-.417-.115-.529.208-.005.013-.044-.094-.054-.092-.223.036-.466.008-.662.14-.179.123-.49-.164-.57.275-.003.017-.046-.077-.058-.082-.253-.083-.355.3-.65.099-.005-.004.005.042.004.054-.065.415-.534-.257-.499.418.002.02-.042-.06-.063-.081-.386-.418-.265.513-.69.008-.014-.015.003.065.003.092-.022.488-.322.347-.541.325-.242-.024-.179.624-.63.18-.154-.151-.146.18-.232.194-.22.037-.472.032-.584.279-.109.246-.556-.146-.488.42.002.017-.06-.072-.077-.078-.315-.135-.22.476-.641.154-.019-.015.053.152.039.16-.18.116-.359.233-.544.338-.009.006-.08-.09-.082-.078-.032.357-.43.13-.516.398-.078.259-.515-.014-.455.446.001.008-.028-.023-.043-.038-.287-.267-.173.06-.247.104-.18.105-.313.279-.488.393-.194.125-.38.261-.551.418-.151.136-.37.187-.493.364-.057.08-.153.115-.206.21-.099.18-.186.358-.412.375l.975 1.125c.073-.185.393-.115.35-.445zm-1.758 15.08c-.001-.015.087.058.097.051.211-.163.466-.274.613-.505.14-.212.564-.095.491-.556-.003-.017.075.051.089.05.29-.043.284-.455.655-.397.007.002-.017-.04-.019-.053-.048-.44.638.033.427-.618-.005-.02.061.042.088.056.513.272.18-.62.752-.257.017.012-.017-.065-.02-.092-.065-.5.3-.457.544-.496.268-.04.136-.689.68-.346.185.118.15-.215.248-.248.248-.078.52-.129.646-.396.13-.27.62.078.561-.5-.001-.017.065.068.084.073.345.116.285-.518.735-.205.02.013-.045-.155-.03-.164.217-.129.434-.255.662-.362.01-.005.077.096.08.082.097-.37.502-.128.652-.391.151-.259.563.05.617-.42.002-.009.026.027.04.044.25.308.209-.037.304-.073.228-.087.429-.242.662-.318.065-.022.128-.044.19-.068l.096-.037.042-.017a.09.09 0 01-.027.01.285.285 0 01-.252-.06c-.05-.044-.109-.09-.137-.173a.226.226 0 01-.012-.12l.003-.01-.005.023-.009.042a.508.508 0 00-.006.089c0 .112-.063.209-.057.331.009.228-.013.47-.207.628-.106.088-.2.214-.116.435.097.253-.345.326-.165.634.007.014-.104-.019-.109-.008-.124.227-.306.428-.352.69-.044.248-.474.29-.236.685.008.015-.089-.02-.1-.014-.25.142-.096.517-.462.585-.006.002.03.031.036.043.099.194-.054.241-.175.303s-.22.134-.014.41c.012.015-.071-.021-.102-.026-.284-.046-.274.107-.279.257-.003.15-.019.297-.345.202-.02-.005.036.054.046.08.214.455-.147.517-.368.615-.16.068-.083.34-.185.473l.94.814c.057-.071.16-.1.377-.037.21.063.086-.253.171-.311.215-.153.472-.272.512-.573.041-.303.623-.11.392-.65-.007-.015.081.044.1.044.36-.001.12-.578.641-.423.024.007-.09-.134-.078-.148.162-.195.34-.372.519-.55.009-.01.102.066.1.052-.029-.39.443-.27.499-.573.058-.3.553-.12.456-.587-.002-.008.032.017.05.03.33.217.184-.1.265-.164.193-.144.335-.352.53-.496.22-.153.427-.32.628-.497.184-.148.429-.206.587-.393.073-.086.189-.112.264-.21.142-.177.314-.354.566-.339.155.007.262.03.262-.109.019-.035.04-.08.075-.124.14-.187.473-.012.54-.362.003-.015.064.082.076.078.238-.1.51-.107.713-.275.095-.078.23-.055.353-.06.123-.006.227-.052.274-.278.004-.017.05.074.063.078.07.017.128.005.184-.02.056-.023.109-.053.163-.082.11-.058.225-.1.375.003.005.004 0-.044.003-.056.058-.21.218-.148.287-.085.038.03.06.054.057.034.001-.02-.017-.095.011-.255.006-.017-.022.068-.037.092-.065.119-.155.119-.192.085-.04-.034-.024-.099.01-.12.034-.03.068-.047.06-.038a.56.56 0 01-.227.032.816.816 0 01.085-.002c.056-.006.099.03.131.056a.358.358 0 01.073.085.221.221 0 01.023.169c-.031.109-.142.202-.21.285-.076.09.014.22.051.347.036.126-.003.247-.314.257-.213.003.013.233-.041.308-.148.183-.345.333-.31.612.017.141-.129.192-.23.26-.103.07-.171.156-.013.403.008.015-.087-.034-.106-.03-.176.018-.183.157-.212.285-.03.126-.09.236-.352.18-.024-.005.104.124.093.138-.14.2-.297.391-.46.578-.008.008-.108-.06-.104-.046.054.381-.419.303-.456.609-.02.148-.155.192-.27.255l1.209 1.176c.119-.052.217-.124.163-.358-.002-.009.032.017.051.029.333.209.184-.1.262-.164.187-.151.327-.358.519-.503.216-.158.418-.33.622-.503.18-.153.424-.22.582-.405.073-.085.186-.12.26-.22.142-.184.314-.356.565-.356.14-.002.293-.043.368-.267.085-.259.478-.043.53-.393.002-.015.07.078.08.073.242-.102.51-.148.71-.328.189-.17.56.06.612-.4.002-.016.058.07.072.072.286.039.393-.357.728-.19.003.001.002-.01 0-.023l-.003-.018a.069.069 0 00-.016-.009l-.383-.093a.666.666 0 01-.338-.179.458.458 0 01-.109-.194l-.005-.027-.002.009c0 .006-.002.011 0 .018 0 .012.004.024.01.036.024.048.103.09.262.134.02.005-.07.022-.098.034-.26.11-.167.203-.087.318.075.11.134.24-.194.291-.02.003.058.029.08.043.2.132.23.26.182.36-.042.104-.162.18-.242.252-.09.076-.01.215.004.345.015.124-.032.241-.345.194-.206-.036-.016.22-.082.28-.15.122-.33.202-.381.393l1.315 1.115a.36.36 0 00.013-.097c.007-.14.155-.17.264-.222.116-.05.192-.125.075-.392-.007-.015.08.048.099.048.171.009.204-.119.251-.236.048-.117.123-.214.368-.102.022.01-.078-.14-.067-.151.164-.167.354-.305.545-.443.008-.006.088.085.088.072.014-.184.13-.228.25-.259.125-.023.252-.034.308-.17.055-.136.196-.12.315-.137.12-.017.223-.055.243-.284 0-.009.024.027.038.044.245.31.192-.034.286-.066.216-.068.406-.216.63-.266.123-.034.246-.063.367-.095.12-.034.241-.071.365-.1a1.44 1.44 0 01.334-.034.818.818 0 00.33-.055c.098-.042.207-.008.314-.06.201-.096.409-.132.608-.008l.022-1.489c-.233.093-.53-.204-.76.1-.01.012-.035-.1-.048-.1-.15-.002-.3-.017-.45-.01-.15.007-.299.015-.438.083-.13.06-.278.014-.422.009-.141.001-.277.044-.356.27-.005.017-.049-.078-.064-.082-.159-.039-.283.051-.409.118-.127.066-.255.125-.437.045-.007-.003.004.045 0 .057-.056.222-.22.168-.37.163-.152-.01-.298.014-.275.359.002.018-.054-.053-.078-.07-.24-.174-.328-.017-.413.122-.087.143-.167.277-.451.077-.017-.012.009.066.009.093-.002.255-.086.38-.212.439-.125.06-.287.066-.42.1-.144.036-.183.216-.248.356-.065.14-.163.234-.475.112-.21-.078-.134.265-.23.321a2.19 2.19 0 00-.363.247.604.604 0 00-.222.377c-.022.146-.154.197-.275.264l1.308 1.11c.16-.08.306-.194.169-.5-.007-.017.088.034.11.03.196-.042.225-.215.259-.368.039-.155.086-.29.37-.316.026-.004-.122-.11-.114-.128.12-.28.229-.561.312-.852.003-.013.124.004.115-.01-.1-.189-.037-.323.031-.468.07-.142.15-.292.075-.454-.07-.154.005-.295.053-.448.04-.15.05-.31-.167-.439-.007-.005.032-.017.053-.026a.697.697 0 00.109-.057c.006-.006.012-.01.018-.014a.412.412 0 00.017-.134.587.587 0 00-.129-.34c-.155-.2-.38-.284-.561-.376a1.031 1.031 0 00-.85-.029c-.018.007-.018.008-.028.014l-.044.022-.087.046a2.816 2.816 0 01-.354.17c-.27.1-.53.227-.784.365-.221.126-.495.153-.69.332-.091.081-.217.105-.309.202-.172.182-.366.343-.63.35-.147.002-.316.051-.397.288-.089.26-.507.086-.548.449-.002.015-.078-.07-.09-.065-.245.14-.528.235-.71.46-.165.21-.604.086-.556.558.002.017-.075-.052-.09-.049-.31.051-.303.476-.692.439-.007 0 .018.039.02.053.066.443-.672.04-.41.681.007.017-.066-.034-.095-.044-.11-.04-.18-.037-.23-.012l1.278 1.243c.188-.114-.03-.605.486-.42.02.007-.029-.06-.037-.087-.162-.483.2-.53.44-.644.131-.06.121-.243.153-.39.036-.144.113-.254.434-.19.221.044.084-.274.164-.347.107-.092.224-.183.314-.296a.607.607 0 00.157-.403c.001-.161.154-.23.265-.333.114-.097.186-.226.002-.466-.01-.013.093.016.112.009.184-.07.172-.238.177-.391.01-.153.034-.29.308-.355.026-.007-.138-.087-.133-.108.073-.285.138-.576.184-.872.002-.014.123-.014.114-.025-.12-.17-.087-.315-.029-.465a.81.81 0 00.053-.328.66.66 0 00-.13-.377 2.782 2.782 0 01-.214-.34 1.52 1.52 0 00-.287-.38.87.87 0 00-.458-.222.466.466 0 00-.408.127c-.007.007-.022-.034-.034-.054-.106-.185-.21-.185-.28-.138-.074.048-.12.143-.181.155-.264.058-.504.194-.766.252a7.273 7.273 0 00-.835.296c-.235.112-.512.129-.728.289-.099.073-.223.1-.322.192-.182.177-.391.323-.655.326-.166 0-.284-.015-.29.126-.023.037-.048.083-.086.13-.155.183-.51.08-.561.44-.002.015-.077-.074-.088-.067-.256.128-.531.232-.722.45-.175.201-.602.082-.563.552.002.017-.073-.053-.09-.051-.313.042-.308.472-.696.426-.007 0 .019.041.02.053.053.439-.666.027-.42.67.007.017-.066-.036-.093-.048-.556-.214-.128.65-.75.371-.02-.008.023.061.03.089.123.49-.236.515-.483.607-.27.098-.003.714-.62.508-.21-.07-.103.255-.191.311-.223.15-.489.277-.538.58-.046.303-.633.129-.4.67.007.015-.083-.043-.104-.043-.37.017-.105.592-.64.468-.023-.005.096.129.086.144l-.027.034 1.187 1.034c.157-.202.323-.394.483-.595.009-.01.11.053.11.04-.028-.197.077-.287.193-.37.116-.083.247-.158.252-.321.007-.158.141-.225.252-.31.108-.086.194-.192.093-.411-.003-.007.036.008.056.015.385.116.162-.163.225-.25.155-.214.226-.477.369-.699.077-.124.148-.25.216-.379.066-.129.126-.262.186-.394.1-.236.299-.429.343-.692.02-.12.106-.218.116-.352.02-.252.071-.5.272-.674.116-.095.216-.24.13-.477-.096-.259.336-.393.137-.7-.009-.013.105.003.11-.01.048-.134.113-.263.164-.397l.01-.026c.004-.01.005-.01.012-.037a1.132 1.132 0 00.034-.405 1.05 1.05 0 00-.187-.513 2.72 2.72 0 00-.313-.386 1.222 1.222 0 00-.434-.29.874.874 0 00-.54-.037.64.64 0 00-.236.116c-.015.012-.037.029-.046.04l-.011.035a.455.455 0 00-.02.08c-.004.017-.055-.072-.07-.075-.305-.043-.43.355-.783.199-.007-.004.005.044.003.056-.076.442-.64-.18-.6.508.001.02-.051-.054-.075-.073-.458-.367-.322.577-.825.12-.016-.014.003.066.002.093-.033.51-.385.416-.649.427-.286.015-.223.68-.748.292-.18-.13-.177.214-.28.241-.261.074-.556.114-.692.395-.136.275-.653-.063-.583.527.002.017-.068-.065-.087-.07-.364-.088-.275.538-.755.276-.022-.012.056.151.042.161-.212.158-.43.306-.646.46-.01.006-.09-.082-.092-.069-.05.39-.504.216-.61.519-.103.29-.593.081-.543.564.001.009-.031-.018-.048-.032-.322-.235-.202.095-.29.155-.212.146-.365.365-.574.517a6.078 6.078 0 00-.645.557c-.182.172-.429.276-.575.492-.066.098-.182.153-.243.268-.12.216-.225.43-.482.492l1.045 1.062c.104-.2.46-.185.43-.542z" fill="#043C3A"/><path d="M33.476 77.943V61.06l5.58-.876 9.274-.56-3.596-13.547-5.678-12.706 11.261 5.7 4.92 3.456L66.5 49.814l7.855.747h11.64l-9.18 10.5-5.867 7.811-6.908 5.98-25.551-.561-5.012 3.652z" fill="#87D8C8"/><path d="M77.639 50.631l.167-1.093-.95.09a.346.346 0 01-.056.002c-.769-.016-1.538.052-2.307.039a67.29 67.29 0 00-2.553.005c-.376.007-.752-.014-1.128-.03l-.282-.008-.273-.005c-.115 0-.23-.013-.348-.032-.22-.037-.403-.182-.592-.325a1.124 1.124 0 01-.243-.248 1.16 1.16 0 01-.138-.267l-.05-.126a5.318 5.318 0 01-.29-1.015c-.07-.425-.1-.704-.286-.869a5.958 5.958 0 01-.208-.357c-.316-.597-.294-1.37-.8-1.926-.022-.024.07-.105.058-.141-.267-.787-.478-1.597-.835-2.347-.332-.697-.262-1.552-.9-2.127-.024-.022.056-.1.05-.14a2.53 2.53 0 00-.072-.303l-.085-.28-.347-.184c-.61-.327-1.334-.422-1.858-.93-.012-.013-.05.023-.073.023-.828.032-1.211-1.015-2.145-.734-.026.008-.038-.095-.063-.136-.485-.803-1.626-.317-2.065-1.213-.014-.027-.094.024-.142.03-.87.088-1.532-.48-2.13-.875-.651-.43-1.619-.194-2.131-1.076-.087-.15-.272-.207-.47-.246l-.074-.014-.02-.003-.008-.002-.049-.017a1.022 1.022 0 00-1.37.908c-.004.13.014.258.052.365l.047.126c.254.752.475 1.544.936 2.192.463.65.26 1.586 1.048 2.07.024.016-.056.101-.053.144.056.773.815 1.268.774 2.084h-.14c-.037 0-.08-.119-.108-.109-.795.291-1.596-.114-2.387.065-.77.173-1.55-.286-2.314.122-.013.007-.037-.034-.054-.054-.325-.383-.652-.05-.97-.056-.769-.015-1.538.053-2.307.039-.85-.017-1.702-.01-2.553.005-.255.005-.51-.003-.764-.014l-1.022-.04.28 1.045c.13.481.25.964.44 1.43.13.323.202.677.352 1.024.279.648.544 1.346.619 2.032.04.382.143.867.462 1.368.36.563.216 1.384.691 1.967.02.024-.076.1-.066.138.223.8.388 1.622.702 2.39.293.715.174 1.565.781 2.175.022.022-.061.097-.056.138.087.789.616 1.447.602 2.267l-.063.003a1.002 1.002 0 00-.558.253c-.02.017-.073-.071-.114-.098-.775-.527-1.609.389-2.383-.242-.024-.019-.075.061-.116.085-.755.442-1.592.203-2.3.092-.77-.12-1.553.496-2.386-.092-.285-.2-.771.1-1.077.075-.791-.063-1.608-.173-2.385-.005-.78.168-1.562-.386-2.317.146-.012.015-.094-.088-.165-.099-.332-.049-.688.062-.967.26a1.765 1.765 0 00-.604.807c-.06.156-.1.32-.124.48-.025.157-.024.354-.034.424-.019.196-.073.39-.194.582-.022.035.157.107.159.163.015.789.016 1.578.015 2.368 0 .038-.12.08-.11.11.292.793-.113 1.594.066 2.385.173.77-.286 1.548.122 2.312.007.013-.034.037-.054.054-.383.325-.05.651-.056.97-.016.768.052 1.536.039 2.305-.017.85-.01 1.702.005 2.552.013.753-.082 1.503-.02 2.26.028.348-.01.707.032 1.081.075.7.154 1.379.022 2.056a1.184 1.184 0 00.788 1.075 1.151 1.151 0 001.077-.16c.123-.1.127-.106.168-.14.28-.238.547-.495.699-.84.013-.029.124.022.151-.003.611-.565 1.266-1.087 1.805-1.718.502-.586 1.312-.87 1.579-1.688.01-.03.114.01.148-.012.674-.445 1.017-1.238 1.78-1.591.015-.007-.004-.055.003-.077.265-.785 1.381-.768 1.453-1.74.001-.028.102 0 .15-.01.921-.166.875-1.404 1.869-1.496.03-.003.01-.097.024-.142.228-.845.993-1.26 1.577-1.677.634-.454.758-1.442 1.767-1.607.342-.056.48-.61.716-.807.61-.509 1.268-1.003 1.705-1.668.407-.619 1.257-.794 1.506-1.55l.117-.149c.003-.06.003-.12 0-.183-.002-.028.114-.012.148-.041.63-.522.553-1.502 1.366-1.908.038-.018-.078-.173-.051-.223.396-.681.805-1.358 1.216-2.031.02-.033.143-.007.15-.038.163-.83.925-1.304 1.184-2.072.252-.748 1.05-1.177 1.096-2.04 0-.016.047-.014.076-.02.495-.08.381-.53.551-.798.412-.65.754-1.342 1.166-1.992.456-.719.891-1.448 1.322-2.183.19-.324.401-.636.61-.948a15.117 15.117 0 00.322-.507c.393.508.772 1.06.997 1.639.14.359.362.8.8 1.202.493.45.57 1.28 1.178 1.722.026.02-.047.118-.029.15.424.716.795 1.466 1.298 2.127.468.614.573 1.466 1.317 1.9.027.016-.034.108-.019.147.293.752.995 1.257 1.18 2.075.003.015.054.008.074.018.711.425.46 1.513 1.395 1.787.025.007-.02.099-.022.148-.03.937 1.189 1.153 1.068 2.142-.003.031.092.031.135.053.777.401 1.02 1.238 1.306 1.894.31.716 1.249 1.048 1.198 2.064l-.06 1.167 1.659-1.423.002-.002c.263-.226.09-.77.188-1.063.254-.751.558-1.516.584-2.31.025-.796.754-1.42.42-2.284-.01-.025.106-.046.13-.081.447-.686.081-1.599.74-2.228.03-.029-.126-.143-.115-.197.177-.769.366-1.535.56-2.3.009-.036.135-.048.131-.08-.09-.84.497-1.519.517-2.33.019-.789.654-1.433.443-2.273-.004-.014.042-.027.066-.04.408-.207.218-.57.262-.868zm-29.961 7.026v-.004l.006-.002a.098.098 0 01.034.002c.014.004.02.014.009.017a.048.048 0 01-.04-.007c-.003 0-.006-.003-.01-.006zm5.627-22.367l-.014-.007s.004 0 .004.002l.008.003c.046.015.092.029.138.046-.027-.005-.056-.01-.08-.019-.018-.008-.037-.015-.056-.025z" fill="#043C3A"/><path d="M37.491 75.15c.01-.013.026.101.04.103.294.024.588.11.88.04.273-.067.547.297.817-.1.01-.015.026.087.04.096.282.154.564-.17.845.112.005.005.012-.043.02-.053.262-.374.54.42.798-.224.007-.017.025.071.04.098.275.528.57-.389.843.242.008.019.027-.061.04-.085.268-.442.564-.203.814-.092.272.12.55-.497.844.092.1.2.272-.1.38-.075.28.063.569.173.844.005.276-.168.553.386.82-.146.009-.015.026.09.04.105.274.267.556-.308.828.177.012.022.038-.156.058-.158.279-.015.558-.017.837-.015.014 0 .029.119.039.108.28-.29.565.114.844-.064.272-.174.548.285.818-.123.005-.006.014.035.019.055.115.382.23.05.343.056.273.015.545-.053.817-.04.301.018.602.011.903-.004.266-.014.531.081.8.018.122-.028.25.009.383-.032.248-.075.512-.119.752.012.132.073.307.12.51-.034.228-.175.49.204.737-.075.01-.012.025.102.039.104.294.024.588.11.88.04.273-.067.547.297.817-.1.01-.015.026.087.041.096.281.154.563-.17.844.112.005.005.012-.043.02-.053.263-.374.54.42.798-.224.007-.017.026.071.041.098.274.528.57-.389.842.242.009.019.027-.061.041-.085.267-.442.563-.203.813-.092.273.12.55-.497.844.092.1.2.272-.1.381-.075.28.063.568.173.844.005.275-.168.553.386.82-.146.008-.015.025.09.039.105.274.267.556-.308.829.177.011.022.037-.156.057-.158.28-.015.558-.017.837-.015.014 0 .03.119.04.108.22-.229.444-.027.666-.016l.324.013.289-.267a.285.285 0 00.092-.158c.07-.314.59-.185.491-.665-.001-.008.034.015.053.026.352.188.197-.128.282-.203.203-.181.347-.421.55-.603.224-.2.432-.419.634-.641.18-.197.434-.318.579-.551.066-.107.182-.172.248-.293.123-.227.278-.447.541-.522.165-.047.283-.064.254-.204.013-.044.027-.095.052-.15.106-.23.492-.203.468-.576-.002-.015.092.055.102.046.225-.19.495-.336.652-.595.145-.24.597-.175.508-.646-.003-.017.08.043.096.04.308-.09.277-.52.675-.518.009 0-.02-.039-.024-.05-.08-.45.68-.086.405-.723-.007-.017.068.032.099.04.566.18.127-.676.767-.424.019.006-.024-.063-.03-.09-.118-.473.212-.536.464-.623l.099-.12c.013-.01.027-.018.04-.026.25-.162-.114-.731.541-.655.223.028.067-.282.147-.358.207-.2.457-.38.468-.7.01-.324.627-.25.328-.766-.009-.015.09.029.109.025.374-.081.05-.632.604-.593.025.002-.11-.119-.1-.136.14-.241.292-.476.447-.707.007-.01.115.042.112.027-.089-.395.405-.408.41-.74.005-.323.54-.3.347-.751-.003-.009.036.008.056.013.383.114.169-.164.235-.255.162-.219.255-.482.417-.702.178-.241.338-.496.493-.756.136-.23.36-.4.456-.657.044-.119.145-.204.184-.336.075-.249.182-.494.423-.621.135-.071.27-.19.252-.446-.02-.285.44-.297.344-.656-.004-.015.1.034.109.024.182-.231.416-.43.517-.714.093-.264.55-.292.367-.736-.007-.017.087.025.102.018.283-.15.169-.564.558-.642.009-.002-.029-.034-.032-.046-.169-.423.646-.22.252-.79-.01-.014.073.018.103.021.593.061-.011-.688.667-.57.02.004-.035-.055-.049-.08-.223-.467.141-.582.37-.73.251-.162-.111-.733.542-.655.223.027.066-.282.146-.359.208-.199.458-.379.468-.7.003-.123.097-.189.192-.25l.91-.592-1.607-.702c-.17-.075-.339-.161-.506.168-.008.016-.025-.09-.039-.105-.273-.267-.556.308-.828-.177-.012-.022-.038.157-.058.158-.279.015-.558.017-.837.015-.014 0-.029-.119-.04-.108-.28.29-.564-.114-.843.064-.272.174-.548-.285-.818.123-.005.006-.014-.034-.019-.055-.116-.382-.23-.049-.342-.056-.272-.015-.544.053-.816.04a8.427 8.427 0 00-.904.004c-.267.014-.532-.081-.8-.018-.122.029-.25-.009-.382.032-.248.075-.488.119-.728-.012v1.49c.236-.089.515.204.762-.075.01-.012.026.102.04.103.293.024.588.111.88.04.272-.067.546.297.817-.1.01-.014.025.088.04.096.281.155.564-.17.844.112.006.005.012-.042.021-.052.262-.374.54.42.798-.225.007-.017.025.072.04.099.275.527.57-.39.843.241.008.019.027-.06.04-.085.268-.442.564-.202.814-.092.272.121.55-.496.843.092.1.2.273-.1.382-.075.263.06.534.16.796.031l-.701-1.3-.005.054c-.01.323-.628.248-.329.765.009.015-.09-.029-.108-.026-.375.082-.05.633-.604.594-.026-.002.11.119.1.136a13.78 13.78 0 01-.447.707c-.007.01-.116-.042-.113-.027.089.394-.405.408-.41.74-.005.322-.54.3-.347.75.004.008-.035-.01-.056-.014-.383-.114-.168.165-.235.255-.161.22-.255.483-.416.702a8.985 8.985 0 00-.494.757c-.136.23-.36.4-.456.656-.044.119-.144.204-.183.337-.075.248-.182.493-.424.62-.134.072-.27.19-.252.446.02.285-.44.297-.343.656.003.015-.1-.034-.11-.024-.181.231-.416.43-.516.714-.094.264-.55.293-.368.736.007.017-.087-.025-.102-.018-.282.15-.168.564-.558.642-.007.002.029.034.032.046.169.424-.646.22-.251.79.01.014-.074-.018-.104-.021-.592-.061.012.688-.667.57-.02-.004.036.056.05.081.222.466-.142.582-.372.73-.25.16.113.732-.54.654-.223-.027-.067.282-.147.359-.207.199-.457.379-.468.7-.01.323-.627.248-.328.765.008.016-.09-.029-.109-.025-.374.082-.05.632-.604.593-.025-.001.11.12.1.136-.107.184-.219.362-.336.54l.098-.121-.144.142c-.009.009-.104-.064-.104-.049.007.405-.48.318-.551.643-.07.314-.59.185-.492.665.002.008-.034-.016-.053-.026-.352-.189-.197.128-.282.202-.202.182-.347.422-.55.604-.224.2-.432.418-.634.641-.179.197-.434.318-.578.55-.067.108-.182.173-.249.293-.122.228-.277.448-.54.522-.166.048-.283.065-.254.204-.014.044-.028.096-.053.152-.105.23-.492.202-.468.574.002.016-.092-.054-.102-.046-.224.19-.495.337-.651.596-.145.24-.597.175-.51.646.004.017-.079-.043-.094-.04-.308.089-.278.52-.676.517-.008 0 .02.04.024.051.08.45-.679.085-.405.723.007.017-.068-.032-.099-.04-.5-.159-.215.49-.583.47l.57-.236a.595.595 0 01-.097-.163c-.008-.02-.027.06-.04.085-.268.442-.564.202-.814.091-.272-.12-.55.497-.844-.091-.1-.201-.272.1-.38.074-.28-.063-.57-.173-.845-.005-.275.169-.553-.386-.82.147-.008.015-.025-.09-.039-.106-.274-.267-.556.308-.828-.177-.012-.022-.038.157-.058.158-.28.016-.558.017-.837.016-.014 0-.029-.12-.04-.11-.28.292-.564-.113-.843.066-.272.173-.548-.286-.818.122-.005.007-.014-.034-.019-.055-.116-.382-.23-.049-.342-.056-.272-.015-.544.053-.816.04a8.427 8.427 0 00-.904.005c-.267.013-.532-.082-.8-.02-.122.028-.25-.01-.382.031-.248.075-.512.12-.752-.011-.133-.073-.308-.121-.51.034-.228.175-.49-.204-.739.075-.01.011-.025-.102-.039-.104-.294-.024-.588-.11-.881-.04-.272.067-.546-.297-.817.1-.01.015-.025-.087-.04-.096-.281-.155-.564.17-.844-.112-.005-.005-.012.042-.02.052-.263.375-.54-.42-.799.225-.006.017-.025-.071-.04-.099-.274-.527-.57.39-.843-.241-.008-.019-.027.061-.04.085-.267.442-.563.202-.813.092-.273-.121-.55.496-.844-.092-.1-.2-.272.1-.381.075-.28-.063-.568-.174-.844-.005-.276.168-.553-.386-.82.146-.009.015-.026-.09-.04-.106-.273-.267-.556.308-.828-.176-.012-.023-.037.156-.057.158-.28.015-.558.017-.837.015-.014 0-.03-.119-.04-.109-.28.291-.565-.114-.843.065-.273.173-.548-.286-.819.122-.005.007-.013-.034-.018-.054-.116-.383-.23-.05-.344-.056-.272-.016-.544.052-.817.039a8.429 8.429 0 00-.903.005c-.267.013-.533-.082-.8-.02-.122.028-.25-.009-.382.032-.249.075-.489.155-.728.022v1.49c.241-.086.518.171.765-.108z" fill="#043C3A"/><path d="M64.309 73.43c-.007.007-.019-.117-.027-.126-.186-.185-.37-.432-.553-.518-.174-.082-.334-.596-.516-.346-.007.009-.013-.102-.022-.117-.168-.306-.362-.136-.52-.57-.004-.008-.01.036-.016.043-.192.231-.3-.71-.517-.21-.007.014-.01-.084-.017-.118-.117-.673-.4.078-.5-.697-.003-.024-.024.046-.036.063-.22.294-.38-.106-.519-.349-.148-.265-.427.194-.512-.547-.025-.252-.187-.05-.251-.133-.164-.213-.319-.474-.526-.459-.213.015-.252-.673-.548-.3-.008.01.007-.101.002-.122-.1-.404-.43-.001-.47-.615-.001-.03-.066.13-.08.12a10.192 10.192 0 01-.529-.435c-.008-.007.019-.129.009-.124-.267.126-.315-.41-.546-.39-.232.016-.242-.562-.557-.324-.005.003.004-.04.009-.061.066-.418-.126-.168-.194-.235-.165-.158-.36-.241-.526-.4a6.203 6.203 0 00-.568-.477c-.173-.131-.298-.357-.493-.444-.09-.04-.153-.141-.255-.175-.19-.066-.381-.168-.466-.412-.048-.135-.133-.268-.34-.24-.232.028-.203-.436-.503-.33-.013.006.038-.101.03-.108-.174-.177-.312-.406-.535-.502-.21-.09-.175-.535-.572-.351-.015.006.035-.085.03-.1-.087-.274-.456-.162-.467-.538 0-.007-.032.027-.044.032-.391.16-.083-.617-.641-.245-.016.01.027-.07.035-.098.155-.558-.605 0-.38-.634.006-.02-.057.034-.08.044a.557.557 0 01-.24.06l.21.737c-.08-.22.138-.348.273-.48.187-.181-.325-.598.313-.65.217-.017-.022-.25.03-.33.135-.206.317-.403.23-.679-.087-.275.515-.323.08-.707-.014-.012.093.009.11.002.327-.136-.144-.544.39-.612.024-.004-.14-.08-.134-.097l.034-.124-1.01.49c.185.057.368.123.549.191.01.004-.019.121-.007.114.323-.192.412.27.696.186.277-.084.34.428.696.122.006-.005-.002.036-.004.058-.039.393.167.114.255.151.213.094.453.109.665.2.235.103.477.184.723.26.218.064.397.23.632.25.108.008.197.08.316.08.223.002.45.037.595.23.09.121.143.216.245.128.04-.009.086-.02.14-.024.22-.014.321.335.614.145.012-.009-.014.103-.003.108.226.11.432.276.69.293.24.017.334.438.686.144.014-.01-.009.09 0 .102.17.227.508.004.634.35.002.007.024-.035.035-.044.336-.275.287.551.714.02.012-.014-.004.074-.002.105.04.574.587-.201.59.472 0 .02.043-.05.063-.068.365-.338.52-.025.681.15.177.192.609-.308.641.331.012.218.252-.013.33.041.201.141.395.328.672.25.278-.078.308.524.705.1.011-.011-.012.092-.006.111.126.331.55-.128.601.406.002.026.085-.136.1-.132.228.066.453.146.674.23.01.003-.019.12-.007.113.324-.192.412.27.696.185.277-.083.34.429.696.123.007-.005-.002.036-.004.058-.039.392.167.114.256.151.212.093.452.109.665.2.235.103.476.184.723.26.218.064.396.23.63.249.11.008.198.08.317.082.223.001.45.035.596.23.081.108.204.203.42.115.242-.099.322.335.614.144.012-.008-.014.104-.003.11.226.108.432.275.69.292.24.017.334.438.686.144.014-.012-.008.09 0 .102.077.102.189.112.298.126l-.295-1.331c-.066.11-.136.219-.33.195-.007 0 .022.038.026.05.104.424-.587-.006-.305.623.007.017-.06-.039-.088-.05-.252-.121-.265.032-.293.18-.025.146-.064.285-.338.115-.017-.01.024.063.03.09.123.502-.199.487-.403.54-.22.056-.034.729-.526.407-.165-.11-.098.24-.173.283-.192.107-.403.177-.475.483-.078.309-.484-.026-.393.605.002.019-.054-.066-.068-.072-.265-.085-.185.604-.534.32-.015-.014.041.167.03.179a10.1 10.1 0 01-.462.503c-.007.007-.058-.095-.06-.08-.057.439-.348.223-.447.554-.104.327-.381.046-.424.6 0 .01-.017-.025-.025-.042-.16-.303-.14.087-.204.148-.155.146-.291.372-.448.52a6.728 6.728 0 00-.503.54c-.148.173-.308.236-.45.458-.067.102-.142.141-.212.26-.133.223-.269.412-.41.422l.067 1.488c.144-.23.343-.106.48-.534.004-.019.025.087.033.08.19-.153.39-.245.57-.495.162-.231.402-.037.509-.592.003-.02.032.07.042.07.211-.019.327-.51.569-.405.005.002-.002-.049.001-.063.043-.261.152-.241.257-.255.104-.013.204-.06.2-.448 0-.022.037.052.054.07.16.17.228-.013.294-.181.068-.168.133-.321.321-.107.012.013-.001-.075 0-.107.03-.583.291-.536.495-.589.227-.059.155-.795.58-.436.149.12.137-.26.215-.305.206-.115.446-.2.544-.52.092-.316.55-.01.451-.636-.003-.019.063.063.078.066.319.056.188-.605.626-.369.02.01-.063-.154-.05-.168.17-.187.345-.364.523-.537.009-.009.089.078.09.063.002-.408.43-.266.499-.582.06-.3.536-.129.437-.605-.002-.009.03.017.05.029.328.21.18-.109.253-.174.158-.139.272-.323.418-.474l.844-.874-1.123-.386a1.24 1.24 0 01-.085-.032 6.64 6.64 0 00-.723-.259c-.216-.064-.396-.23-.63-.25-.11-.008-.198-.08-.317-.081-.223-.002-.45-.036-.596-.23-.081-.109-.204-.204-.42-.115-.241.098-.321-.335-.614-.145-.012.009.014-.104.004-.109-.227-.109-.433-.275-.691-.292-.24-.017-.334-.439-.686-.145-.013.012.009-.09 0-.102-.172-.226-.508-.003-.634-.35-.002-.007-.024.036-.034.044-.337.276-.288-.55-.715-.02-.012.015.004-.073.002-.104-.04-.575-.587.2-.59-.473 0-.02-.043.05-.063.069-.364.338-.52.025-.68-.15-.178-.192-.61.308-.642-.332-.012-.217-.252.014-.33-.04-.201-.142-.395-.329-.672-.25-.277.078-.308-.524-.704-.1-.012.011.011-.092.005-.111-.126-.332-.55.127-.6-.407-.003-.023-.086.136-.101.133a9.238 9.238 0 01-.674-.23c-.01-.003.019-.12.007-.113-.323.192-.412-.27-.696-.186-.277.084-.34-.428-.696-.122-.007.005.002-.036.004-.058.039-.393-.167-.114-.255-.151-.213-.094-.453-.11-.666-.2a6.633 6.633 0 00-.723-.26c-.217-.064-.396-.23-.63-.25-.11-.008-.198-.08-.317-.08-.223-.003-.45-.037-.596-.23-.09-.121-.143-.216-.246-.128-.04.008-.085.02-.14.024-.22.013-.321-.335-.614-.145-.012.009.014-.103.003-.108-.226-.11-.432-.276-.69-.293-.24-.017-.334-.439-.686-.145-.013.012.009-.09 0-.102-.17-.226-.509-.003-.634-.35-.002-.006-.024.036-.034.045-.337.275-.288-.551-.715-.02-.012.014.004-.074.002-.105-.04-.574-.587.201-.59-.472 0-.02-.043.049-.062.068-.364.338-.519.025-.68-.15-.094-.102-.259-.01-.398.005l-.881.09.042.316c.017.125-.029.228-.33.254-.218.017.022.25-.03.33-.135.205-.317.403-.23.678.086.276-.516.323-.08.707.013.012-.094-.008-.11-.001-.328.136.144.544-.39.612-.024.003.14.08.134.097-.06.23-.133.455-.21.68-.003.01-.12-.015-.113-.004.083.133.053.227-.004.313l-.173.259.415.593c.085.123.136.288.311.3.29.016.193.531.625.36.006-.004-.012.034-.02.054-.156.368.125.169.195.237.175.164.398.261.571.425.193.182.4.345.61.5.185.137.312.365.527.462.099.044.165.146.274.187.206.075.405.182.5.43.053.138.148.277.36.255.237-.027.235.454.531.344.012-.005-.03.105-.022.114.187.185.349.426.578.525.211.09.247.576.594.364.014-.009-.018.093-.012.109.13.297.448.156.53.57.001.01.025-.031.034-.037.314-.202.214.69.622.233.012-.011-.008.08-.008.114.005.648.515-.05.49.696 0 .022.037-.043.056-.058.323-.27.442.119.581.362.154.267.51-.175.548.556.016.248.213.055.28.138.173.216.345.481.57.47.222-.015.297.683.586.307.009-.012-.002.102.005.124.136.413.43.002.53.629.006.029.054-.134.067-.124.192.138.381.289.57.444.009.007.004.134.012.129.228-.134.37.422.582.4.2-.024.347.584.565.324.003-.005.006.041.008.067.048.443.153.175.228.243.184.163.373.243.555.406.202.18.406.338.61.488.18.133.36.37.541.456.084.039.17.144.259.176.167.062.323.111.49.375l-.066-1.488c-.152-.048-.332-.457-.48-.313zM43.898 41.417c-.01.003.047-.102.046-.11-.07-.19-.102-.432-.226-.541-.116-.104.022-.556-.288-.39-.012.007.044-.084.044-.1.016-.284-.262-.189-.168-.573.002-.007-.03.026-.038.03-.307.144.114-.633-.365-.283-.014.01.037-.07.05-.099.264-.56-.414-.032-.078-.666.01-.019-.047.03-.068.04-.367.18-.296-.173-.289-.395.009-.242-.502.042-.173-.548.114-.199-.147-.083-.16-.163-.034-.204-.034-.442-.235-.483-.204-.044.133-.571-.342-.37-.014.004.061-.076.068-.093.126-.328-.395-.119-.099-.584.014-.023-.132.078-.139.068a4.886 4.886 0 01-.25-.468c-.004-.007.087-.088.075-.088-.312.017-.07-.388-.291-.44-.22-.057.078-.475-.335-.395-.007.001.023-.027.039-.043.284-.28-.024-.158-.053-.226-.066-.161-.2-.28-.267-.442a3.458 3.458 0 00-.265-.51c-.089-.145-.084-.342-.215-.464-.061-.056-.064-.147-.14-.203a.659.659 0 01-.173-.183.317.317 0 01-.025-.055.14.14 0 01-.009-.029l-.002-.011.016.02c.037.054.08.14.102.235a.387.387 0 01-.082.345.357.357 0 01-.408.086 1.638 1.638 0 00-.216-.084c-.051-.024-.014.003-.005.02l.039.056c.053.073.114.138.255.056.012-.007-.036.099-.029.104.158.117.286.289.49.321.19.03.169.439.52.18.014-.01-.027.085-.023.097.087.226.41.036.432.373 0 .007.029-.033.037-.04.335-.24.106.541.572.065.014-.013-.02.07-.025.099-.1.549.52-.153.367.484-.005.02.046-.044.066-.06.371-.3.426.006.516.184.098.194.561-.253.442.356-.04.207.206.002.257.06.13.146.243.334.485.278.241-.058.13.517.546.14.012-.012-.03.086-.03.103.026.322.474-.086.392.424-.003.023.099-.124.11-.12.17.079.332.167.492.26.007.006-.042.113-.03.108.304-.162.27.282.519.22.241-.062.175.428.532.16.007-.006-.008.033-.015.053-.12.371.109.118.17.16.15.102.34.131.49.232.165.112.343.204.524.289.16.074.267.244.452.277.085.015.142.088.237.097.18.017.355.063.429.255.046.12.066.214.168.136.034-.005.073-.016.117-.014.18.002.182.338.463.175.012-.007-.036.099-.029.104.158.117.286.289.49.321.19.03.169.439.52.18.014-.01-.027.085-.023.097.087.227.41.036.432.373 0 .007.029-.032.037-.04.335-.24.106.541.572.065.014-.013-.02.07-.026.099-.1.55.521-.153.368.485-.005.018.046-.045.066-.062.373-.299.426.007.516.186.098.193.561-.254.442.355-.04.207.206.002.257.06.13.146.243.334.485.278.241-.057.129.517.546.14.012-.012-.03.087-.03.104.026.32.474-.087.392.423-.003.024.099-.124.11-.12.17.079.332.167.492.26.007.006-.042.113-.03.108.304-.162.27.282.519.22.241-.062.175.428.532.16.007-.006-.008.033-.015.054-.121.37.109.117.17.16.15.102.34.13.49.23l.093.062.38-1.447c-.158-.007-.315 0-.473.012-.172.014-.339-.082-.512-.019-.08.03-.16-.008-.247.032-.163.075-.338.121-.481-.011-.08-.073-.187-.121-.332.035-.163.175-.294-.202-.482.077-.008.012-.005-.102-.013-.104-.187-.024-.364-.109-.56-.036-.185.067-.304-.292-.539.1-.008.016-.003-.086-.012-.093-.153-.151-.391.17-.52-.107-.002-.005-.016.043-.023.053-.24.369-.262-.408-.556.222-.008.018-.002-.07-.005-.096-.063-.514-.453.382-.487-.232-.001-.018-.03.06-.045.084-.274.431-.412.199-.543.093-.141-.114-.488.481-.516-.083-.008-.192-.2.097-.265.075-.162-.06-.311-.16-.54.001-.23.162-.226-.36-.574.145-.01.015.013-.085.01-.099-.083-.248-.465.293-.468-.158 0-.02-.08.148-.093.148-.186.017-.366.02-.545.02-.008 0 .027-.11.017-.1-.293.27-.316-.098-.566.068-.247.16-.232-.255-.579.12-.007.006.007-.031.01-.05.09-.345-.125-.043-.197-.048-.168-.01-.374.053-.543.043a3.978 3.978 0 00-.583.013c-.179.014-.303-.066-.505-.008-.094.025-.157-.005-.262.03-.198.067-.378.108-.463-.003l-.777 1.27c.205-.073.246.182.556-.056.013-.01-.034.089-.026.09.187.024.347.104.582.043.216-.056.235.27.602-.078.014-.014-.022.078-.017.085.123.14.461-.148.528.108.001.005.027-.037.037-.047.34-.335.19.386.642-.196.011-.015-.013.065-.014.09-.03.483.546-.35.478.23-.002.017.042-.056.063-.078.357-.405.46-.182.592-.077.144.116.553-.459.544.094-.002.188.221-.09.288-.067.17.062.333.169.576.01.24-.158.262.373.606-.134.01-.015-.01.087-.003.1.11.259.466-.292.519.176.003.022.07-.152.083-.152a6.6 6.6 0 01.578-.01c.009 0-.01.116 0 .105.262-.28.36.114.596-.057.222-.169.318.282.585-.118.005-.006.002.034.002.055.003.376.148.05.224.056.184.015.383-.051.567-.034.204.017.411.012.619-.002.184-.012.354.082.544.022.089-.027.17.009.266-.03.178-.073.36-.12.513.013.085.073.203.121.353-.034.166-.173.323.204.506-.073.009-.012.012.102.023.104.199.025.4.112.602.039.185-.066.372.3.56-.099.006-.015.017.087.027.096a.2.2 0 00.073.037l2.698.714-2.29-2.268c-.12-.119-.369-.01-.39-.304 0-.007-.028.032-.037.039-.335.241-.105-.54-.571-.065-.014.014.02-.07.025-.099.1-.549-.52.153-.367-.484.005-.019-.046.044-.067.061-.37.3-.425-.007-.515-.185-.099-.194-.562.253-.443-.355.041-.208-.205-.002-.256-.06-.131-.146-.244-.335-.485-.279-.242.058-.13-.517-.546-.14-.012.013.03-.086.029-.103-.026-.321-.473.087-.392-.423.004-.024-.098.124-.11.119a5.896 5.896 0 01-.492-.26c-.007-.006.043-.113.03-.108-.304.162-.27-.282-.518-.219-.242.061-.175-.428-.533-.16-.006.005.009-.034.016-.054.12-.37-.11-.117-.17-.16-.15-.102-.34-.13-.49-.231a3.917 3.917 0 00-.524-.29c-.16-.074-.267-.244-.453-.276-.085-.016-.141-.089-.236-.097-.18-.017-.356-.063-.429-.255-.046-.121-.066-.215-.17-.136-.034.005-.073.015-.117.013-.18-.002-.183-.338-.463-.175-.012.007.036-.099.029-.104-.158-.117-.286-.289-.49-.321-.19-.03-.169-.439-.52-.18-.014.01.026-.085.023-.097-.087-.226-.41-.036-.432-.373 0-.006-.029.033-.038.04-.335.241-.105-.541-.571-.065-.014.014.02-.07.025-.099.1-.549-.52.153-.367-.484.005-.019-.046.044-.066.061-.373.3-.426-.007-.516-.185-.099-.194-.561.253-.442-.356.04-.207-.206-.001-.257-.06-.131-.145-.243-.334-.485-.278-.241.058-.13-.517-.546-.14-.012.013.03-.086.029-.103-.026-.322-.473.087-.391-.423.003-.024-.099.124-.11.118a5.896 5.896 0 01-.492-.26c-.007-.005.042-.112.03-.107-.304.162-.27-.282-.519-.22-.241.062-.175-.428-.532-.159-.007.005.008-.034.015-.054.12-.371-.109-.118-.17-.16-.15-.102-.34-.131-.49-.231a3.933 3.933 0 00-.524-.29c-.16-.074-.267-.244-.453-.277-.085-.015-.14-.088-.236-.097a.721.721 0 01-.253-.06.573.573 0 01-.055-.033c-.005-.003-.005-.005-.017-.012l-.05-.029a1.211 1.211 0 00-.597-.148.819.819 0 00-.588.255.796.796 0 00-.189.337.752.752 0 00.007.425c.024.08.051.15.078.221l.075.174c.014.039.012.088.016.134.005.093.023.183.185.194.014 0-.082.064-.08.073.07.19.088.415.243.56.143.13-.083.489.342.448.015-.002-.066.061-.068.075-.042.255.322.253.174.578-.004.007.039-.015.05-.017.394-.05-.175.568.44.362.017-.005-.05.056-.069.08-.341.474.496.119.072.658-.014.017.058-.02.082-.026.44-.1.338.222.333.444-.005.245.56.02.2.575-.122.19.162.104.178.185.04.213.054.464.267.519.21.052-.102.603.369.4.014-.007-.058.078-.063.096-.102.356.395.121.143.631-.012.024.122-.088.13-.078.1.16.191.328.28.5.003.008-.071.105-.061.103.286-.045.107.429.316.466.2.033-.005.555.342.403.005-.003-.017.034-.029.055-.204.367.044.178.077.251.08.177.209.288.287.465.087.195.189.372.294.542.094.15.126.39.247.5.056.05.077.158.141.204.121.088.239.163.247.42l.777-1.27c-.115-.065-.054-.442-.275-.349zm50.527 16.212l-.072-.128-.007-.003c-.124-.063.106-.372-.29-.25-.016.005.064-.06.068-.07.056-.192-.286-.114-.125-.377.004-.005-.037.018-.049.022-.376.114.207-.439-.39-.17-.017.007.052-.05.072-.072.364-.4-.466.009-.017-.452.014-.013-.058.026-.082.032-.434.152-.311-.095-.284-.251.029-.17-.551.076-.14-.367.14-.152-.15-.046-.16-.1-.018-.14-.003-.31-.212-.319-.21-.007.177-.425-.332-.222-.015.006.068-.062.077-.075.151-.254-.397-.034-.067-.41.016-.017-.139.075-.144.068a2.627 2.627 0 01-.228-.304c-.003-.005.092-.078.08-.077-.311.06-.051-.275-.269-.279-.213-.003.095-.367-.311-.236-.007.002.025-.024.04-.04.286-.258-.018-.113-.042-.159-.058-.11-.184-.173-.242-.282a1.885 1.885 0 00-.234-.335c-.078-.092-.07-.245-.19-.31-.053-.03-.057-.098-.123-.124-.124-.05-.23-.124-.182-.287.027-.092.02-.184-.16-.172-.203.014.042-.299-.25-.233-.012.004.078-.068.075-.073-.055-.124-.06-.282-.194-.35-.124-.065.105-.372-.291-.25-.016.005.064-.06.068-.07.054-.192-.286-.114-.124-.377.003-.005-.038.018-.05.022a.326.326 0 01-.066.014c.008-.06.022-.126.008-.18-.018-.08-.102-.133-.336-.041-.017.006.044-.058.06-.084.14-.248-.025-.282-.16-.289-.144-.014-.253-.007-.183-.335.004-.02-.05.04-.073.055-.208.136-.31.14-.4.088-.087-.053-.163-.163-.255-.236-.099-.08-.242.035-.325.102-.063.066-.127.073-.195-.223-.046-.2-.123.1-.172.075-.126-.063-.257-.174-.383-.005-.124.168-.25-.386-.37.146-.004.015-.013-.09-.018-.105-.124-.267-.252.307-.374-.177-.005-.023-.017.156-.026.158a2.833 2.833 0 01-.38.015c-.004 0-.013-.119-.016-.109-.128.291-.255-.114-.383.065-.122.173-.248-.286-.37.122a.21.21 0 01-.01-.054c-.052-.383-.103-.05-.154-.056-.123-.015-.247.053-.37.039a1.727 1.727 0 00-.407.005c-.121.014-.242-.082-.363-.02-.056.029-.114-.009-.173.032-.113.075-.222.155-.33.022v.728l-4.779 7.362c-.002.002-.003.002-.005.002-.056.028-.114-.009-.174.032-.112.075-.22.119-.33-.012v1.49c.108-.09.233.203.346-.075.005-.012.012.102.017.103.132.024.267.11.4.04.122-.067.248.297.369-.1.005-.014.011.087.018.096.128.155.255-.17.383.112.002.005.005-.042.009-.053.119-.374.245.42.36-.224.004-.017.012.071.019.099.124.527.258-.39.381.241.003.019.012-.061.019-.085.12-.442.255-.202.369-.092.124.121.248-.496.383.092.046.2.122-.1.171-.075.126.063.257.174.383.005.124-.168.25.386.371-.146.004-.015.012.09.017.106.124.267.252-.308.374.176.005.022.017-.156.026-.158.126-.015.253-.017.38-.015.004 0 .013.119.016.109.128-.291.255.114.383-.065.123-.173.248.286.37-.122.003-.007.006.034.01.054.052.383.103.05.154.056.123.016.247-.052.37-.039.135.017.272.01.408-.005.12-.014.241.082.362.02.056-.028.114.009.174-.032.112-.075.23-.119.34.012.061.073.14.12.231-.034.104-.175.223.204.334-.075.005-.012.012.102.017.104.132.024.267.11.4.04.122-.067.248.297.369-.1.005-.015.011.087.018.096.128.154.255-.17.383.112.002.005.005-.043.008-.053.12-.374.245.42.361-.224.004-.017.012.071.019.098.124.527.258-.389.381.242.003.019.012-.061.019-.085.12-.442.255-.203.369-.092.124.12.248-.496.383.092.046.2.122-.1.171-.075.126.063.257.173.383.005.124-.168.25.386.371-.146.003-.016.012.09.017.105.124.267.252-.307.374.177.005.022.017-.156.026-.158.126-.015.253-.017.38-.015.004 0 .013.119.016.109.128-.291.255.113.383-.065.122-.174.248.285.37-.123.002-.006.006.034.01.055.052.382.103.05.154.056.123.015.247-.053.37-.04.135.018.272.011.408-.004.12-.014.241.081.362.02.056-.029.114.009.174-.032.112-.075.23-.12.34.012.068.083.11.154.146.035.019-.022.04-.049.065-.07.007-.004.013-.01.02-.011.009-.003.009-.003.034-.005.04-.002.08-.002.12-.002.084-.002.173-.002.261-.022.174-.034.349-.158.35-.372 0-.017.101.042.115.027.136-.148.248-.334.292-.546a.784.784 0 00-.093-.617zm-4.901-7.068a.032.032 0 01-.012-.02l.011.02z" fill="#043C3A"/></g><defs><clipPath id="clip0_1:829"><path fill="#fff" d="M0 0h95v80H0z"/></clipPath></defs></svg>