<svg width="138" height="80" fill="none" xmlns="http://www.w3.org/2000/svg"><g clip-path="url(#clip0_1:912)"><path d="M34.578 77.758v.017c.018.018.018 0 .018 0 .018 0 0 0-.018-.017v-.124c0-1.225-.07-2.467.018-3.674.018-.426.3-.78 0-1.242-.46-.692.318-1.402.212-1.987-.124-.692-.336-1.278-.194-2.04.194-1.101.07-2.255.035-3.39 0-.266-.3-.639-.195-.781.743-1.1-.336-6.388.16-7.47.035-.09.159-.178.141-.231-.442-1.047-.088-2.112-.106-3.159 0-.089-.053-.177-.106-.248-.425-.746.407-1.42.23-1.988-.213-.71-.301-1.277-.16-2.04.195-1.065.054-2.2.018-3.319 0-.266-.3-.639-.212-.78a1.46 1.46 0 00.265-.852c0-.284-.035-.586-.106-.852a6.453 6.453 0 01-.177-.799c-.035-.266 0-.532.106-.798.036-.089.142-.195.124-.23-.088-.107-.16-.231-.23-.338a1.237 1.237 0 01-.141-.355c-.036-.124-.053-.248-.071-.355l-.053-.372-.036-.373-.053-.373a1.971 1.971 0 00-.23-.71.415.415 0 00-.124-.124c-.3-.266-.353-.585-.336-.94 0-.337.018-.674-.159-.887-.478-.515-1.044-.852-1.044-1.615 0-.177-.018-.32-.088-.426-.071-.106-.195-.177-.372-.213a.735.735 0 01-.16-.089c-.176-.088-.318-.195-.406-.337a1.504 1.504 0 01-.195-.461c-.106-.32-.177-.657-.407-.816-.283-.196-.53-.355-.796-.515a5.183 5.183 0 01-.371-.284 1.787 1.787 0 01-.354-.373c-.672-.834-1.663-1.526-2.69-1.81a1.423 1.423 0 01-.495-.23c-.141-.107-.265-.213-.407-.32l-.371-.319a.907.907 0 00-.425-.177 2.35 2.35 0 00-.495-.054c-.16 0-.319 0-.478-.018-.07-.017-.16-.017-.23-.035a1.64 1.64 0 01-.23-.07 1.257 1.257 0 01-.425-.303c-.035-.053-.088-.142-.124-.124a2.774 2.774 0 01-.76.036 3.273 3.273 0 01-.726-.124c-.248-.054-.477-.107-.725-.16a5.337 5.337 0 00-.743-.107c-.071 0-.16.053-.248.107-.354.213-.655.088-1.009-.036-.336-.124-.654-.301-.92-.213-.336.124-.637.249-.937.337-.16.036-.301.054-.46.054a1.356 1.356 0 01-.496-.124c-.035-.018-.07-.054-.07-.036a4.252 4.252 0 01-.744.284c-.123.035-.247.053-.371.089a2.524 2.524 0 01-.39.07l-.389.054-.389.07c-.124.036-.247.054-.371.107a2.1 2.1 0 00-.354.142c-.124.071-.23.249-.336.266a3.254 3.254 0 00-.743.178 5.91 5.91 0 00-.69.32c-.213.123-.443.265-.655.39a7.975 7.975 0 01-.655.39 9.505 9.505 0 00-.708.444c-.212.16-.442.32-.654.479-.832.639-1.54 1.42-2.283 2.13-.194.194-.371.39-.53.602-.16.213-.319.409-.46.622-.62.87-1.115 1.827-1.593 2.768-.124.213-.849 1.88-1.132 3.673a14.57 14.57 0 00-.23 2.484c-.018.337 0 .675 0 .923v.48c-.018 1.17.106 3.175-.018 4.347-.053.532 0 .993 0 1.508.018 1.207.089 2.413-.017 3.602-.053.515-.018.923.017 1.42.071 1.189.053 2.413 0 3.602-.017.48-.07.905-.017 1.42.106 1.206.053 2.448 0 3.673-.018.443-.283.852.035 1.33.478.71-.372 1.403-.212 1.988.194.71.513 1.33.088 2.023-.035.053-.106.124-.106.16.548 1.029-.053 2.13.177 3.158.16.763-.018 1.331-.177 2.04-.142.586.672 1.279.212 1.988a.718.718 0 00-.088.16.245.245 0 00-.053.071c-.018.053-.018.089 0 .124.035.071.159.124.283.089.124-.018.177-.053.212-.035.036 0 .053.053.106.141.92.071 1.823-.017 2.725.018.602.018 4.459.036 5.06.018 1.097-.053 8.51-.053 9.607 0 .584.035 1.115 0 1.681 0 1.133-.018 2.283-.035 3.397.018.549.017 1.062 0 1.593 0 1.167 0 2.335-.071 3.485.017.53.036.99.018 1.504 0 .601-.017 1.185-.035 1.787-.035.3 0 .601 0 .902.018l.443.017.088-.16c.018 0 0 0 0 0z" fill="#87D8C8"/><path d="M4.02 79.835c.709.48 1.399-.337 1.983-.213.69.16 1.273.355 2.034.177 1.009-.23 2.106.373 3.15-.177.035-.018.106.071.159.106.707.426 1.31.107 2.017-.088.584-.16 1.274.692 1.981.213.478-.32.885-.036 1.327-.036 1.221.036 2.46.107 3.68 0 .496-.035.938 0 1.416.018a34.97 34.97 0 003.591 0c.478-.035.903-.071 1.416-.018 1.185.124 2.389.053 3.592.018.495 0 .955-.071 1.503 0 .584.053 1.363.053 2.159.053.195 0 .39 0 .584-.018a2.19 2.19 0 001.097-.319c.318-.195.566-.48.725-.78.16-.302.248-.622.248-.924v-4.116c0-1.917 0-3.833.018-4.1.07-1.135.017-2.27 0-3.424 0-.55-.036-1.1 0-1.668.088-1.1 0-2.218 0-3.336 0-.586-.018-1.154 0-1.757.053-1.065-.213-2.165.07-3.247.036-.124-.123-.284-.141-.444-.124-1.1.3-2.218-.106-3.318 0-.018.035-.053.053-.071.407-.71.088-1.313-.124-2.023-.177-.586.672-1.242.23-1.988-.053-.088-.106-.177-.106-.248 0-1.065.354-2.13-.089-3.158-.017-.036.071-.107.106-.16.213-.355.213-.675.142-1.03a4.342 4.342 0 00-.142-.514c-.017-.089-.053-.177-.088-.266-.035-.089-.053-.178-.088-.266-.089-.32 0-.675.035-1.047.018-.195.053-.39.035-.586a2.752 2.752 0 00-.123-.621c-.46-1.118-.814-2.325-1.097-3.496-.213-.798-.655-1.277-1.133-1.828a.922.922 0 01-.194-.443c-.036-.16-.071-.337-.124-.532-.089-.373-.23-.728-.637-.923-.053-.036-.106-.089-.177-.089-.372-.07-.495-.284-.566-.674a1.35 1.35 0 00-.567-.905c-.141-.107-.3-.195-.46-.302-.159-.089-.336-.177-.495-.266-.265-.16-.407-.48-.584-.816a1.631 1.631 0 00-.336-.444 1.079 1.079 0 00-.53-.266.402.402 0 01-.195-.053c-.496-.249-.903-.657-1.363-.994-.23-.16-.46-.337-.725-.426a1.95 1.95 0 00-.85-.142c-.035 0-.088-.16-.159-.23a1.502 1.502 0 00-.76-.515c-.142-.053-.301-.089-.443-.124a3.818 3.818 0 00-.46-.071 4.34 4.34 0 01-.46-.071 1.82 1.82 0 01-.442-.107 2.265 2.265 0 01-.425-.195 1.537 1.537 0 01-.389-.302c-.07-.07-.212-.053-.371-.017-.16.035-.337.07-.478.053a32.811 32.811 0 00-.442-.053c-.142-.018-.301-.018-.443-.036l-.442-.035c-.142-.018-.3-.018-.443-.018l-.866-.053a5.918 5.918 0 01-.832-.107c-.195-.035-.371-.053-.53-.07h-.248c-.089 0-.177.017-.266.017-.336.035-.69.106-1.044.266a.86.86 0 01-.478.018c-.159-.036-.336-.089-.53-.124-.177-.036-.372-.09-.566-.071a.965.965 0 00-.549.213c-.07.053-.16.124-.248.16-.265.07-.548.106-.831.159-.283.053-.549.107-.832.16-.265.07-.53.16-.796.284a3.114 3.114 0 00-.708.479c-.035.035-.176-.036-.283-.036-.159 0-.371.053-.619.142s-.53.249-.85.408c-.6.355-1.308.852-1.945 1.402-1.31 1.083-2.371 2.343-3.044 2.538-.177.053-.23.532-.389.763-.725.958-1.274 2.04-1.981 2.98-.124.16-.23.32-.301.498-.071.16-.124.337-.177.497-.018.088-.053.16-.07.248l-.054.266c-.035.178-.053.355-.088.533-.054.301-.319.567-.549.87-.106.159-.212.319-.265.496a.738.738 0 00-.053.284.96.96 0 00.053.301c.106.284.053.497-.018.693-.07.195-.177.39-.23.603a9.43 9.43 0 00-.16.958c-.035.32-.052.657-.088.976-.017.32-.017.657-.017.976 0 .302 0 .621.017.923 0 .479.053.922.018 1.42-.089 1.188-.07 2.395-.018 3.584.018.514.053.976 0 1.508-.088 1.154-.017 2.343-.017 3.496 0 .532.035 1.047 0 1.597-.054 1.136-.018 2.271-.018 3.407 0 .568.035 1.1 0 1.686-.053 1.1-.053 8.535 0 9.635.018.603 0 4.472-.018 5.075v.781l.018.408c0 .23.053.444.106.675.265.869.99 1.561 1.91 1.81.09.017.16.035.249.035h.247v-2.183c-.053-.088-.07-.124-.106-.142-.035-.017-.088.018-.212.036-.124.035-.248-.018-.283-.089a.152.152 0 010-.124c.017-.018.035-.053.053-.071a.72.72 0 01.088-.16c.478-.71-.336-1.402-.212-1.987.16-.692.354-1.278.177-2.04-.23-1.012.371-2.112-.177-3.16-.018-.035.07-.106.106-.16.425-.709.106-1.312-.088-2.022-.16-.586.69-1.278.212-1.987-.319-.48-.053-.888-.035-1.331.035-1.225.106-2.467 0-3.674-.036-.496 0-.94.017-1.42.053-1.188.071-2.413 0-3.601-.035-.48-.07-.905-.017-1.42.123-1.189.053-2.396.017-3.602 0-.497-.07-.958 0-1.508.124-1.154 0-3.16.018-4.348v-1.402c0-.71.088-1.597.23-2.484.283-1.775 1.008-3.443 1.132-3.673.496-.94.973-1.899 1.593-2.768.141-.213.3-.426.46-.622.159-.213.336-.408.53-.603.744-.71 1.451-1.49 2.283-2.13.212-.177.442-.319.654-.478.23-.16.46-.302.708-.444.23-.124.442-.248.655-.39.212-.125.442-.267.655-.39.23-.125.46-.232.69-.32.247-.089.495-.142.743-.178.123-.017.212-.195.336-.266.124-.053.23-.106.354-.142l.371-.106.39-.071.389-.054c.123-.017.247-.035.389-.07.124-.018.248-.054.371-.09.248-.07.496-.159.743-.283.018 0 .054.035.071.035.177.09.336.107.496.125.159.017.3 0 .46-.054.3-.088.601-.213.937-.337.284-.088.602.071.92.213.337.124.637.248 1.009.036.07-.054.16-.107.248-.107.247.018.495.053.743.107.247.053.477.124.725.16.248.053.478.106.726.123.247.018.495.018.76-.035.036 0 .071.089.124.124.142.142.266.249.425.302a.85.85 0 00.23.07c.07.019.16.036.23.036.16.018.318.018.478.018.159 0 .336.018.495.053.142.036.283.09.425.178.123.088.247.195.371.32.124.106.265.23.407.319.142.106.3.177.495.23 1.027.284 2 .976 2.69 1.81.106.142.23.267.354.373.123.106.247.195.371.284.266.16.513.337.796.514.23.16.301.497.407.817.053.16.107.32.195.461.088.142.23.248.407.337.053.018.106.071.16.089a.596.596 0 01.37.213c.071.106.09.248.09.426-.019.763.565 1.1 1.043 1.615.177.212.16.55.16.887-.018.337.035.674.335.94.053.036.089.089.124.124.124.213.195.462.23.71l.053.373.036.373.053.372c.018.124.035.249.07.355.036.124.089.23.142.355.07.107.142.23.23.337.018.036-.088.16-.124.23-.106.267-.141.533-.106.8.035.266.106.532.177.798.07.266.124.568.106.852a1.6 1.6 0 01-.265.851c-.106.142.194.515.212.781.036 1.1.177 2.236-.018 3.319-.141.745-.053 1.33.16 2.04.177.586-.655 1.242-.23 1.988.053.088.106.177.106.248.018 1.047-.336 2.13.106 3.159.018.053-.106.142-.142.23-.513 1.083.584 6.37-.159 7.47-.106.16.177.516.195.782.018 1.135.16 2.289-.036 3.389-.141.763.071 1.349.195 2.04.106.586-.672 1.296-.212 1.988.318.48.035.834 0 1.242-.071 1.225-.018 2.449-.018 3.673v.125l.018.017c0 .018 0 .018-.018 0v-.017h-.124l-.442-.018c-.3-.018-.602-.018-.902-.018-.602 0-1.204.018-1.787.036-.514.017-.974.053-1.504 0-1.15-.09-2.336-.018-3.486-.018-.53 0-1.044.035-1.592 0-1.133-.053-2.265-.018-3.397-.018-.566 0-1.097.036-1.681 0-1.097-.053-8.51-.053-9.607 0-.602.018-4.459 0-5.06-.018-.903-.017-1.805.054-2.725-.017v2.182c.16-.017.318.018.495-.07.531-.072.885-.16 1.345.159z" fill="#043C3A"/><path d="M86.47 25.925c-.212-.71-.3-1.295-.16-2.04.195-1.083.054-2.2.019-3.318 0-.267-.301-.64-.213-.781.39-.568.283-1.136.16-1.722-.054-.283-.142-.55-.16-.816-.017-.266-.017-.532.124-.798.035-.089.16-.195.124-.23a1.63 1.63 0 01-.354-.693c-.07-.23-.106-.48-.106-.745a12.247 12.247 0 00-.07-.763 2.357 2.357 0 00-.213-.71c-.018-.053-.07-.089-.106-.142-.319-.266-.319-.603-.319-.94 0-.178.018-.338 0-.497-.017-.16-.053-.302-.141-.409-.213-.266-.496-.479-.673-.727-.194-.248-.336-.515-.3-.905 0-.355-.089-.568-.443-.657a.718.718 0 01-.159-.088c-.372-.16-.495-.48-.584-.799-.053-.16-.088-.337-.141-.479a.858.858 0 00-.248-.355c-.266-.213-.53-.355-.779-.55-.123-.089-.247-.177-.371-.302-.124-.106-.23-.23-.354-.372-.655-.852-1.628-1.562-2.654-1.863-.371-.125-.637-.355-.885-.586-.247-.23-.495-.444-.778-.515-.336-.053-.672-.053-.973-.088a1.306 1.306 0 01-.867-.426c-.035-.054-.089-.142-.106-.142a2.803 2.803 0 01-.761.018l-.372-.054c-.123-.017-.247-.053-.371-.07-.124-.036-.248-.072-.354-.107l-.372-.089a5.412 5.412 0 00-.743-.124c-.088 0-.177.053-.247.089a.781.781 0 01-.266.088c-.088.018-.177.018-.248.018-.159-.018-.318-.089-.477-.16-.319-.142-.637-.301-.92-.213-.089.018-.177.054-.266.09-.088.035-.159.052-.23.088-.159.053-.3.106-.46.142-.3.07-.601.07-.955-.107-.035-.017-.053-.053-.07-.035a2.5 2.5 0 01-.744.266c-.248.071-.513.089-.76.124-.248.036-.514.071-.78.124a3.609 3.609 0 00-.742.231c-.124.053-.23.249-.354.266a2.77 2.77 0 00-.76.16c-.249.071-.479.195-.709.302-.23.106-.442.248-.654.372-.23.125-.443.249-.655.373-.248.124-.478.284-.708.426-.23.142-.442.32-.672.479-.85.621-1.575 1.384-2.335 2.076-.213.178-.372.39-.549.586-.16.195-.3.408-.478.62-.637.853-1.15 1.81-1.663 2.734-.053.106-.283.567-.53 1.242a15.945 15.945 0 00-.69 2.413 17.244 17.244 0 00-.284 2.484c-.017.692-.017 1.26-.017 1.384-.018 1.172.106 3.194-.018 4.348-.053.532 0 .994 0 1.508.018 1.207.088 2.413-.018 3.602-.053.515-.017.94.018 1.42.07 1.189.053 2.413 0 3.602-.018.48-.07.905-.018 1.42.106 1.224.053 2.466 0 3.69-.017.444-.283.852.036 1.332.477.71-.372 1.401-.213 1.987.195.71.513 1.33.089 2.04-.036.054-.106.125-.106.16.548 1.047-.053 2.148.177 3.159.159.763-.018 1.349-.177 2.04-.142.586.672 1.278.212 1.988-.16.23-.212.426-.195.639 0 .106.036.195.071.302 0 .035.018.035.035.035h.018v-.178c.92.072 1.823-.017 2.725.018.602.018 4.459.036 5.06.018 1.097-.053 8.528-.053 9.625 0 .584.036 1.115 0 1.68 0 1.133-.018 2.283-.035 3.415.018.549.018 1.062 0 1.593 0 1.168 0 2.335-.071 3.503.018.53.035.99.017 1.504 0 1.185-.054 2.406-.071 3.574.017h.141v-.585l-.017-.923c0-.621 0-1.224.035-1.846.018-.425.3-.78 0-1.26-.46-.691.319-1.401.212-1.987-.123-.692-.336-1.277-.194-2.04.194-1.1.07-2.254.035-3.39 0-.266-.3-.638-.194-.78.743-1.1-.337-6.389.159-7.471.035-.089.16-.178.141-.23-.442-1.048-.088-2.112-.106-3.177 0-.089-.053-.178-.106-.249-.424-.78.407-1.437.23-2.023z" fill="#87D8C8"/><path d="M55.206 53.909c.707.48 1.397-.337 1.981-.213.69.16 1.274.355 2.035.178 1.008-.231 2.105.372 3.15-.178.035-.018.105.071.159.107.707.425 1.326.106 2.034-.09.602-.159 1.274.693 1.982.214.478-.32.884-.036 1.327-.036 1.22.036 2.459.107 3.68 0 .495-.035.938 0 1.415.018 1.186.053 2.407.071 3.592 0 .478-.035.902-.071 1.415-.018 1.186.125 2.389.053 3.592.018.495 0 .973-.071 1.504 0 .584.053 1.362.053 2.158.053.407-.018.814-.018 1.203-.035.39-.018.761-.16 1.044-.355.283-.213.513-.462.655-.745a1.82 1.82 0 00.142-.338c.017-.088.053-.177.053-.283 0-.054.017-.107.017-.16v-3.762c0-1.917 0-3.833.018-4.117.07-1.136.018-2.289 0-3.425 0-.568-.035-1.1 0-1.685.089-1.1 0-2.219 0-3.337 0-.585-.018-1.153 0-1.756.053-1.065-.212-2.165.07-3.248.036-.124-.123-.284-.14-.443-.125-1.1.3-2.236-.107-3.319 0-.017.035-.053.053-.07.407-.71.089-1.314-.124-2.023-.177-.586.673-1.242.23-1.988-.053-.089-.106-.177-.106-.248 0-1.065.354-2.13-.088-3.177-.018-.035.07-.106.106-.16.424-.71.035-1.312-.124-2.058-.07-.32 0-.674.07-1.047.036-.195.054-.372.054-.585 0-.195-.018-.408-.106-.621a24.373 24.373 0 01-1.009-3.532 4.002 4.002 0 00-.177-.55 2.353 2.353 0 00-.265-.461c-.177-.302-.425-.55-.637-.834-.195-.248-.212-.603-.3-.976a2.16 2.16 0 00-.195-.532 1.139 1.139 0 00-.177-.231.99.99 0 00-.266-.177c-.053-.036-.106-.09-.159-.107-.177-.053-.3-.124-.39-.23-.088-.107-.123-.267-.159-.444-.052-.426-.282-.71-.548-.923-.283-.23-.62-.39-.955-.586-.283-.142-.39-.496-.566-.834-.177-.337-.407-.656-.85-.727-.07-.018-.124-.036-.194-.053-.496-.267-.885-.675-1.345-1.03a2.747 2.747 0 00-.725-.443 1.694 1.694 0 00-.85-.16c-.035 0-.088-.16-.141-.248-.195-.266-.46-.408-.743-.533-.283-.106-.602-.16-.903-.213a3.709 3.709 0 01-.902-.195 1.807 1.807 0 01-.796-.514c-.124-.142-.584.07-.85.017-1.15-.213-2.353-.177-3.467-.39a3.528 3.528 0 00-1.044-.053 6.58 6.58 0 00-1.044.23c-.3.107-.637-.035-.99-.142a1.508 1.508 0 00-.567-.07.834.834 0 00-.549.195c-.07.053-.159.142-.247.16-.142.035-.283.053-.407.07-.142.018-.283.054-.407.071L64.9.586a2.741 2.741 0 00-.407.088c-.141.036-.265.071-.407.107a1.499 1.499 0 00-.389.16 2.626 2.626 0 00-.708.479c-.035.035-.176-.036-.283-.054-.07 0-.176 0-.283.018a1.457 1.457 0 00-.336.107 4.971 4.971 0 00-.85.39c-.618.337-1.326.834-1.98 1.349-.673.514-1.275 1.1-1.805 1.561a5.21 5.21 0 01-.726.603 1.93 1.93 0 01-.584.32c-.194.053-.23.532-.407.763-.76.94-1.327 2.023-2.052 2.946-.495.656-.584 1.313-.725 2.022-.036.16-.124.284-.23.426-.106.142-.23.284-.337.426-.247.302-.407.657-.283 1.065a.912.912 0 01-.035.692 1.417 1.417 0 01-.142.284c-.035.106-.088.195-.106.302l-.106.479c-.035.16-.053.32-.07.479l-.071.479-.036.497c-.017.16-.017.32-.035.497v1.436c0 .48.053.924.017 1.42-.088 1.19-.07 2.396-.017 3.585.017.515.053.976 0 1.508-.089 1.154-.018 2.343-.018 3.514 0 .532.035 1.047 0 1.597-.053 1.136-.018 2.289-.018 3.425 0 .567.036 1.1 0 1.685-.053 1.1-.053 8.553 0 9.654.018.603 0 4.489-.017 5.075-.018.532.017 1.047.017 1.579v.426c0 .266.071.55.177.816a2.2 2.2 0 001.221 1.136c.195.07.407.089.602.07v-2.075.017h-.052c-.018 0-.018 0-.036-.035a1.86 1.86 0 01-.07-.302c-.018-.195.035-.408.194-.639.478-.71-.336-1.401-.212-1.987.159-.692.354-1.278.177-2.04-.23-1.012.371-2.112-.177-3.16-.018-.035.07-.106.106-.159.425-.71.106-1.33-.089-2.04-.159-.604.69-1.278.213-1.988-.319-.48-.053-.887-.036-1.331.036-1.224.107-2.467 0-3.69-.035-.498 0-.941.018-1.42.053-1.19.07-2.414 0-3.603-.035-.479-.07-.905-.018-1.42.124-1.188.053-2.413.018-3.602 0-.496-.07-.976 0-1.508.124-1.153 0-3.176.018-4.347 0-.125 0-.692.017-1.384.036-.71.107-1.597.284-2.485.176-.887.442-1.739.69-2.413.247-.657.477-1.118.53-1.242.514-.923 1.027-1.881 1.663-2.733.16-.213.301-.426.478-.621s.336-.408.549-.586c.76-.692 1.486-1.455 2.335-2.076.23-.16.443-.32.672-.479.23-.142.46-.301.708-.426.23-.106.443-.248.655-.372.212-.125.442-.267.654-.373.23-.124.46-.23.708-.302.248-.07.496-.142.761-.16.124 0 .212-.195.354-.266.23-.106.495-.177.743-.23.248-.053.513-.071.778-.124a9.73 9.73 0 00.761-.125c.248-.053.496-.142.743-.266.018 0 .053.036.071.036.354.177.655.177.956.106.159-.035.3-.089.46-.142.07-.035.159-.053.23-.089.088-.035.176-.053.265-.088.283-.089.602.07.92.213.16.07.318.142.478.16.088.017.159 0 .247-.018a.776.776 0 00.266-.09c.07-.035.159-.106.247-.088.248.018.496.071.743.124l.372.09c.124.035.248.07.354.106.124.035.248.053.371.07.124.018.248.054.372.054.248.018.496.018.76-.018.036 0 .072.089.107.142.265.284.549.39.867.426.318.035.637.035.973.089.3.07.53.284.778.514.248.23.514.462.885.586 1.026.32 1.982 1.011 2.654 1.863.124.142.23.266.354.373.124.106.248.195.372.301.247.196.53.337.778.55a.857.857 0 01.248.355c.053.142.088.32.141.48.106.319.213.638.584.798.053.018.106.07.16.089.336.088.442.301.442.656-.018.39.123.657.3.905.195.249.46.462.673.728a.633.633 0 01.141.408c.018.16 0 .32 0 .497 0 .337 0 .674.319.94a.276.276 0 01.106.142c.106.23.177.462.212.71.036.248.053.515.071.763.018.248.035.497.106.745.071.249.177.48.354.692.035.036-.088.142-.124.231-.124.266-.141.532-.124.799.018.266.089.532.16.816.123.585.212 1.153-.16 1.721-.106.142.195.515.213.78.035 1.101.177 2.237-.018 3.32-.142.744-.053 1.33.16 2.04.176.585-.655 1.242-.23 1.987.052.089.105.178.105.249.018 1.064-.336 2.129.106 3.176.018.053-.106.142-.141.23-.513 1.083.584 6.371-.16 7.471-.105.16.178.515.195.781.018 1.136.16 2.29-.035 3.39-.142.762.07 1.348.195 2.04.106.586-.673 1.295-.213 1.987.319.48.036.834 0 1.26-.035.604-.035 1.225-.035 1.846l.018.922v.623h.088s-.018-.018 0 0c0 0 0 .017 0 0v-.036h-.018c-.053 0-.123 0-.177-.018-1.185-.088-2.388-.07-3.574-.017-.513.017-.973.053-1.503 0-1.15-.09-2.336-.018-3.504-.018-.53 0-1.044.035-1.592 0-1.132-.053-2.282-.018-3.415-.018-.566 0-1.097.036-1.68 0-1.098-.053-8.529-.053-9.625 0-.602.018-4.477 0-5.06-.018-.903-.017-1.805.054-2.725-.017v2.182c.159-.017.318.018.495-.07.425-.125.779-.214 1.239.088z" fill="#043C3A"/><path d="M44.392 51.619l-.212-.373-.212.018c.124.16.283.266.424.355zm-.336-.585c-.194.071-.106.107.089.142l-.089-.142zm2.709 6.904c0 .035 0 .07.017.088l.018-.018-.035-.07zm-19.959 19.43c.054-.106.637-.692.761-.745.071-.018.089-.089.124-.142.07-.107.142-.213.265-.266.054-.036.071-.09.124-.125.089-.106.124-.23.284-.266.07-.018.088-.07.106-.124.053-.124.123-.249.283-.284.07-.018.053-.089.088-.124.089-.107.124-.249.283-.302.053-.018.283.142.089-.106-.301-.355.336.088.3-.036-.053-.142-.159-.32 0-.302.23.036.213-.16.266-.266.018-.035-.177-.248-.089-.195.655.373.177-.78.655-.55.036.018.142.089.124.071-.266-.373.088-.23.141-.337 0 0-.035-.053-.07-.089-.283-.337.424.124.318-.035-.124-.195-.141-.302.018-.284.23.017.194-.16.248-.284.017-.036-.195-.249-.107-.195.69.372-.159-.444.39-.196.035.018.141.09.141.071-.442-.479.16-.177.089-.39 0-.018-.018-.035-.053-.053-.301-.32.407.106.318-.036-.106-.177-.354-.443.035-.248.177.089.213.089.036-.089-.036-.035-.036-.035-.053-.07-.283-.32.371.07.318-.054-.053-.142-.194-.32-.035-.32.23 0 .318-.106.194-.337-.088-.177.39.071.337-.053-.071-.142-.354-.426.035-.248.035.017.106.053.089.035-.301-.355.053-.248.123-.355 0 0-.035-.053-.07-.088-.301-.32.424.106.318-.054-.124-.195-.354-.425.035-.248.018 0 .053.035.053.018-.247-.338.16-.195.124-.373 0-.018-.123-.124-.088-.124.3.053.16-.195.265-.266.071-.036.089-.107.124-.16.07-.106.07-.248.212-.302.071-.035.071-.106.107-.16.07-.106.106-.248.23-.319.053-.035.495-.727.53-.763.089-.106.124-.355.283-.408.089-.018.071-.089.089-.142.053-.124.07-.284.248-.32.07-.017.07-.088.07-.141a.429.429 0 01.23-.337c.053-.036.106-.054.106-.125 0-.177.124-.266.23-.355.036-.035.284.09.071-.141-.336-.338.39.088.301-.072-.106-.177-.336-.425.053-.248.036.018.106.053.089.035-.372-.408.177-.177.07-.39-.088-.16.107-.124.283-.089.142.018-.477-.514-.035-.301.283.124.23.053.07-.124-.052-.071-.017-.054-.017-.09l.23.16c.053-.106.106-.195.124-.319.018-.39.23-.727.442-1.047.071-.124.372-.089.16-.373-.16-.212-.018-.266.141-.283.16-.018.354-.018.336-.125-.053-.284-.212-.62.248-.55.035 0 .106.036.106.018-.141-.284-.035-.408.106-.497.142-.089.301-.16.301-.337 0-.284.266-.302.513-.337.213-.036-.283-.728.213-.568.318.106.318-.035.23-.266-.071-.23 0-.32.194-.284l1.61 1.49c0 .036-.017.054-.035.072-.301.124-.39.408-.584.603-.053.053-.248.266-.442.497-.177.23-.354.461-.39.532-.07.124-.371.568-.619 1.03-.265.46-.46.922-.53 1.028-.071.125-.107.267-.142.39-.071.267-.124.533-.212.764-.054.106-.036.23-.036.337-.018.23.053.444.018.657 0 .053 0 .106.017.142.018.053.054.088.071.124.124.195.248.408.301.692.018.053.053.106.07.142.036.035.072.053.09.088.14.196.335.284.46.444.017.036 0 .107.017.16.018.035.053.053.142-.089.123-.195.106-.124.123 0 0 .124.036.302.071.249a.533.533 0 00.106-.196c.036-.053.053-.07.107-.017a.212.212 0 00.265 0c.088-.054.141-.16.23-.231.035-.036-.089-.302 0-.249.336.213.548-.124.725-.514.089-.195.177-.39.248-.532.088-.142.195-.231.336-.213.053 0 .16.053.16.035-.195-.461.23-.497.37-.727.019-.018-.035-.072-.052-.107-.266-.373.53-.106.46-.32-.089-.266-.106-.425.106-.532.3-.16.3-.497.39-.763.017-.07-.213-.266-.107-.266.407.018.372-.16.319-.337-.053-.178-.142-.373.176-.408.054 0 .177 0 .16-.018-.266-.23-.213-.355-.106-.461.106-.107.247-.213.194-.373 0-.018-.035-.035-.053-.053-.371-.284.46-.266.336-.444-.07-.106-.194-.23-.23-.32-.035-.088 0-.177.213-.212.212-.036.247-.107.017-.213-.035-.018-.035-.036-.07-.053-.372-.249.389-.302.3-.48-.106-.195-.283-.372-.141-.55.106-.142.177-.283.177-.443a.808.808 0 00-.16-.462c-.088-.106.018-.195.107-.283.088-.09.194-.178.141-.249-.141-.177-.53-.337-.124-.532a.689.689 0 01.107-.036c-.46-.248-.124-.55-.142-.816 0-.018-.07-.035-.124-.053-.442-.142.372-.39.177-.532-.23-.16-.566-.231-.195-.48.018-.017.053-.017.053-.035-.23-.089-.247-.23-.247-.355 0-.142.035-.284-.053-.39-.018-.036-.177-.018-.16-.054.177-.337-.159-.479-.212-.71-.035-.124-.124-.23-.177-.337-.124-.213-.336-.354-.424-.567-.053-.125-.16-.16-.23-.231-.177-.142-.39-.213-.567-.373-.035-.035-.407-.213-.778-.266-.195-.035-.372-.035-.513-.035-.142.017-.23.017-.248.035-.106.018-.23.071-.336.124-.035.018-.053.036-.089.036-.035.017-.053.035-.07.035-.018.018-.053.018-.071.018h-.07c-.09 0-.125.106-.195.177-.213.249-.39.55-.708.693-.142.07-.195.177-.266.283a2.63 2.63 0 01-.69.71c-.106.071-.212.142-.283.266-.159.32-.442.515-.707.728-.089.07-.372-.036-.23.284.194.479-.531.018-.531.248 0 .284.106.621-.319.462-.035-.018-.106-.054-.106-.036.195.586-.442.39-.477.745-.036.267-.266.249-.514.284-.212.018.248.728-.23.533-.3-.125-.3.017-.23.248.018.089-.035.107-.053.142l-1.557-1.526c.23-.142.337-.373.531-.532.124-.107.885-.852.973-.994.177-.248 1.61-1.721 1.858-1.899.124-.089.212-.213.318-.337.213-.23.407-.479.673-.674.124-.089.194-.213.3-.32.213-.23.407-.514.69-.674.124-.07.23-.213.354-.355.089-.088.177-.177.284-.248.106-.071.194-.124.3-.195.106-.054.213-.09.319-.125.106-.035.23-.053.336-.07.194-.018.336-.09.513-.125.354-.053.725-.106 1.08-.035-.036-.054-.09-.284-.142-.497-.053-.213-.106-.426-.106-.48 0-.07-.036-.106-.071-.159-.053-.106-.124-.178-.142-.302 0-.053-.053-.088-.088-.124-.071-.089-.177-.142-.177-.284 0-.07-.053-.088-.089-.106a.353.353 0 01-.23-.266c-.017-.071-.07-.054-.106-.09-.106-.07-.23-.106-.283-.23-.017-.035.106-.301-.106-.07-.16.177-.142.088-.106-.036.035-.125.088-.284.035-.249-.124.071-.265.23-.283.071-.017-.23-.194-.16-.3-.177-.036 0-.16.248-.142.142.07-.373-.124-.355-.319-.284-.194.07-.371.177-.371-.089 0-.035.017-.16 0-.142-.177.426-.23.053-.354.053-.018 0-.018.054-.035.107-.107.426-.124-.426-.195-.249-.088.213-.142.302-.212.16-.054-.106-.124-.106-.177-.089-.036 0-.053.018-.089.036l-.035.018h-.018c.018.124-.017-.16-.017-.142v.088c0 .054.017.107.017.16 0 .036.018.053.018.089 0 .018 0 .035 0 0 0-.018 0-.053-.018-.071v-.018c-.017-.053-.017-.089-.035-.106a.219.219 0 00-.036-.054c-.017 0-.017.054-.017.125 0 .053.017.124 0 .16-.018.017-.053 0-.124-.125-.018-.035-.089-.142-.089-.124.089.301.053.32-.017.301-.071-.035-.177-.106-.177 0 0 .018 0 .036.017.072.16.408-.336-.249-.3-.09.035.214.177.533-.124.232-.142-.143-.177-.143-.071.07.018.036.018.054.035.071.177.39-.336-.177-.318-.053.018.16.088.373-.07.32-.23-.071-.355.017-.302.284.036.195-.354-.16-.354-.018.018.16.213.514-.123.248-.018-.017-.089-.07-.071-.07.194.425-.124.248-.23.319 0 0 .018.07.053.106.212.39-.39-.195-.336-.018.07.213.23.515-.106.249l-.036-.036c.16.39-.212.178-.23.355 0 .018.089.16.053.142-.283-.106-.212.178-.336.23-.07.036-.106.09-.159.143-.106.088-.142.248-.3.284-.09.017-.107.088-.16.142-.106.106-.177.248-.319.284-.07.017-.69.674-.743.71-.123.088-.212.354-.407.372-.088 0-.088.089-.123.142-.089.124-.142.284-.337.302-.088 0-.088.07-.106.142-.053.16-.177.248-.318.319-.053.035-.124.035-.142.107-.035.177-.194.248-.318.337-.053.035-.283-.125-.106.142.265.408-.39-.142-.319.035.07.195.248.48-.124.248-.035-.017-.088-.07-.088-.053.283.48-.23.16-.177.408.053.196-.142.107-.319.054-.141-.036.354.603-.053.337-.247-.178-.23-.089-.123.124.088.195.053.23-.089.16l-1.45-1.633c0-.018 0-.035.017-.035.177.017.194-.16.3-.231.072-.035.425-.355.46-.444.072-.124.726-.798.868-.851.07-.036.106-.09.159-.142.088-.107.177-.231.318-.302.071-.035.089-.089.142-.142.106-.106.16-.266.336-.302.07-.017.106-.088.124-.142.07-.142.177-.266.354-.301.07-.018.07-.089.124-.142.106-.107.177-.266.354-.32.053-.017.283.16.106-.124-.248-.39.354.107.336-.017-.018-.16-.106-.355.053-.32.23.035.248-.16.336-.266.018-.036-.142-.266-.053-.213.602.444.371-.816.831-.532.036.017.124.106.124.088-.194-.426.142-.248.23-.355 0 0-.017-.053-.053-.106-.212-.39.407.195.354 0-.07-.23-.07-.337.089-.302.23.053.247-.142.354-.266.017-.035-.124-.284-.054-.23.602.496-.017-.497.478-.125.035.036.124.107.124.089-.3-.586.248-.16.23-.39 0-.018-.018-.036-.018-.071-.177-.409.39.195.354.017-.035-.213-.177-.55.16-.248.14.142.194.142.088-.089-.018-.035-.018-.053-.018-.07-.16-.409.354.159.354.035 0-.16-.035-.39.124-.337.248.07.39 0 .442-.302.018-.107.106-.053.212 0 .089.07.177.142.213.053 0-.035.018-.089.035-.142-.035-.053-.088-.106-.141-.16-.053-.07-.124-.142-.16-.195-.053-.053-.088-.106-.088-.124-.018-.053-.07-.071-.106-.106-.089-.054-.177-.09-.23-.196-.018-.053-.071-.053-.124-.07-.089-.054-.212-.054-.265-.178-.018-.053-.071-.053-.124-.053-.124 0-.213-.036-.283-.16-.036-.053-.089-.018-.124-.035-.106-.054-.23-.018-.319-.125-.035-.035.018-.32-.106-.035-.177.426-.053-.337-.124-.249-.088.107-.194.302-.23.142-.07-.213-.194-.088-.3-.088-.036 0-.089.284-.089.177 0-.373-.177-.302-.318-.195-.16.106-.301.248-.354 0a.957.957 0 00-.018-.142c-.088.444-.195.089-.3.124 0 0-.019.053-.019.107-.017.425-.176-.409-.212-.213-.035.23-.07.301-.159.177-.035-.053-.07-.07-.089-.07-.017-.019-.035 0-.052 0-.036.017-.054.07-.089.106-.018.017.053.301.018.213-.16-.355-.177-.249-.177-.107 0 .124.017.266-.142.018-.018-.036-.088-.142-.088-.124.106.301.053.319-.018.284-.07-.036-.177-.107-.16 0 0 .017.019.035.019.07.159.409-.319-.266-.284-.106.036.195.195.532-.106.213-.141-.142-.177-.16-.053.07.018.036.018.054.036.072.177.39-.301-.195-.301-.071.017.142.106.355-.036.302-.212-.09-.318 0-.247.248.053.195-.354-.177-.319-.035.036.16.248.496-.088.23-.018-.017-.089-.07-.071-.07.212.407-.088.23-.177.3 0 0 .035.054.053.107.248.373-.39-.195-.318-.017.088.213.265.479-.071.23l-.036-.035c.195.373-.176.16-.176.32 0 .017.088.141.07.123-.283-.106-.177.16-.283.196-.07.017-.088.088-.141.124-.089.089-.106.23-.248.266-.07.018-.088.089-.124.124-.088.089-.124.23-.265.266-.071.018-.549.621-.602.675-.106.088-.159.337-.318.355-.089 0-.071.088-.106.124-.071.106-.107.266-.284.284-.07 0-.07.07-.088.124-.035.142-.124.23-.265.302-.053.035-.107.035-.124.106 0 .177-.142.248-.266.32-.035.035-.283-.107-.07.124.318.372-.39-.124-.301.035.106.195.3.444-.07.23-.036-.017-.09-.07-.09-.052.337.443-.194.142-.106.39.071.178-.106.107-.283.053-.141-.035.407.568 0 .302-.265-.16-.23-.071-.088.124.124.178.088.213-.053.142l-1.61-1.473c0-.018 0-.035.017-.035.177.017.16-.16.248-.23.053-.036.336-.338.372-.409.035-.124.584-.745.69-.816.07-.036.088-.089.124-.142.07-.107.141-.213.265-.284.053-.036.07-.089.106-.142.089-.107.124-.249.266-.284.07-.018.088-.071.106-.142.053-.124.124-.248.283-.284.07-.018.053-.089.088-.124.089-.107.142-.249.283-.302.053-.017.283.142.089-.106-.283-.373.336.089.3-.036-.035-.142-.141-.337.018-.301.23.035.213-.142.283-.267.018-.017-.159-.248-.07-.195.318.213.371.018.424-.195.053-.213.071-.444.301-.32.035.018.124.107.124.09-.23-.391.106-.231.194-.338 0 0-.035-.053-.053-.089-.23-.372.407.178.337 0-.089-.212-.089-.319.07-.284.23.054.23-.141.301-.248.018-.018-.141-.284-.07-.213.6.497-.054-.479.442-.124.035.035.123.106.123.089-.318-.568.213-.142.195-.373 0-.018-.018-.036-.035-.07-.195-.391.371.194.336.034-.053-.212-.195-.532.124-.248.141.142.194.142.07-.07-.017-.036-.017-.054-.035-.072-.16-.408.336.178.336.053 0-.16-.053-.372.107-.319.23.089.353.018.389-.266.017-.213.336.23.354.089.035-.16-.036-.568.23-.213.017.035.053.106.053.088 0-.195.053-.266.106-.284-.071-.017-.142-.053-.195-.07-.53-.16-1.097-.249-1.256-.284-.142-.036-.283-.036-.442-.036-.301 0-.584.053-.885.036-.142 0-.283.035-.425.07-.3.072-.584.213-.92.231a1.03 1.03 0 00-.389.142c-.283.16-.566.32-.902.39-.142.036-.23.143-.336.214-.142.088-.284.195-.425.283a1.33 1.33 0 01-.212.142.39.39 0 00-.107.071h-.017c.035.053-.319-.461-.177-.248l.088.124.071.124c-.017 0-.017.018-.035.018-.036.018-.106-.035-.16-.018-.07.018-.106.071-.035.231.195.461-.513.071-.548.266-.053.23-.018.515-.266.586-.371.106-.513.461-.725.745-.053.071.088.337-.018.302-.778-.249-1.026 1.703-1.628 1.614-.053 0-.159-.07-.159-.035.124.532-.371.55-.566.798-.018.018.018.09.035.125.177.461-.601.053-.584.32.018.3-.035.496-.282.585-.354.124-.478.479-.69.763-.054.07.106.355 0 .32-.814-.232-.16.798-.832.673-.053-.017-.16-.07-.16-.035.284.657-.442.48-.512.852 0 .018 0 .053.017.089.177.46-.584.088-.566.319 0 .284.142.674-.318.55-.213-.053-.284-.018-.142.213.018.035.018.053.035.089.177.443-.53.124-.566.319-.035.248 0 .515-.247.621-.372.142-.62.426-.655.852-.035.302-.566.124-.602.355-.035.248.142.656-.318.55a.357.357 0 01-.106-.036c.141.533-.336.568-.549.817-.017.017.018.088.036.124.194.461-.584.07-.567.32.018.3.142.656-.3.55a.178.178 0 01-.053-.018c.088.514-.443.514-.584.851-.018.054.07.178.017.195-.424.09-.442.515-.69.728-.141.124-.23.284-.353.408-.23.266-.372.586-.655.781-.16.107-.23.266-.336.39-.23.267-.407.586-.673.799-.123.106-1.503 1.828-1.627 1.934-.248.266-.549.816-.867 1.03-.142.088-.195.23-.283.354-.23.302-.407.639-.726.834-.141.089-.194.213-.265.355-.177.337-.442.603-.708.852-.106.106-.23.177-.3.32-.16.354-.443.62-.726.886-.106.09-.39.018-.248.338.23.479-.566.088-.548.337.017.302.124.639-.336.532-.036 0-.107-.035-.107-.018.213.586-.46.48-.495.852-.018.284-.283.302-.548.373-.213.053.265.745-.23.603-.319-.089-.319.053-.248.302.07.23-.018.337-.212.32l-.177-.16.141 5.554a.783.783 0 00.779.763l24.186.035c-.124.036 0-.089.017-.124z" fill="#fff"/><path d="M47.036 57.69c.106-.054-.194-.143-.212-.214-.035-.32-.212-.639-.053-.976.106-.23.018-.408-.248-.585-.106-.071.036-.196.16-.32.123-.124.194-.248-.036-.32a.423.423 0 01-.124-.052c-.053-.16 0-.338-.017-.497-.018-.16-.089-.32-.354-.408-.018 0 .088-.071.106-.125.177-.248-.142-.692-.513-1.082-.354-.39-.743-.728-.602-1.118.036-.106-.248 0-.318-.071-.283-.248-.62-.373-.85-.656l.248-.018c-.017-.018.018-.053-.07-.071-.23-.053-.319-.089-.018-.178.46-.142-.354-.16-.23-.248.141-.107.318-.213.141-.302-.124-.053-.035-.142 0-.23.036-.09.036-.16-.247-.196-.018 0 .053-.017.088-.035.39-.178.07-.213-.142-.266-.088-.018.071-.107.177-.196.124-.088.195-.16-.053-.142-.318.018-.07-.106-.088-.177-.018-.195-.018-.39-.195-.532-.07-.053-.053-.124-.07-.213-.036-.195-.107-.373-.266-.497-.07-.053-.141-.089-.141-.178 0-.106-.053-.195-.107-.283a2.112 2.112 0 00-.212-.196c-.053-.053-.142-.07-.16-.177-.017-.106-.105-.195-.212-.284-.106-.071-.212-.142-.282-.213-.018-.018-.089-.07-.178-.142a2.761 2.761 0 00-.336-.23 2.664 2.664 0 00-.353-.214.915.915 0 01-.195-.124c-.124-.142-.319-.177-.478-.23-.088-.036-.177-.018-.23-.107-.124-.142-.318-.106-.477-.16-.089-.017-.178-.017-.266-.07-.07-.036-.142-.018-.23 0h-.071c-.053 0-.088-.036-.141-.09.017-.017.053-.035.088-.07.195-.142.089-.16-.035-.142-.142.017-.301.053-.266-.018.107-.16.213-.32.018-.337-.124 0-.088-.107-.088-.213.017-.089-.036-.16-.301-.071-.018 0 .053-.053.07-.071.284-.32-.035-.213-.23-.16-.088.018.018-.124.09-.248.07-.124.105-.213-.107-.107-.283.16-.106-.053-.142-.124-.088-.16-.176-.302-.371-.337-.089-.018-.089-.089-.142-.142a.63.63 0 00-.389-.284c-.07-.018-.142 0-.177-.089-.07-.177-.248-.212-.407-.266-.07-.017-.141 0-.177-.089-.088-.177-.389-.177-.513-.248-.017 0-.07-.035-.159-.053l.177-.195c-.053-.018-.07-.09-.177-.054-.265.071-.407.071-.319-.266.054-.266-.088-.266-.265-.23-.16.035-.354.106-.39 0-.088-.267-.158-.533-.46-.533-.212 0-.3-.177-.441-.302-.142-.141-.301-.248-.584-.07-.018.017 0-.071 0-.107-.018-.248-.124-.32-.248-.32s-.283.072-.442.125c-.124.035-.16-.16-.248-.32-.07-.16-.177-.283-.354-.088-.248.248-.3-.036-.46-.089a4.566 4.566 0 00-.62-.16 1.909 1.909 0 00-.636-.017c-.177.035-.336-.018-.495-.036a3.084 3.084 0 00-1.274.089c-.16.053-.301.124-.478.106-.425-.035-.832.16-1.203.32-.16.07-.283.177-.478.195-.425.035-.973.461-1.327.639a4.89 4.89 0 00-.407.248c-.106.071-.23.142-.354.23-.07.036-.124.09-.194.143-.036.017-.089.07-.124.088l-.124.107c-.035.035-.088.071-.124.106l-.088.09a1.587 1.587 0 01-.177.159c-.106.106-.195.213-.283.302-.16.177-.284.301-.319.319-.283.213-.495.515-.725.798-.106.125-.195.284-.354.39-.283.196-.46.515-.69.782-.124.142-.212.284-.372.408-.265.213-.283.639-.707.71-.053 0 .035.142.017.195-.141.337-.672.337-.584.852 0 0-.035-.018-.053-.018-.46-.107-.336.248-.318.55.018.248-.76-.142-.584.32.018.053.053.106.035.123-.212.249-.69.267-.566.799 0 .018-.07-.018-.106-.035-.46-.107-.283.301-.318.55-.036.23-.567.035-.602.355-.035.425-.283.71-.655.851-.247.089-.212.373-.247.621-.036.213-.743-.124-.566.32.017.035 0 .053.035.089.142.23.07.266-.142.212-.46-.106-.318.267-.318.55 0 .231-.76-.124-.566.32.017.035.017.07.017.089-.053.372-.796.195-.513.851.018.018-.106-.035-.159-.035-.672-.124-.018.905-.832.674-.106-.035.054.249 0 .32-.194.284-.318.638-.672.763-.247.088-.3.284-.283.585.018.249-.76-.124-.584.32.018.053.053.106.036.124-.195.266-.673.284-.549.816 0 .018-.106-.035-.16-.035-.6-.071-.813 1.88-1.61 1.668-.105-.036.036.248-.017.301-.212.284-.336.64-.708.781-.247.089-.212.373-.247.603-.036.213-.779-.124-.549.338.142.319-.141.212-.247.301-.301.249-.496.568-.726.87-.088.106-.141.248-.265.337-.301.213-.531.514-.726.834-.088.142-.159.266-.3.355-.301.213-.478.532-.708.816-.106.124-.177.266-.319.39-.265.231-.46.533-.69.799-.106.142-.194.284-.336.39-.265.231-1.734 1.988-1.91 2.29-.107.16-.885 1.064-1.01 1.188-.23.231-.335.568-.654.71-.035.018-.035.036-.053.071l1.646 1.438c.194.017.283-.09.212-.32-.07-.248-.07-.39.248-.302.495.142.017-.55.23-.603.265-.07.513-.089.548-.373.036-.39.708-.266.496-.851 0-.018.07.017.106.017.46.107.336-.248.336-.532-.018-.248.778.142.548-.337-.141-.32.142-.23.248-.337.265-.266.566-.515.725-.888a.868.868 0 01.301-.319 3.24 3.24 0 00.708-.852c.07-.142.124-.266.265-.355.319-.195.513-.55.726-.834.088-.124.141-.266.283-.355.318-.195.62-.762.867-1.029.106-.124 1.486-1.827 1.628-1.934.265-.23.46-.532.672-.798.106-.142.177-.284.336-.39.283-.196.442-.533.655-.782.123-.142.212-.284.354-.408.247-.213.265-.639.69-.727.053-.018-.036-.142-.018-.195.124-.338.672-.338.584-.852 0 0 .035.018.053.018.46.106.336-.249.3-.55-.017-.249.761.141.567-.32-.018-.053-.053-.106-.036-.124.213-.249.69-.266.549-.816 0-.018.07.017.106.035.46.107.283-.302.318-.55.036-.23.567-.035.602-.355.035-.426.283-.71.655-.852.247-.088.212-.372.247-.62.036-.214.743.123.567-.32-.018-.036 0-.053-.036-.089-.141-.23-.07-.266.142-.213.46.107.318-.266.318-.55 0-.23.743.142.566-.32-.017-.035-.017-.07-.017-.088.053-.373.796-.195.513-.852-.018-.017.106.036.159.036.672.124.035-.905.832-.675.106.036-.054-.248 0-.319.194-.284.318-.639.69-.763.247-.089.318-.266.283-.586-.018-.248.743.142.584-.319-.018-.053-.054-.106-.036-.124.195-.266.69-.266.566-.799 0-.017.106.036.16.036.601.089.849-1.864 1.627-1.615.106.035-.035-.248.018-.302.212-.266.354-.62.725-.745.248-.071.23-.355.266-.586.053-.195.743.178.548-.266-.07-.16-.035-.213.036-.23.053-.018.123.035.159.017.017 0 .017-.017.035-.017l-.07-.125-.089-.124c-.16-.213.212.302.177.249h.018a.401.401 0 00.106-.071c.07-.036.141-.09.212-.142.142-.107.283-.213.425-.284.106-.071.194-.178.336-.213.336-.071.62-.23.902-.39.124-.072.23-.143.39-.143.318-.017.601-.16.92-.23.141-.036.265-.071.424-.071.3.017.602-.036.885-.036.141 0 .283 0 .442.036.16.035.726.124 1.256.284a.625.625 0 01.195.07c-.07.018-.106.09-.106.285 0 .017-.036-.054-.053-.09-.248-.354-.195.054-.23.214-.036.142-.336-.302-.354-.089-.036.284-.16.355-.39.266-.159-.053-.106.16-.106.32 0 .124-.495-.444-.336-.054l.036.071c.106.231.07.213-.071.071-.319-.301-.177.036-.124.249.035.16-.53-.426-.336-.036.017.036.017.053.035.071.036.231-.513-.195-.194.373.017.018-.071-.071-.124-.089-.478-.355.159.603-.443.124-.088-.07.089.196.071.213-.07.107-.07.302-.3.249-.16-.036-.16.07-.071.284.07.177-.567-.373-.337 0 .018.035.054.088.054.088-.071.107-.407-.07-.195.338.018.017-.088-.071-.124-.09-.23-.141-.248.107-.3.32-.036.213-.107.408-.425.195-.089-.053.088.178.07.196-.07.106-.07.301-.283.266-.159-.036-.053.16-.017.301.035.125-.602-.337-.301.036.194.248-.036.089-.089.106-.141.054-.194.196-.283.302-.035.036-.035.107-.088.124-.16.036-.23.16-.283.284-.018.053-.036.107-.106.142-.16.036-.195.178-.266.284-.035.053-.053.107-.106.142-.124.071-.177.177-.265.284-.036.053-.053.106-.124.142-.124.053-.655.692-.69.816-.018.071-.319.373-.372.408-.088.071-.07.231-.247.231-.018 0-.018.018-.018.036l1.61 1.472c.142.071.177.036.053-.142-.124-.195-.177-.284.088-.124.407.249-.141-.355 0-.302.177.054.354.125.284-.053-.089-.23.442.053.106-.39-.018-.018.053.035.088.053.372.213.177-.053.071-.23-.088-.16.62.337.3-.036-.212-.248.036-.107.072-.124.123-.071.247-.142.265-.32 0-.07.07-.088.124-.106.124-.071.23-.16.265-.302.018-.053.018-.124.089-.124.177-.018.212-.177.283-.284.035-.053.017-.124.106-.124.177-.018.23-.266.318-.355.036-.035.531-.639.602-.674.124-.054.177-.178.265-.267.036-.053.053-.106.124-.124.142-.017.16-.177.248-.266.053-.053.07-.106.141-.124.124-.053.018-.32.283-.195.036.017-.07-.107-.07-.124 0-.178.371.035.177-.32 0 0 .035.018.035.036.336.248.16-.036.07-.231-.07-.178.55.408.32.018-.018-.036-.072-.09-.054-.107.089-.07.407.124.177-.301 0-.018.053.035.07.07.337.267.125-.07.09-.23-.036-.142.37.23.318.035-.071-.248.035-.337.248-.248.141.053.053-.142.035-.302-.018-.124.478.444.3.071l-.035-.07c-.124-.214-.088-.214.053-.072.301.32.142 0 .106-.213-.035-.177.443.497.284.107-.018-.036-.018-.053-.018-.071 0-.107.088-.036.16 0 .07.035.105.017.017-.284 0-.018.053.088.088.124.16.248.142.107.142-.018 0-.124.018-.248.177.107.035.089-.036-.195-.018-.213.036-.036.053-.071.089-.107.017-.017.035-.017.053 0a.31.31 0 01.088.071c.088.124.124.036.16-.177.035-.195.176.639.212.213 0-.053 0-.107.017-.107.107-.017.213.32.301-.124a.96.96 0 01.018.142c.053.266.194.107.354 0 .159-.106.318-.177.318.195 0 .107.07-.177.089-.177.106 0 .247-.124.3.089.036.141.142-.036.23-.142.089-.09-.053.674.124.248.124-.284.089 0 .106.035.089.107.213.072.319.125.035.017.106-.018.124.035.07.124.177.16.283.16.053 0 .106 0 .124.053.053.124.159.124.265.178.035.017.088.017.124.07.053.107.141.143.23.196.035.035.088.035.106.106 0 .018.035.071.088.124.054.054.107.125.16.196.053.053.088.106.141.16-.017.053-.017.106-.035.141-.018.071-.106 0-.212-.053-.089-.07-.195-.106-.213 0-.053.302-.194.373-.442.302-.16-.053-.124.177-.124.337 0 .142-.513-.426-.354-.036.018.036 0 .036.018.071.106.231.07.213-.088.09-.337-.302-.195.052-.16.248.036.177-.53-.426-.354-.018a.134.134 0 01.018.07c.018.231-.53-.194-.23.391.018.018-.07-.07-.124-.088-.495-.373.124.62-.477.124-.089-.071.07.195.053.23-.089.125-.107.32-.354.267-.16-.036-.177.07-.089.301.053.178-.566-.39-.354 0 .018.036.053.089.053.107-.088.106-.424-.071-.23.355.018.017-.088-.071-.123-.09-.443-.283-.213.977-.832.533-.088-.07.07.178.053.213-.088.124-.106.32-.336.266-.16-.035-.07.178-.053.32.018.124-.584-.373-.336.017.177.267-.053.107-.106.125-.16.053-.23.213-.354.32-.036.035-.053.123-.124.141-.177.035-.265.16-.354.302-.035.053-.053.124-.124.142-.16.035-.23.195-.336.301-.053.053-.07.107-.142.142-.141.071-.23.196-.318.302-.053.053-.088.124-.16.142-.14.053-.813.727-.866.852-.036.07-.39.39-.46.443-.106.071-.124.249-.301.231-.018 0-.018.018-.018.035l1.451 1.633c.142.089.195.035.089-.16-.107-.213-.142-.301.123-.124.39.266-.106-.373.053-.337.177.053.354.124.319-.053-.07-.249.46.07.177-.408 0-.018.053.035.088.053.354.23.195-.036.124-.249-.07-.177.602.373.319-.035-.177-.266.053-.107.106-.142.141-.089.283-.16.318-.337.018-.071.089-.089.142-.107.141-.07.265-.16.318-.32.018-.07.036-.123.106-.141.195-.018.248-.177.337-.302.035-.053.035-.124.123-.142.195-.017.284-.284.408-.372.053-.036.672-.692.743-.71.141-.053.212-.195.318-.284.053-.053.07-.124.16-.142.158-.035.194-.195.3-.284.053-.053.089-.106.16-.142.14-.053.052-.337.335-.23.036.017-.053-.107-.053-.143.018-.177.407.036.23-.355 0 0 .036.018.036.036.336.248.177-.035.106-.248-.053-.178.548.408.336.017l-.053-.106c.106-.089.425.106.23-.32 0-.017.053.036.07.072.337.266.142-.09.125-.249-.018-.142.371.213.354.018-.054-.266.07-.355.3-.284.142.053.071-.16.071-.32 0-.142.495.444.319.054l-.036-.071c-.106-.213-.07-.213.07-.071.302.32.16-.018.125-.231-.018-.177.46.497.3.089-.017-.036-.017-.053-.017-.071 0-.124.106-.036.177 0 .07.035.124.017.017-.302 0-.018.053.089.089.124.088.124.124.16.124.124.017-.017.017-.088 0-.16 0-.052 0-.123.017-.123.018 0 .018.017.036.053 0 .018.017.053.035.106 0-.053-.017-.106-.017-.16v-.088c0-.036.017.248.017.142h.018l.035-.018c.036-.018.053-.035.089-.035.053-.018.124 0 .177.088.07.142.141.054.212-.16.07-.177.089.675.195.25l.035-.107c.124-.018.16.355.354-.054v.142c.018.267.194.142.371.09.195-.072.39-.09.319.283-.018.106.106-.16.141-.142.124.018.284-.053.301.178.018.16.16 0 .283-.072.053-.035 0 .125-.035.249s-.053.213.106.035c.212-.248.089.018.106.071.053.125.177.16.283.231.036.036.106.018.106.089.018.142.107.213.23.266.054.018.089.035.089.106 0 .142.106.196.177.284.035.036.07.071.088.125.018.124.089.212.142.301.035.053.07.089.07.16 0 .053.054.266.107.479.053.213.106.444.141.497-.353-.053-.725-.018-1.079.035-.177.036-.318.107-.513.125-.106.017-.23.017-.336.07-.106.036-.23.072-.319.125a1.44 1.44 0 00-.3.195c-.107.071-.195.16-.284.248-.141.142-.247.302-.353.355-.283.16-.46.444-.69.675-.106.106-.177.23-.301.319a4.81 4.81 0 00-.672.674c-.107.125-.195.231-.319.338-.248.177-1.68 1.65-1.858 1.898-.106.142-.849.887-.973.994-.194.16-.3.39-.53.532l1.556 1.526c.018-.053.071-.053.053-.142-.07-.248-.07-.372.23-.248.478.195.036-.515.23-.532.248-.018.496-.018.514-.284.035-.355.672-.16.477-.746 0-.017.071.018.106.036.443.16.337-.195.319-.462 0-.23.725.231.53-.248-.14-.32.142-.213.23-.284.266-.213.55-.426.708-.727.071-.125.177-.178.283-.267a2.63 2.63 0 00.69-.71c.071-.124.124-.23.266-.283.318-.142.495-.444.708-.692.07-.071.088-.178.194-.178h.071c.018 0 .053-.017.07-.017.036-.018.054-.036.072-.036.035-.018.053-.035.088-.035a.714.714 0 01.336-.125c.018 0 .124-.017.248-.035.141 0 .318 0 .513.035.371.053.743.231.778.267.177.16.39.23.567.372.088.071.177.107.23.23.088.232.3.356.424.569.071.106.142.213.177.337.053.23.39.372.212.71-.017.035.142.035.16.053.088.106.07.266.053.39 0 .142.017.266.247.355 0 0-.035.018-.053.036-.371.248-.035.337.195.479.195.124-.62.39-.177.532.053.018.124.035.124.053.018.267-.336.568.142.816.017 0-.071.036-.107.036-.407.195-.017.337.124.532.053.09-.035.16-.141.249-.107.088-.195.177-.107.284.107.142.16.301.16.461a.872.872 0 01-.177.444c-.142.177.035.355.141.55.089.177-.672.23-.3.479.035.018.035.035.07.053.23.107.195.178-.017.213-.23.053-.266.124-.213.213.036.089.16.213.23.32.124.195-.707.16-.336.443.018.018.053.036.053.053.053.16-.088.267-.194.373-.089.106-.142.23.106.461.017.018-.106 0-.16.018-.318.035-.23.23-.176.408.053.178.088.355-.319.337-.106 0 .142.195.106.266-.088.267-.07.604-.389.764-.212.106-.195.266-.106.532.07.23-.726-.053-.46.32.035.035.07.088.053.106-.142.23-.566.266-.371.727.017.018-.107-.035-.16-.035-.141-.018-.248.07-.336.213-.088.142-.16.337-.248.532-.177.408-.389.728-.725.515-.089-.053.035.213 0 .248-.089.089-.142.178-.23.23-.07.054-.177.09-.265 0-.071-.052-.089-.035-.107.019a.534.534 0 01-.106.195c-.035.053-.07-.124-.07-.249 0-.124 0-.213-.124 0-.089.142-.124.124-.142.09-.018-.054 0-.125-.018-.16-.106-.16-.3-.267-.46-.444l-.088-.089c-.035-.035-.07-.089-.07-.142-.054-.284-.196-.48-.302-.692-.017-.035-.053-.089-.07-.124-.018-.053-.018-.089-.018-.142.035-.23-.035-.426-.018-.657 0-.106 0-.213.036-.337.088-.23.141-.497.212-.763.035-.124.07-.284.141-.39.071-.107.266-.586.531-1.03.248-.46.566-.905.62-1.029.035-.07.212-.301.389-.532.177-.23.389-.444.442-.497.195-.195.3-.479.584-.603.035-.018.035-.036.035-.071l-1.61-1.49c-.194-.036-.265.052-.194.283.07.248.088.373-.23.266-.496-.16 0 .533-.213.568-.247.053-.495.071-.513.337 0 .178-.177.249-.3.337-.142.09-.248.213-.107.497 0 .018-.07-.017-.106-.017-.46-.071-.318.266-.248.55.018.124-.177.106-.336.124-.159.018-.3.07-.141.284.212.284-.089.248-.16.372-.212.32-.407.657-.442 1.047 0 .125-.053.213-.124.32l-.23-.16c0 .036-.035.018.018.089.142.177.195.248-.07.124-.425-.213.176.337.035.302-.177-.018-.372-.071-.283.088.123.231-.443-.017-.071.39.017.019-.053-.035-.089-.035-.389-.177-.177.071-.053.249.089.142-.637-.266-.3.07.23.231-.018.107-.071.143-.107.088-.248.177-.23.355 0 .07-.053.088-.106.124-.124.088-.213.195-.23.337 0 .053 0 .124-.071.142-.177.035-.195.195-.248.32-.018.053-.018.124-.088.141-.177.036-.195.302-.284.408-.035.054-.477.746-.53.763-.124.071-.16.213-.23.32-.036.053-.036.124-.106.16-.142.053-.142.213-.213.301-.035.053-.053.124-.124.16-.106.07.036.32-.265.266-.035 0 .07.089.088.124.018.178-.389.036-.123.373 0 0-.036-.018-.053-.018-.39-.177-.16.071-.036.249.106.16-.62-.267-.318.053.035.035.088.089.07.089-.07.088-.424-.018-.123.355.017.017-.053-.036-.089-.036-.39-.178-.106.106-.035.248.053.125-.425-.124-.337.054.124.248.036.355-.194.337-.16 0-.018.177.035.32.053.123-.601-.267-.318.052.017.018.017.036.053.071.177.178.141.178-.036.09-.389-.196-.141.07-.035.248.089.142-.62-.284-.318.035.017.018.035.053.053.053.088.213-.531-.088-.089.39.018.018-.088-.053-.141-.07-.549-.249.3.55-.39.195-.088-.053.124.16.107.195-.053.124-.018.302-.248.284-.16-.018-.142.089-.018.284.106.16-.601-.302-.318.035.035.036.07.071.07.09-.053.106-.406-.019-.141.336.018.018-.088-.053-.124-.07-.478-.231 0 .922-.655.55-.088-.054.107.16.089.195-.07.106-.053.301-.265.266-.16-.018-.036.16 0 .301.035.125-.602-.319-.301.036.212.248-.036.089-.089.106-.141.054-.194.196-.283.302-.035.035-.035.106-.088.124-.16.036-.23.16-.283.284-.018.053-.036.107-.107.124-.159.036-.194.178-.282.267-.036.053-.054.106-.124.124-.124.053-.195.16-.266.266-.035.053-.07.106-.124.142-.123.053-.707.621-.76.745-.036.071-.354.337-.407.373-.107.053-.107.23-.283.195-.018 0-.018.018-.018.035l1.433 1.65c.142.09.177.054.07-.123-.105-.196-.14-.302.107-.107.372.302-.106-.373.035-.32.177.072.354.16.301-.035-.07-.248.442.107.16-.372 0-.018.052.035.088.053.354.248.177-.036.106-.23-.07-.16.584.39.318-.019-.177-.266.036-.106.089-.124.124-.07.283-.142.3-.32.018-.07.071-.088.125-.106.141-.07.247-.16.283-.301.017-.054.017-.125.106-.142.177-.018.23-.178.3-.302.036-.053.036-.124.107-.142.177-.018.247-.284.354-.373.017-.017.159-.195.3-.372.142-.178.283-.355.319-.355.141-.053.177-.195.265-.302.036-.053.053-.124.124-.142.142-.035.16-.195.248-.301.053-.054.07-.125.141-.16.124-.071 0-.32.283-.248.036 0-.07-.107-.07-.125-.018-.177.389-.017.159-.372 0 0 .035.017.053.017.371.195.16-.07.053-.266-.088-.16.62.302.318-.035a.7.7 0 01-.07-.089c.088-.089.442.018.141-.355 0-.018.053.035.089.053.389.195.106-.106.053-.248-.053-.124.424.124.336-.053-.124-.249-.036-.355.194-.355.16 0 .036-.178-.035-.32-.053-.124.602.267.319-.053-.018-.018-.018-.035-.053-.07-.177-.178-.142-.178.035-.09.39.196.16-.07.035-.266-.088-.142.62.266.319-.053-.018-.018-.036-.053-.053-.053-.089-.213.53.07.088-.39-.017-.018.089.053.142.07.548.249-.301-.55.389-.195.088.053-.124-.16-.106-.195.053-.124.018-.302.248-.302.159 0 .141-.088 0-.284-.107-.16.619.267.318-.053-.035-.035-.07-.07-.07-.089.052-.106.406 0 .123-.355-.018-.017.089.054.142.054.495.195-.053-.94.619-.604.088.054-.124-.16-.106-.177.053-.124.017-.302.247-.302.16 0 .036-.16-.035-.301-.053-.125.637.266.3-.071-.23-.231.019-.09.072-.125.141-.07.176-.23.247-.337.036-.053.018-.124.089-.142.159-.053.212-.177.247-.32.018-.052.018-.123.089-.141a.408.408 0 00.195-.23c0 .017.017.035.017.053 0 .106.036.23.089.337.053.124.106.23.177.355.07.124.141.213.212.319.07.089.141.195.194.284.054.07.46.639 1.133 1.03.336.194.743.336 1.097.372.336.035.601 0 .654 0 .266 0 .514-.071.726-.178.212-.106.407-.23.584-.355.177-.124.3-.266.477-.372.337-.178.531-.515.726-.763.106-.124.195-.284.336-.39.248-.214.212-.64.637-.728.053-.018-.053-.142-.035-.195.07-.338.619-.39.424-.888h.053c.46.036.283-.301.195-.567-.07-.231.76-.018.478-.409-.036-.035-.089-.088-.071-.124.124-.284.601-.426.283-.887-.018-.018.07 0 .106 0 .46-.036.177-.355.106-.586-.053-.213.513-.23.425-.514a.932.932 0 01-.035-.533c.035-.16.141-.319.265-.461.177-.195.018-.408-.07-.621-.072-.177.69-.23.318-.532-.036-.018-.036-.036-.071-.054-.23-.124-.195-.177.017-.248.46-.142.124-.373-.035-.603-.141-.178.69-.302.283-.55a.236.236 0 01-.07-.054c-.089-.16.053-.301.106-.461.07-.16.088-.32-.23-.48-.018-.017.106-.035.141-.07.3-.16.16-.337.035-.497.319-.23.213-.39.584-.568z" fill="#043C3A"/><path d="M37.872 47.45c0 .018 0 .018 0 0 0-.035-.017-.07-.017-.089v.018c.017.018.017.053.017.071z" fill="#043C3A"/><path d="M86.33 23.618c-.035-.035-.052-.106-.07-.142-.425-.656.336-1.26.212-1.774-.124-.604-.336-1.118-.212-1.81.124-.71.177-1.438.106-2.165a6.385 6.385 0 00-.3-.604c-.372-.656-.019-1.366-.302-1.863-.3-.55-.831-.976-.601-1.703.018-.054.07-.142.053-.16-.548-.621-.62-1.384-.76-2.13-.178 0-.32.036-.443.143-.496.443-.85.958-1.593.833-.035 0-.07-.035-.088-.017-.725.763-1.805.798-2.654 1.295-.124.071-.194.266-.3.284-.992.142-1.77.78-2.655 1.118-.495.195-.955.426-1.433.639-.902.39-1.787.887-2.707 1.207-.495.177-.902.39-1.362.603-.92.426-1.84.887-2.778 1.224-.46.178-6.228 2.786-6.652 2.964-.956.408-2.548 1.26-3.539 1.561-.46.142-.814.355-1.22.55-.478.23-.956.462-1.452.692l-.371.16-.354.142c-.106.036-.23.089-.336.124-.106.036-.212.089-.319.124-.371.16-.619.373-.902.64-.69.638-1.31 1.33-1.805 2.129-.194.301-.407.638-.548 1.064-.372 1.012-.867 1.97-1.31 2.946-.159.355-.548.586-.389 1.082.124.373-.07.621-.3.852-.213.23-.46.444-.46.71 0 .657.159 1.224-.39 1.703-.035.036-.141.071-.123.107.159.497.053.94-.071 1.349-.124.408-.248.834-.124 1.206.088.266.124.497.124.71 0 .213 0 .444.035.692.018.178.283.248.513.284.23.035.39.053.478.355.106.39.425.355.62.124.035-.035.052-.07.07-.089-.07-.053-.177-.088-.106-.106.389-.018.318-.124.212-.23-.106-.107-.23-.232.089-.25h.159c-.602-.283.088-.319-.053-.514 0-.018-.036-.018-.071-.035-.39-.213.425-.125.283-.249-.16-.142-.478-.32-.035-.32.194 0 .247-.017.017-.123-.035-.018-.035-.036-.07-.054-.372-.213.371-.124.3-.23-.106-.142-.283-.266-.124-.355.23-.107.284-.284.107-.515-.142-.177.407-.106.318-.23-.106-.142-.442-.355-.018-.32.036 0 .107.018.107 0-.39-.284 0-.337.053-.479 0-.018-.053-.053-.089-.071-.371-.248.442-.071.319-.213-.16-.177-.443-.373-.018-.32.018 0 .053.018.053 0-.318-.283.124-.301.07-.496 0-.036-.14-.107-.105-.107.318-.053.123-.301.247-.425.053-.072.071-.16.107-.249.07-.16.053-.337.194-.461.07-.071.07-.16.106-.231.071-.16.089-.337.213-.461.053-.071.477-1.047.53-1.118.089-.142.124-.48.301-.568.089-.053.07-.124.106-.195.071-.16.089-.373.283-.462.089-.035.071-.124.089-.195a.864.864 0 01.265-.479c.053-.053.124-.089.124-.178 0-.212.142-.337.283-.479.053-.053.319.036.089-.177-.337-.337.424.018.336-.142-.106-.195-.319-.444.088-.302.036.018.106.054.089.036-.372-.426.23-.23.124-.497-.071-.195.123-.16.318-.16.16 0-.442-.55 0-.372.283.124.248.017.106-.16-.053-.071-.017-.071-.017-.107l1.769 1.278c-.124.071-.142.213-.23.302-.07.053-.39.497-.407.585-.053.16-.602 1.03-.725 1.136-.071.053-.089.124-.124.195-.071.142-.124.302-.248.408-.053.054-.07.125-.106.196-.071.142-.089.319-.248.425-.07.054-.07.125-.088.196-.036.177-.089.337-.248.443-.07.053-.053.124-.07.178-.072.16-.09.337-.23.461-.054.035-.32-.035-.072.16.372.284-.371.053-.3.16.07.141.23.301.07.337-.247.07-.194.266-.23.425-.017.036.23.196.124.178-.371-.071-.389.16-.354.426.018.248.071.514-.194.497-.036 0-.16-.036-.142-.018.354.302-.018.302-.053.461 0 .018.053.036.089.071.371.249-.46.053-.319.178.177.16.212.266.053.32-.23.088-.16.283-.177.443 0 .035.266.177.16.16-.779-.09.283.425-.337.408a.971.971 0 01-.159-.018c.566.32-.106.284.035.479 0 .018.036.035.053.035.39.213-.424.09-.3.213.159.142.478.32.035.302-.194 0-.248.018-.017.124.035.018.035.036.07.036.372.213-.371.106-.283.213.106.124.283.248.142.32-.213.106-.266.283-.053.478.159.142-.39.124-.284.23.124.125.496.267.071.285h-.106c.425.213.053.301.035.443 0 .018.054.036.107.054.424.142-.425.142-.266.23.195.125.513.213.089.284h-.053c.389.16-.036.284.088.426.018.018.16.036.142.053-.266.142-.018.267-.053.408-.036.072 0 .143.017.214 0 .141.124.266.053.408-.035.07.018.124.036.195.035.124.124.23.106.355 0 .035.07.23.16.372.088.16.212.267.23.284a.615.615 0 00.158.107c.071.035.107.07.124.142.018.07.071.053.124.07.053.018.106.018.16.036.052.018.105.036.14.124.036.071.09.036.142.018a.465.465 0 01.372.053c.053.018.088.071.16.018.07-.053.14-.07.194-.053.07 0 .141.035.212.035.053.018.124.267.142-.035.017-.249.053-.16.123-.036.054.125.124.284.142.196.053-.213.053-.533.23-.142.018.035.036.106.036.088 0-.284.053-.284.141-.248.07.035.16.106.195-.018.017-.124.088-.106.159-.035.07-.071.177-.125.106-.213-.018-.018-.035-.018-.07-.036-.408-.195.424-.16.282-.284-.159-.142-.495-.32-.053-.355.195-.017.248-.035 0-.142-.035-.017-.035-.035-.07-.035-.39-.213.371-.16.283-.266-.107-.142-.283-.266-.142-.373.23-.142.265-.337.088-.568-.141-.177.407-.142.319-.284-.106-.142-.46-.337-.035-.355.035 0 .106.018.106 0-.39-.283 0-.354.053-.514 0-.018-.053-.053-.089-.071-.389-.23.46-.107.319-.248-.177-.178-.46-.355-.018-.355h.053c-.318-.284.124-.338.071-.55 0-.036-.142-.107-.106-.107.318-.089.124-.337.23-.48.053-.088.07-.177.106-.265.07-.178.035-.373.195-.515.07-.07.07-.16.106-.248.07-.178.088-.373.212-.515.07-.07.478-1.153.53-1.224.09-.16.125-.515.32-.64.088-.052.07-.141.105-.23.071-.177.089-.39.284-.514.088-.054.07-.125.088-.213a.927.927 0 01.283-.515c.053-.053.124-.106.124-.195 0-.23.16-.373.3-.532.054-.054.32.017.09-.196-.355-.337.441 0 .335-.177-.106-.195-.318-.444.089-.337.035.017.106.035.088.035-.371-.426.23-.266.124-.532-.07-.195.142-.178.336-.178.16 0-.46-.55 0-.39.301.106.248 0 .107-.177-.054-.071-.018-.071-.018-.107l1.804 1.224c-.123.09-.141.249-.23.338-.07.07-.407.55-.424.656-.018.089-.195.373-.354.657-.16.284-.336.568-.407.62-.07.072-.088.143-.124.231-.07.16-.124.32-.247.462-.054.07-.071.142-.107.213-.07.16-.088.355-.247.479-.071.053-.071.124-.089.213-.035.177-.088.373-.248.497-.07.053-.053.142-.07.195-.071.177-.089.373-.23.514-.053.054-.336-.017-.071.178.39.284-.372.071-.319.195.071.142.23.302.071.373-.248.089-.177.302-.23.479-.017.035.23.195.142.177-.39-.053-.39.213-.354.48.035.266.088.55-.177.55a.953.953 0 01-.142-.018c.372.284-.017.337-.053.497 0 .018.053.035.089.07.371.231-.46.09-.319.231.177.178.23.267.071.355-.23.107-.141.32-.16.48 0 .035.266.177.16.177-.778-.036.283.444-.318.461-.053 0-.177-.017-.16 0 .584.302-.106.302.053.515.018.017.036.035.071.035.39.213-.424.124-.283.249.16.142.496.32.053.337-.194 0-.248.035 0 .124.036.018.036.036.071.036.39.195-.371.142-.283.266.106.124.3.248.141.355-.23.142-.265.32-.053.532.16.16-.389.16-.283.284.124.124.496.284.071.32-.035 0-.106 0-.106.017.425.23.053.337.035.497 0 .018.053.035.106.053.425.16-.424.16-.265.284.195.142.513.248.089.302h-.053c.194.088.176.16.141.248-.035.071-.124.142-.053.213.018.018.16.036.142.053-.142.071-.142.142-.107.213.036.071.089.125.071.196-.018.07.018.141.018.195.017.124.124.213.088.337-.017.07.036.089.053.124.053.089.124.089.124.195 0 .018.018.036.053.071.018.018.036.018.053.036.018.017.053.017.071.035.106.036.265.053.283.053.106.036.283-.106.442-.017.071.035.107-.018.16-.054.07-.035.124-.07.194-.106.071-.036.124-.036.23-.018.089.018.124-.035.16-.089a.742.742 0 01.46-.212c.07-.018.141 0 .194-.071.106-.178.283-.213.46-.267.071-.017.248.178.16-.124-.16-.461.371.213.353.018-.017-.23-.123-.532.195-.248.018.017.07.088.07.07-.14-.408.107-.266.213-.301-.018-.249.07-.462.212-.675.177-.283.39-.55.354-.834-.07-.674-.265-1.313.301-1.845.035-.035.142-.089.124-.106a1.867 1.867 0 01-.035-.764 3.32 3.32 0 01.23-.71c.106-.23.212-.443.3-.674.089-.23.177-.443.195-.692.035-.355.16-.638.318-.905.16-.266.354-.496.549-.763.177-.213.141-.55.16-.887.017-.337.087-.674.46-.852.477-.23.53-.55.548-1.029 0-.177.106-.284.177-.426l1.875 1.118c-.46.639-.76 1.367-1.115 2.04-.053.107-.194.391-.354.746-.159.355-.353.799-.53 1.242-.354.888-.637 1.81-.69 2.059-.124.461-.584 2.218-.814 4.046-.018.177-.053.372-.071.55l.053.053c0 .018 0 .053-.035.053-.018 0-.036.018-.036.018-.017.23-.053.444-.07.674-.018.213-.036.426-.036.639 0 .053 0 .107-.018.16v.319c.036.55.213.87.301.976.16.266.354.39.62.444.265.07.619.07.99-.018.372-.089.779-.23 1.168-.408.089-.036.177-.089.265-.142.089-.053.195-.124.301-.178l.584-.372c.85-.533 1.645-1.154 2.442-1.686.371-.248.637-.532.92-.834.318-.355.619-.728.884-1.118.142-.177.248-.39.39-.568.07-.089.106-.195.177-.284.053-.088.123-.195.159-.284.035-.088.088-.16.106-.248l.018-.018v-.053c-.301-.107-.213-.071 0 0v-.053c.017-.195.035-.408.07-.604.071-.425.124-.87.177-1.295-.354.16-.796.195-1.008.461-.407.497-.743 1.03-1.504 1.313-.283.09-.566.196-.867.284-.16.036-.3.09-.478.125l-.124.017-.07.018a.955.955 0 01-.319 0 1.023 1.023 0 01-.62-.337 1.033 1.033 0 01-.264-.603c-.018-.231.035-.497.194-.692a.825.825 0 01.248-.249l.106-.07.16-.107.3-.213c.212-.142.407-.284.62-.426.194-.142.3-.55.477-.532.602.053 1.716-.799 2.76-1.74 1.044-.922 2-1.916 2.53-2.04.089-.018.23.018.248-.018.194-.461.513-.78.867-1.082l.53-.426.266-.213c.088-.071.16-.16.248-.248.053-.054.053-.16.07-.231.071-.373.354-.515.637-.657.283-.124.584-.213.69-.461.106-.302.213-.568.354-.799.071-.124.16-.23.248-.337a5.64 5.64 0 01.3-.337c.09-.089.178-.177.266-.284l.177-.195c.69-.461 1.274-1.1 1.91-1.686.178-.16.23-.603.39-.603 1.256-.053 1.327-1.633 2.442-1.828.088-.018.247.018.247-.018.213-.816.938-1.082 1.54-1.49-.283-.621.442-1.171.283-1.668-.195-.621-.549-1.19-.124-1.81.018-.337.035-.55-.212-.781z" fill="#fff"/><path d="M88.308 23.352c-.035-.054-.035-.107-.07-.142-.248-.249-.213-.462-.018-.746.425-.62.07-1.17-.124-1.81-.159-.514.655-1.118.23-1.774a.633.633 0 01-.07-.16c-.089-.408 0-.834.052-1.26l-.035-.284c-.07-.532-.177-1.047-.654-1.437-.036-.018.07-.16.088-.23.3-1.119-1.115-1.81-.655-2.982.053-.16-.318-.39-.389-.62-.23-.71-.53-1.42-.69-2.148l-.212-.958-1.009.372c-.23.09-.442.16-.672.213-.672.142-1.097.426-1.593.888-.406.372-1.273-.16-1.716.497-.053.07-.088.16-.159.195-.85.408-1.858.461-2.53 1.242-.035.035-.16-.036-.248-.053-1.079-.071-4.936 2.839-6.121 2.555-.16-.036-.354.355-.567.461-.902.426-1.804.976-2.76 1.19-.672.159-1.061.55-1.574.922-.425.32-1.327-.142-1.699.532-.265.462-.654.337-1.008.462-1.027.372-2 .87-2.99 1.33-.39.178-.726.39-1.15.533-1.009.337-1.982.798-2.92 1.277-.407.196-.778.409-1.22.55a20.41 20.41 0 00-1.434.586l-.371.177a3.996 3.996 0 00-.39.196c-.123.07-.265.142-.389.213-.124.07-.248.142-.371.23-.443.284-.85.621-1.274.976-.885.728-1.575 1.686-2.07 2.715-.23.48-.407.905-.655 1.384a36.64 36.64 0 00-1.734 4.028 33.35 33.35 0 00-.831 2.645c-.195.78-.319 1.384-.354 1.65-.018.142-.089.479-.124.94a7.318 7.318 0 000 1.65c.035.302.106.622.195.906.035.141.106.283.159.425.07.142.106.249.194.39.284.515.602.817.744.941.106.124.247.213.371.302.142.089.265.177.407.248.283.16.602.249.92.32.212.035.425.07.655.07.035.09.088.178.123.25.142.248.266.496-.088.656-.088.053.195.053.212.106.071.195.248.337.124.586-.088.177.142.213.319.284.07.035-.071.142-.142.266-.088.106-.124.213.106.16.319-.071.106.124.124.212.053.249.266.426.443.604.07.07.176.089.212.195.124.23.336.373.566.461a.638.638 0 01.265.142.751.751 0 00.301.178c.106.035.23.053.336.089.106.017.195.017.301.07.106.054.212.071.319.09.106.017.212.017.318.017.106 0 .195-.018.3.018.054.017.178.017.337.017.16 0 .354-.017.53-.035.125-.018.248-.036.355-.071.035.018.088.035.088.053 0 .089-.088.195-.124.284-.035.107-.017.195.212.284.018 0-.106.035-.141.053-.248.107-.088.426.07.728.16.302.337.568.036.816-.088.071.212.053.248.107.053.106.16.212.23.319.088.106.141.23.16.39.017.125.087.178.176.196.106.017.212.017.319.017.088 0 .053.178.053.337 0 .16.053.284.247.125.124-.107.177-.09.213-.054.035.054.053.142.088.178.265.177.602.177.867.195.106 0 .212-.053.319 0a.97.97 0 00.743-.07c.106-.036.177-.09.283-.09.247.018.46-.124.637-.213.088-.035.159-.106.265-.124.212-.035.371-.142.548-.248.089-.053.16-.107.248-.142.053-.018.177-.071.319-.142 0 .337.035.674.106 1.011.177.71.566 1.42 1.22 1.899a3.97 3.97 0 001.664.728c.725.124 1.415.017 2.017-.178.3-.089.601-.213.884-.355a6.733 6.733 0 00.779-.443c.354-.249.672-.48 1.097-.693a8.917 8.917 0 001.415-.869c.23-.16.443-.355.673-.532.212-.195.442-.373.636-.568.177-.16.337-.32.496-.497.088-.089.16-.177.248-.248.088-.09.177-.178.283-.267.424-.372.937-.993 1.309-1.703.195-.355.371-.728.495-1.1.018-.053.036-.089.053-.142l.018-.071v-.036c.018-.035.018-.088.035-.124l.018-.07v-.036l.018-.071c0-.036.018-.071.018-.125.017-.16.053-.301.07-.425.018-.125.089-.604.195-1.26.018-.16.053-.338.07-.533 0-.053.019-.088.019-.142l.017-.07.018-.09V42.8c0-.124 0-.248-.018-.39-.017-.142-.035-.302-.088-.497l-.053-.16-.053-.106c.725-.568 1.309-1.313 2.176-1.757.106-.053.124-.266.212-.373.336-.372.743-.692 1.132-1.029.195-.178.372-.355.531-.55a2.1 2.1 0 00.39-.674c0-.018.053-.018.088-.018a1.13 1.13 0 00.743-.604c.141-.283.23-.603.354-.922.141-.39.725-.515 1.061-.887l-.23.248a.74.74 0 00.319-.426c.018-.089.035-.177.106-.23.725-.604 1.663-.959 2.088-1.9.018-.035.106 0 .177-.017.76-.089.92-.745 1.291-1.26.354-.461 1.133-.426 1.575-1.047a6.927 6.927 0 011.327-1.366l.3-.23.018-.445c.018-.408.053-.798.124-1.188.124-.693-.088-1.19-.212-1.81-.177-.55.566-1.154.141-1.81zM73.04 45.71l.141.053.07.018.036.018h.018c.053.018-.07-.018-.265-.089zm.513-2.644h-.089c.071 0 .16 0 .248.018l-.16-.018zm11.11-13.752c-.017.035-.159 0-.247.018-1.132.195-1.185 1.756-2.441 1.827-.16 0-.23.444-.39.604-.619.567-1.22 1.206-1.91 1.685l-.177.196c-.089.106-.178.195-.266.284a1.781 1.781 0 00-.3.337c-.09.106-.16.23-.248.337a3.26 3.26 0 00-.354.798c-.089.249-.407.337-.69.462-.283.124-.567.266-.637.656-.018.089-.018.178-.071.231-.07.089-.16.16-.248.248l-.265.213c-.177.142-.372.284-.53.426-.355.284-.673.604-.868 1.083-.017.035-.16 0-.248.017-.513.125-1.468 1.118-2.53 2.041-1.043.923-2.158 1.792-2.76 1.74-.159-.019-.283.407-.477.531-.213.142-.407.284-.62.426l-.3.213-.16.107-.106.07a.825.825 0 00-.247.25 1.088 1.088 0 00-.195.691c.017.23.106.444.265.603.16.178.39.302.62.338.123.017.23.017.318 0l.07-.018.125-.018a4.75 4.75 0 00.477-.124c.301-.089.584-.195.867-.284.761-.284 1.097-.816 1.504-1.313.212-.266.672-.302 1.009-.461-.053.425-.106.869-.177 1.295-.036.213-.053.408-.071.603v.053c-.212-.07-.3-.106 0 0v.054l-.018.017c-.035.09-.07.16-.106.249a4.052 4.052 0 01-.16.284c-.052.089-.105.195-.176.284-.124.195-.248.39-.39.568-.265.39-.566.745-.884 1.117-.283.302-.548.586-.92.834-.796.55-1.592 1.154-2.442 1.686l-.584.373c-.088.053-.194.124-.3.177a1.93 1.93 0 01-.266.142c-.389.178-.796.32-1.167.408-.39.09-.726.09-.991.018-.266-.07-.46-.177-.62-.443-.07-.125-.265-.444-.3-.976v-.32c0-.053 0-.106.017-.16a6.94 6.94 0 00.036-.638c.018-.213.035-.444.07-.675.018 0 .018-.017.036-.017s.035-.036.035-.054l-.053-.053c.018-.177.036-.373.071-.55.23-1.81.69-3.584.814-4.046.053-.248.336-1.17.69-2.058a33 33 0 01.53-1.242c.178-.355.302-.621.355-.746.353-.692.654-1.402 1.114-2.04l-1.875-1.118c-.053.142-.16.248-.177.426-.018.479-.089.798-.549 1.029-.371.177-.424.514-.46.852-.017.337.018.674-.159.887-.194.266-.39.497-.548.763a2.72 2.72 0 00-.319.905c-.017.248-.106.461-.194.692-.089.23-.195.444-.301.674-.106.23-.177.462-.23.71-.053.248-.053.497.035.763 0 .036-.088.071-.124.107-.566.532-.389 1.17-.3 1.845.017.284-.177.55-.354.834-.124.213-.23.426-.213.674-.106.036-.353-.106-.212.302 0 .018-.053-.053-.07-.071-.32-.284-.213.018-.195.248.017.196-.513-.479-.354-.017.106.301-.089.106-.16.124-.176.053-.353.089-.46.266-.035.071-.123.071-.194.071-.177.036-.336.089-.46.213-.053.053-.088.107-.16.089a.336.336 0 00-.23.018c-.07.035-.123.07-.194.106-.053.018-.088.089-.16.053-.14-.088-.335.053-.441.018-.018 0-.195-.018-.284-.053-.035-.018-.053-.018-.07-.036-.018-.017-.036-.035-.053-.035-.036-.036-.053-.053-.053-.071 0-.089-.071-.107-.124-.195-.018-.036-.071-.071-.053-.125.053-.124-.071-.195-.089-.337a.353.353 0 01-.018-.195c.018-.071-.035-.124-.07-.195-.018-.071-.018-.142.106-.213.035-.018-.124-.036-.142-.053-.053-.071.018-.142.053-.213.036-.071.053-.142-.141-.249h.053c.425-.07.106-.16-.089-.301-.159-.107.69-.107.266-.284-.053-.018-.106-.036-.106-.054.035-.16.389-.266-.036-.496-.017 0 .071 0 .106-.018.425-.053.054-.195-.07-.32-.107-.124.442-.124.283-.284-.213-.212-.177-.39.053-.532.141-.089-.036-.213-.142-.355-.088-.106.673-.07.283-.266-.035-.018-.035-.035-.07-.035-.23-.09-.195-.125 0-.125.442-.017.123-.177-.053-.337-.142-.124.69-.035.283-.248-.036-.018-.053-.036-.071-.036-.16-.213.53-.213-.053-.514-.018-.018.106 0 .159 0 .62-.018-.46-.48.319-.462.106 0-.178-.124-.16-.177.018-.178-.07-.373.16-.48.159-.07.106-.177-.071-.354-.142-.142.69.018.318-.23-.035-.018-.088-.054-.088-.072.035-.16.424-.213.053-.497-.018-.017.106.018.141.018.266 0 .213-.266.177-.55-.035-.266-.017-.532.354-.48.106.019-.141-.141-.141-.177.035-.177-.018-.39.23-.479.159-.053.017-.213-.071-.372-.071-.125.69.07.318-.196-.265-.195.018-.124.071-.177.142-.142.16-.337.23-.514.035-.072.018-.143.07-.196.16-.124.213-.301.248-.497.018-.07.018-.16.089-.212.16-.125.177-.302.248-.48.035-.07.053-.16.106-.213.124-.124.177-.301.248-.461.035-.07.053-.16.123-.23.071-.054.248-.338.407-.622.16-.284.337-.568.354-.656.018-.089.372-.586.425-.657.088-.106.106-.266.23-.337l-1.805-1.224c0 .035-.035.035.018.106.141.178.194.284-.106.178-.46-.16.159.39 0 .39-.195 0-.407-.018-.337.177.107.267-.495.107-.123.533.017.017-.071-.018-.089-.036-.424-.124-.212.124-.088.337.088.16-.69-.177-.336.178.23.23-.036.142-.089.195-.141.16-.283.302-.3.532 0 .09-.071.142-.125.196a.99.99 0 00-.283.514c-.017.089 0 .16-.088.213-.195.124-.212.337-.283.515-.035.07-.018.177-.106.23-.195.125-.213.48-.319.64-.053.07-.477 1.153-.53 1.224-.124.142-.142.337-.213.514-.035.089-.018.178-.106.249-.142.142-.124.337-.195.514-.035.089-.035.195-.106.266-.106.142.089.409-.23.48-.035.017.106.088.106.106.053.213-.389.266-.07.55h-.053c-.425-.018-.142.178.017.355.142.142-.69 0-.318.248.035.018.106.054.088.071-.053.16-.442.231-.053.515h-.106c-.442 0-.07.213.035.355.089.124-.442.106-.318.284.194.23.141.426-.089.568-.159.088.036.23.142.372.088.107-.672.071-.283.267.035.017.035.035.07.035.23.089.195.124 0 .142-.442.035-.123.195.054.355.141.124-.69.088-.283.284.035.017.053.035.07.035.071.089-.017.16-.106.213-.07-.07-.141-.089-.159.036-.018.124-.124.053-.195.017-.07-.035-.141-.035-.141.249 0 .018-.036-.053-.036-.089-.176-.39-.176-.07-.23.142-.017.089-.088-.07-.141-.195-.053-.124-.106-.213-.124.035-.018.32-.106.054-.142.036a.864.864 0 00-.212-.036.355.355 0 00-.194.054c-.053.035-.107 0-.16-.018a.456.456 0 00-.371-.053c-.053.017-.106.053-.142-.018a.237.237 0 00-.141-.124c-.053-.018-.107-.018-.16-.036-.035-.018-.106 0-.123-.07-.018-.072-.053-.125-.124-.143-.071-.017-.124-.07-.16-.106-.017-.018-.123-.125-.23-.284-.088-.16-.159-.337-.159-.373.018-.142-.07-.23-.106-.355-.018-.053-.07-.106-.035-.195.07-.142-.036-.266-.053-.408 0-.071-.036-.142-.018-.213.035-.124-.212-.266.053-.408.035-.018-.124-.036-.142-.053-.123-.142.301-.267-.088-.426h.053c.425-.071.106-.16-.088-.284-.16-.107.672-.089.265-.23-.053-.019-.106-.036-.106-.054.035-.142.39-.23-.035-.444h.106c.424-.017.053-.177-.071-.284-.106-.106.442-.088.283-.23-.212-.196-.16-.373.053-.48.16-.07-.035-.195-.142-.319-.088-.106.673-.018.284-.213-.036-.018-.036-.035-.071-.035-.23-.107-.195-.124.017-.124.443.017.124-.16-.035-.302-.124-.124.69 0 .3-.213-.034-.018-.052-.036-.052-.036-.142-.195.53-.16-.036-.479-.017-.017.107.018.16.018.619.036-.443-.479.336-.408.106.018-.16-.124-.16-.16.018-.16-.053-.355.177-.443.16-.054.124-.16-.053-.32-.141-.142.69.053.319-.177-.035-.018-.088-.053-.088-.071.035-.142.424-.16.053-.462-.018-.017.106.018.141.018.265.018.212-.23.195-.497-.018-.248-.018-.496.354-.426.106.018-.142-.142-.124-.177.035-.16-.018-.355.23-.426.159-.035.017-.195-.071-.337-.07-.124.69.124.3-.16-.265-.195.018-.124.072-.16.141-.124.159-.301.23-.46.035-.054.017-.143.07-.178.16-.107.213-.266.248-.444.018-.07.018-.142.088-.195.16-.106.177-.284.248-.426.036-.07.053-.142.106-.195.124-.107.177-.266.248-.408.035-.071.053-.142.124-.195.124-.107.672-.994.725-1.136.018-.089.354-.532.407-.586.089-.088.106-.248.23-.301l-1.77-1.278c0 .035-.034.035.019.106.141.178.176.284-.107.16-.442-.177.16.373 0 .373-.194 0-.389-.036-.318.16.106.248-.478.053-.124.496.018.018-.07-.017-.088-.035-.407-.142-.195.106-.089.301.089.16-.672-.212-.336.142.23.231-.035.142-.088.178-.142.142-.283.266-.283.479 0 .089-.071.124-.124.178a.727.727 0 00-.266.479c-.018.07 0 .16-.088.195-.195.088-.212.302-.283.461-.036.071-.018.16-.107.195-.194.107-.212.426-.3.568-.053.071-.478 1.047-.531 1.118-.124.124-.16.302-.212.462-.036.07-.018.16-.107.23-.141.124-.123.302-.194.462-.035.088-.035.177-.106.248-.106.124.07.373-.248.426-.035 0 .088.089.106.106.053.196-.39.213-.07.497h-.054c-.424-.035-.159.16.018.32.142.142-.69-.036-.319.212.036.018.107.054.089.072-.053.142-.442.195-.053.479h-.106c-.425-.018-.089.177.018.319.088.124-.46.071-.319.23.177.231.124.409-.106.515-.16.071.017.213.124.355.088.107-.673.018-.301.23.035.019.035.036.07.054.23.107.195.124-.017.124-.442 0-.124.178.035.32.124.124-.69.035-.283.248.036.018.053.036.071.036.16.195-.53.23.053.514.018.018-.106 0-.16 0-.3.018-.176.142-.088.249.107.106.177.213-.212.23-.07 0 .035.054.106.107-.017.035-.053.053-.07.089-.177.23-.496.266-.62-.125-.07-.301-.248-.319-.477-.355-.213-.035-.478-.088-.514-.283-.035-.249-.017-.462-.035-.692 0-.213-.035-.444-.124-.71-.124-.373 0-.799.124-1.207.106-.408.23-.852.07-1.349-.017-.035.09-.07.125-.106.548-.48.389-1.065.389-1.703 0-.267.248-.48.46-.71.212-.231.407-.48.3-.852-.14-.497.23-.728.39-1.082.442-.976.938-1.935 1.31-2.946.14-.408.353-.763.548-1.065.495-.78 1.114-1.49 1.804-2.13.284-.248.531-.478.903-.638.106-.053.212-.089.318-.124.106-.053.212-.089.336-.125l.354-.142.372-.16c.477-.23.973-.46 1.45-.691.407-.195.761-.408 1.221-.55.991-.302 2.566-1.154 3.539-1.562.425-.177 6.192-2.804 6.653-2.963.937-.355 1.857-.816 2.777-1.225.46-.213.867-.426 1.363-.603.92-.32 1.804-.799 2.707-1.207.477-.213.937-.443 1.433-.638.884-.338 1.663-.976 2.654-1.118.123-.018.194-.213.3-.284.85-.515 1.929-.533 2.654-1.296.018-.017.053.018.089.018.743.124 1.115-.39 1.592-.834.106-.106.266-.142.443-.142.141.745.194 1.508.76 2.13.018.017-.035.106-.053.16-.23.727.301 1.135.602 1.703.265.496-.071 1.224.3 1.863.107.195.213.39.301.603a7.34 7.34 0 01-.106 2.165c-.124.692.089 1.189.213 1.81.106.515-.637 1.118-.213 1.775.036.053.036.106.071.142.248.248.212.46.018.745-.425.62-.071 1.171.123 1.81.142.479-.566 1.047-.283 1.668-.406.443-1.132.71-1.344 1.526z" fill="#043C3A"/><path d="M54.146 62.125c-.443.142.354.017.23.088-.142.09-.319.16-.142.178.23.018-.336.213.213.177.017 0-.071.018-.089.036-.407.142-.088.106.124.106.177 0-.655.23-.177.178.319-.036.053.053.053.088-.017.09-.053.178.053.249.053.018.018.053 0 .106-.035.089-.035.178.053.231.036.018.089.053.036.089-.106.106 0 .177.035.248.018.036.07.053.036.107-.107.106.053.213.053.284 0 .035.141.496.123.55-.053.088.018.16.036.23.017.036.053.071.017.107-.07.088.036.142.053.213 0 .035.036.07.018.124-.035.089.23.106-.018.23-.035.018.124 0 .142 0 .124.054-.248.213.16.196 0 0-.036.017-.054.017-.389.143-.07.107.142.107.177 0-.637.23-.195.178.053 0 .106-.018.106 0 0 .07-.318.212.142.195.018 0-.07.017-.089.035-.407.142 0 .089.142.107.124.017-.39.177-.195.195.248.018.266.106.089.213-.106.07.106.07.23.089.124.017-.602.23-.195.177h.07c.249-.036.213-.018.036.053-.407.142-.053.107.142.107.16 0-.62.23-.195.177h.071c.212.036-.425.248.212.177.018 0-.106.036-.141.054-.566.195.584.035-.142.266-.088.035.195 0 .213 0 .053.07.194.106.017.23-.124.072-.035.107.177.107.177 0-.62.23-.194.177.053 0 .106-.017.106 0 .035.072-.301.213.141.196.018 0-.106.035-.141.053-.478.177.654.302-.053.532-.107.036.194 0 .194.018.036.071.195.124.018.23-.124.09.088.072.23.09.106.017-.637.23-.177.177.319-.036.053.053.018.089-.053.088.017.16.053.248 0 .036.07.053.035.089-.07.106-.035.177.036.248.035.036.053.053.035.107-.07.088.018.16.035.23.018.036.036.071.036.107-.036.089.017.16.035.23.018.036.035.072.018.107-.036.089.07.586.141.639.036.035.071.302.071.337-.018.071.124.124 0 .213-.018.018 0 .018.018.018l2.123-.48c.16-.053.142-.088-.07-.07-.23.017-.32.017-.018-.09.442-.141-.354-.017-.23-.088.141-.089.318-.16.141-.177-.23-.018.336-.213-.212-.178-.018 0 .07-.017.088-.035.407-.142.089-.107-.124-.107-.177 0 .655-.23.177-.177-.318.035-.053-.053-.053-.089.018-.089.053-.177-.053-.248-.053-.018-.018-.054 0-.107.035-.088.035-.177-.053-.23-.035-.018-.088-.054-.035-.09.106-.106 0-.177-.036-.248-.017-.035-.07-.053-.035-.106.106-.107-.053-.213-.053-.284 0-.035-.142-.497-.124-.55.053-.089-.018-.16-.035-.23-.018-.036-.053-.072-.018-.107.07-.089-.036-.142-.053-.213 0-.036-.036-.071-.018-.124.035-.09-.23-.107.018-.231.035-.018-.124 0-.142 0-.124-.053.248-.213-.159-.195 0 0 .035-.018.053-.018.39-.142.07-.106-.142-.106-.176 0 .638-.231.195-.178-.053 0-.106.018-.106 0 0-.071.319-.213-.141-.195-.018 0 .07-.018.088-.036.407-.142 0-.088-.142-.106-.123-.018.39-.178.195-.195-.248-.018-.265-.107-.088-.213.106-.071-.107-.071-.23-.089-.124-.018.601-.23.194-.177h-.07c-.248.035-.213.017-.036-.054.407-.142.053-.106-.142-.106-.159 0 .62-.23.195-.178h-.07c-.213-.035.424-.248-.213-.177-.018 0 .106-.035.141-.053.567-.196-.583-.036.142-.267.089-.035-.194 0-.212 0-.053-.07-.195-.106-.018-.23.124-.071.035-.107-.177-.107-.177 0 .62-.23.195-.177-.053 0-.106.018-.106 0-.036-.071.3-.213-.142-.195-.018 0 .106-.036.142-.053.477-.178-.655-.302.053-.533.106-.035-.195 0-.195-.018-.035-.07-.195-.124-.018-.23.124-.089-.088-.071-.23-.089-.106-.018.637-.23.177-.177-.318.035-.053-.054-.017-.09.053-.088-.018-.159-.053-.248 0-.035-.071-.053-.036-.088.07-.107.036-.178-.035-.249-.036-.035-.053-.053-.036-.106.071-.089-.017-.16-.035-.23a.253.253 0 01-.035-.107c.035-.09-.018-.16-.036-.231-.017-.035-.035-.071-.017-.106.035-.09-.071-.586-.142-.64-.035-.035-.07-.301-.07-.336 0-.072-.09-.107-.036-.178l-2.123.48c.017 0 0 .017.07.017.23-.018.337-.018.036.089zm4.792-1.509c-.265.39.3-.195.248-.053-.07.16-.142.32 0 .248.212-.124-.124.39.3.036.018-.018-.035.053-.052.088-.23.355.017.142.177.036.141-.089-.372.586-.018.266.23-.213.088.018.106.053.053.09.088.196.23.178.053 0 .053.053.07.089.036.106.09.177.213.177.053 0 .106 0 .088.053-.017.16.107.16.195.213.036.018.106 0 .089.071-.018.142.194.16.247.23.018.036.46.373.478.427.018.106.124.124.195.177.035.036.088.018.088.089 0 .124.124.124.195.177.035.036.088.036.106.09.035.088.265-.036.141.212-.017.035.089-.07.124-.07.142-.036-.07.336.266.088 0 0-.018.035-.036.035-.23.337.018.142.195.018.141-.106-.372.568-.035.284a.63.63 0 01.088-.071c.053.053-.124.373.248.089.017 0-.036.053-.053.088-.248.355.07.09.194.018.124-.053-.194.373-.035.284.23-.124.3-.053.23.142-.036.142.124.018.265-.053.106-.053-.354.55-.035.266.017-.018.035-.018.07-.053.177-.16.177-.142.054.035-.248.355.017.124.194.018.142-.089-.371.55-.035.266a.252.252 0 01.053-.035c.195-.09-.195.461.3.053a.546.546 0 01-.088.124c-.336.497.513-.302.053.337-.053.089.16-.124.177-.106.089.035.248 0 .177.195-.053.142.036.106.23 0 .16-.106-.371.55-.053.284.036-.036.089-.071.089-.071.07.035-.107.355.247.089.018-.018-.07.088-.088.124-.283.426.76-.089.318.514-.07.09.16-.106.177-.088.089.035.23 0 .16.213-.054.142.123.017.247-.036.106-.053-.389.568-.035.266.248-.213.07.018.07.054.018.124.124.142.195.213.036.017.089.017.089.07 0 .142.088.178.194.213.036.018.089.018.089.071 0 .125.124.142.194.196.036.017.071.035.089.088a.471.471 0 00.177.195c.035.018.088.036.088.09.018.106.443.496.531.532.053.017.248.248.283.284.035.07.177.053.142.195 0 .017 0 .017.017 0l1.522-1.58c.088-.141.07-.16-.106-.035-.177.142-.266.177-.071-.071.283-.373-.319.16-.265.035.07-.16.159-.319 0-.248-.213.106.141-.39-.301-.053-.018.018.035-.053.053-.071.248-.337 0-.142-.177-.053-.142.088.407-.568.035-.267-.247.196-.088-.017-.088-.053-.035-.089-.07-.213-.212-.195-.053 0-.053-.053-.071-.089-.036-.106-.089-.177-.213-.195-.053 0-.106 0-.088-.07.018-.16-.106-.16-.195-.214-.035-.018-.106 0-.088-.07.018-.143-.177-.178-.248-.25-.017-.035-.46-.39-.477-.443-.018-.106-.124-.124-.195-.195-.035-.036-.088-.036-.088-.089 0-.124-.124-.124-.195-.177-.035-.036-.089-.053-.089-.107-.017-.088-.265.036-.141-.23.017-.036-.106.07-.124.07-.142.036.07-.337-.265-.106 0 0 .017-.035.035-.035.248-.337-.018-.142-.195-.018-.159.089.39-.568.036-.284-.036.035-.089.07-.089.07-.053-.07.124-.372-.247-.106-.018 0 .035-.053.053-.088.247-.355-.071-.089-.195-.018-.124.053.195-.373.035-.284-.23.124-.3.053-.23-.16.036-.142-.123-.017-.265.054-.106.053.354-.55.035-.267-.017.018-.035.018-.07.054-.177.16-.177.142-.071-.036.248-.355-.018-.124-.195-.018-.141.09.372-.55.036-.284a.263.263 0 01-.053.036c-.195.089.194-.461-.301-.053a.544.544 0 01.088-.125c.336-.496-.513.302-.07-.337.052-.088-.16.125-.178.107-.088-.036-.247 0-.176-.195.053-.142-.036-.107-.23.017-.16.107.371-.567.035-.284-.035.036-.07.072-.088.072-.071-.036.106-.373-.248-.09a.546.546 0 01.088-.123c.283-.444-.76.088-.336-.515.053-.089-.16.106-.177.106-.088-.035-.248 0-.177-.212.036-.142-.124-.018-.247.035-.107.053.371-.568.017-.266-.23.213-.07-.018-.07-.053-.018-.125-.142-.142-.213-.196-.035-.017-.088 0-.088-.07 0-.143-.089-.178-.195-.214-.035-.017-.088-.017-.088-.07-.018-.125-.124-.142-.195-.196-.035-.017-.089-.035-.106-.07-.036-.09-.124-.143-.195-.196-.035-.018-.088-.035-.106-.089-.035-.106-.478-.479-.566-.497-.053-.017-.266-.23-.3-.266-.036-.07-.142-.053-.16-.142l-1.416 1.668c.018 0 .018.018.071-.035.266-.089.336-.124.177.124zM26.275 15.759c-.265.39.3-.196.248-.071-.071.16-.142.32 0 .23.194-.124-.124.39.283.018.018-.018-.036.053-.053.089-.23.355 0 .142.177.018.141-.107-.372.585-.018.248.23-.213.07 0 .088.035.036.09.071.196.213.16.053-.018.053.036.07.089.036.089.09.16.195.177.053 0 .089-.017.089.054-.018.142.106.142.177.195.035.018.088 0 .088.07-.018.143.177.143.23.214.018.035.442.337.46.39.018.107.124.124.177.178.035.017.088.017.088.088 0 .125.124.107.177.16.036.036.071.036.089.089.018.088.248-.053.141.213-.017.035.089-.071.107-.09.141-.034-.071.32.247.09 0 0-.017.035-.035.035-.23.337.018.124.194 0 .142-.106-.371.568-.053.266.036-.035.089-.07.089-.07.053.053-.124.372.23.088.018 0-.035.053-.053.089-.248.355.053.088.194.017.124-.053-.194.373-.035.285.212-.125.283-.054.212.141-.053.142.124 0 .248-.053.106-.053-.354.532-.035.266.017-.017.035-.017.07-.053.177-.177.177-.142.053.018-.247.355.018.124.195.018.142-.09-.371.55-.053.266a.263.263 0 01.053-.036c.195-.088-.194.462.283.036a.552.552 0 01-.088.124c-.336.497.513-.302.053.32-.053.088.16-.125.177-.107.088.035.23-.018.159.177-.053.142.035.107.212-.017.16-.107-.371.55-.053.266.036-.036.071-.071.089-.071.07.035-.106.355.247.089.018-.018-.07.088-.088.124-.283.426.743-.107.283.497-.07.088.16-.107.177-.107.07.036.23 0 .16.195-.054.142.123.018.247-.035.106-.053-.39.55-.035.248.247-.213.07.018.07.053.018.125.124.125.195.196.018.018.088 0 .088.07 0 .125.071.178.177.196.036.018.089.018.089.07 0 .125.106.143.177.196.035.018.07.036.088.071.018.089.106.142.177.177.035.018.07.036.089.09.017.088.407.478.495.496.053.018.23.23.265.266.036.071.177.036.142.195 0 .018 0 .018.018 0l1.521-1.561c.089-.142.071-.16-.088-.036-.177.142-.266.178-.071-.053.3-.372-.319.178-.248.053.071-.16.177-.319.018-.23-.212.106.142-.373-.283-.036-.018.018.035-.053.053-.07.248-.338 0-.143-.177-.036-.142.088.407-.55.035-.249-.247.195-.07-.017-.088-.053-.035-.089-.07-.195-.195-.177-.053 0-.053-.054-.07-.09-.036-.105-.089-.177-.195-.177-.053 0-.106 0-.088-.053.017-.142-.107-.16-.178-.195-.035-.018-.088 0-.088-.07.018-.143-.177-.16-.23-.232-.018-.035-.425-.372-.442-.425-.018-.107-.124-.125-.177-.178-.036-.018-.089-.018-.089-.089 0-.124-.123-.106-.177-.177-.035-.036-.07-.036-.088-.089-.018-.089-.265.036-.124-.213.018-.035-.088.071-.124.071-.141.036.071-.337-.248-.088 0 0 .018-.036.036-.036.248-.337-.018-.124-.195-.018-.141.107.39-.55.053-.266a.692.692 0 01-.088.071c-.053-.053.124-.373-.23-.089-.018 0 .035-.053.053-.088.248-.355-.053-.09-.195-.018-.123.053.213-.373.036-.284-.23.124-.283.053-.213-.142.053-.142-.123 0-.247.053-.106.053.354-.55.035-.266-.018.018-.035.018-.07.053-.178.178-.178.142-.054-.018.248-.354-.017-.124-.194-.017-.142.088.371-.55.035-.266a.253.253 0 01-.053.035c-.195.089.195-.461-.283-.035a.55.55 0 01.088-.125c.336-.496-.495.302-.053-.319.053-.089-.159.124-.177.107-.088-.036-.23.017-.159-.178.053-.142-.035-.107-.212.018-.142.106.371-.568.053-.284-.035.035-.07.07-.089.07-.07-.035.107-.354-.247-.07a.549.549 0 01.088-.124c.283-.444-.743.124-.3-.497.052-.089-.142.106-.16.106-.088-.035-.23 0-.16-.195.054-.142-.123-.018-.247.053-.106.053.372-.568.018-.248-.23.213-.07-.018-.07-.053-.019-.125-.125-.125-.195-.178-.036-.018-.089 0-.089-.053 0-.124-.088-.178-.195-.195-.035-.018-.088-.018-.088-.071 0-.124-.124-.124-.195-.178-.035-.017-.07-.035-.088-.07-.035-.09-.106-.125-.195-.178-.035-.018-.088-.036-.088-.089-.036-.089-.442-.444-.549-.461-.053 0-.265-.213-.283-.249-.035-.053-.141-.035-.159-.142l-1.38 1.686c.018-.018.018.018.07-.035.125-.196.213-.249.036 0zm12.192-7.223c-.478.053.336.106.212.16-.16.052-.354.106-.177.159.23.089-.372.16.16.248.017 0-.072 0-.107.018-.425.053-.106.107.088.16.16.053-.69.089-.212.16.319.035.036.07.036.106-.036.089-.107.195 0 .284.035.035 0 .07-.018.106-.053.09-.071.196 0 .284.035.036.07.071.018.107-.124.088-.054.195-.036.284 0 .035.053.07 0 .124-.124.089 0 .248-.018.337-.017.035.018.603-.017.639-.071.089-.018.177-.018.266 0 .036.035.089-.018.124-.088.089 0 .178-.017.266 0 .054.017.09-.018.142-.053.09.195.178-.07.249-.036.018.123.035.14.035.125.089-.3.16.107.266h-.053c-.407.036-.089.107.106.16.177.053-.672.071-.23.142.053 0 .106.018.106.018-.018.089-.354.16.089.248h-.107c-.424.036-.017.107.107.16.123.053-.407.089-.23.16.23.088.23.195.035.284-.124.053.07.106.212.16.106.053-.637.07-.23.159.036 0 .036.018.071.018.248.035.212.053.018.07-.425.036-.089.107.106.16.16.054-.655.09-.23.16.035 0 .053.018.07.018.195.089-.477.16.16.266a.953.953 0 01-.142.018c-.601.07.566.195-.212.266-.106.018.195.053.195.071.035.089.159.177-.036.266-.141.053-.053.107.16.16.176.053-.673.089-.248.16.053 0 .106.017.106.017.018.089-.336.16.106.249a.948.948 0 01-.142.018c-.513.088.567.514-.176.603-.106.018.176.035.194.07.018.09.16.178-.035.267-.142.053.07.106.195.16.106.053-.673.106-.213.16.319.035.035.07 0 .106-.07.106-.017.195 0 .302 0 .035.053.07.018.106-.089.089-.07.195-.018.284.018.035.053.07.018.124-.089.089-.018.195-.018.284 0 .035.035.089 0 .124-.053.089-.017.178 0 .284 0 .053.035.089 0 .142-.053.089-.035.692.018.78.035.054.017.356.017.409-.017.089.107.16-.035.266-.017 0 0 .018.018.018l2.176-.142c.16-.036.16-.071-.053-.089-.23-.017-.319-.035-.018-.088.46-.09-.354-.09-.212-.142.16-.071.336-.125.177-.16-.23-.071.354-.178-.177-.23a.358.358 0 01.089-.019c.424-.07.106-.106-.089-.16-.16-.035.672-.123.195-.159-.319-.018-.053-.07-.036-.106.036-.09.089-.196-.017-.284-.053-.036 0-.071.017-.107.053-.088.071-.195 0-.284-.035-.035-.07-.07-.017-.106.123-.089.035-.195.017-.284-.017-.036-.07-.071 0-.124.124-.09 0-.249.018-.337 0-.036-.035-.604 0-.64.07-.088.018-.177 0-.265 0-.036-.035-.09 0-.125.088-.088 0-.177 0-.266 0-.053-.018-.089.018-.142.053-.089-.213-.177.07-.248.036-.018-.123-.018-.141-.036-.124-.088.3-.177-.106-.266h.053c.407-.053.088-.106-.124-.16-.177-.053.672-.088.23-.16-.053 0-.106-.017-.106-.017.018-.089.354-.16-.089-.248-.017 0 .071 0 .107-.018.424-.053.017-.107-.107-.16-.124-.053.407-.089.23-.16-.23-.088-.23-.195-.035-.266.124-.053-.07-.106-.212-.16-.107-.053.636-.07.23-.16-.036 0-.036-.017-.071-.017-.248-.036-.212-.053-.018-.071.425-.036.089-.106-.106-.16-.16-.053.655-.07.23-.142-.035 0-.053-.017-.07-.017-.195-.09.477-.16-.16-.249-.018 0 .106 0 .142-.018.601-.07-.567-.195.212-.266.106 0-.195-.053-.195-.07-.035-.09-.159-.178.036-.267.141-.053.07-.106-.16-.16-.177-.053.673-.07.248-.142-.053 0-.106-.017-.106-.017-.018-.089.336-.16-.088-.249-.018 0 .106 0 .141-.018.513-.07-.566-.532.195-.585.106-.018-.177-.053-.195-.071-.018-.089-.16-.195.053-.266.142-.053-.07-.107-.194-.16-.107-.053.672-.089.212-.16-.319-.053-.036-.07 0-.106.07-.089.017-.195.017-.302 0-.035-.053-.07-.017-.106.106-.089.07-.195.035-.284-.017-.036-.053-.071 0-.124.089-.09.035-.178.018-.284 0-.036-.018-.089 0-.124.053-.09.035-.178.017-.267 0-.053-.017-.088 0-.142.054-.088.071-.692.018-.78a1.58 1.58 0 01.018-.409c.018-.07-.053-.141.018-.212h-2.177c.018.017-.017.017.071.035.195.053.283.071-.017.107z" fill="#42B7A5"/></g><defs><clipPath id="clip0_1:912"><path fill="#fff" d="M0 0h138v80H0z"/></clipPath></defs></svg>