<svg width="42" height="48" fill="none" xmlns="http://www.w3.org/2000/svg"><g clip-path="url(#clip0_1:706)" fill="#1B1918"><path d="M6.319 34.074c.107.05.09.029.086-.037.015-.082.017-.176.077-.19.144-.035.281-.046.345-.195.041-.1.142-.139.233-.191.09-.052.172-.116.164-.268 0-.008.033.006.05.009.218.033.213-.145.252-.297.03-.128.373.023.327-.213-.032-.155.103-.133.165-.193.085-.082.172-.163.254-.249.08-.086.15-.181.21-.284.047-.085.115-.136.18-.202.157-.167.312-.343.42-.547.045-.082.079-.157.154-.223a1.27 1.27 0 00.218-.268c.061-.098.121-.198.177-.298.049-.083.077-.171.15-.245.082-.08.157-.213.229-.348l.104-.198c.032-.064.06-.124.09-.173l.128-.24c.068-.128.144-.296.225-.46.154-.334.298-.673.322-.72a2.5 2.5 0 00.15-.35l-.744.146c.062.064.127.127.188.192.072.076.151.137.211.23.112.175.28.304.42.457.074.08.154.152.221.243.12.161.337.236.39.462.007.026.074.006.098.02.176.118.192.388.453.425.005 0-.003.016-.005.024-.037.214.14.206.293.242.126.03-.047.36.18.338.024-.002.056-.009.066.003.132.146.16.391.43.406.008 0-.008.032-.01.05-.04.215.16.187.29.244.117.05.038.292.196.354a.81.81 0 01.453.46c.038.095.112.135.193.168l-.078-.414c.003.044.008.088.008.133.003.118-.333.108-.224.299.008.014.006.027.018.041.076.087.045.122-.054.14-.215.041-.128.203-.11.355.018.126-.346.083-.245.283a.076.076 0 01.012.04c-.007.104-.095.169-.162.243-.07.072-.119.154-.048.3.004.01-.051.003-.074.007-.157.027-.153.147-.164.263-.011.114-.033.227-.221.23-.05.001.021.123-.002.166-.092.179-.163.38-.336.498-.12.084-.158.182-.16.34-.003.131-.354.021-.29.235.006.023.015.05.006.063-.113.156-.346.213-.323.476 0 .013-.05-.007-.073-.006-.073.003-.145.068-.217.163-.073.094-.143.224-.227.342-.082.12-.166.239-.253.323-.087.083-.18.125-.269.103-.05-.013-.015.118-.048.154-.072.072-.132.159-.209.226a.698.698 0 01-.258.161.246.246 0 00-.143.12c-.032.053-.058.112-.091.17-.06.1-.35-.09-.338.14.008.16-.115.093-.183.124a1.87 1.87 0 00-.281.162c-.044.031-.091.058-.138.085a4.534 4.534 0 01-.14.08c-.073.038-.132.095-.218.12a2.14 2.14 0 00-.518.208l.538.197-.038-.057c-.052-.075-.103-.143-.133-.232-.067-.194-.192-.363-.296-.541-.047-.081-.102-.157-.141-.243-.08-.18-.19-.352-.294-.524-.052-.085-.108-.165-.147-.256-.073-.174-.737-1.297-.859-1.466-.065-.092-.41-.682-.459-.773-.085-.157-.231-.327-.274-.48a.118.118 0 00-.031-.044l-.889-.187c-.033.05.003.123.126.212.13.094.2.157.115.217-.13.097.266.262.264.352-.004.112-.029.207.11.344.091.09.1.179.127.27.025.091.068.186.228.274.009.004-.018.017-.026.027-.112.126.075.233.222.347.061.048.02.108-.004.17-.025.064-.03.13.1.181.174.067.099.15.134.229.096.214.188.436.344.636.064.083.088.161.124.247.09.212.197.425.337.62.057.08.113.146.141.241.066.223.21.42.332.622.046.078.104.142.138.232l.102.28.414-.09.024-.006c.115-.021.26-.084.403-.151.146-.063.275-.154.38-.203.024-.011.119-.062.248-.132.129-.074.283-.18.442-.28l.118-.075.11-.08.197-.146c.12-.086.205-.149.228-.164.184-.12.347-.278.508-.428.078-.075.142-.157.238-.22.184-.117.305-.303.455-.456.078-.082.149-.166.233-.247.075-.071.127-.164.188-.25a.56.56 0 01.238-.208c.026-.011-.004-.075.008-.103.047-.098.136-.162.215-.237.08-.073.144-.158.138-.293 0-.005.017 0 .025 0 .218-.008.179-.184.185-.342.006-.129.363-.041.292-.26-.008-.024-.021-.054-.011-.067.056-.083.145-.147.21-.226a.342.342 0 00.078-.306c-.001-.008.034-.001.051-.003.22-.027.143-.212.156-.356.013-.129.268-.131.28-.305a.88.88 0 01.286-.598c.114-.107.08-.247.085-.388.002-.12.348-.108.241-.31-.008-.015-.006-.029-.018-.043-.074-.089-.045-.125.053-.15.166-.042.152-.151.126-.269l-.08-.417c-.035-.008-.072-.014-.105-.024-.121-.034.043-.357-.182-.337a.09.09 0 01-.044-.003c-.192-.089-.127-.427-.452-.388-.011.001.012-.05.016-.073.04-.318-.465-.155-.372-.525.012-.05-.125-.015-.162-.05-.15-.142-.335-.258-.412-.46-.053-.141-.15-.198-.306-.233-.128-.029.044-.358-.18-.34-.025.003-.054.008-.065-.004-.14-.139-.166-.386-.433-.404-.013 0 .013-.05.015-.072.019-.293-.983-.707-.895-1.068.013-.05-.121-.02-.158-.055-.103-.1-.224-.19-.314-.301l-.361-.442-.27.566a.604.604 0 01-.11.162c-.104.107-.06.237-.062.373-.003.116-.352.1-.226.294.086.135-.05.142-.094.206a2.061 2.061 0 00-.158.293c-.049.1-.096.2-.147.298-.04.075-.056.159-.118.228-.143.165-.24.36-.341.552-.042.082-.079.161-.143.233a1.589 1.589 0 00-.193.25c-.056.09-.11.182-.172.267-.056.078-.103.16-.169.234-.138.151-.26.319-.385.483-.063.08-.12.16-.196.232-.036.035-.117.125-.226.239-.107.114-.236.258-.373.394l-.197.205-.184.181-.23.234a7.592 7.592 0 01-.699.6 2.117 2.117 0 00-.292.27c-.09.099-.174.198-.263.294l.888.187c.012-.004.044-.001.031-.014-.035-.034-.02-.086.122-.025z"/><path d="M13.958 43.382c.102-.156.02-.62-.196-1.054-.108-.219-.246-.412-.359-.572-.053-.082-.107-.151-.141-.22a.404.404 0 01-.062-.186c-.004-.062-.166-.052-.227-.099-.13-.103-.279-.182-.421-.262a4.069 4.069 0 01-.425-.247c-.193-.13-.391-.093-.589-.073-.042.006-.083-.012-.126-.04-.042-.025-.087-.06-.133-.09-.093-.058-.2-.095-.3.004-.067.065-.123.074-.181.062-.057-.01-.115-.037-.176-.036-.35.01-.688.125-1.004.255l-.018.008a5.335 5.335 0 00-.073-.281c-.037-.127-.075-.242-.09-.378-.032-.297-.135-.585-.221-.873-.039-.132-.09-.257-.121-.395a5.698 5.698 0 00-.298-.844c-.061-.137-.124-.266-.183-.412a1.645 1.645 0 00-.078-.17 4.42 4.42 0 00-.143-.269c-.11-.196-.252-.43-.397-.662-.29-.462-.596-.908-.682-1.02a59.802 59.802 0 01-.725-1.061c-.143-.224-.336-.41-.448-.664a.113.113 0 00-.02-.031l-.003-.004-.014-.017-.017-.02a.537.537 0 00-.289-.167c-.036.03-.07.04-.112.097-.113.155-.191.242-.276.182-.068-.047-.15.038-.228.139-.079.101-.153.217-.213.23-.147.034-.275.04-.443.219-.111.12-.227.157-.346.211a.67.67 0 00-.34.314c-.005.01-.024-.012-.038-.018-.174-.072-.3.149-.438.332-.058.077-.14.053-.226.049-.084-.005-.173.01-.228.157-.073.198-.188.147-.289.208-.273.163-.558.327-.807.549-.102.09-.203.14-.312.203a5.67 5.67 0 00-.785.54c-.099.083-.181.16-.303.219a1.97 1.97 0 00-.105.054.649.649 0 00-.224.873l.023.037.011.017.006.008.016.023.034.045.07.091.137.181c.075.102.16.185.219.308.062.134.176.297.296.457l.176.235.013.018.032.04a.66.66 0 00.916.081l.184-.156.51-.434.271-.23.126-.107.06-.05c.003 0 .005-.003.007-.005.01-.006.013-.006.02-.004.002-.002.005.003.007.001l.004.004.02.028c.004 0 .002.003.006.005 0 .002 0 .004.002.006 0 .002 0 0 .002.003l.002.014.004.028.035.223c.023.145.05.282.065.436.01.145.037.29.071.433.042.142.087.284.123.427.04.15.103.29.14.448a.82.82 0 00.076.2l.097.196c.06.131.124.26.135.417.003.037.078.049.102.082.087.121.137.263.195.402a.66.66 0 00.294.34c.004.002-.005.019-.006.028a.266.266 0 00.101.262c.072.058.167.096.263.139.078.036.077.144.093.25.015.105.055.202.189.212.03.002.065 0 .08.017.047.053.092.108.137.164.045.057.089.115.137.168a.58.58 0 00.383.202c.01 0 .004.038.007.056a.257.257 0 00.182.214c.088.03.193.032.285.059.083.026.132.105.192.186.059.081.126.167.242.185.31.057.596.188.847.372.172.126.349.094.536.096.08 0 .138.09.211.162.072.073.157.131.274.069.017-.009.036-.008.051-.021.094-.083.151-.06.218.039.146.211.344.096.54.039.04-.012.079.002.12.025.02.011.041.026.064.042.011.007.02.015.045.023.018.008.023.014.035.022.082.054.17.095.266.005a.12.12 0 01.045-.029c.266-.08.537.199.802-.066.009-.01.036.043.057.06.275.248.585-.233.864.087.036.043.13-.082.198-.084.28-.012.566-.07.836.013a.68.68 0 00.135.026l.032.002h.017l.028-.001a.583.583 0 00.552-.468l.013-.061a.125.125 0 01.008-.03.208.208 0 01.036-.054c.032-.035.073-.069.111-.106.078-.074.144-.163.077-.282-.014-.026-.033-.055-.03-.078.022-.143.079-.282.105-.429.026-.145.026-.297-.07-.442-.01-.009.042-.037.058-.061zm-4.646-2.413a.248.248 0 01.04-.014.637.637 0 01-.068.028.252.252 0 01.028-.014zm31.981-5.116a.263.263 0 01-.135-.172c-.018-.063-.025-.134-.063-.195a1.007 1.007 0 00-.143-.18l-.028-.028-.023-.023a5.635 5.635 0 00-.16-.142c-.11-.093-.22-.183-.328-.277-.112-.093-.234-.158-.365-.24a1.314 1.314 0 00-.52-.196 1.52 1.52 0 00-.558.027c-.155.035-.289.092-.442.147-.17.06-.326.164-.455.292l-.048.047-.034.036-.065.07c-.045.047-.089.093-.136.138-.084.08-.162.163-.26.233-.2.143-.394.298-.596.433-.05.034-.099.067-.15.097a1.01 1.01 0 01-.159.082c-.054.023-.181.082-.348.15a3.504 3.504 0 01-.586.173c-.422.09-.843.04-.952.027-.03-.002-.099-.017-.188-.035a69.65 69.65 0 01-.145-.042c-.05-.015-.104-.037-.157-.056a2.712 2.712 0 01-.46-.233c-.158-.098-.33-.186-.469-.325l-.28.35-.203-.4c-.106-.021-.192.022-.241.144-.052.13-.108.2-.26.136-.237-.1-.229.275-.375.286-.175.014-.33.006-.457.148-.169.19-.51.085-.623.395-.003.008-.033-.014-.05-.02-.226-.081-.295.1-.405.247-.093.124-.394-.119-.453.132-.04.168-.175.11-.271.15-.262.114-.531.224-.764.39-.096.07-.194.1-.297.142-.097.04-.194.082-.29.127l-.393.185.2.415c.076.157.16.309.254.454.062.094.12.174.155.288.077.267.23.505.356.75.052.104.119.19.15.312.034.13.11.296.191.46.08.164.165.326.214.452l.128.3c.065.158.153.36.23.563.163.406.298.818.31.879.013.062.03.124.047.186.016.062.034.123.053.184l.058.182.05.183c.014.06.035.118.048.176a.963.963 0 01.026.182l.006.09.003.022.002.01.004.023a.815.815 0 00.222.44.886.886 0 00.93.212c.033-.012.063-.027.094-.042l.02-.01.011-.006.023-.013c.06-.033.12-.065.184-.093.231-.098.403-.314.68-.333.032-.002.036-.076.063-.098a.651.651 0 01.168-.096.816.816 0 00.294-.197.683.683 0 00.18-.347.532.532 0 00-.065-.374c-.004-.007.01-.025.013-.039a.395.395 0 00-.002-.191.212.212 0 00-.061-.132c-.056-.058-.14-.1-.217-.154-.125-.088.116-.385-.124-.457-.026-.008-.06-.014-.069-.032-.043-.087-.067-.186-.097-.281.14-.004.276.19.46.13.27-.089.556-.076.824.005.182.056.32-.034.482-.089.136-.05.305.263.477.08.013-.014.029-.018.04-.035.06-.105.117-.096.197-.017.175.166.318.014.478-.083.066-.04.146.023.231.07.085.045.177.073.255-.026a.116.116 0 01.037-.034c.12-.054.255-.027.387-.02.132.008.263-.019.359-.171.007-.01.043.035.067.049.158.092.287-.002.411-.083a.577.577 0 01.194-.102c.07-.018.142-.004.246.04.027.012.055-.02.084-.059.028-.038.053-.086.086-.103.272-.138.48-.35.744-.464.184-.083.275-.211.33-.403.024-.077.127-.087.223-.114.098-.025.188-.069.179-.197-.003-.027-.008-.06.005-.077.152-.208.428-.344.411-.658 0-.015.057-.007.081-.016.16-.055.313-.422.444-.785.136-.362.257-.722.452-.78.055-.016-.02-.145.003-.205.097-.253.147-.529.314-.746a.423.423 0 00.085-.236l.003-.065c.003-.027.003-.055.004-.083a2.119 2.119 0 00-.01-.166c-.008-.092.068-.187.108-.307.04-.115.044-.258-.088-.338z"/><path d="M24.568 34.468a.18.18 0 00.076.149c.027.018.058.015.096.012.073-.008.156-.03.173.02.04.12.055.236.19.261.18.033.136.33.407.273.007-.002-.007.03-.01.045-.042.202.115.172.252.189.115.015-.06.34.157.277.145-.041.109.083.15.136.12.147.232.303.39.41.066.044.097.106.14.167.105.152.219.298.36.419.055.05.11.09.143.164.076.172.215.3.333.44.049.06.11.104.14.183.066.172.287.393.381.547l.238.356.24.357.353-.225c.235-.15.667-.41.72-.43.165-.066.31-.175.462-.264.076-.044.14-.1.229-.127.166-.051.301-.168.454-.249.08-.043.153-.094.242-.127.157-.058.257-.233.459-.206.023.002.016-.065.034-.082.13-.124.361-.042.44-.267.002-.004.014.01.02.013.173.11.199-.05.262-.175.053-.105.285.179.317-.033.004-.022.006-.053.018-.058a.53.53 0 01.12-.027c.04-.004.082-.006.12-.014.079-.016.148-.055.19-.169.002-.006.023.022.035.033.137.118.175-.012.242-.104l.328-.454-.096-.06a.338.338 0 01-.037-.026c-.092-.07.059-.266-.07-.35a.632.632 0 01-.283-.482c-.013-.134-.135-.171-.238-.238-.087-.056.129-.31-.082-.323-.015 0-.024-.009-.042-.006-.111.015-.12-.023-.077-.108.095-.188-.084-.197-.21-.25-.104-.042.123-.316-.093-.319a.088.088 0 01-.04-.007c-.08-.048-.085-.147-.11-.233-.026-.085-.072-.158-.229-.152-.01.001.022-.043.03-.064.052-.143-.05-.186-.142-.234-.093-.048-.181-.098-.104-.264.02-.044-.115-.019-.142-.052-.114-.137-.266-.248-.308-.432-.029-.13-.11-.184-.252-.218-.057-.014-.033-.096-.022-.173.01-.076.007-.148-.1-.138-.023.002-.05.007-.06-.004-.114-.124-.11-.353-.356-.364-.012 0 .018-.046.022-.067.024-.134-.193-.287-.398-.446-.1-.081-.206-.159-.276-.24-.071-.08-.109-.162-.084-.248.014-.048-.112-.008-.144-.037-.131-.127-.304-.215-.376-.396-.05-.126-.177-.13-.292-.167-.05-.016-.039-.103-.043-.18-.006-.073-.027-.135-.134-.1-.146.046-.11-.078-.154-.131-.1-.12-.224-.214-.344-.31l-.378-.305-.25.388a3.565 3.565 0 01-.075.112c-.044.064-.068.137-.13.195-.147.14-.254.312-.35.483-.04.075-.075.143-.14.208-.142.142-.23.316-.336.478-.049.073-.088.148-.148.22-.125.149-.223.311-.323.47-.05.078-.092.155-.157.232-.126.146-.809 1.18-.887 1.332a18.14 18.14 0 01-.462.7c-.105.146-.148.282-.3.437-.015.014-.02.026-.02.038l.898-.132c.1-.054.138-.101.09-.142-.05-.042-.055-.083.113-.15.26-.102-.013-.159.095-.235.13-.09.26-.16.26-.25-.001-.06.086-.125.156-.187.07-.064.123-.125.058-.194-.004-.004.036-.011.054-.016.238-.074.163-.154.145-.249-.014-.081.397-.118.265-.229-.088-.076.06-.109.106-.16.126-.144.259-.286.323-.441.027-.065.081-.112.132-.167a1.91 1.91 0 00.314-.431c.031-.063.053-.12.116-.174.15-.122.225-.28.321-.43.041-.061.06-.128.127-.182.143-.114.27-.384.378-.524l.084-.118-.63.084a355.308 355.308 0 00.583.504c.042.038.08.075.114.108.067.066.115.113.126.128.105.14.25.244.374.368.06.06.128.11.176.188.09.148.238.244.35.373.059.068.125.128.178.205.09.14.29.19.306.395.002.024.067.002.087.016.146.1.123.342.36.368.004 0-.005.015-.008.022-.068.194.094.184.23.218.113.028-.104.32.112.302.023-.002.053-.008.06.003.095.134.073.352.32.373.008.001-.014.029-.02.044-.076.19.113.171.22.229.097.051-.03.26.104.324.181.086.28.25.309.437.02.128.14.158.242.219.087.053-.127.304.082.312.016 0 .024.008.041.006.11-.017.118.022.073.106-.1.182.075.19.2.246.1.046-.146.302.067.314.016 0 .03.004.038.01.15.104-.018.38.29.398.01 0-.029.04-.04.059-.05.085-.023.14.019.174l.288-.636c-.114.085-.191.26-.38.1-.038-.03-.053.108-.093.126-.168.075-.313.201-.505.195-.136-.004-.206.066-.273.196-.053.104-.3-.165-.331.048-.003.023-.006.051-.018.058-.148.08-.368.026-.433.265-.003.011-.041-.028-.06-.037-.127-.056-.324.117-.525.28-.2.162-.404.317-.556.224-.043-.026-.035.107-.07.13-.152.099-.285.236-.475.255-.134.012-.17.133-.238.234-.056.086-.32-.135-.316.088.003.152-.105.08-.169.106-.052.021-.1.046-.15.076l.596.133c-.075-.119-.163-.231-.244-.347-.043-.062-.102-.11-.134-.185a1.71 1.71 0 00-.329-.475c-.056-.061-.11-.114-.149-.192-.086-.169-.222-.304-.345-.447-.055-.066-.115-.124-.165-.197-.102-.152-.23-.286-.357-.419-.062-.067-.128-.125-.182-.201a6.89 6.89 0 00-.526-.573 7.168 7.168 0 00-.573-.526 43.864 43.864 0 01-.655-.578l-.01-.008-.003-.002h-.004c-.006 0-.014.004-.025.01a.491.491 0 01-.09.044l-.899.132c.031.035.043.078.102.107.081.04.145.066.185.104.037.044.053.093.054.18z"/><path d="M34.588 16.89c-.011-.1 0-.2-.037-.302a1.446 1.446 0 01-.093-.383.896.896 0 01.053-.393.73.73 0 00.036-.331c-.01-.108-.05-.21-.088-.31-.04-.1-.083-.196-.116-.29a.962.962 0 01-.058-.273c-.005-.216-.004-.415-.022-.618a2.578 2.578 0 00-.158-.623 2.926 2.926 0 01-.145-.456 6.382 6.382 0 01-.053-.238c-.016-.08-.039-.159-.058-.238a3.807 3.807 0 00-.15-.47 1.743 1.743 0 00-.265-.417c-.011-.013.003-.067.003-.103a.944.944 0 00-.051-.323 1.445 1.445 0 00-.13-.28c-.099-.18-.245-.336-.379-.51a.757.757 0 01-.118-.258c-.031-.094-.053-.197-.08-.3a1.425 1.425 0 00-.111-.302.66.66 0 00-.226-.245.783.783 0 01-.272-.318c-.065-.115-.118-.24-.195-.354-.426-.621-.9-1.232-1.461-1.732-.113-.106-.221-.201-.32-.303-.102-.099-.195-.205-.305-.303a9.885 9.885 0 00-1.76-1.347c-.13-.076-.251-.146-.372-.22a5.331 5.331 0 01-.377-.227 6.332 6.332 0 00-.232-.15l-.241-.134-.246-.13a9.799 9.799 0 00-.124-.063l-.127-.057a34.7 34.7 0 00-.511-.221l-.521-.196c-.144-.059-.29-.095-.433-.142-.145-.043-.289-.099-.444-.154a10.34 10.34 0 00-.588-.188c-.221-.054-.46-.108-.7-.16l-.71-.116a24.894 24.894 0 01-.724-.09l-.19-.014c-.15-.01-.35-.029-.58-.04-.23-.004-.493-.017-.772-.015l-.428.012-.22.006-.22.017-.44.034c-.144.011-.287.035-.425.05-.139.02-.273.034-.402.054l-.364.065-.317.057c-.096.02-.182.04-.257.058-.15.034-.252.056-.294.064l-.129.026-.127.032-.255.068-.254.07c-.084.024-.167.056-.251.084-.167.058-.334.115-.499.176l-.49.197-.12.048-.115.054-.23.108-.477.216c-.154.07-.309.142-.46.22-.15.083-.298.17-.445.258-.15.085-.29.185-.435.278-.143.096-.289.188-.427.29-.147.104-.292.208-.437.315a14.239 14.239 0 01-.533.41l-.094.08a7.369 7.369 0 00-.185.168 8.012 8.012 0 00-.36.348 8.062 8.062 0 01-.361.347 3.93 3.93 0 01-.383.329c-.064.049-.087.162-.142.238a4.606 4.606 0 01-.332.39c-.116.124-.226.255-.34.384-.056.065-.111.13-.165.197-.05.069-.1.139-.145.211a2.246 2.246 0 00-.235.457c-.003.01-.028.018-.042.029-.189.136-.31.303-.396.487-.082.188-.135.392-.204.6-.051.175-.198.312-.342.47-.074.078-.14.163-.19.26a.771.771 0 00-.09.328c-.003.053 0 .114-.023.161a9.59 9.59 0 01-.2.446l-.105.222c-.03.075-.062.15-.091.228a3.565 3.565 0 00-.15.465c-.032.16-.052.324-.05.49 0 .02-.044.052-.066.08-.275.383-.203.797-.215 1.224a1.285 1.285 0 01-.054.289c-.025.097-.058.196-.091.299a3.15 3.15 0 00-.09.324 1.395 1.395 0 00-.021.363c.006.087.01.174.013.262.002.088.003.176.009.265.008.178.01.358.006.537-.002.091 0 .174-.005.264a8.769 8.769 0 01-.04.793c-.025.471.077.82.18 1.229.042.173-.01.37-.027.579-.02.207-.027.43.096.64.018.03.03.072.05.095.133.147.147.29.102.497-.05.225-.006.424.06.616.035.096.076.19.122.285.049.094.1.19.147.288a.7.7 0 01.059.267c.005.097.001.2.007.305.008.21.035.43.188.619a.445.445 0 01.064.09c.147.288.202.615.305.926.048.157.101.311.174.456.078.143.173.276.297.392.017.015-.003.1.002.153.01.18.077.34.158.495.042.078.087.153.136.226l.074.11.08.108c.105.144.21.289.289.444.079.157.146.318.163.507.011.1.227.232.319.366.188.28.382.561.584.832.1.137.192.277.288.414.095.137.185.277.268.42.112.202.24.36.372.509.068.074.138.143.213.213.075.068.159.133.246.2.144.109.214.299.308.487.096.185.213.374.432.479.047.023.101.045.14.081.115.112.223.232.33.353l.16.182c.056.06.112.117.168.175.114.115.231.226.356.327.127.1.266.184.415.255.028.013.04.092.067.138.087.152.333.365.653.614.159.127.346.25.536.384.19.135.396.263.601.393.821.52 1.666.988 1.882 1.283.06.084.313.09.456.168.614.316 1.262.585 1.843.925.1.06.198.109.294.151l.073.03.045.017c.017.006.034.013.051.017.068.022.137.035.206.044a1.37 1.37 0 00.79-.152c.028-.014.045-.024.066-.033a1.293 1.293 0 01.203-.062c.098-.02.202-.033.305-.051.104-.018.21-.04.307-.083a.71.71 0 00.261-.195.701.701 0 01.329-.22c.115-.04.233-.069.35-.123.678-.309 1.31-.718 1.94-1.117.12-.078.234-.16.35-.241.117-.081.238-.16.366-.244.153-.095.305-.195.456-.297.151-.101.296-.214.442-.323.294-.217.569-.46.845-.696.231-.21.44-.405.69-.608a9.86 9.86 0 00.782-.722c.124-.129.252-.253.372-.387l.36-.395c.112-.117.211-.243.316-.364.104-.123.212-.244.321-.369.223-.264.451-.527.655-.81.104-.14.209-.278.31-.42l.293-.431c.099-.141.188-.286.278-.43.09-.143.185-.285.282-.432.045-.07.121-.194.22-.357l.163-.272.18-.327.2-.369.202-.406c.143-.276.27-.578.404-.875.525-1.197.877-2.46.945-2.79l.055-.218c.025-.098.05-.22.082-.355l.1-.448.093-.497.047-.25c.015-.084.026-.167.038-.248l.067-.453c.04-.276.056-.492.07-.583.043-.318.046-.639.063-.96.01-.16.01-.32.017-.482a7.38 7.38 0 01.035-.488.656.656 0 00-.001-.167zm-18.337.944c-.083-.215-.225-.396-.334-.599-.041-.085-.101-.156-.119-.259a3.127 3.127 0 00-.123-.392l-.07-.21a5.018 5.018 0 01-.156-.955c-.006-.091-.007-.182-.01-.269l.006-.24c.012-.143.02-.246.027-.272.051-.21.065-.428.115-.64.01-.051.023-.101.035-.153.013-.05.026-.102.055-.152.098-.186.142-.396.233-.586l.072-.15c.024-.05.05-.1.086-.145a.74.74 0 00.074-.134l.068-.14a.467.467 0 01.215-.226c.026-.01-.006-.073.007-.1a.426.426 0 01.095-.127c.04-.037.083-.069.124-.104.04-.035.08-.07.11-.113a.354.354 0 00.06-.163c0-.004.016.004.024.004.11.015.16-.02.19-.08.031-.057.042-.14.066-.219.02-.065.113-.047.196-.042.083.004.16.001.166-.113 0-.025-.001-.057.013-.067.083-.058.192-.078.282-.122a.363.363 0 00.22-.227c.003-.008.03.016.045.024.197.092.23-.1.333-.208.047-.046.122-.03.197-.016.076.014.154.029.216-.033a.726.726 0 01.634-.174.305.305 0 00.196-.033c.059-.028.115-.074.18-.105.054-.027.12.034.186.08.066.048.131.083.2-.007.011-.013.024-.016.032-.033.053-.104.101-.089.16-.006.064.09.123.1.188.082.064-.02.132-.073.204-.105.06-.025.112.05.167.112.055.061.111.115.197.038a.09.09 0 01.039-.023c.107-.02.197.053.288.102.09.055.184.08.32-.012.01-.006.013.05.022.072.06.148.177.135.3.129.118 0 .244.007.266.2.005.05.123-.029.171-.007.189.092.412.159.53.348a.38.38 0 00.143.138.734.734 0 00.205.055c.066.01.07.098.076.185.007.085.025.159.138.146.024-.002.053-.006.065.005a.678.678 0 01.093.12c.027.044.05.09.078.133.058.084.122.158.259.18.013.003-.018.05-.022.072-.025.147.196.352.38.6.045.063.093.125.13.189.037.064.07.126.094.185.042.122.055.228-.004.303-.031.042.104.068.123.117.072.202.184.409.137.632a.312.312 0 00.03.197c.027.059.073.115.102.18.027.054-.038.123-.084.189-.049.067-.081.132.017.197.136.091.012.16 0 .24-.04.23-.037.465-.08.695-.013.088-.013.176-.05.265-.095.209-.15.43-.22.646a.895.895 0 01-.112.265c-.13.18-.211.39-.334.576-.053.085-.103.171-.172.25-.146.158-.28.329-.429.486a5.227 5.227 0 01-.111.114.797.797 0 01-.122.104c-.085.062-.398.322-.75.521l-.13.076-.13.067c-.085.047-.169.082-.243.118-.074.036-.143.06-.196.086-.054.024-.096.04-.12.05a2.37 2.37 0 01-.171.063c-.084.022-.185.057-.29.078l-.152.034-.14.024a1.593 1.593 0 01-.18.023c-.05.004-.1.011-.148.02a5.06 5.06 0 01-.148.02.776.776 0 01-.302-.013.086.086 0 00-.054.006c-.03.009-.062-.007-.093.026-.088.09-.16.128-.24-.007-.06-.104-.127-.07-.197-.027-.069.045-.14.107-.192.073-.125-.09-.215-.18-.371-.148-.106.026-.195-.042-.285-.09-.092-.05-.182-.089-.316-.017-.007.004-.008-.032-.013-.048-.032-.107-.084-.139-.15-.143-.065-.007-.145.016-.224.025-.067.007-.09-.087-.122-.164-.032-.077-.068-.143-.176-.091-.146.07-.155-.07-.222-.122-.186-.142-.36-.3-.56-.421-.087-.047-.133-.121-.193-.189a8.096 8.096 0 00-.453-.514.576.576 0 01-.167-.21z"/></g><defs><clipPath id="clip0_1:706"><path fill="#fff" d="M0 0h42v48H0z"/></clipPath></defs></svg>