<svg width="120" height="62" fill="none" xmlns="http://www.w3.org/2000/svg"><path d="M119.666 61.708l-119.5.125-.083-42.99L60 .042l59.666 18.968v42.698z" fill="#000"/><path d="M20.056 33.256v-1.713c0-1.838-.75-2.423-1.627-2.13-1.334.417-1.792 1.336-1.792 2.966v11.113c0 1.63.416 2.297 1.793 1.88 1.209-.376 1.626-1.295 1.626-2.716v-2.632l3.335-1.044v2.506c0 3.092-1.626 6.1-4.961 7.145-3.503 1.086-5.13-.92-5.13-4.011V33.34c0-3.092 1.627-6.1 5.13-7.187 3.335-1.044 4.961 1.17 4.961 4.47v1.63l-3.335 1.003zm9.924-10.403l3.335-1.044V38.31c0 1.63.584 2.215 1.793 1.839 1.209-.376 1.793-1.337 1.793-2.967V20.681l3.335-1.045v16.378c0 3.76-1.96 6.434-5.128 7.394-3.17.961-5.129-.46-5.129-4.22V22.854zm20.222 3.509l1.167-.376c1.793-.543 2.46-1.545 2.46-4.136 0-2.59-.667-3.133-2.46-2.59l-1.167.376v6.726zm0 12.075l-3.336 1.044V17.589l4.67-1.462c3.752-1.17 5.629.041 5.629 4.679 0 3.51-1.21 5.306-2.335 6.267l2.835 9.024-3.419 1.044-2.377-8.314c-.417.21-1.126.418-1.71.627l.043 8.983zm17.095-3.886l1.376.418c1.793.543 2.418-.376 2.418-2.59 0-2.256-.75-3.593-2.752-4.22l-1.084-.334.042 6.726zm0-9.818l1.209.376c1.292.376 2.251-.25 2.251-2.089 0-2.005-.708-3.3-2.168-3.76l-1.292-.376v5.849zM63.96 14.706l4.962 1.546c3.586 1.128 5.17 3.676 5.17 7.395 0 1.88-.709 3.635-2.293 3.843 1.71 1.38 2.71 3.217 2.71 6.017 0 3.593-1.418 5.89-5.212 4.679l-5.295-1.671-.042-21.809zm16.888 27.198V20.012l8.923 2.8v3.258l-5.588-1.755v5.64l4.295 1.338v3.258l-4.295-1.337v6.434l5.963 1.88v3.26l-9.298-2.884zm18.93 2.841l1.167.376c1.793.543 2.418 0 2.418-2.297v-9.568c0-2.298-.625-3.259-2.418-3.802l-1.167-.376v15.667zM96.442 24.9l4.962 1.546c3.419 1.086 5.295 3.76 5.295 8.272v8.649c0 4.47-1.834 6.058-5.295 4.971l-4.962-1.545V24.9z" fill="#fff"/><path d="M60 0l-.917.292L2.168 18.09 0 18.76v43.2h119.958v-43.2l-2.168-.669L60.917.292 60 0zm0 3.259l56.915 17.798v37.851H3.127V21.015L60 3.259z" fill="#fff"/></svg>