<svg width="120" height="64" fill="none" xmlns="http://www.w3.org/2000/svg"><path fill-rule="evenodd" clip-rule="evenodd" d="M67.62.648c-5.773 1.737-9.572 8.28-9.004 15.509.458 5.836 2.708 9.477 10.96 17.743 8.667 8.681 10.394 11.598 10.4 17.56.01 15.523-15.097 12.18-18.268-4.043-.825-4.217-1.314-5.48-2.034-5.256-1.079.336-.973 21.106.107 21.106.483 0 .88-.25.88-.557 0-2.714 2.666-3.184 6.138-1.084 11.657 7.052 23.873-5.675 19.777-20.605-1.457-5.313-3.787-8.554-12.072-16.795-6.316-6.284-8.144-9.132-8.492-13.237-.473-5.568 1.704-8.726 5.798-8.408 5.125.398 8.409 5.439 9.906 15.207.488 3.185.675 3.671 1.41 3.671.816 0 .853-.407.965-10.503.109-9.812.066-10.502-.654-10.493-.436.004-1.052.578-1.423 1.325-.909 1.83-2.099 1.85-4.944.082C74.233.107 70.865-.33 67.62.648zm-67.534.54c0 .461.54.916 1.457 1.226 2.073.702 1.76-.398 9.059 31.866l6.658 29.433 1.747-.121 1.747-.121.963-4.691a5503 5503 0 003.851-19.17c3.31-16.592 3.334-16.686 3.727-14.684.155.785 1.422 6.567 2.816 12.848 1.395 6.282 3.24 14.633 4.103 18.559l1.567 7.138 1.393.126c1.744.158-.02 7.07 12.105-47.44C53.883 4.45 54.248 3.435 56.13 2.595 59.575 1.057 58.212.454 51.29.454c-5.905 0-6.319.05-6.319.77 0 .568.43.845 1.634 1.054 4.248.738 4.219 1.932-.59 24.228-2.063 9.563-3.788 17.426-3.834 17.473-.046.049-.928-3.99-1.96-8.973-1.033-4.983-2.738-13.19-3.79-18.237C33.798 4.11 33.885 2.917 37.484 2.243c.968-.181 1.388-.492 1.388-1.025 0-.722-.489-.764-8.934-.764-8.31 0-8.933.05-8.933.733 0 .467.549.92 1.511 1.246 1.752.593 1.81.738 3.568 8.973 1.047 4.901 1.112 5.698.646 7.954-.709 3.437-4.847 24.344-4.883 24.675-.073.67-8.215-37.403-8.232-38.494-.025-1.645.996-2.923 2.597-3.252.898-.185 1.306-.514 1.306-1.052 0-.746-.41-.783-8.715-.783C.7.454.086.505.086 1.187zm100.667.04c0 .594.512.89 2.188 1.267 3.197.718 3.041-.695 3.041 27.526 0 30.595-.094 31.206-4.795 31.206-5.371 0-6.853-3.496-2.841-6.704 3.993-3.193 4.236-7.247.536-8.94-5.953-2.72-10.612 4.806-7.308 11.806 4.067 8.615 18.137 8.216 22.202-.63 1.572-3.42 1.776-6.832 1.784-29.922.01-24.357-.064-23.667 2.631-24.346 1.275-.321 1.736-.65 1.736-1.238 0-.77-.353-.8-9.587-.8-9.129 0-9.587.038-9.587.775z" fill="#000"/></svg>