<svg width="120" height="64" fill="none" xmlns="http://www.w3.org/2000/svg"><path d="M25.506 6.606l-1.397 4.974-1.427-4.749L24.11 1.52l1.396 5.088v-.001zm8.456 12.071c-.074 3.38-.816 6.771-1.845 6.771-.96 0-1.55-2.035-1.878-4.416l-.129.282v23.294l1.878 3.909 1.03-3.687.16.502-2.454 8.885-3.417-7.206v-.228c.353-.392.5-1.62.5-3.577V25.159c1.444-2.624 3.009-6.029 3.965-8.438.187 1.068.613 2.404 1.157 2.404.452 0 .805-.358.981-.78l.066.332h-.014zm-6.946 28.172l-2.05 7.436c-1.154-1.395-1.812-3.353-1.812-8.383V23.988l-.624-1.567-.577 2.067-.143-.5 2.006-7.256 2.135 4.915v.115c-.327.69-.482 1.293-.482 3.686v19.558c0 1.638.298 3.276.805 3.52l.61-2.177.143.513-.01-.013zm-4.78.23L20.2 54.285c-1.077-1.113-1.782-3.468-1.782-8.102V25.55l-1.297-3.072-.72 2.628v22.463l.753 1.62-1.683 5.082-1.908-5.53v-.115c.32-.307.515-1.228.515-3.852V6.542c0-2.794-.143-3.631-.305-4.582l.114-.167c.353 1.068.573 1.965.658 3.857h.033c.518-3.004 1.16-4.98 2.407-5.535l.033.218c-.346 1.485-.61 3.097-.61 5.593v18.111l1.991-7.32c.724 1.714 2.077 5.145 2.872 6.821v.167c-.28.41-.496 1.164-.496 3.635v16.933c0 2.47.176 3.354.753 4.352l.575-2.072.143.5-.01.026zM58.512 23.72c-.32.512-.496 1.178-.496 3.866v18.047c-.952 1.446-3.113 5.695-4.204 8.716-1.168-2.739-1.779-4.236-2.984-6.873v-.166c.338-.55.5-1.165.5-3.968V25.447c1.462-2.458 3.05-5.927 4.17-8.776.717 1.652 2.198 5.03 3.018 6.874v.166l-.004.009zm-2.84 25.369V25.946c-.544-1.174-1.43-3.52-1.797-4.471l-.225.448v23.248c.272.67 1.187 2.848 1.75 4.357l.275-.448-.004.009zm-5.557 2.56c0 2.175-.874 4.48-1.826 7.154A248.132 248.132 0 0146.397 64c-.618-1.216-.974-1.562-1.893-1.562-1.157 0-1.815.423-2.63 1.562l-.049-.051c.658-4.275 1.966-7.82 3.8-7.82.816 0 1.742 1.177 2.34 2.572.159-.346.658-1.651.658-2.624 0-2.854-1.54-2.521-1.763-7.833l-1.716 6.08c-2.01-4.544-3.16-7.04-3.16-7.04v-.218c.396-.589.495-1.28.495-4.748V25.434c1.698-3.117 3.27-6.236 4.223-8.773l2.983 6.873v.167c-.368.665-.496 1.229-.496 4.3v15.98c0 3.823.93 4.182.93 7.657l-.004.01zm-3.288-4.416V25.73c-.897-1.933-1.779-4.352-1.779-4.352l-.239.512v23.026l1.62 3.865.405-1.51-.008-.038zm-5.277-.167l-2.036 7.206c-.926-1.062-1.709-2.752-1.779-7.257l-2.296 7.27c-1.121-1.676-1.926-5.196-1.926-9.663 0-5.978 1.39-9.075 2.664-10.675v-.051c-1.095-1.856-1.999-5.363-2.245-9.613l3.532-7.59 3.16 7.385v.18c-.383.563-.544 1.228-.544 3.75v16.344c0 1.836.22 3.793.753 4.303l.58-2.066.148.503-.011-.026zm-3.818-14.412v-6.656l-1.988-4.748-.254.563c.081 3.942.24 9.1.996 11.737.276-.333.922-.755 1.253-.896h-.007zm0 13.299v-12.57c-1.397.577-2.183 4.02-2.183 8.333 0 3.584.371 5.76 1.3 7.04l.883-2.79v-.013zM13.427 1.857c-.06 4.864-1.043 9.387-2.793 9.387a.899.899 0 01-.61-.222v38.446c1.125-.497 2.143-2.18 3.08-4.47l.082.837c-1.037 4.211-2.999 11.11-6.03 11.11C3.028 56.946 0 47.18 0 30.515-.001 15.233 3.62 6.747 5.967 3.585l.19.337c-2.212 5.116-3.4 11.302-3.4 22.074 0 9.497.979 16.255 2.454 20.223l.498-1.178V15.54c0-2.705-.112-3.631-.481-3.968v-.223C6.703 8.787 9.045 4.371 10.344.795c.4 1.63.9 2.347 1.524 2.347.681 0 1.14-.838 1.444-1.621l.113.336h.002zM9.767 49.58V10.74c-.585-.777-.994-2.372-1.363-4.244l-.08.111v33.42l-2.92 6.758c.999 2.419 2.456 2.854 3.946 2.854.14 0 .28-.013.417-.051v-.008zm102.974-2.359l-2.021 7.209c-1.299-1.454-1.797-4.08-1.797-8.16v-20.9l-1.075-2.682-.944 3.409v21.57l.756 1.676-1.682 5.087-1.893-5.478v-.167c.404-.67.5-1.367.5-3.912V26.32c0-2.069-.305-3.575-.849-3.8l-.61 2.177-.162-.558 2.054-7.322c1.206 1.063 1.893 3.814 1.893 8.049l2.216-8.047c.738 1.894 1.804 4.53 2.598 6.195v.166c-.335.448-.449 1.344-.449 3.686V44.53c0 2.432.239 3.405.757 4.25l.577-2.074.147.5-.016.016zm-9.321.054l-1.973 7.155c-.979-.617-1.83-3.858-1.83-7.321l-2.341 7.32c-.915-2.194-1.746-4.197-2.532-5.813v-.169c.43-.806.514-1.254.514-4.08V26.04c0-1.943-.271-3.018-.72-3.578l-.558 2.01-.158-.512 1.973-7.155c.981 1.165 1.797 3.801 1.797 8.038v21.428l1.11 2.623.915-2.905V23.582l-.673-1.622 1.621-5.141 1.874 5.299v.102c-.357.576-.482 1.229-.482 3.52v18.162c0 2.842.114 3.904.787 4.864l.529-2.022.162.499-.015.032zM83.992 6.762l-1.396 4.973-1.428-4.749 1.428-5.31 1.396 5.082v.004zM85.5 46.987l-2.053 7.436c-1.156-1.395-1.813-3.353-1.813-8.383v-21.9l-.626-1.565-.578 2.067-.144-.504 2.005-7.264 2.134 4.917v.113c-.329.694-.481 1.18-.481 2.85V45.15c0 1.643.296 3.272.802 3.52l.61-2.178.144.503v-.009z" fill="#000"/><path d="M80.495 19.167c-.113 2.795-.723 6.54-1.781 6.54-.679 0-1.172-1.343-1.444-2.851l-.177.614c.009.32.016 1.001.016 1.342v20.453l1.768 3.464.595-2.125.162.504-2.084 7.377-3.208-7.095v-.166c.371-.564.482-1.298.482-3.244V26.934c0-2.85-.177-4.134-.834-4.582l-.625 2.234-.158-.503 2.036-7.265c1 .935 1.639 2.957 1.815 5.811l1.573-5.76c.305 1.396.672 2.458 1.106 2.458.29 0 .5-.166.705-.5l.067.334-.014.006z" fill="#000"/><path d="M74.435 1.565c-.228 6.179-.957 11.68-2.84 11.68-.223 0-.56-.111-.705-.166v36.657c1.14-.56 2.45-2.48 3-4.023l.08.726c-.858 4.288-3.225 10.841-6.159 10.841-3.709 0-6.577-8.499-6.577-22.232 0-11.827 2.805-20.364 4.636-22.63l.161.23c-1.279 4.058-2.183 9.587-2.183 18.278 0 7.257.803 11.788 2.039 15.321l.689-1.229v-22.27c0-2.407-.224-3.188-.48-3.354v-.218l3.094-5.696v27.826l-3.11 5.479c.833 2.24 2.165 3.417 3.431 3.417.435 0 .636-.064 1.123-.333V13.082c-2.309-.67-4.769-4.08-6.656-4.08-1.326 0-2.326 1.897-2.326 5.418 0 2.127.479 3.04.785 3.52l-.256.504c-.563-.896-1.268-3.033-1.268-7.552C60.913 4.313 62.434 0 64.475 0c2.824 0 5.477 5.197 7.972 5.197.769 0 1.483-1.421 1.845-4.02l.143.397v-.009zm45.558 25.93a189.543 189.543 0 00-4.138 9.554v7.881l1.973 3.799 1.091-3.913.144.448-2.55 9.164-3.528-7.487v-.17c.353-.332.548-1.113.548-3.903V25.536c1.429-2.235 2.936-5.92 4.027-8.771l2.44 10.73h-.007zm-2.15 3.852a728.45 728.45 0 01-1.861-9.663l-.127.277v14.026l1.988-4.639zm-24.305-7.485c-.394.568-.482 1.603-.482 3.409v18.552c-.966 1.442-3.128 5.539-4.219 8.608-.775-1.879-2.006-4.822-3-6.873v-.167c.432-.618.53-1.472.53-4.53V6.93c0-2.515-.13-3.802-.29-4.807l.096-.166c.337 1.006.562 2.179.658 3.799h.032C87.38 2.754 88.023.835 89.27.278l.016.336c-.347 1.472-.593 2.816-.593 5.696v17.83l1.989-7.322c.69 1.741 2.089 5.223 2.856 6.874v.17zm-2.824 25.314V25.703l-1.3-3.072-.721 2.569v19.894l1.78 4.526.24-.448.001.004z" fill="#000"/></svg>