<svg width="70" height="70" fill="none" xmlns="http://www.w3.org/2000/svg"><path d="M24.5 4.375l-.7.352-.14.77.536.573.304.055.7-.352.14-.77-.536-.573-.304-.055zm7 0l-.7.352-.14.77.536.573.304.055.7-.352.14-.77-.536-.573-.304-.055zm7 0l-.7.352-.14.77.536.573.304.055.7-.352.14-.77-.536-.573-.304-.055zm6.125 0l-.7.352-.14.77.536.573.304.055.7-.352.14-.77-.536-.573-.304-.055zM23.374 7.687l-.7.35-.14.773.536.572.304.055.7-.352.139-.773-.535-.572-.304-.053zm7 0l-.7.35-.14.773.536.572.304.055.7-.352.139-.773-.535-.572-.304-.053zm7 0l-.7.35-.14.773.536.572.304.055.7-.352.139-.773-.535-.572-.304-.053zm6.125 0l-.7.35-.14.773.536.572.304.055.7-.352.139-.773-.535-.572-.304-.053zm-20.464 3.454l-.702.35-.137.773.535.572.304.055.701-.352.139-.77-.537-.573-.303-.055zm7 0l-.702.35-.137.773.535.572.304.055.701-.352.139-.77-.537-.573-.303-.055zm7 0l-.702.35-.137.773.535.572.304.055.701-.352.139-.77-.537-.573-.303-.055zm6.125 0l-.702.35-.137.773.535.572.304.055.701-.352.139-.77-.537-.573-.303-.055zM25.734 12.84l-.7.352-.14.77.536.573.304.055.7-.35.139-.773-.535-.573-.304-.054zm7 0l-.7.352-.14.77.536.573.304.055.7-.35.139-.773-.535-.573-.304-.054zm7 0l-.7.352-.14.77.536.573.304.055.7-.35.139-.773-.535-.573-.304-.054zm6.125 0l-.7.352-.14.77.536.573.304.055.7-.35.139-.773-.535-.573-.304-.054zm-18.982 3.014l-.702.352-.137.771.535.573.304.054.7-.35.14-.773-.537-.572-.303-.055zm7 0l-.702.352-.137.771.535.573.304.054.7-.35.14-.773-.537-.572-.303-.055zm7 0l-.702.352-.137.771.535.573.304.054.7-.35.14-.773-.537-.572-.303-.055zm6.125 0l-.702.352-.137.771.535.573.304.054.7-.35.14-.773-.537-.572-.303-.055zm-20.976 3.39l-.7.351-.139.771.537.573.302.054.703-.35.136-.773-.535-.572-.304-.055zm7 0l-.7.351-.139.771.537.573.302.054.702-.35.137-.773-.535-.572-.304-.055zm7 0l-.7.351-.139.771.537.573.302.054.702-.35.137-.773-.535-.572-.304-.055zm6.125 0l-.7.351-.139.771.537.573.302.054.702-.35.137-.773-.535-.572-.304-.055zm-26.464 4.205l-.485.323s-1.032.686-2.075 1.642c-1.042.956-2.252 2.112-2.252 3.68V31.5h-1.924c-.88 0-1.576.748-1.576 1.605v2.917c0 .857.697 1.603 1.576 1.603h1.924v12.25h-1.924c-.88 0-1.576.748-1.576 1.605v2.917c0 .857.697 1.603 1.576 1.603h1.924v2.406c0 1.568 1.21 2.724 2.252 3.68a19.197 19.197 0 002.075 1.642l.485.323.486-.323s1.032-.686 2.075-1.642c.473-.434.964-.925 1.377-1.462.413.537.904 1.028 1.377 1.462a19.197 19.197 0 002.075 1.642l.485.323.486-.323s1.032-.686 2.075-1.642c.473-.434.964-.925 1.377-1.462.413.537.904 1.028 1.377 1.462a19.197 19.197 0 002.075 1.642l.486.323.485-.323s1.032-.686 2.075-1.642c.473-.434.964-.925 1.377-1.462.413.537.904 1.028 1.377 1.462a19.197 19.197 0 002.075 1.642l.486.323.485-.323s1.032-.686 2.075-1.642c.473-.434.964-.925 1.377-1.462.413.537.904 1.028 1.377 1.462a19.197 19.197 0 002.075 1.642l.486.323.485-.323s1.032-.686 2.075-1.642C54.79 61.13 56 59.974 56 58.406V56h1.75a.877.877 0 00.82-1.213.877.877 0 00-.82-.537H56v-2.625h1.75a.877.877 0 00.82-1.213.877.877 0 00-.82-.537H56v-12.25h1.75a.877.877 0 00.82-1.213.877.877 0 00-.82-.537H56V33.25h1.75a.877.877 0 00.82-1.213.877.877 0 00-.82-.537H56v-2.406c0-1.568-1.21-2.724-2.252-3.68-1.043-.956-2.075-1.642-2.075-1.642l-.486-.323-.485.323s-1.032.686-2.075 1.642c-.473.434-.964.925-1.377 1.461-.413-.536-.904-1.027-1.377-1.46-1.043-.957-2.075-1.643-2.075-1.643l-.486-.323-.485.323s-.96.638-1.96 1.538c-.513.461-1.061.973-1.502 1.557-.405-.537-.896-1.02-1.367-1.453-1.043-.956-2.075-1.642-2.075-1.642l-.486-.323-.485.323s-1.032.686-2.075 1.642c-.473.435-.977.913-1.39 1.45-.405-.536-.894-1.018-1.364-1.45-1.043-.956-2.075-1.642-2.075-1.642l-.485-.323-.486.323s-1.032.686-2.075 1.642c-.473.434-.964.925-1.377 1.461-.413-.536-.904-1.027-1.377-1.46-1.043-.957-2.075-1.643-2.075-1.643l-.485-.323zm23.624 2.162c.313.22.693.463 1.379 1.092.926.849 1.685 1.99 1.685 2.39h1.75c0-.4.76-1.541 1.685-2.39.685-.628 1.064-.87 1.377-1.09.314.22.693.462 1.378 1.09.926.849 1.685 1.99 1.685 2.39v29.313c0 .401-.76 1.542-1.685 2.391-.685.628-1.064.87-1.377 1.09-.314-.22-.693-.462-1.378-1.09-.926-.849-1.685-1.99-1.685-2.39h-1.75c0 .4-.76 1.541-1.685 2.39-.685.628-1.064.87-1.377 1.09-.314-.22-.693-.462-1.378-1.09-.926-.849-1.685-1.99-1.685-2.39H38.5c0 .4-.76 1.541-1.685 2.39-.685.628-1.064.87-1.377 1.09-.314-.22-.693-.462-1.378-1.09-.926-.849-1.685-1.99-1.685-2.39h-1.75c0 .4-.76 1.541-1.685 2.39-.685.628-1.064.87-1.378 1.09-.313-.22-.692-.462-1.377-1.09-.926-.849-1.685-1.99-1.685-2.39h-1.75c0 .4-.76 1.541-1.685 2.39-.685.628-1.064.87-1.378 1.09-.313-.22-.692-.462-1.377-1.09-.926-.849-1.685-1.99-1.685-2.39V29.093c0-.401.76-1.542 1.685-2.391.685-.628 1.064-.87 1.378-1.09.313.22.692.462 1.377 1.09.926.849 1.685 1.99 1.685 2.39h1.75c0-.4.76-1.541 1.685-2.39.685-.628 1.064-.87 1.378-1.09.313.22.692.462 1.377 1.09.926.849 1.685 1.99 1.685 2.39h1.75c0-.4.76-1.541 1.685-2.39.685-.628 1.064-.87 1.377-1.09.314.22.693.462 1.378 1.09.926.849 1.685 1.99 1.685 2.39h1.75c0-.028.002-.062.007-.095l-.043-.007v-.002l.043.006c.067-.485.887-1.581 1.78-2.384.647-.581.973-.788 1.274-1zm-19.686 5.014l-.7.352-.14.77.536.573.304.055.7-.352.14-.77-.536-.573-.304-.055zm7.875 0l-.7.352-.14.77.536.573.304.055.7-.352.14-.77-.536-.573-.304-.055zm7.875 0l-.7.352-.14.77.536.573.304.055.7-.352.14-.77-.536-.573-.304-.055zm7.875 0l-.7.352-.14.77.536.573.304.055.7-.352.14-.77-.536-.573-.304-.055zm14 .875a.875.875 0 100 1.75.875.875 0 000-1.75zm-48.125 1.75h1.75v2.625h-1.75V33.25zm10.5.875l-.7.352-.14.77.536.573.304.055.7-.352.14-.77-.536-.573-.304-.055zm7.875 0l-.7.352-.14.77.536.573.304.055.7-.352.14-.77-.536-.573-.304-.055zm7.875 0l-.7.352-.14.77.536.573.304.055.7-.352.14-.77-.536-.573-.304-.055zm7.875 0l-.7.352-.14.77.536.573.304.055.7-.352.14-.77-.536-.573-.304-.055zm14 1.75a.875.875 0 100 1.75.875.875 0 000-1.75zm-37.625 1.75l-.7.352-.14.77.536.573.304.055.7-.352.14-.77-.536-.573-.304-.055zm7.875 0l-.7.352-.14.77.536.573.304.055.7-.352.14-.77-.536-.573-.304-.055zm7.875 0l-.7.352-.14.77.536.573.304.055.7-.352.14-.77-.536-.573-.304-.055zm7.875 0l-.7.352-.14.77.536.573.304.055.7-.352.14-.77-.536-.573-.304-.055zm-23.625 3.5l-.7.352-.14.77.536.573.304.055.7-.352.14-.77-.536-.573-.304-.055zm7.875 0l-.7.352-.14.77.536.573.304.055.7-.352.14-.77-.536-.573-.304-.055zm7.875 0l-.7.352-.14.77.536.573.304.055.7-.352.14-.77-.536-.573-.304-.055zm7.875 0l-.7.352-.14.77.536.573.304.055.7-.352.14-.77-.536-.573-.304-.055zm-23.625 3.5l-.7.352-.14.77.536.573.304.055.7-.352.14-.77-.536-.573-.304-.055zm7.875 0l-.7.352-.14.77.536.573.304.055.7-.352.14-.77-.536-.573-.304-.055zm7.875 0l-.7.352-.14.77.536.573.304.055.7-.352.14-.77-.536-.573-.304-.055zm7.875 0l-.7.352-.14.77.536.573.304.055.7-.352.14-.77-.536-.573-.304-.055zm-23.625 3.5l-.7.352-.14.77.536.573.304.055.7-.352.14-.77-.536-.573-.304-.055zm7.875 0l-.7.352-.14.77.536.573.304.055.7-.352.14-.77-.536-.573-.304-.055zm7.875 0l-.7.352-.14.77.536.573.304.055.7-.352.14-.77-.536-.573-.304-.055zm7.875 0l-.7.352-.14.77.536.573.304.055.7-.352.14-.77-.536-.573-.304-.055zm14 1.75a.875.875 0 100 1.75.875.875 0 000-1.75zm-48.125 1.75h1.75v2.625h-1.75v-2.625zm10.5 0l-.7.352-.14.77.536.573.304.055.7-.352.14-.77-.536-.573-.304-.055zm7.875 0l-.7.352-.14.77.536.573.304.055.7-.352.14-.77-.536-.573-.304-.055zm7.875 0l-.7.352-.14.77.536.573.304.055.7-.352.14-.77-.536-.573-.304-.055zm7.875 0l-.7.352-.14.77.536.573.304.055.7-.352.14-.77-.536-.573-.304-.055zm14 2.625a.875.875 0 100 1.75.875.875 0 000-1.75zm-37.625.875l-.7.352-.14.77.536.573.304.055.7-.352.14-.77-.536-.573-.304-.055zm7.875 0l-.7.352-.14.77.536.573.304.055.7-.352.14-.77-.536-.573-.304-.055zm7.875 0l-.7.352-.14.77.536.573.304.055.7-.352.14-.77-.536-.573-.304-.055zm7.875 0l-.7.352-.14.77.536.573.304.055.7-.352.14-.77-.536-.573-.304-.055z" fill="#E4B564"/></svg>