<svg width="70" height="70" fill="none" xmlns="http://www.w3.org/2000/svg"><path d="M14.937 11.03c-.202-.007-.4.017-.595.058-1.159.253-2.092 1.288-2.092 2.567v6.47a2.639 2.639 0 002.625 2.625h9.116c.386.967 1.158 1.75 2.259 1.75H28v2.625h-5.25c-1.1 0-1.873.783-2.26 1.75h-8.24a.88.88 0 00-.769.434.883.883 0 000 .882.88.88 0 00.769.434h7.875c0 .482.393.875.875.875a.877.877 0 00.875-.875v-.875a.86.86 0 01.875-.875h5.978a.79.79 0 00.284 0h4.966a.79.79 0 00.284 0h5.988a.86.86 0 01.875.875v.875c0 .482.393.875.875.875a.877.877 0 00.875-.875h4.375c9.19 0 16.625 7.434 16.625 16.625v6.125h.875a.86.86 0 01.875.875.86.86 0 01-.875.875h-14a.86.86 0 01-.875-.875.86.86 0 01.875-.875h.875V49a4.388 4.388 0 00-4.375-4.375h-4.375A.877.877 0 0042 43.75a.877.877 0 00-.875.875v.875a.86.86 0 01-.875.875h-17.5a.86.86 0 01-.875-.875v-.875A.877.877 0 0021 43.75a.877.877 0 00-.875.875H12.25a.88.88 0 00-.769.434.883.883 0 000 .882.88.88 0 00.769.434h8.24c.387.967 1.16 1.75 2.26 1.75h17.5c1.1 0 1.873-.783 2.26-1.75h4.74A2.613 2.613 0 0149.875 49v2.99c-.967.387-1.75 1.16-1.75 2.26a2.639 2.639 0 002.625 2.625h14a2.639 2.639 0 002.625-2.625c0-1.1-.783-1.873-1.75-2.26v-4.74c0-10.138-8.237-18.375-18.375-18.375h-4.74c-.387-.967-1.16-1.75-2.26-1.75H35V24.5h1.75c1.1 0 1.873-.783 2.26-1.75h9.115a2.639 2.639 0 002.625-2.625v-6.47c0-1.706-1.658-2.977-3.302-2.54l-9.826 2.622c-.93-.868-2.116-1.487-3.497-1.487h-5.25c-1.38 0-2.567.619-3.497 1.487l-9.826-2.622h-.004a2.535 2.535 0 00-.611-.085zm-.048 1.743c.068.003.14.014.212.034l10.756 2.871.362-.424A3.44 3.44 0 0128.875 14h5.25c1.073 0 2.01.489 2.656 1.254l.362.424 10.756-2.87a.857.857 0 011.101.847v6.47a.86.86 0 01-.875.875h-8.75a.877.877 0 00-.875-.875.877.877 0 00-.875.875v.875a.86.86 0 01-.875.875h-2.488c-.052-.007-.1-.014-.15-.014-.042.004-.086.007-.127.014h-4.973c-.052-.007-.1-.014-.15-.014-.042.004-.086.007-.127.014H26.25a.86.86 0 01-.875-.875V21a.877.877 0 00-.875-.875.877.877 0 00-.875.875h-8.75a.86.86 0 01-.875-.875v-6.47c0-.523.403-.9.889-.882zm9.611 3.852a.877.877 0 00-.875.875c0 .482.393.875.875.875a.877.877 0 00.875-.875.877.877 0 00-.875-.875zm14 0a.877.877 0 00-.875.875c0 .482.393.875.875.875a.877.877 0 00.875-.875.877.877 0 00-.875-.875zM29.75 24.5h3.5v2.625h-3.5V24.5zm-24.5 4.375a.877.877 0 00-.875.875c0 .482.393.875.875.875a.877.877 0 00.875-.875.877.877 0 00-.875-.875zm3.5 0a.877.877 0 00-.875.875c0 .482.393.875.875.875a.877.877 0 00.875-.875.877.877 0 00-.875-.875zM21 33.25a.877.877 0 00-.875.875c0 .482.393.875.875.875a.877.877 0 00.875-.875.877.877 0 00-.875-.875zm21 0a.877.877 0 00-.875.875c0 .482.393.875.875.875a.877.877 0 00.875-.875.877.877 0 00-.875-.875zm-21 3.5a.877.877 0 00-.875.875c0 .482.393.875.875.875a.877.877 0 00.875-.875.877.877 0 00-.875-.875zm21 0a.877.877 0 00-.875.875c0 .482.393.875.875.875a.877.877 0 00.875-.875.877.877 0 00-.875-.875zm-21 3.5a.877.877 0 00-.875.875c0 .482.393.875.875.875a.877.877 0 00.875-.875.877.877 0 00-.875-.875zm21 0a.877.877 0 00-.875.875c0 .482.393.875.875.875a.877.877 0 00.875-.875.877.877 0 00-.875-.875zM5.25 44.625a.877.877 0 00-.875.875c0 .482.393.875.875.875a.877.877 0 00.875-.875.877.877 0 00-.875-.875zm3.5 0a.877.877 0 00-.875.875c0 .482.393.875.875.875a.877.877 0 00.875-.875.877.877 0 00-.875-.875zm45.5 7a.877.877 0 00-.875.875c0 .482.393.875.875.875a.877.877 0 00.875-.875.877.877 0 00-.875-.875zm3.5 0a.877.877 0 00-.875.875c0 .482.393.875.875.875a.877.877 0 00.875-.875.877.877 0 00-.875-.875zm3.5 0a.877.877 0 00-.875.875c0 .482.393.875.875.875a.877.877 0 00.875-.875.877.877 0 00-.875-.875zM58.625 59.5s-1.75 3.408-1.75 4.375a1.749 1.749 0 103.5 0c0-.967-1.75-4.375-1.75-4.375z" fill="#E4B564"/></svg>