<svg width="996" height="966" fill="none" xmlns="http://www.w3.org/2000/svg"><path fill-rule="evenodd" clip-rule="evenodd" d="M163.83 552.282l2.542 4.823-.443 11.207 7.741 4.147.046.024 5.596 3.588 5.2-3.588.14-.117.21.024 7.857.419 8.231-5.033.909-6.291.07-.536.56.07 9.233 1.235 4.85-1.538.467-.14.209.443 3.638 7.27 8.184 2.912 1.819-1.631.559-9.133-5.269-3.961-.21-.14-.024-.28-.373-5.895-3.334-3.145-5.106-3.751-.257-.187.024-.303.559-8.97-10.189-7.899-.187-.14-.023-.233-.956-6.011-3.871-1.841-.326-.163v-4.147l-1.539-2.75-5.782-.349-1.026 2.376-.117.303-.326.047-2.355.396-.327.047-.21-.257-1.608-1.957h-2.472l-3.777 3.425v6.641l-.117.163-2.238 3.099 1.935 1.444.21.14v.28l.21 3.145.046.629-.629-.023-4.197-.186-1.702 2.866 1.142 5.708.07.303-.21.21-13.057 13.211z" fill="#151515"/><path fill-rule="evenodd" clip-rule="evenodd" d="M143.989 490.84l-4.407 5.452-2.122 3.332.909 4.567 4.57 2.12-.606 7.013 11.565 7.293.303 13.374 9.07 17.242 12.591-12.745-1.119-5.615-.046-.21.116-.186 1.959-3.356.186-.302.327.023 3.917.163-.14-2.26-2.168-1.631-.443-.326.326-.443 2.448-3.402v-6.314l-8.37-8.574-8.301-1.748-.117-.023-.093-.047-5.899-3.961-.187-.116-.046-.187-1.469-4.986-3.008-.512-2.985 1.677-.326.21-.303-.257-6.132-5.265z" fill="#151515"/><path fill-rule="evenodd" clip-rule="evenodd" d="M151.94 461.272l-5.037 2.167-2.448 4.87-3.661.908-.303 6.081 5.176 3.053-1.259 11.347 6.133 5.289 2.798-1.584.186-.094.187.024 3.544.582.35.07.116.35 1.516 5.126 5.642 3.774 8.371 1.748.163.023.117.14 8.3 8.481 3.731-3.379.163-.163h3.428l.186.21 1.563 1.911 1.725-.28.933-2.19-3.731-5.056-.116-.14v-.163l-.374-4.94-3.963-1.258-.234-.07-.116-.233-1.189-2.563-.047-.116v-4.264l-1.842-2.423-.117-.14v-9.087l-13.313-17.382-16.578-.629zm18.839-40.635l-8.371-.699-6.086-5.779.607-5.475-5.783-1.212-3.334 8.225-12.171 10.322.909 6.687 6.389-.303 4.873 3.961 1.819 8.528 5.479-.606 6.389 1.212v4.241l-7.951 10.461 15.086.559 18.746-13.723-1.469-2.423-.093-.14v-3.425l.163-.163 2.239-2.237.046-.024.07-.046 3.171-1.887-.35-2.517-3.8-.279-2.052 1.631-.303.233-.327-.187-3.357-1.91-.14-.094-.093-.139-2.076-3.985-.046-.116v-.14l-.163-3.658v-.163l.07-.14 1.935-3.355-8.977-.583h-.163l-.14-.116-.746-.536z" fill="#151515"/><path fill-rule="evenodd" clip-rule="evenodd" d="M197.267 369.144l-1.376 2.446-10.049 5.779-5.177 8.201-5.479 11.254-.606 9.134 1.539 5.475-3.964 4.87-.257 3.751.164.117 9.583.606 3.87-1.678.117-.07h.116l7.602.163 4.15-3.821.163-.163h.233l5.596.326.397.023.116.373 2.355 8.085 2.076-1.235.186-.093.187.023 4.15.653.233.023.14.21 2.052 2.912 10.865-1.071 6.482-4.171 7.205-10.322.28-2.493-4.966-6.035-.094-.116-.023-.163-.746-5.476-12.195-2.167-.116-.023-.117-.07-5.899-4.31-.117-.094-.046-.116-7.835-14.656v-.023l-.023-.023-2.471-5.872-2.332-1.235-4.733 1.212-.117.023h-.117l-1.002-.163zm-27.654 92.314l13.221 17.289.116.163v9.064l1.866 2.423.116.14v4.427l1.026 2.213 4.011 1.282 6.155.303 1.889-3.356.07-.116.07-.047 11.635-9.436 1.212-9.53-5.059-4.59-.07-.07-.047-.116-2.565-5.569-.047-.14v-.116l.304-9.693-15.319-8.132-18.584 13.607z" fill="#151515"/><path fill-rule="evenodd" clip-rule="evenodd" d="M210.254 486.902l-11.309 9.134-2.028 3.588-.163.303-.35-.024-5.923-.279.35 4.52 3.684 4.986 6.226.373.326.023.14.257 1.772 3.168.07.117v3.751l3.824 1.818.256.116.047.303.956 6.081 9.98 7.759 4.849-2.237 1.306-3.005-.769-4.87-1.399-2.959-.14-.256.163-.257 2.075-3.658.093-.163.164-.093 8.534-3.938 5.013-4.567.163-5.568-1.213-3.728-4.476-3.565-.14-.093-.047-.14-1.469-3.985-4.29-.419-6.715 3.122-.14.07-.163-.023-4.78-.466-.233-.023-.14-.187-4.104-4.986z" fill="#151515"/><path fill-rule="evenodd" clip-rule="evenodd" d="M239.143 506.287l-.024.886v.233l-.163.163-5.27 4.776-.069.07-.07.047-8.464 3.891-1.842 3.262 1.305 2.773.047.07v.07l.816 5.102.023.163-.07.163-1.445 3.332-.07.21-.21.093-5.036 2.33-.56 8.621 4.873 3.565.024.023.023.024 3.544 3.355.163.163.023.21.374 5.848 5.106 3.844 7.485-1.304 14.969-7.713 1.888-2.609.164-12.419v-.093l1.445-8.435.024-.163.093-.116 6.552-7.759-5.27-5.825-3.101 1.98-.07.047-.07.023-2.704.792-.234.07-.209-.116-4.151-2.4-.14-.07-.093-.14-3.661-6.734-5.945-.303zm-34.484-50.304l-.304 9.599 2.449 5.336 5.176 4.73.21.186-.023.303-1.26 9.786 4.174 5.056 4.407.443 6.715-3.122.14-.07.163.023 4.244.42.396-2.493.024-.14.07-.117 3.031-4.147.023-.023.023-.024 6.086-6.524v-4.334l.163-.163 3.638-3.634-.747-7.433-4.383-2.726-.14-.07-.093-.163-1.889-3.961-9.28.443-2.238 2.679-.303.373-.42-.256-8.068-4.893-2.261-.699-9.723 5.615z" fill="#151515"/><path fill-rule="evenodd" clip-rule="evenodd" d="M241.219 475.974l-6.039 6.501-2.938 4.008-.443 2.749 1.492 4.031 4.5 3.565.14.093.047.163 1.282 3.984.023.093v.094l-.093 3.914 6.272.303.303.023.164.28 3.754 6.873 3.8 2.191 2.402-.723 3.451-2.19.396-.256.327.373 5.805 6.43 3.894 1.352 3.521-.14 11.658-10.392.024-.023.046-.023 6.179-4.381-1.445-3.891-2.379-6.501-11.938-20.107-7.298-.28-2.541 2.237-.327.279-.35-.233-2.891-1.91v-.024l-2.844-1.98-1.423 1.165-.093.093-.117.023-5.106 1.282-.187.047-.186-.094-2.845-1.281-1.958 1.817-.163.14-.21.023-5.666.303zm-4.221-24.395l1.749-2.167 2.751-3.984v-9.39l-4.313-2.377-.14-.069-.07-.117-3.358-5.266-.07-.116v-.117l-.839-5.359-5.969 3.845-.117.07-.116.023-11.356 1.118-.326.024-.187-.28-2.098-2.982-3.707-.583-2.542 1.515-.606.349-.21-.699-2.448-8.364-4.943-.303-4.127 3.821-.187.163h-.21l-7.694-.163-3.708 1.631-2.215 3.844.14 3.379 1.936 3.728 2.891 1.631 1.912-1.515.186-.14.21.024 4.477.326.443.023.07.466.49 3.332.046.373-.326.21-3.451 2.027-2.005 2.027v2.633l1.585 2.586 15.529 8.248 9.956-5.755.21-.116.233.07 2.565.792.047.023.07.047 7.717 4.683 2.099-2.493.14-.187.256-.023 9.63-.466z" fill="#151515"/><path fill-rule="evenodd" clip-rule="evenodd" d="M233.733 421.825l.91 5.872 3.194 5.032 4.5 2.494.303.163v10.391l-.093.14-2.868 4.148-.047.023-1.678 2.12 1.842 3.845 4.5 2.772.233.163.023.28.793 7.969.023.256-.186.186-3.661 3.682v3.471l5.106-.279 2.076-1.934.279-.256.35.139 3.008 1.375 4.78-1.211 1.679-1.352.326-.279.35.256 3.171 2.213 2.518 1.678 2.402-2.097.163-.163.233.023 7.485.303 2.821-4.31 1.935-5.476-1.818-1.654-.024-.047-.023-.023-3.358-4.311-.07-.07-.023-.093-2.705-8.295-.07-.186.07-.163 1.912-5.895.024-.116.07-.094 6.225-7.176.047-.023v-.024l3.87-3.541.863-4.334-4.92-5.802-11.705.163h-.163l-.14-.093-12.94-8.295-.28-.186.023-.326.303-4.893-1.539-.769-1.305 1.305-.117.14-.21.023-11.052 1.538-.117 1.002v.139l-.093.117-7.205 10.345z" fill="#151515"/><path fill-rule="evenodd" clip-rule="evenodd" d="M284.354 433.265l-3.101 2.843-6.133 7.06-1.818 5.615 2.635 8.015 3.264 4.218 2.028 1.864.28.256-.116.349-2.076 5.895-.023.07-.047.047-2.821 4.334 11.635 19.642 8.138-4.87.116-.07h.163l10.306-.349 11.332-6.827-2.378-6.641-11.075-14.213-5.503-2.4-.117-.046-.07-.07-4.22-4.567-.326-.35.303-.372 3.077-4.124 1.306-5.196-2.588-2.587-5.549 4.59-.42.35-.373-.396-5.27-5.615-.139-.14v-.21l-.42-6.105z" fill="#151515"/><path fill-rule="evenodd" clip-rule="evenodd" d="M299.393 442.05l.746.745.233.233-.093.303-1.399 5.615-.023.117-.07.093-2.868 3.845 3.801 4.124 5.526 2.4.116.069.093.117 11.239 14.376.07.093.023.07 2.379 6.687 3.66-.722 2.658-3.821.164-.233h.279l6.786-.536.256-.023.187.186 2.658 2.493 4.243-2.423 1.236-14.796-6.692-3.681-.28-.14-.023-.326-.326-6.081-3.101-2.773-4.967 1.631-.21.093-.21-.116-16.368-8.691-9.723 1.072z" fill="#151515"/><path fill-rule="evenodd" clip-rule="evenodd" d="M316.018 443.354l9.769 5.196 5.037-1.677.326-.094.233.21 3.521 3.169.163.14.024.233.326 6.011 6.762 3.705.326.186-.046.373-1.236 14.819 20.145.186 2.472-1.654.14-.093h.186l6.622.163.397.023.116.35 1.842 5.172 5.363 2.353.093.047.07.07 4.57 4.637 7.438-7.573.164-.163h.256l18.07.35.327-11.371v-.21l.14-.163 3.497-3.821-3.94-3.961-9.537 2.377-.233.07-.186-.117-14.41-8.434-.14-.07-.07-.14-8.697-16.007-13.104-7.946-20.052-1.025-6.855 4.8-.14.093-.163.024-7.788.326-2.309 3.611-.069.117-.117.07-9.303 5.638zm-30.055-16.776l8.603-3.891-1.189-4.054-.046-.116.023-.14 2.658-14.563.093-.489.513.023 7.438.513 9.42-9.157-1.236-10.881-9.21.047-.07.605-.816-.745-10.166-9.017-6.062.349-.233.024-.163-.14-7.275-5.942-.14-.116-.047-.187-1.282-5.359-5.433-3.844-1.982 1.538-.909 4.939-.093.513-.513-.047-13.384-1.141-.187-.024-.14-.116-4.5-3.938-13.057-3.402-.117-.046-.093-.047-6.878-4.986-.024-.023-.046-.024-3.638-3.658-3.52 3.518-2.076 8.621-.023.094-.046.093-3.871 5.965-.14.209-.233.024-9.07 1.77 2.285 5.383 7.741 14.539 5.689 4.147 12.475 2.214.419.07.047.419.769 5.732 5.013 6.104.14.187-.023.21-.07.722 10.562-1.468 1.469-1.468.303-.28.35.187 2.239 1.118.326.163-.023.373-.28 4.94 12.498 8.015 11.798-.163h.256l.187.21 4.99 5.894z" fill="#151515"/><path fill-rule="evenodd" clip-rule="evenodd" d="M341.713 428.046l-7.368-7.036-.233-.233.093-.327 2.845-10.321-5.48-6.688-4.756.233-.164.024-.163-.093-12.358-7.969-9.466 9.203-.187.187-.256-.023-7.182-.49-2.541 13.934 1.282 4.38.14.466-.443.21-9.187 4.147-.886 4.427.49 7.013 4.757 5.08 5.572-4.567.397-.326.349.349 1.399 1.398 10.796-1.188.186-.023.14.07 5.386 2.865 9.747-5.941 2.401-3.751.164-.233.279-.024 7.928-.349 6.319-4.404zm-13.711 217.668l-.326 6.897 3.661 8.808 4.243-.909 3.055-2.726 6.388 3.029-.303 4.264-1.818 3.961 2.121 2.423 6.086 2.143 2.448 8.505 2.425 10.648-2.728 6.687 2.728 5.476 6.995-4.264 3.055.932 2.121 4.543 1.516 7.922 4.57 3.332 5.479-3.635 5.177.303 9.746 4.241-.303 4.567 2.122 3.658 4.873.908 3.964-4.264 4.243 4.264 5.48 3.356-1.213 8.504 1.213 4.87 5.479 6.081 4.57 1.515 4.57-2.727 3.661 1.212 2.728 5.476 11.262 3.658 4.873-3.658 4.873-6.99-8.627-18.85-.769-.513-.14-.116-.07-.187-1.889-5.638-.116-.373.303-.233 4.686-3.658 1.119-3.402-2.308-4.986-12.055-3.705-5.619 1.491-2.914 6.851-.164.372-.419-.046-7.275-.699-.21-.024-.14-.139-6.622-6.641-12.288-2.796-.256-.046-.117-.233-2.658-5.15-.186-.372.28-.28 4.779-5.103-3.007-3.169-.164-.186v-.233l.187-3.192.023-.396.373-.117 4.43-1.304.467-7.503-6.319.326-3.054 2.027-.77.513-.117-.909-1.072-8.877-.047-.443.42-.14 2.845-1.118.326-5.266-2.868-3.192-.14-.163v-.233l.35-12.396-3.451-4.823-.093-.163v-16.729l-3.334-7.34-.07-.186.046-.163 1.516-6.641-4.384-4.939-.186.769v.023l-2.262 7.503-.023.046-.024.047-1.748 3.308-.07.163-.164.07-12.917 7.247-3.241 5.941-.116.21-.21.07-8.884 2.796h-.093l-4.547.675-9.117 7.922-.14.117-.186.023-13.174 1.025-.35.466zm-63.957-5.312l5.806 5.522-.606 6.081-1.516 4.87 3.334 6.081 6.692-3.052 3.358-6.687 3.964-4.264 9.419 1.841 5.177-4.264 3.66-.303 2.729 2.12 9.443-.605 6.995-1.818 4.71-1.048.279-.373.164-4.124-.49-3.495-4.64-6.664-.117-.186.024-.187.676-8.155-5.27-6.617-.07-.093-.023-.117-1.912-7.502-.023-.047v-.047l-.327-4.333-4.336-1.445-.07-.023-.024-.023-12.917-6.967-.28-.14-.023-.326-.163-7.037-12.615-2.19-.093-.023-.093-.047-13.431-7.829-.279-.163v-4.706l-1.866-3.286-6.505-.675-.28-.024-.14-.233-9.56-15.028-12.707 6.547-.07.047-.093.023-7.368 1.258-.56 9.227v.233l-.186.163-2.029 1.818.583 7.339 3.824 4.986 5.712 1.188.164.047.116.117 10.283 9.949.163.163v7.922l-.14.163-4.547 5.149-.279 4.847 3.684.256 4.22-1.818.769-.326.024.839.303 8.225 2.588 3.728 5.992 1.188.443.093.024.466.326 13.794z" fill="#151515"/><path fill-rule="evenodd" clip-rule="evenodd" d="M316.624 602.889l.303 4.264 1.889 7.316 5.316 6.687.14.187-.023.209-.677 8.179 4.594 6.64.07.093.023.14.536 3.658v.093l-.163 3.728 12.614-.978 9.117-7.899.117-.116.163-.024 4.663-.675 8.627-2.726 3.195-5.895.093-.14.14-.07 12.917-7.246 1.656-3.099 2.238-7.433.816-3.402-6.458-9.32-2.752-2.446-2.938 2.004-.093.07-.117.023-2.611.536-.373.07-.21-.303-5.246-7.526-1.586 1.165-6.598 6.943-.047.07-.07.024-3.824 2.26-.21.139-.233-.069-4.873-1.212-.14-.047-.093-.093-7.485-6.594-5.036-3.681-4.663.489-7.765 1.025-3.078 4.357-.14 1.911 2.449 1.235.396.186-.093.396-.863 5.057-.047.302-.279.14-3.288 1.398z" fill="#151515"/><path fill-rule="evenodd" clip-rule="evenodd" d="M298.811 586.742l.163 6.897 12.567 6.804 4.454 1.467 3.171-1.351.746-4.334-2.402-1.211-.349-.163.046-.373.164-2.447v-.163l.093-.116 3.334-4.707.14-.21.233-.023 8.021-1.048h.023l4.874-.536.233-.024.163.14 5.223 3.845h.023l.023.023 7.392 6.524 4.523 1.142 3.591-2.121 6.552-6.896.047-.047.023-.023 1.632-1.212-4.873-6.011-.28-.35.303-.373 2.099-2.423-.443-5.196-9.817-.675-.256-.024-.163-.209-5.596-7.969-7.042-.326-.373-.023-.14-.327-2.565-6.384-7.717-9.157-1.026 1.282-1.376 6.827-.023.116-.07.093-1.726 2.61-.256.373-.42-.163-11.798-4.078v12.489l-.14.14-2.542 2.866 2.285 4.357.094.209-.07.233-1.049 2.96-.047.116-.093.117-9.583 9.063z" fill="#151515"/><path fill-rule="evenodd" clip-rule="evenodd" d="M273.116 520.803l-3.405.14-.116.023-.093-.046-3.778-1.305-6.528 7.712-1.399 8.272-.164 12.535v.187l-.093.139-2.075 2.866-.093.117-.117.07-1.445.745 9.35 14.703 6.528.675.303.024.14.256 2.099 3.658.07.14v4.357l13.057 7.619 12.707 2.214 9.444-8.948.909-2.609-2.308-4.497-.187-.35.257-.279 2.658-2.983v-12.325l-4.547-.303-.326-.024-.14-.302-3.195-6.874-7.298-1.305-2.401 2.097-.513.42-.35-.56-4.524-7.502-.069-.117-.024-.116-.653-8.388h-8.067l-.14-.373-3.474-9.763z" fill="#151515"/><path fill-rule="evenodd" clip-rule="evenodd" d="M291.792 505.822l-6.109 4.333-11.518 10.252 3.358 9.413h8.324l.046.513.7 8.761 4.103 6.803 2.122-1.817.187-.186.28.046 7.834 1.398.303.047.117.279 3.171 6.827 4.127.303v-.21l.746.28 12.125 4.194 1.445-2.144 1.376-6.873.023-.116.093-.117 1.563-1.887 2.518-4.194.14-3.006-3.358-1.911-.233-.139-.047-.28-.489-3.565-2.075-1.165-1.096 1.818-.164.256h-.303l-8.184.326-.909 2.283-.163.42-.467-.07-4.173-.699-.28-.047-.117-.233-4.36-8.201-.07-.093v-.117l-1.189-11.999-9.397-9.483zm38.216 32.876l-.164 3.215-.023.14-.07.116-2.401 4.008 7.927 9.46.07.07.024.093 1.119 2.749 5.875-1.701h.024l.07-.023 7.764-.978.816-6.012.024-.279.256-.14 4.01-2.26.07-.047.07-.023 7.998-2.004.816-6.664-2.192-11.79-15.225-4.893-8.698 2.47-.839 9.017-.023.257-.21.163-7.088 5.056z" fill="#151515"/><path fill-rule="evenodd" clip-rule="evenodd" d="M288.574 494.474l2.239 6.105 1.538 4.194 9.77 9.879.14.14.023.21 1.213 12.069 4.174 7.852 3.45.583.886-2.191.14-.349h.373l8.231-.349 1.236-2.004.28-.466.489.279 2.775 1.561.256.14.047.28.466 3.541 3.125 1.795 6.808-4.87.84-9.157.046-.396.373-.093 8.837-2.517.42-13.188.023-.535.513-.024 7.998-.326 4.29-3.448.303-.257.35.233 8.604 5.383 6.785-9.507.326-.466.467.35 8.091 5.825 5.619-2.47 2.472-2.913-4.804-6.244-9.839-10.019-5.48-2.377-.233-.116-.07-.233-1.795-5.033-6.063-.14-2.471 1.631-.14.094h-.163l-20.775-.164-4.757 2.703-.35.21-.326-.28-2.775-2.609-6.272.466-2.635 3.798-.14.186-.233.047-4.243.838-11.775 7.107-.14.07h-.14l-10.329.349-8.068 4.823z" fill="#151515"/><path fill-rule="evenodd" clip-rule="evenodd" d="M368.48 509.666l-8.511-5.336-4.127 3.286-.163.116-.163.023-7.648.327-.396 12.651 15.272 4.94.326.093.07.326 2.262 12.21.023.093-.023.07-.746 6.198 4.104-1.631.07-.024h.07l12.777-1.771.14-.023.117.047 9.046 2.819.21.07.117.186 2.844 4.73 4.617-4.31-.326-10.112-2.075-4.963-6.179-6.897-15.972-2.796-.14-.023-.117-.094-3.73-3.029-.164-.116-.046-.187-1.539-6.873z" fill="#151515"/><path fill-rule="evenodd" clip-rule="evenodd" d="M398.792 546.27l-4.384 4.101-.513.466-.373-.583-3.078-5.149-8.72-2.726-12.591 1.748-4.64 1.817v.046l-.373.094-8.324 2.073-3.684 2.097-.84 6.175-.046.419-.443.07-8.138 1.025-5.712 1.655.932 2.306 6.949.327.279.023.164.21 5.596 7.968 10.026.676.466.047.047.489.536 5.918.023.233-.163.186-1.958 2.26 4.593 5.662.023-.046.35.489 5.363 7.712 2.145-.419 3.194-2.214.373-.233.327.28 3.147 2.796.047.023.047.07 6.622 9.577.14.209-.047.257-.373 1.537 5.106 5.755.21.21-.07.28-1.562 6.733 3.148 6.967h1.399l1.982-4.474 2.471-5.498.163-.35.397.023 4.243.164.164.023.116.07 5.596 3.448 1.329-1.864-1.002-6.151-3.964-3.961-.187-.186.023-.28.91-6.221.07-.559.559.07 10.353 1.235 8.417-2.703 1.096-6.897-2.984-.443-.21-.023-.14-.186-1.935-2.284-.397-.466.49-.373 4.43-3.215.21-1.515-3.847-.442-.397-.07-.093-.396-.536-2.47-.047-.21.117-.186 2.238-4.008-1.446-1.095-7.484 4.101-.187.093-.21-.046-8.86-1.771-.256-.047-.117-.21-3.731-6.034-.046-.07-.024-.047-2.308-7.293-.023-.069v-.094l-.163-16.636z" fill="#151515"/><path fill-rule="evenodd" clip-rule="evenodd" d="M401.287 566.565l1.073 3.378 3.544 5.778 8.44 1.678 7.648-4.171.303-.163.303.21 2.122 1.608.397.302-.234.42-2.378 4.264.397 1.864 4.033.489.583.07-.093.582-.35 2.307-.023.233-.187.14-4.15 3.006 1.446 1.677 3.287.49h5.247l5.339-4.824.163-12.185.024-.583.583.047 4.873.326 5.083-5.569 3.171-8.248.023-.116.07-.07 4.92-5.243 5.666-14.586-2.868-2.236-.047-.024-.046-.046-3.335-3.845-4.477.839-.279.047-.21-.187-5.876-5.545-9.187-.326-.14 3.168v.047l-.536 4.427-.023.233-.187.14-6.552 5.499-.279.233-.327-.164-5.246-2.423-4.057-.326-4.127 15.005-.094.35-.373.046-8.907 1.375-4.15 10.602z" fill="#151515"/><path fill-rule="evenodd" clip-rule="evenodd" d="M438.827 586.719l-5.526 5.009-.163.14h-5.247l-1.166 7.34-.046.326-.35.116-8.86 2.843-.14.023h-.117l-9.933-1.188-.769 5.406 3.894 3.867.14.117.023.21 1.049 6.547.047.233-.14.186-1.772 2.493-.303.42-.443-.28-5.923-3.635-3.73-.163-2.332 5.15-2.122 4.799-.163.327H392.8v15.937l3.451 4.823.116.163v.186l-.349 12.373 2.867 3.192.164.186-.024.233-.349 5.848-.024.373-.349.14-2.775 1.072.909 7.526 2.425-1.631.117-.07.163-.024 7.111-.349.63-.023-.047.629-.536 8.528-.023.372-.373.117-4.407 1.305-.14 2.563 3.194 3.378.373.373-.373.396-4.873 5.219 2.355 4.544 12.171 2.796.164.023.116.117 6.599 6.617 6.668.629 2.868-6.711.117-.256.256-.07 5.69-1.514.816-5.103.723-5.336.046-.396.373-.07 7.252-1.701.839-5.825.023-.093.047-.116 6.039-10.276.093-.139.117-.07 10.143-5.685.256-.14.257.14 5.036 2.586h2.448l1.842-6.501.093-.303.28-.093 5.06-1.561 2.798-2.213-3.894-4.055-2.285 1.072-3.731 1.957-.209.093-.234-.069-16.158-5.313-.093-.046-.07-.07-3.731-3.006-.116-.093-.047-.117-4.267-9.599-.093-.187.07-.209 1.958-5.686.07-.186.163-.116 7.648-4.614.163-.093.164.023 4.267.35.256.023.14.186 3.381 4.451.116.14v.186l.164 7.363 3.078 2.47 3.963-1.818.117-.07.163.023 3.731.35.14.023.14.094 2.471 1.77.047.024.023.023 5.736 5.569 2.681-1.492 1.889-3.798-3.521-4.683-.07-.116-.023-.14-.536-3.728-.024-.186.07-.164 3.684-6.826.793-5.546-2.984-.466h-.07l-.07-.023-10.493-4.637-.046-.023-.07-.047-4.431-3.541-.139-.117-.047-.163-1.632-4.986-4.267 1.118-.373.093-.233-.326-1.936-2.656-.093-.116-.023-.14-.7-4.614-.629-2.796-4.804-1.165-.419-.093-.024-.419-.489-6.245-11.215-.512-.56-.024v-8.83l-4.873.163zm34.532-96.252l-7.485 3.425-.21.093-.233-.07-21.312-8.225-7.181 8.062-.373.396-.42-.326-3.381-2.703-.21-.186v-13.025l-1.772-4.171-.14-.326.257-.279 17.068-19.06-.723-8.248-4.943-6.011-6.715 1.072-9.677 6.314-.163.116-.187-.023-8.627-.349-1.212 3.028 6.109 5.756.42.396-.397.419-7.508 7.759h-.023l-3.707 4.054-.35 11.72v.559h-.56l-18.373-.349-7.298 7.409 4.593 4.66.023.047 5.107 6.64.279.35-.303.349-2.821 3.379-.093.093-.117.046-6.039 2.68-.303.116-.256-.186-7.905-5.708-6.598 9.273 1.492 6.664 3.451 2.796 16.018 2.819.21.023.117.163 6.388 7.084.07.07.024.093 2.145 5.149.046.093v.117l.35 10.461v.257l.187 17.591.629 2.027 3.778-9.599.116-.303.327-.047 8.86-1.351 4.174-15.099.116-.442.466.023 4.617.373h.093l.117.046 4.99 2.33 6.132-5.126.49-4.194.186-3.704.024-.559.559.023 9.956.349h.21l.14.163 5.829 5.476 4.524-.839.303-.07.233.257 3.497 4.03 2.752 2.144 4.663-5.266 3.637-4.916-4.127-3.635-.186-.163v-6.571l.326-.139 15.786-6.641-.537-8.481-9.419-12.442zm351.893-169.205l4.244.467.793-2.82-2.822-3.145-3.45 1.095 1.235 4.403zm13.523 21.809l5.013 1.888 5.177-.956-2.192-7.689-6.296 3.472-1.702 3.285z" fill="#151515"/><path fill-rule="evenodd" clip-rule="evenodd" d="M850.598 346.892l-6.133.373-3.031 10.951-10.049-9.133-2.752 9.436 10.656 11.557.63 10.019-19.493-17.335-.606-10.951 8.207-10.019 1.236-16.124-3.358 1.515-3.963 10.951-6.086 5.475-6.389 1.817-6.085 9.134.303 24.022-14.923 23.417.933 14.306h15.202l12.498 14.889v14.306l-8.837 10.648 2.425 4.846 7.018 3.961-13.104 3.053-3.637-13.701 9.723-17.032-4.244-12.768-14.922-2.121-8.208 7.899-.932 17.941-13.687 14.003-12.475 4.544-8.534 9.133-28.609-17.638v-8.528l19.19 8.831 10.049-3.961 16.112-10.322 10.959-21.902-1.819-11.859 18.56-44.107 2.122-7.596-2.122-10.042 12.171-11.557 2.448-16.124-9.443-12.465 9.7-1.282-1.423-11.72-9.606-.722-.723 8.551 2.052 5.173-6.086-2.447-9.14 7.014-10.958 13.98-8.511 8.201-12.777 3.053-6.692 6.384 6.692 8.83-7.298 13.072-10.05 3.052-.303 4.543 8.814 9.134-3.032 8.505 1.516 5.475 3.358 4.87-11.262 10.345-3.661-5.779-3.054-13.071-11.869-19.059-6.808 5.662 3.987 7.106.163.28-.163.279-8.324 14.796 3.218 10.578.07.233-.14.233-5.176 7.969-.117.163-.187.07-8.3 2.772-5.526 6.454-.164.187h-.256l-20.938.932-10.656 8.807-.14.117h-.21l-6.855.116-.629 17.801v.163l-.094.14-8.207 11.534 5.316 11.207 20.192 1.515.163.023.14.093 9.63 7.456.21.163v.28l.303 9.693 3.404 3.122 23.107 1.235h.257l.163.209 7.158 8.994.117.163v.187l.606 14.725 3.94 5.126.117.163v.21l-.303 9.646h15.505l.14.163 13.92 12.675 19.19 8.342.163.07.093.163 7.088 11.673 12.498 7.619 12.708 1.212 10.399-7.619.373-.303.35.326 9.466 8.854 9.723-.303.303-.023.164.279 7.298 10.625 3.777.303.21.023.163.14 6.995 7.013 14.503-18.407.909-11.859v-.163l.093-.14 9.607-13.234-1.796-10.649-10.935-8.201-.28-.21.07-.349 2.728-15.495-7.275-9.995-.116-.164.023-.233 2.285-21.529-9.117-11.859-.186-.233.093-.28 3.638-10.904-3.615-8.621-.256-.583.63-.186 11.774-3.146 4.967-12.652-2.612-14.888-12.287-3.076-.21-.047-.117-.163-11.308-14.935-.164-.21.07-.256 2.262-9.04.07-.257.256-.116 16.928-7.573 1.702-6.78-7.158-15.191-.093-.164.047-.163 1.795-9.949.093-.396.373-.07 7.415-1.235-6.925-14.679-.047-.093v-.093l-.116-1.212zM597.007 709.021l8.557-.14 6.995 11.859 5.643.886.186-.187 1.842-4.962.047-.14.093-.07 10.003-9.367 1.562-7.106.023-.163.094-.094 6.039-6.663.209-.233.304.07 7.531 1.514 1.958-3.076 1.213-5.428-2.075-5.616-6.412-2.446-.257-.117-.07-.256-.956-3.495-.07-.28.187-.233 3.054-3.658.933-9.32.023-.209.14-.14 10.772-10.438.397-.397.396.397 6.016 6.011.326.349-.28.396-3.287 4.66 4.197.769.116.024.117.07 10.889 7.782 8.324-1.235.186-.023.164.093 7.811 4.357 7.578.303 10.282-7.037-18.373-13.747-.094-.093-.07-.117-8.86-17.405v-.023l-6.552-14.609-5.106-1.212h-.023l-.047-.023-10.772-4.427-.094-.046-.07-.07-5.409-5.103-1.586 4.264-.163.373h-.396l-8.604-.303-2.028 2.33-.07.07-.094.046-5.386 2.843-.186.093-.187-.023-4.174-.909-2.658 2.05-.14.117h-5.689l-.116-.047-6.809-2.935-2.914 5.545-.117.233-.28.047-9.629 1.887-6.203 10.695-.163.302-.35-.023-17.161-.559-4.686 9.902.303 9.623v.443l-.42.14-4.57 1.258-1.562 7.642 3.894 9.017.023.047v.047l1.609 5.964 7.228 2.191.117.046.093.093 6.692 6.058.163.163.023.233.187 6.245 9.863 8.598.163.139.023.233.63 5.639v.047z" fill="#151515"/><path fill-rule="evenodd" clip-rule="evenodd" d="M515.678 698.512l17.137 3.984 9.723 6.082 5.806-4.567 8.511 4.567 28.609 5.475 10.399-4.753.024-.233-.607-5.382-9.886-8.645-.163-.163-.023-.233-.187-6.244-6.435-5.825-7.392-2.26-.303-.093-.093-.303-1.656-6.221-3.963-9.157-.07-.163.046-.163 1.586-7.736-8.138-3.868-6.039 3.029-.396.187-.303-.35-4.92-6.361-10.539-3.635-11.985 3.658.63 3.379.023.047v.069l-.21 10.858v.28l-.233.163-16.298 12.186-.396 5.871 12.264 7.34.466.279-.279.49-4.71 8.411z" fill="#151515"/><path fill-rule="evenodd" clip-rule="evenodd" d="M448.386 728.336l3.475-4.567 11.565-.908.909-8.202 5.479-3.052 5.783.303 6.995 5.475 4.267-3.938-5.176-8.527-2.425-8.505 5.759-6.104 5.176-1.515 7.928 8.528 16.415 1.025v-.047l.023-.093.047-.093 4.523-8.108-12.055-7.223-.303-.187.024-.349.419-6.478.024-.256.209-.163 16.299-12.162.186-10.532-1.422-7.479-4.36-4.171-2.332 1.421-.21.14-.233-.07-4.174-1.025-.14-.047-.093-.093-17.347-14.842-3.008.769-.84 5.825-.023.093-.047.093-3.637 6.757.49 3.402 3.637 4.87.21.256-.163.326-2.122 4.264-.07.14-.163.093-3.195 1.771-.373.21-.303-.303-5.992-5.825-2.332-1.654-3.427-.327-4.127 1.888-.327.139-.256-.209-3.568-2.843-.21-.163v-.28l-.163-7.432-3.124-4.078-3.824-.326-7.298 4.404-1.819 5.289 4.127 9.25 3.521 2.866 15.855 5.219 3.521-1.841.023-.023 2.658-1.235.373-.163.28.28 4.617 4.799.42.443-.49.396-3.358 2.656-.093.07-.116.024-4.85 1.514-1.866 6.617-.116.42h-3.568l-.14-.07-4.873-2.517-9.723 5.453-5.899 10.065-.886 6.105-.046.373-.374.093-7.274 1.677-.653 4.94v.023l-.816 5.01 12.008 3.658.233.093.117.233 2.494 5.429.094.186-.07.21-1.236 3.775-.07.163-.14.093-4.477 3.518 1.632 4.893z" fill="#151515"/><path fill-rule="evenodd" clip-rule="evenodd" d="M569.842 507.965l-2.961 5.079-2.145 4.893-.023.047-.047.07-9.77 12.931-.023.024-.023.023-14.69 14.376-.07.07-.093.047-12.334 5.615-.257 5.522 3.964 7.619.163.35-.256.279-5.34 6.198-.839 8.155-.024.163-.093.14-3.474 4.31-.14.187-.256.023-11.659.559-1.632 7.34-.047.233-.186.116-4.897 3.169-.396.256-.326-.373-4.687-5.172-6.505 10.275-.14.233-.28.023-10.702 1.142-9.164 10.835 1.632 5.056 4.244 3.378 10.329 4.567 3.381.489 3.544-.885.303-.07.21.186 17.464 14.959 3.824.955 2.519-1.561.373-.209.303.302 4.826 4.591.117.116.046.186.607 3.239 12.054-3.681.164-.047.186.047 10.866 3.774.163.047.093.14 4.733 6.104 5.876-2.912.233-.14.257.117 8.58 4.1 4.267-1.188-.256-9.343v-.14l.046-.117 4.897-10.345.163-.326h.373l17.185.559 5.992-10.322-4.407-6.594-.117-.163.024-.209.583-6.315v-.023l1.655-11.44-11.751-7.549-.164-.117-.07-.163-2.005-5.173-.116-.302.209-.257 6.716-8.131-1.376-6.921-2.308-12.372-.047-.233.14-.21 5.643-7.875-.28-9.203-6.506-15.518-11.052-6.524-.21-.14-.046-.233-1.702-7.596-3.055-3.122z" fill="#151515"/><path fill-rule="evenodd" clip-rule="evenodd" d="M645.622 441.514l-6.599.093-9.49 8.411-.14.14h-.209l-8.581.443-.326.023-.187-.28-2.798-4.403-13.827 12.325-2.215 7.946-.046.163-.117.116-14.619 13.025-16.042 27.447 3.404 3.449.117.116.023.163 1.679 7.503 11.005 6.5.163.094.07.163 6.622 15.82.047.094v.093l.28 9.506v.187l-.094.139-5.619 7.853 2.262 12.115 1.422 7.2.07.256-.187.21-6.691 8.085 1.818 4.683 11.938 7.666.304.187-.047.372-1.726 11.79-.559 6.081 4.29 6.408 9.257-1.794 3.031-5.779.233-.466.49.21 7.158 3.122h5.083l2.705-2.097.21-.163.256.047 4.22.909 5.107-2.703 2.145-2.447.186-.209.257.023 8.464.303 1.748-4.684.304-.792.629.583 5.946 5.615 10.609 4.357 5.339 1.258.28.07.117.257 6.622 14.842 8.813 17.288 18.584 13.934 10.236-5.849 1.189-6.267.046-.233.21-.14 6.202-4.031.187-.117.187.024 7.321.885 6.365-20.364.07-.163.14-.117 9-6.827.234-.186.279.093 9.63 2.796.093.024.07.046 12.918 8.598 19.702.303h.187l.163.116 13.687 10.043 16.461-9.46.304-.187.303.21 8.51 6.105 9.653-1.212 10.586-4.543 1.912-4.917-12.008-6.897-.28-.163v-15.308l-7.158-7.13-3.824-.302-.256-.024-.164-.233-7.274-10.601-9.654.303h-.233l-.163-.163-9.28-8.691-10.213 7.502-.163.117-.21-.023-13.057-1.235h-.117l-.116-.07-12.754-7.782-.117-.07-.07-.117-7.041-11.65-19.12-8.295-.093-.046-.07-.07-13.804-12.582h-16.228l.023-.583.303-10.042-3.917-5.126-.116-.14v-.186l-.607-14.726-6.878-8.644-23.06-1.235h-.187l-.163-.14-3.73-3.425-.164-.163-.023-.233-.303-9.669-9.28-7.2-20.356-1.538-.326-.023-.14-.303-5.596-11.79-.14-.303.21-.279 8.278-11.65.606-17.568zM248.866 312.502l-2.752 2.19-1.655 4.31.326 14.307.024.419-.397.116-10.562 3.402-.653 4.917-.07.442-.443.047-3.474.326-.956 3.472-.023.14-.117.116-1.539 1.538 3.614 3.611 6.762 4.893 13.104 3.425.14.024.093.093 4.454 3.891 12.684 1.095.863-4.66.046-.21.163-.139 2.495-1.911.327-.256.349.233 5.923 4.217.163.116.07.21 1.282 5.359 6.949 5.685 6.109-.372h.233l.163.139 9.513 8.482.443-4.358-1.655-5.312-4.314-4.707-.28-.302.234-.373 4.103-6.361-.746-6.967-3.777-7.386-.093-.163.046-.21 1.026-5.149-3.614-.489-.373-.047-.093-.373-.863-3.425-6.459-.163-.303-.023-.163-.28-1.912-3.448-.163-.256.163-.28 1.632-3.099-.326-4.077-5.013-1.655-1.469 1.957-.187.257-.326-.024-3.451-.396-.186-.023-.117-.116-3.451-3.076-5.479.722-.373.07-.187-.349-3.171-5.592-3.614-1.701-6.249 3.122-.606.303-.187-.653-1.655-5.265z" fill="#151515"/><path fill-rule="evenodd" clip-rule="evenodd" d="M314.596 394.588l12.358 7.968 4.85-.256.279-.023.187.233 5.829 7.153.187.209-.07.28-2.845 10.275 7.461 7.13 20.169 1.025.163.023.117.07 13.337 8.062.14.093.07.14 8.697 16.007 14.083 8.225 9.607-2.4.326-.07.21.21 4.174 4.171 6.715-6.944-5.969-5.638-.28-.257.14-.372 1.492-3.752.163-.372.397.023 8.837.373 9.396-6.151v-6.478l-6.458-3.239-.467-.233.187-.466 2.052-5.475-6.016-2.004-3.941 1.794-.536.256-.21-.559-4.756-12.069-11.682-.35-.256-.023-.164-.186-7.461-8.575-7.088-4.473-.047-.047-.046-.023-6.762-6.408h-.024l-.023-.023-19.936-22.578-.186-.186.047-.256 1.492-11.278.023-.186.117-.116 7.344-8.388-4.826-1.608-.396-.14v-8.108l-5.993.07-4.057 3.867-.163.164h-.233l-8.441-.397h-.21l-.163-.163-3.94-4.147-3.778-.093-5.572 1.864-9.001 6.757-5.875 12.325-.164.35-.373-.023-9.793-.746-5.456 2.912-3.894 6.012 4.104 4.473.07.094.047.116 1.725 5.569.023.093v.117l-.512 4.939 9.583-.07h.513l.07.513 1.282 11.394zm-67.455-110.046l-5.899.675-9.444 7.293-5.479 7.596-10.632-.606-6.389 10.648-7.625.909-.303 8.225-11.262 7.293.607 10.648 4.57 5.778-5.177 6.385 1.213 5.172 7.298 1.818 1.539 7.595-2.308 4.124.489.07 4.827-1.258.21-.047.186.094 2.542 1.351 9.326-1.794 3.684-5.685 2.075-8.691.047-.163.117-.093 5.852-5.872 1.026-3.705.093-.396.397-.023 3.404-.326.653-4.8.046-.373.35-.093 10.493-3.379-.35-13.98v-.116l.023-.093 1.772-4.567.047-.14.116-.093 3.381-2.703 3.381-10.485-4.43-7.153-.07-.116v-.163l-.396-8.761z" fill="#151515"/><path fill-rule="evenodd" clip-rule="evenodd" d="M304.872 269.63l-10.072.373-12.475 4.566-.606 10.043 1.213 4.543-3.638 3.052-2.751-6.99-4.873-.302-7.602-7.317-9.443 6.082-6.365.745.396 8.691 4.477 7.246.14.233-.07.233-3.451 10.718 1.656 5.266 5.899-2.959.256-.116.257.116 4.01 1.911.163.07.07.163 3.078 5.405 5.363-.722.256-.023.187.163 3.497 3.145 2.938.326 1.539-2.05.233-.326.397.14 5.736 1.91.373.117.023.373.373 4.613.023.163-.093.14-1.562 2.982 1.609 2.889 6.552.187.443.023.093.42.863 3.448 3.824.536.606.07-.117.582-1.119 5.569 3.731 7.293.07.093v.093l.676 6.454 4.99-2.679.163-.07h.163l9.56.745 5.759-12.092.047-.117.116-.093 9.187-6.897.07-.046.093-.047 5.736-1.911.093-.023h.094l8.02.187 4.197-3.356-7.764-10.112-4.943-.932-.35-.07-.093-.326-2.355-7.782-3.101.303-.513 4.706-.07.63-.63-.14-2.471-.583-.257-.046-.116-.21-1.889-3.262-2.425.722-.373 5.546-.047.652-.629-.14-3.451-.769-.256-.046-.14-.257-1.936-4.077-9.583.186h-.303l-.186-.256-3.848-5.685h-9.326l-.187-.21-2.471-3.075-.303-.35.303-.349 15.552-18.803-.91-19.246zm134.094-37.863l2.541-15.587 3.661 5.172-1.539 10.951 4.57 9.716 1.213 16.124 6.388 9.739 1.539 10.019 23.737 14.306 14.596-2.726 10.959-14.912 3.054-15.82-4.873-18.85.606-27.377-3.031-10.043-7.625-12.162-1.212-9.437 3.358-2.12 4.546 6.384 4.57-3.029-4.267-8.225-16.111-10.951-23.13-2.12-4.57 3.355-11.565 6.687.303 9.111-7.928 12.791-15.505.303-5.177 6.501 11.355 15.121.164.21-.07.233-1.796 8.994 9.397 4.683.163.07.093.163 1.586 2.726z" fill="#151515"/><path fill-rule="evenodd" clip-rule="evenodd" d="M410.59 295.073l-.746-4.986.933-4.264-3.964-5.475 3.661-6.687 11.238-14.003 9.444-3.029 5.479-9.437 2.052-13.677-2.215-3.775-9.63-4.799-.396-.21.093-.42 1.842-9.156-11.029-14.679-12.987 16.31-6.692-.303-8.511 5.778-6.085-.303-2.448 6.081-2.728 5.173-4.874 3.635 2.728 5.172-3.334 3.356-11.262-1.841-3.054 10.648-2.122 16.124-6.692 2.749-29.822-3.961-13.477.489.42 8.691 7.298-1.444.07-.024.117.024 9.559 1.328.233.046.14.187 3.824 5.359.117.163v.186l-.187 6.711-.023.209-.117.14-3.311 3.845.374 7.456v.093l-.956 6.524-.024.233-.186.116-4.85 3.752-1.399 3.634 1.889 3.938 2.541.583.326-5.29.024-.396.396-.116 3.241-.955.42-.117.233.373 1.982 3.425 1.632.373.49-4.52.046-.466.467-.047 4.033-.373.443-.046.14.442 2.379 7.899 4.826.909.21.023.14.186 7.601 9.903 1.143-3.122-.77-9.46v-.163l.07-.14 3.451-6.71.023-.07.047-.047 12.451-13.421.21-.233.326.07 7.275 1.724.233.047.117.233 2.308 4.217.093.163-.023.187-1.166 7.293-.023.186-.14.117-5.339 5.172-9.071 10.229-2.448 8.714 6.039-.07h.583v8.435l4.897 1.631 3.52-3.868.164-.187h4.686l1.796-8.201.023-.14.117-.116 8.347-8.715-2.029-3.401-2.634-4.521-.117-.209.047-.233 1.888-6.757.047-.14.093-.117 8.161-8.155.723-4.333.116-.606.583.163 5.62 1.491 3.45.699 4.314-4.66.07-.093.093-.047.676-.303zm128.172 61.605l-11.216 14.47 3.918 6.058.186.279-.163.303-2.542 4.707 1.842 7.689.094.396-.373.233-7.135 4.124-.303.186-.28-.186-9.28-5.942-8.861.373-.466.023-.093-.466-1.469-6.57-22.314-17.172-2.472 3.705 6.203 10.228.116.187-.046.209-1.866 8.668-.046.163-.117.116-5.339 5.336 2.424 4.124.047.117.023.14.373 4.496.047.583-.583.023-8.767.373-6.902 9.064-.326 5.452 8.277 3.425 3.498-4.194.093-.116.163-.047 7.905-2.633.466-.163.21.443 4.896 9.786.21.396-.373.303-18.233 14.492-.374 8.039v.256l-.209.163-6.412 4.893-.257.186-.303-.116-7.951-3.262-5.736 4.66-16.974 18.943 1.678 3.961.047.116v12.699l2.751 2.213 7.089-7.968.256-.28.373.14 21.451 8.271 7.485-3.425 4.22-10.391.14-.397.42.047 14.246 1.351.21.024.164.163 10.539 11.883 11.541 5.988 16.205 1.771 6.412-3.519.327-.186.303.256 17.487 14.33 10.749 1.514 19.47-33.319.046-.07.07-.046 14.55-12.978 2.215-7.969.047-.163.116-.116 14.456-12.862.49-.443.373.559 2.985 4.684 8.044-.42 9.513-8.411.163-.14h.187l14.619-.233 10.633-8.807.163-.117h.186l20.892-.932 5.479-6.384.094-.116.163-.047 8.254-2.749 4.92-7.596-3.218-10.555-.07-.233.117-.21 3.847-6.803-4.034-.746-2.611 3.915-.163.256h-5.247l-6.412 5.965-.21.186-.303-.07-7.648-1.794-5.875 6.78-.164.187-.233.023-17.371 1.398-.209.023-.164-.116-75.406-53.823-7.251 2.26-.093.047-.117-.024-32.596-3.495zm-115.115-82.691l2.332 2.586 3.194-2.12-.909-3.728-2.425-1.818-1.888 2.587-.304 2.493zm226.357 8.481l3.917-2.842v-6.408l-4.616-1.048.699 10.298z" fill="#151515"/><path fill-rule="evenodd" clip-rule="evenodd" d="M712.703 373.734l-5.806-10.671-15.202-16.427H680.13l-1.539 6.711-.303 10.018-8.208 4.87-4.57-.909-3.031 4.567-5.782-4.567 6.691-6.081v-6.687l-21.614-.303-10.656-7.922-16.438 1.538-5.782-7.922 9.746-.909 5.176-10.042-13.104-3.029-6.085 7.293-3.032-5.476-33.482-8.201-4.267 4.264-4.873-4.567-17.651 10.322-9.117-8.808 2.728-7.898-2.728-7.922 10.959-3.635 10.05 6.99 4.849-7.922-.303-14.283-13.383-14.609-3.964 14.306-18.257 11.86-1.516 9.11-8.72 7.876 3.404 18.243 9.583 14.353 8.791 1.095.256.047.14.21 4.733 6.92 32.527 3.495 7.391-2.307.28-.093.233.163 75.453 53.869 16.927-1.374 5.97-6.874.209-.256.35.093 7.695 1.794 6.342-5.895.163-.139h5.083l2.658-3.985.21-.303.35.07 4.78.862 3.87-6.873-4.08-7.246-.21-.397.35-.302 7.321-6.105z" fill="#151515"/><path fill-rule="evenodd" clip-rule="evenodd" d="M685.959 342.209l-6.762.722-5.34-8.9 1.423-8.178 8.534-2.144 2.494 9.25-.349 9.25zm-104.481-41.893l5.246 6.873 12.334.327 1.423-4.591-.77-6.873-6.552-7.106-9.396 3.262-2.285 8.108zm91.657 9.18l2.868-27.028 2.122-10.298 8.906-9.6 10.679-3.565 4.267-6.035-2.495-7.479 7.812 4.986 7.134-.722 1.772-5.336 4.617.373.373-5.336 5.689 2.121 1.073-5.336 4.267 4.637 3.194-4.264 1.073-6.408 6.039 4.264 3.917-3.565 8.184 1.794 6.762-7.828 51.949-1.072 12.451-6.757 1.423-9.25-5.316-6.384-12.475 3.192-2.122 4.613-21.358-1.771-9.256-7.829-8.184 4.637-8.185-3.565-10.305 6.757h-8.534l-4.267 3.565-5.713-6.058-2.844 12.466-6.413.349-.699 4.963-16.018 4.986-5.69-2.493-3.567 4.264 4.64 4.637-6.412 6.034-10.329-4.264-1.423 7.829-7.461-.349-.35 6.034-10.329 5.336-6.389-2.143-7.135 5.335-.349 7.829 6.761 6.757.35 10.299-6.389 6.407 4.967 11.021 5.689.722.373 4.963 6.389 1.421 4.267 2.144zm-162.214 6.081l-9.163 8.272-4.244-7.922 6.086-1.212-7.625-14.306-11.542 1.841-11.588-3.961-14.293 2.12-7.904 19.782-5.806-3.355-8.208-19.153 1.213-14.912-13.384 1.538-3.661 12.768 5.783 6.99-5.479 7.293-8.814-4.87-1.516-10.252-.279.117-4.431 4.823-.233.233-.303-.07-3.777-.746-.023-.023-5.037-1.328-.653 3.891-.023.187-.14.116-8.184 8.178-1.772 6.408 2.518 4.287 2.262 3.775.21.349-.303.326-8.534 8.901-1.842 8.504-.117.443h-5.083l-3.614 3.961-.023.023-7.765 8.854-1.445 10.858 19.772 22.345 6.715 6.361 7.112 4.473.07.047.046.07 7.368 8.458 11.799.372.373.024.14.349 4.663 11.837 3.614-1.631.186-.094.21.07 6.785 2.26.56.187-.21.559-2.075 5.545 6.319 3.146.303.163v6.827l6.505-1.025.327-.047.21.256 5.269 6.385.093.139.024.187.653 7.572 5.199-4.217.257-.21.303.14 7.997 3.262 5.923-4.543.373-8.016v-.256l.21-.163 18.093-14.376-4.476-8.924-7.299 2.423-3.637 4.381-.28.326-.373-.163-9.047-3.752-.373-.163.024-.396.373-6.011.023-.187.093-.139 7.158-9.39.164-.21.256-.023 8.441-.35-.303-3.798-2.565-4.403-.233-.373.303-.303 5.526-5.545 1.819-8.272-6.296-10.322-.186-.303.209-.303 3.008-4.52.327-.512.489.372 22.967 17.685.163.14.047.186 1.399 6.315 8.557-.35.187-.023.14.093 9.116 5.848 6.482-3.751-1.772-7.503-.046-.209.093-.187 2.472-4.59-3.941-6.128-.233-.326.256-.326 11.402-14.702-4.5-6.594-8.79-1.119-.257-.023-.14-.21-9.793-14.679-.046-.093-.024-.116-3.334-17.662zm304.398-207.579l3.778 3.542 5.199-4.474-2.588-3.775-3.801.932-2.588 3.775zm8.254 3.076l2.845 2.353 4.966-2.586 1.423-5.918-3.801-.933-5.433 7.084zm13.477-.723l4.943 4.497 9.933-4.963-1.889-5.662-6.855-2.819-5.899 4.94-.233 4.007zm10.61-10.601l4.267 2.12 2.821-3.309-3.544-3.308-3.544 4.497zm18.676-11.813l1.399 4.497 4.267-1.655-1.656-5.428-4.01 2.586zm-14.175-11.091l2.355 2.12 3.077-2.353-4.5-4.24-2.355 1.887 1.423 2.586zm-12.756 2.843l.7 3.541 4.733 3.052 2.821-4.24-2.588-5.196-5.666 2.843zm-9.21 3.774l8.977 8.015-1.19 6.85-8.976-3.075-5.9-6.827 7.089-4.963zm25.043 25.723l1.166 5.196 9.933-.233 4.01-6.617-3.311-5.429-4.243 6.128-6.389-1.631-1.166 2.586zm-27.165 11.79l2.588 3.775 2.379-3.053-2.379-4.031-2.588 3.309zM803.521 95.02l4.011 6.85 4.71-4.497-2.355-5.662-6.366 3.309zm11.565-2.12l.933 4.007 2.611-1.887-2.122-4.474-1.422 2.354zm-4.243-22.415l3.054 4.24 2.845-2.819-4.733-4.264-1.166 2.843zm-27.864-8.505l1.399 5.663 4.267 3.308 6.133-.466 3.777 3.076 2.355-2.843-4.71-4.24-4.267 1.281-8.954-5.778zm1.166 14.4l-.466 4.963 4.477 4.474 4.5 5.661 1.399-2.586-1.166-5.429 6.132-1.421 7.788 2.61 4.966-4.963-4.476-5.196-3.778-1.422-4.034 3.076-5.432.699-3.288 1.421-6.622-1.887zm9.676 18.64l-.932 3.309 3.544 2.12.233-4.474-2.845-.955zM93.555 242.625l20.588 44.48 12.801-6.664 1.119-24.488-6.132-9.437-2.775 11.114-6.132-3.891-4.99-14.469-6.132 3.914-8.347-.559zm72.328 326.945l-.117 3.053-9.443-.303-3.661 5.475-4.85.606-5.782 10.345-9.746 3.658-6.995-10.345-16.439-2.144-7.601 7.922 16.415 9.716-4.85 3.356-8.534-5.173-4.873 3.845 2.915 5.755h6.249l.186.209 7.182 8.878.233.279-.163.326-5.34 10.229 6.948 8.598.234.279-.164.327-1.632 3.262-.396 6.85 4.08 5.009 3.778-4.334.256-.302.373.139 6.319 2.377 2.308-3.821.257-.42.443.187 5.059 2.097.35.14v8.061l6.016 2.796.326.163v7.783l3.125 5.056 7.368-.769 2.401-4.381.164-.303h12.334l7.275-8.061-.35-3.961-6.738-.792-.467-.047-.023-.466-.42-5.755-6.249-8.738-.139-.233.069-.256 3.311-11.999-4.08-6.128-.35-.49.537-.303 8.86-5.079.396-.21.303.303 3.195 3.192 6.179-.372 3.59-7.177-1.259-12.092-.023-.327.28-.186 9.443-6.151-1.609-14.819-7.368-.373-5.316 3.682-.327.209-.303-.186-5.922-3.798-7.228-3.868z" fill="#151515"/><path fill-rule="evenodd" clip-rule="evenodd" d="M229.443 659.648l10.283-3.379 1.515-7.922 8.837-4.869 9.42-2.424 3.404-1.025-.303-12.931-5.782-1.165-.233-.047-.14-.186-2.798-4.054-.094-.14v-.163l-.279-7.573-3.614 1.538-.117.07-.14-.023-4.36-.303-.56-.047.047-.559.303-5.592v-.21l.14-.14 4.523-5.126v-7.013l-9.979-9.693-5.759-1.211-.21-.047-.117-.163-4.057-5.289-.093-.116-.023-.164-.583-7.432-8.394-2.983-.21-.07-.093-.209-3.521-7.037-4.524 1.422-.116.023-.117-.023-8.79-1.165-.863 5.988-.046.256-.21.14-8.324 5.079 1.632 15.262.046.349-.279.21-9.444 6.128 1.236 11.906.024.163-.094.163-3.8 7.596-.14.303h-.327l-6.761.442h-.257l-.186-.186-3.078-3.052-7.975 4.543 3.894 5.825.14.21-.046.256-3.311 12 6.015 8.434 14.97 1.631 1.538-4.24.14-.396.42.023 5.083.419.42.047.093.419 1.609 7.619 5.736.769 5.083-3.215.21-.117.209.047 18.071 3.728.256.047.117.233 4.733 8.411z" fill="#151515"/><path fill-rule="evenodd" clip-rule="evenodd" d="M185.118 729.128l9.56 3.472 25.555-.606-2.122-10.042 6.389-1.212 4.873-27.377-4.267-5.779-6.388-1.514.909-5.173 7.928-7.292-7.065-9.81 3.404-1.747 4.477-1.981-4.524-8.062-17.58-3.634-4.687 2.959 3.218 8.434.07.163-.047.163-3.334 15.845 4.127 7.432.116.21-.07.233-4.173 12.116 1.655 7.433.163.768-.792-.069-7.462-.839-3.94 1.724-.42.186-.256-.396-2.705-4.031-2.402 2.89 3.917 9.32.164.396-.327.256-5.293 4.357-.046.047-.047.023-4.733 2.493 6.155 8.644z" fill="#151515"/><path fill-rule="evenodd" clip-rule="evenodd" d="M165.09 732.996l9.49.21 9.093-4.171-6.015-8.411-.374-.536.583-.303 5.247-2.773 4.919-4.054-3.893-9.25-.117-.326.21-.257 3.124-3.728.467-.582.443.629 2.844 4.264 3.638-1.584.139-.07.14.023 6.832.769-1.515-6.85-.047-.163.047-.14 4.15-12-4.104-7.386-.093-.186.047-.21 3.334-15.89-3.195-8.412-6.015-.792-.397-.047-.07-.396-1.608-7.619-4.221-.349-1.539 4.24-.163.42-.443-.047-14.969-1.608.35 4.754 6.715.792.466.07.023.442.444 4.66.023.233-.163.187-7.625 8.458-.163.186h-12.171l-2.379 4.334-.14.28-.303.023-8.044.839-.35.046-.186-.303-3.381-5.498-.07-.14v-7.41l-6.016-2.796-.326-.139v-8.016l-4.29-1.794-2.262 3.821-.257.397-.443-.164-6.388-2.399-3.661 4.217 4.127 5.056 4.337-.769.35-.07.209.303 2.845 4.054 5.713 1.631.279.07.117.28 2.518 6.71 5.899 10.089.094.186-.024.21-1.679 9.926 6.249 11.254.047.07.023.07 2.099 8.877.023.07v.07l-.42 9.04 9.56 9.553.07.07.047.116 2.145 5.639z" fill="#151515"/><path fill-rule="evenodd" clip-rule="evenodd" d="M106.309 764.637l-3.241 3.239.607 9.134 8.533 12.162-.629 12.769-1.516 6.081 7.602 9.436 3.66-1.537 2.122-3.635 4.57 2.423 4.873 1.538 5.783-3.658v-16.124l3.964-22.81 14.596-13.98 1.236-14.61-1.539-6.384 7.088-5.335-2.075-5.453-9.304-9.296-3.404 2.656-.163.116h-.21l-9.933-.419-5.386 4.241 1.912 3.821.21.466-.42.256-4.803 2.982 6.086 8.691 6.552 1.235.349.07.094.35 2.121 8.015.117.489-.443.186-5.083 2.098-.117.069-.139-.023-5.13-.396-6.599 12.768-.326.629-.536-.465-5.083-4.288-3.008 3.402-.187.21-.28-.024-12.521-1.095z" fill="#151515"/><path fill-rule="evenodd" clip-rule="evenodd" d="M103.651 753.244l2.145 5.825.91 4.45 11.938 1.049 3.194-3.589.373-.419.42.373 4.943 4.194 6.436-12.466.186-.349.373.046 5.363.396 4.477-1.864-1.889-7.199-6.412-1.212-.233-.046-.14-.187-8.697-12.442-6.785-.396-3.265 1.444 3.708 13.887.116.466-.419.187-16.742 7.852z" fill="#151515"/><path fill-rule="evenodd" clip-rule="evenodd" d="M99.57 747.395l.14 2.54 3.218 2.377 16.555-7.736-3.521-13.258-2.985 1.305-2.868 9.064-.046.163-.14.093-4.22 3.379-.07.07-.094.023-5.969 1.98z" fill="#151515"/><path fill-rule="evenodd" clip-rule="evenodd" d="M86.77 728.243l.466 10.438 12.171 5.779.093 1.771 5.573-1.841 4.01-3.216 2.892-9.133.07-.233.233-.093 6.785-3.029-5.316-4.288-1.982 3.449-.21.373-.42-.117-13.803-3.332-10.33 3.309-.233.163z" fill="#151515"/><path fill-rule="evenodd" clip-rule="evenodd" d="M77.792 707.273l6.412 7.083.303 9.716 1.935 3.029.047-.046.093-.024 10.563-3.378.14-.047.163.024 13.547 3.285 4.313-7.433-1.912-6.128h-6.575l-.163-.163-12.521-11.254-8.907-.419-7.438 5.755z" fill="#151515"/><path fill-rule="evenodd" clip-rule="evenodd" d="M62.124 678.125l7.461 12.512v7.596l7.438 8.201 7.695-5.941.163-.117h.21l8.674.396-.397-9.087-.023-.326.28-.163 4.64-3.099-6.645-12.535-2.239 4.52-.186.349-.397-.046-8.02-.839-.257-.023-.14-.21-4.407-5.988-13.85 4.8z" fill="#151515"/><path fill-rule="evenodd" clip-rule="evenodd" d="M47.971 598.159l.606 10.648-3.357 3.961 1.515 4.567 4.873 3.658-.303 7.596 2.728 12.163-.909 11.253-2.122 18.547 2.425 3.355 4.873-2.143 3.195 5.359 14.48-5.01.396-.139.256.326 4.5 6.128 7.392.769 5.316-10.625.093-.187.187-.07 5.689-2.283-2.145-3.215-.187-.28.163-.303 3.171-5.941-3.474-3.076-.443-.396.42-.419 4.08-4.078.397-3.588.023-.326.303-.14 4.64-2.12.467-.21.256.443 3.054 5.335 3.941-3.215.396-6.943v-.117l.047-.116 1.539-3.053-6.948-8.597-.234-.28.164-.326 5.339-10.229-6.785-8.365h-6.412l-.163-.303-3.684-7.292-11.146-10.113-1.515 14.609-6.086-3.052-11.565.606-4.267 5.475-8.534-14.282-6.645 6.034zM59.396 665.1l-.42-7.176-.023-.536-.023-.536.536-.047.536-.046 7.438-.746v-5.033l.234-.163.233-.163 8.394-6.198-5.34-3.332-.07-.046-.07-.047-.07-.07-.07-.07-6.761-8.015-.164-.186-.163-.187.023-.256.024-.256.84-6.338.093-.699.093-.675.653.233.653.233 5.922 2.12.186.07.187.07.117.163.093.163 4.733 7.502h7.648l.023.536.024.536.396 6.687 4.687 3.915.21.186.21.187-.024.279v.28l-.42 9.296v.373l-.093.14-.117.14-6.761 8.877-.84 1.095-.84 1.095-.186-1.374-.163-1.375-.956-7.689L69.4 669.713l-.28.303-.28.303-.373-.186-.373-.187-8.044-3.867-.303-.14-.303-.14-.023-.326-.024-.373z" fill="#151515"/><path fill-rule="evenodd" clip-rule="evenodd" d="M114.983 645.551L110.786 649l-.513.419-.35-.559-3.124-5.475-3.871 1.77-.396 3.472-.024.21-.14.139-3.8 3.798 3.357 2.983.327.279-.21.396-3.218 6.035 2.355 3.518.373.583-.653.256-6.132 2.47-2.518 5.033 7.252 13.7.256.443-.443.28-4.803 3.192.396 9.18 12.358 11.091h6.948l.14.396 2.099 6.757.07.233-.117.233-2.075 3.588 6.039 4.846 6.995.42.28.023.163.21 1.982 2.866 4.407-2.727-1.866-3.774-.21-.42.35-.279 5.923-4.637.163-.14.21.024 9.932.396 3.451-2.656.397-8.971-2.075-8.714-6.296-11.324-.093-.186.023-.187 1.656-9.949-5.806-9.949-.024-.046-.023-.047-2.448-6.477-5.643-1.631-.186-.047-.117-.163-2.751-3.938-4.29.792-.327.047-.21-.256-8.953-10.975zm-54.865 12.303l.42 7.176 8.044 3.821 11.425-12.605.816-.932.164 1.235 1.119 8.924 6.762-8.877.42-9.297-4.897-4.054-.187-.163v-.257l-.42-6.92h-7.181l-.163-.279-4.92-7.759-5.9-2.097-.862 6.314 6.762 8.038 6.062 3.775.7.443-.653.489-9.047 6.687h-.023v5.499l-.513.047-7.928.792zm803.024 266.458l39.148-14.702 14.014-.909 2.425 3.635 21.008 4.567 1.515 9.436 7.928 3.938 22.198 2.446 8.837 1.212 4.57 4.264 6.995-2.447 6.388-5.475 4.572-11.231-7.603-9.133.909-13.98 4.874-1.538.3-6.384 6.39-.303 1.77-6.85-4.1-7.969-.19-.35.26-.279 4.48-5.056-1.17-4.683-.09-.303.23-.233 3.2-3.192-.75-3.262-9.16.582-.19.023-.16-.116-22.924-15.984-1.376 6.314-.093.42-.42.023-27.887 2.47-1.749 7.339-.093.35-.326.093-5.433 1.421.583 5.103.023.35-.28.186-7.531 4.8-.303 5.009-.023.42-.42.093-5.153 1.211-9.21 7.666-.187.163-.256-.023-21.428-2.796-.14-.023-.116-.07-13.174-9.274-6.063-.466-3.917 10.322-.14.326-.373.047-15.226.979.956 10.508 9.117 16.217.257.442-.42.303-6.342 4.381 1.469 9.972z" fill="#151515"/><path fill-rule="evenodd" clip-rule="evenodd" d="M778.573 893.37l1.073 10.462 9.746 5.475.303 10.345 9.747 2.12 3.963 4.87 10.959-5.778 2.122 7.596 6.995 10.345 10.959 1.211 3.334-7.292 14.619-.606 9.677-7.2-1.586-10.765-.046-.349.303-.21 6.202-4.287-8.93-15.867-.07-.093v-.117l-.933-10.205-7.858 6.011-.443.35-.349-.443-7.135-9.18-.163-.21.07-.256 2.494-10.951-4.01-4.567-12.171-.35v.163l-.443.094-7.648 1.537-.257.047-.209-.163-6.319-4.963-.42 5.079-.023.14-.07.117-6.132 9.18-.187.28-.326-.024-11.099-1.002-8.907 2.959-3.591 4.94 5.526 2.773.233.116.07.257 1.539 6.617.14.606-.629.069-10.12 1.119zm65.823-25.84l6.738-2.423 4.967-2.47 8.37-8.365-1.912-5.265-.07-.163.047-.164 1.492-5.988-2.005-8.015-.07-.279.163-.21 5.55-7.06 2.844-8.551-8.16-2.889-.28-.093-.093-.28-1.539-5.103-.094-.279.164-.233 6.435-8.412-3.451-8.364-.07-.163.047-.164 1.539-6.617.07-.279.256-.117 8.581-4.031 4.243-4.217-9-17.475-.093-.186.046-.187 1.306-6.058-9.7 4.148-.233.093-.233-.093-12.614-5.546-14.433 1.981-5.48 6.454-.163.209h-.256l-14.829-.069-.304 39.912 5.387-.699.559-.069.07.559 1.003 7.968 7.531 8.016.093.093.047.093 2.495 6.967 6.995 4.986.489.349-.396.466-5.293 6.245 4.267 4.73.21.233-.07.302-2.029 8.155-.046.21-.187.117-5.363 3.425-.443 9.553 12.381.373h.257l.163.186 4.104 4.753z" fill="#151515"/><path fill-rule="evenodd" clip-rule="evenodd" d="M701.628 802.896l14.713 70.506 7.904-1.212 5.479-7.899 5.177 2.121 1.539 8.225 16.718 9.11 13.104-4.87 6.995 3.053 5.013 10.345 9.629-1.119-1.329-5.755-5.875-2.936-.607-.302.397-.536 4.08-5.616.117-.139.163-.07 9.187-3.053.116-.046.117.023 10.889.979 5.852-8.784.513-5.965.07-1.049.839.653 6.925 5.452 6.972-1.398.49-10.252.023-.303.233-.163 5.433-3.449 1.912-7.642-4.384-4.87-.349-.372.326-.373 5.223-6.175-6.645-4.73-.14-.093-.07-.186-2.518-7.014-7.555-8.085-.14-.139-.023-.163-.956-7.596-5.27.675-6.831 6.198-.187.163-.256-.023-13.058-1.235-3.94 3.029-.35.256-.35-.256-4.057-3.169-11.355 11.021-.396.396-.373-.396-8.861-8.528-.14-.116-.023-.163-1.562-6.524-7.275-9.693-30.008 10.299-.21.069-.187-.093-6.365-2.726-2.915 2.051-.303.209-.326-.209-4.78-2.983-6.179 3.635z" fill="#151515"/><path fill-rule="evenodd" clip-rule="evenodd" d="M678.684 773.002l15.738.35-6.388 6.687 13.197 21.785 6.319-3.704.279-.164.303.164 4.734 2.982 2.868-2.004.256-.186.28.116 6.459 2.773 30.195-10.369.373-.139.256.326 7.601 10.135.07.094.024.116 1.539 6.477 8.347 8.039 11.332-10.998.349-.349.397.303 4.08 3.215 3.754-2.889.187-.14.233.023 13.034 1.235 6.598-5.988.304-40.309h-5.223l-7.438 6.198-.467.373-.349-.466-3.171-4.124-.14-.163.023-.21.909-15.238-21.894-.606-.326-.023-.14-.28-3.964-7.293-11.355.326h-.443l-.117-.419-2.192-8.132-7.135-9.296-38.332-18.221v12.722l-.28.163-7.228 4.217 2.122 8.132.186.746-.769-.047-9.373-.629-7.298 3.052-4.244 7.596.933 21.972v.116l-.047.14-4.966 11.813z" fill="#151515"/><path fill-rule="evenodd" clip-rule="evenodd" d="M619.414 721.905l4.407 1.258.303 7.922-2.752 3.029 1.843 5.476-6.086 6.99 1.212 5.173 13.081 3.052.606 6.99 6.389.303 4.873 1.211 4.873 5.476-6.995 5.778v4.87l6.995-2.12 6.086 3.332 5.479-1.212 4.57-3.938 13.104-2.4 5.153-12.232-.932-22.019v-.163l.07-.14 4.43-7.898.093-.187.187-.07 7.601-3.168.116-.047h.14l8.697.583-2.005-7.783-.116-.396.373-.233 7.321-4.264v-30.756l-5.223-5.545-.35-.349.327-.397 5.526-6.78-.49-4.194-10.306 7.06-.14.117-.186-.024-7.928-.326h-.14l-.116-.07-7.741-4.334-8.371 1.259-.21.023-.187-.14-10.982-7.829-4.943-.932-.863-.163.513-.722 3.521-4.986-5.293-5.266-10.212 9.902-.933 9.274-.023.186-.094.117-2.984 3.588.793 2.912 6.389 2.424.233.093.093.256 2.215 6.011.047.14-.024.163-1.259 5.686-.023.116-.07.07-2.215 3.495-.21.326-.373-.093-7.601-1.515-5.689 6.291-1.563 7.13-.023.187-.14.116-10.026 9.39-1.842 4.916z" fill="#151515"/><path fill-rule="evenodd" clip-rule="evenodd" d="M831.875 641.614l-8.255-5.895-16.461 9.46-.327.163-.279-.21-13.85-10.135-19.703-.303-.186-.024-.117-.07-12.987-8.667-9.28-2.68-8.651 6.548-6.458 20.643-.14.443-.467-.047-7.578-.932-5.829 3.798-1.189 6.291-.07.257-.21.139-10.446 5.965.583 5.01.024.233-.164.186-5.362 6.571 5.036 5.335.14.164v17.894l38.939 18.523.116.047.094.116 7.274 9.484.07.093.047.116 2.098 7.782 11.262-.302h.35l.163.302 3.964 7.317 22.151.606.583.023-.047.582-.933 15.611 2.682 3.472 7.135-5.942.163-.139h6.785l14.573.07 5.456-6.408.14-.186.21-.024 14.782-2.027.164-.023.14.07 12.544 5.499 10.166-4.357.49-10.346.023-.279.186-.14 10.586-8.062 1.329-4.893-9.187-2.889-.116-.047-.117-.093-6.622-6.64-.14-.14-.023-.187-1.026-8.667-.023-.303.233-.186 11.542-10.043.466-5.871-7.624-.956-.327-.023-.116-.279-8.558-17.592-29.285-4.543-.49-.07v-8.831l.117-.163 3.894-4.87-4.057-14.329zm37.772 143.225l-3.497 1.654-1.446 6.174 3.521 8.505.116.303-.209.256-6.459 8.435 1.376 4.543 8.393 2.982.537.187-.187.512-3.054 9.181-.024.093-.07.07-5.432 6.943 1.958 7.876.047.139-.047.14-1.469 5.942 1.959 5.452.14.349-.257.233-8.673 8.668-.07.07-.07.046-5.107 2.54-.046.023-.024.024-6.855 2.446-2.425 10.648 6.646 8.505 8.23-6.268.816-.629.047.466 14.899-.955 3.941-10.369.163-.396.42.047 6.249.466 4.407-9.32.116-.21.21-.093 7.951-2.983 2.401-5.289v-6.314l.304-.163 7.321-3.914-.49-6.198-3.031-9.111-.023-.046v-.023l-1.516-8.552-6.552-10.112-.186-.256.14-.28 2.844-6.197-5.013-3.192-8.487 1.001h-9.653l-.117-.372-4.663-13.677zm-13.92-451.344l5.176 6.757 3.614-1.584-1.096-9.414-3.614-1.864-4.08 6.105zm14.433-42.825l2.682 3.448 2.821-2.982-1.259-4.707-3.614 1.095-.63 3.146zm99.235-166.269l11.401 2.074-2.658-8.528-7.974.187-.769 6.267zm9.513 21.436l6.249-8.365-1.516-7.386 6.063-3.984 6.085-6.081 6.831 6.081 3.8 10.811 2.29 4.753-6.28 3.402v5.872l-15.571 7.036-7.951-7.223v-4.916zm-5.711 9.297l11.962 4.543-1.703 5.686-5.502 3.028-7.975-5.498-1.329-5.313 4.547-2.446zm10.632 18.966l5.316-13.095 14.615-7.223 2.66 10.066 3.8-1.142.56-4.357 6.65 6.454-.56 8.528-4.94 7.969 4.17 4.939-1.14 7.386-5.32 2.843-10.818-7.386-9.677-8.342-5.502-2.469.186-4.171zm6.085 66.195l4.36 3.215 3.218-1.887-2.262-4.753-5.316 3.425zm-38.543-6.268l5.503 3.029.373-4.357-3.591-4.17-2.658 2.283.373 3.215zm33.973 18.221l2.098 2.26 2.658-2.47-3.031-3.215-1.725 3.425zm-92.731 57.248l4.244 3.914 2.821-2.819-1.096-4.404-3.614-.932-2.355 4.241zm10.213 5.009l2.355 1.748 1.562-2.982-2.658-2.983-1.259 4.217zm6.11-11.44l2.355 1.561 1.422-2.656-3.614-2.353-.163 3.448zm4.244-6.267l2.681 2.027 2.495-3.612-4.08-2.982-2.192 1.584 1.096 2.983zm-19.004-21.669l2.985 2.05 4.407-2.68-2.518-4.38-3.754-1.095-3.614 3.122 2.494 2.983zm9.42-15.378l-1.096 2.679 2.355 3.285 2.518-2.656.163-2.982-3.94-.326zm-7.088-107.972l-.676 3.565 3.661 3.704 5.176.117-.233-4.614-3.568-4.73-4.36 1.958zm22.991-27.727l4.826 1.491 5.293-1.375-3.101-6.897-3.917-3.122-2.751 2.656-.583 4.357.233 2.89zm196.861 446.264l-3.68 4.077-.12.14-.19.047-8.74 1.84-7.93 3.519.44 8.784 2.29 5.918.09.233-.09.21-4.5 9.902 4.48 7.153.07.117v.14l.93 10.648.02.163-.07.14-6.95 13.42-.07.14-.14.07-11.56 7.13 4.34 7.386.18.326-.23.303-4.92 6.71 2.61 8.715 9.91 3.145.3.093.07.326 1.4 6.478.07.279-.21.21-7.27 7.712-.42 5.359 4.64 1.259.28.069.09.28 2.31 6.943.12.327-.26.256-5.46 5.452-2.28 8.178-.19.723-.63-.373-10.19-6.011-.14-.094-.07-.163-4.85-10.601-9.39 4.264-1.36 8.947-.02.186-.12.117-20.68 22.508.91 10.391.03.42-.4.163-5.55 2.307-.49.209-.23-.489-7.95-17.195-5.46 7.129-.16.21h-.26l-21.451.909-8.487 15.634 9.559 15.005.117.187-.047.233-1.842 8.341-.093.396-.396.047-9.443 1.351-5.363 10.275-1.842 27.657-.047.583-.583-.07-9.117-.909-6.482 3.006v5.406l15.599 13.956 23.438 16.334 9.44-.606.49-.024.09.536.37 1.585 6.04.14 10.73-7.666.47-.326.32.442 6.79 9.25 20.59 16.287h10.35l.16.21 7.77 9.949.09.116.02.163.89 7.666 10.77 2.097.35.07.09.35 1.4 5.615 9.4-3.122 1.89-6.454h-10.17l-.16-.327-2.17-4.66-.21-.466.44-.256 4.67-2.796.09-.07.12-.023 6.39-.909 12.84-8.877 4.6-7.06.04-.07.07-.046 9.52-8.598 2.12-6.384.02-.07.02-.047 5.6-9.623.02-.023 6.81-10.508 5.88-16.077 4.38-12.908-4.59-10.788-.05-.14.02-.14 1.19-11.557.03-.163.11-.14 6.02-7.129-7.16-6.012-.16-.14-.03-.186-1.18-6.78-.12-.583.61-.07 12.35-1.537 1.52-7.177.14-.629.6.21 6.6 2.33 11.55-3.845 3.1-7.339.23-.559.54.302 5.85 3.123h6.13l.16.233 4.15 5.661 24.44-6.593 2.7-10.439.14-.489.52.07 4.89.745 6.18-6.943.87-.955.14 1.281.74 7.549 14.9 2.284 8.77-6.081.37-11.371-9.33-6.594-.23-.163v-.279l-.79-14.353-.02-.303.23-.186 5.17-3.985.14-.116h.19l12.73-.373-11.96-27.098-6.41-4.45-11.26 5.102-.56.257-.19-.606-4.1-12.326-17.98-7.176-8.98 1.491-14.03 30.127-.03.07-.04.07-9.45 10.997-.39.466-.45-.419-6.81-6.804-4.33 7.736-.17.28-.32.023-12.92.512-8.77 6.711-.39.303-.35-.373-8.4-8.901-.16-.186.02-.233 1.57-23.067v-.093l.04-.093 7.63-17.755-9.89-2.959-.26-.07-.09-.233-4.71-10.485-.07-.186.05-.187 3.57-14.772-8.03-4.497-.3-.163.02-.349.52-14.516-5.92-11.347-4.71 3.285-.17.116-.3-.046-6.81-.513-.54-.046v-8.179l.28-.163 5.3-3.355-4.41-6.617zm-55.03 280.159l-1.07-5.592-.09-.49.49-.163 5.43-1.724-2.33-8.202-.14-.489.49-.186 6.48-2.424.49-.186.23.466 5.06 10.112 12.62-7.502.44-.257.3.42 4.36 6.081 3.73 3.425 4.88-1.817.09-.047h7.13l.17.28 3.33 5.289.21.326-.25.303-13.11 16.659-.32.42-.45-.303-7.95-5.592-9.75.909-.18.023-.16-.117-5.72-3.611-.02-.023-6.83-4.963-7.04-.583-.42-.023-.1-.419z" fill="#151515"/><path d="M1106.1 569.873l-.35.21-.33-.257-6.31-4.962h-15.28l.07-.63.94-8.341.02-.163.09-.14 8.75-10.555 2.58-6.92-5.64-3.914-.25-.163v-7.946l-4.95-5.405-.18-.21.04-.279 2.24-10.765-5.74-4.404-.48-.373.41-.466 8.63-9.529-3.19-40.356-10.12-15.541 5.06-2.609 12.17-9.903.19-.14.23.024 7.18.838 2.61-12.605.03-.116.04-.07 3.57-5.313.89-7.106.02-.233.16-.14 14.95-11.836-6.41-7.689-.14-.163V369.47l-13.01-18.384-.07-.093-.03-.14-1.79-9.366-3.99-5.313-.14-.163.02-.209.42-5.336-8.02 4.008-9.12 7.013-12.49 3.635-4.85 8.527.3-12.162 25.25-26.166 14.02-25.234 6.38-22.508-19.49-22.204-18.26-.606-6.38 9.11-7.3 1.235 5.48-15.518-14.93-1.841 4.88-6.99-9.14-7.595-8.21 3.029-13.08 19.478 3.03 11.557-13.99.909.3 3.658 5.18 7.596-10.05-2.121-5.18 4.847-11.561-2.12-1.515-5.173-16.438.303.303 9.436-19.796 2.726-13.384 10.649-10.352.302-7.602 6.688-3.357 13.7 6.389 11.557-9.723 2.423-25.882-4.241-14.899-.326-4.57 8.225-.606 21.296 9.419 9.11 4.571 10.648h-13.081l-11.262-20.993-8.254.49.093 1.071 7.205 15.285.303.676-.723.116-7.764 1.282-1.702 9.39 7.158 15.191.093.187-.046.209-1.819 7.223-.07.257-.257.116-16.927 7.573-2.122 8.504 11.029 14.563 12.474 3.098.35.094.07.372 2.728 15.588-.816 2.027v-.023l-4.407 11.184-.093.256-.28.07-11.425 3.076 3.45 8.201.094.187-.07.209-3.614 10.835 9.093 11.79.14.186-.023.233-2.309 21.529 7.298 10.019.14.187-.046.233-2.728 15.401 10.842 8.132.186.139.047.21 1.842 11.114.047.233-.14.21-9.63 13.281-.933 11.883v.163l-.116.14-14.853 18.873v14.702l12.125 6.99.443.233-.187.443-2.168 5.592-.093.233-.21.093-10.889 4.66-.07.023-.07.023-9.303 1.142 4.033 14.19.07.279-.186.233-3.964 4.94v7.479l29.122 4.52.304.024.116.279 8.534 17.568 7.881.979.536.07-.046.536-.513 6.617-.024.233-.163.163-11.518 9.996.956 8.178 6.412 6.384 9.56 3.029.513.163-.14.513-1.539 5.615-.047.187-.14.116-10.516 7.992-.489 10.462-.024.349-.069.024-1.423 6.663 9.094 17.662.186.349-.28.303-4.593 4.59-.07.07-.093.047-3.871 1.817 4.547 13.421h8.744l8.65-1.025.187-.024.186.117 5.596 3.565.42.256-.21.466-2.914 6.338 6.458 9.925.07.117v.093l1.539 8.644 3.031 9.134.024.07.023.07.49 6.617.046.373-.326.186-7.368 3.891v5.919l-.047.116-2.541 5.592-.094.233-.233.07-7.951 2.982-4.29 9.041 12.801 9.017 21.055 2.749 9.14-7.619.093-.093.14-.023 4.873-1.142.28-4.87.023-.279.233-.164 7.485-4.776-.583-5.242-.07-.467.49-.139 5.572-1.468 1.772-7.433.117-.396.396-.047 27.864-2.446 1.399-6.408-15.552-13.933-.21-.163v-6.617l.326-.163 6.949-3.239.163-.07.14.023 8.697.862 1.795-27.191.024-.116.046-.117 5.573-10.648.116-.256.304-.047 9.326-1.328 1.726-7.712-9.607-15.075-.186-.303.163-.28 8.813-16.216.14-.28h.327l21.494-.932 5.88-7.642.56-.746.4.839 8.11 17.568 4.66-1.957-.88-10.229-.03-.256.19-.163 20.73-22.555 1.35-8.993-.07-.303 11.1-5.103.23.513 5.04 10.951 9.4 5.568 2.12-7.619.04-.163.1-.093 5.31-5.312-2.09-6.338-4.83-1.305-.44-.116.04-.466.45-6.012.02-.209.14-.14 7.2-7.666-1.26-5.871-9.86-3.146-.3-.07-.07-.303-2.8-9.25-.07-.256.16-.233 4.88-6.641-4.43-7.549-.28-.489.46-.303 11.92-7.316 6.78-13.141-.88-10.346-4.57-7.292-.17-.257.14-.279 4.53-9.973-2.22-5.801-.04-.07v-.094l-.47-9.25-.02-.396.37-.163 8.32-3.704.07-.024h.05l8.63-1.817 3.73-4.148-3.1-3.844-6.51 4.357zm-551.11-58.11l-.14-.023-.116-.094-17.324-14.213-6.226 3.449-.163.07-.163-.024-17.068-1.933.023-.117-11.402-5.895-.093-.046-.07-.094-10.446-11.789-13.593-1.282-4.011 9.903 9.583 12.675.094.14.023.186.56 9.04.023.396-.373.164-15.786 6.64v5.312l4.337 3.798.397.327-4.967 6.64v-.047l-4.313 4.847-5.829 14.982-.047.093-.07.093-4.896 5.243-3.148 8.224-.047.094-.07.093-5.316 5.848-.186.21-.28-.023-4.547-.303-.163 11.23 5.083-.163.583-.023v8.924l11.192.512.489.024.047.489.49 6.337 4.756 1.142.35.093.07.327.699 3.215.024.023.676 4.474 1.655 2.26 4.244-1.118 9.397-11.114.163-.187.21-.023 10.655-1.095 6.762-10.695.396-.652.513.559 4.85 5.405 4.291-2.772 1.678-7.549.094-.42.419-.023 11.822-.559 3.194-3.985.84-8.155.023-.186.116-.14 5.223-6.035-3.847-7.409-.07-.14v-.163l.28-6.011.023-.35.327-.139 12.567-5.709 14.55-14.283 9.723-12.861 1.819-4.148-10.563-1.491zM43.284 588.909l6.552-7.619L35.1 561.951l8.72-24.791-6.249-5.173-5.456 3.822-21.544-14.726-2.728 4.357.816 17.452-8.161 8.714 2.168 11.976 14.177-.815 15.809 19.898 10.632 6.244z" fill="#151515"/><path d="M278.314 301.771v.677c0 4.495 2.326 7.348 4.367 8.52v-17.035c-2.194 1.042-4.219 1.418-4.367 7.838zm8.925 11.909c.813.42 1.692.85 2.636 1.314v-17.003l1.987 1.986c.541.545.845 1.282.846 2.051v12.928c.944-.464 1.823-.9 2.642-1.32a3.16 3.16 0 001.708-2.815v-9.704a5.025 5.025 0 00-1.479-3.562l-4.7-4.702 4.7-4.703a5.028 5.028 0 001.479-3.562v-16.85l-4.366-1.636v17.592a2.92 2.92 0 01-.846 2.051l-1.987 1.985v-21.678l-4.367 1.637v43.154a3.169 3.169 0 001.747 2.837z" fill="#E4B564"/><path d="M313.176 277.055a4.591 4.591 0 00-2.969-4.304l-3.242-1.233v13.714l-2.806 3.349.044-13.463v-4.647l-4.367-1.637v42.003c3.029-2.509 4.285-5.847 4.285-13.091v-2.33l2.811-3.376v5.706c0 13.37-4.47 15.562-13.384 19.926-.764.377-1.55.759-2.358 1.162-.807-.403-1.593-.785-2.358-1.162-8.913-4.364-13.383-6.545-13.383-19.926v-21.58l2.833-1.091v8.035c.147 6.42 2.183 6.797 4.366 7.839v-22.164l-10.425 3.966a4.591 4.591 0 00-2.969 4.304v1.451l1.861-.709v19.905c0 16.076 6.637 19.327 15.829 23.827 1.053.546 2.145 1.053 3.275 1.637l.988.507.988-.507c1.135-.579 2.227-1.091 3.275-1.637 9.18-4.5 15.828-7.751 15.828-23.827v-19.883l1.862.709.016-1.473z" fill="#E4B564"/></svg>