<svg width="176" height="512" fill="none" xmlns="http://www.w3.org/2000/svg"><path d="M176 77.577a42.8 42.8 0 00-27.65-40.102l-30.19-11.487v127.777l-26.125 31.208.406-125.44V16.23L51.781.981v391.363c28.208-23.38 39.898-54.485 39.898-121.983v-21.703l26.176-31.461v53.164c0 124.576-41.627 145.008-124.627 185.669-7.115 3.507-14.434 7.065-21.957 10.826-7.522-3.761-14.841-7.319-21.957-10.826-82.999-40.661-124.626-60.992-124.626-185.669V69.292l26.379-10.165v74.867c1.372 59.823 20.33 63.33 40.661 73.037V.524l-97.078 36.95A42.794 42.794 0 00-233 77.578v13.52l17.332-6.608v185.466c0 149.785 61.805 180.077 147.396 222.009 9.81 5.083 19.975 9.81 30.496 15.248l9.2 4.727 9.2-4.727c10.571-5.388 20.736-10.165 30.495-15.248 85.49-41.932 147.397-72.224 147.397-222.009V84.692l17.331 6.608.153-13.723z" fill="#9F9F9F" fill-opacity=".06"/></svg>