<svg viewBox="0 0 64 71" xmlns="http://www.w3.org/2000/svg" xmlns:xlink="http://www.w3.org/1999/xlink"><style>:root&gt;svg{display:none}:root&gt;svg:target{display:block}</style><svg fill="none" viewBox="0 0 11 9" id="agree" xmlns="http://www.w3.org/2000/svg"><path d="M9.992.867L3.875 6.984 1.549 4.66l-.766.766 3.092 3.091 6.883-6.883-.766-.766z" fill="#fff"/></svg><svg viewBox="0 0 7 13" id="arrow" xmlns="http://www.w3.org/2000/svg"><path d="M.56 6.438l5.547 5.667.629-.616-4.953-5.052 4.953-5.055-.63-.608L.56 6.437z"/></svg><svg fill="none" viewBox="0 0 50 50" id="arrow-big" xmlns="http://www.w3.org/2000/svg"><g clip-path="url(#cclip0)"><path d="M49.998 27.977l-6.023-5.887a.993.993 0 00-.961-.285 1 1 0 00-.477 1.668l3.73 3.504H3.015a1.006 1.006 0 00-.88.496 1.01 1.01 0 000 1.008c.184.312.52.5.88.496h43.254l-3.73 2.832a1 1 0 00.477 1.668.992.992 0 00.96-.286l6.023-5.214z" fill="#606060"/></g><defs><clipPath id="cclip0"><path fill="#fff" transform="rotate(90 25 25)" d="M0 0h50v50H0z"/></clipPath></defs></svg><svg fill="#e4b564" viewBox="0 0 12 12" id="arrow-dawn" xmlns="http://www.w3.org/2000/svg"><g clip-path="url(#dclip0)"><path d="M6.003 8.64a.24.24 0 00.166-.07l4.8-4.8a.238.238 0 00.066-.234.238.238 0 00-.172-.171.238.238 0 00-.233.065L6 8.06 1.37 3.43a.238.238 0 00-.234-.065.238.238 0 00-.172.171.238.238 0 00.066.234l4.8 4.8a.24.24 0 00.173.07z"/></g><defs><clipPath id="dclip0"><path fill="#fff" transform="rotate(180 6 6)" d="M0 0h12v12H0z"/></clipPath></defs></svg><svg viewBox="0 0 7 13" id="arrow-next" xmlns="http://www.w3.org/2000/svg"><path d="M6.44 6.563L.893.896l-.629.615 4.953 5.051-4.953 5.056.63.608L6.44 6.562z"/></svg><svg fill="none" viewBox="0 0 64 57" id="benefits-professional" xmlns="http://www.w3.org/2000/svg"><path d="M23 0c-1.094 0-2 .906-2 2v.473c-6.164 1.375-10.8 6.699-10.945 13.23C8.887 16.403 8 17.543 8 19v3h2v3.547h.004c.008.566.168 1.012.297 1.453.066.23.133.441.172.598.043.156.046.312.046.152 0 1.254 1.067 2.25 2.305 2.25h.27A10.94 10.94 0 0017 37.875v3.293c-1.438.34-4.637 1.172-7.875 2.469-2.172.87-4.367 1.949-6.082 3.289C1.324 48.266 0 49.949 0 52v5h48v-5c0-1.105-.395-2.102-1.02-3H64v-3.8c0-1.759-1.09-3.223-2.484-4.427-1.395-1.203-3.168-2.203-4.926-3.035A45.675 45.675 0 0050 35.25v-1.234c2.219-1.524 3.691-4.035 3.89-6.903h.137c1.102 0 2.051-.886 2.051-2.008 0 .18 0 .051.031-.074l.141-.472c.09-.301.18-.625.219-1.012H57V20h2v-3c0-1.48-.824-2.82-2.105-3.512A11.983 11.983 0 0048 3.387V3c0-1.102-.898-2-2-2h-2c-1.102 0-2 .898-2 2v.39c-1.676.43-3.2 1.215-4.5 2.258.406.532.79 1.082 1.129 1.657a10.025 10.025 0 013.477-1.86A.998.998 0 0044 5.023V3h2v2.023c.016.543.457.977 1 .977.379 0 .727-.219.895-.559a9.977 9.977 0 016.89 7.582A1.003 1.003 0 0054 14c0 .55.45 1 1 1a.821.821 0 00.219-.027l.418.144A1.992 1.992 0 0157 17v1H43v2h9v3.89l1.336-.706a.236.236 0 01.074-.028c.086-.015.219-.031.352-.043l.355-.031c.051 0 .09-.004.117-.004h.004c.176 0 .262.102.262.207 0-.043-.066.363-.168.707-.05.172-.105.348-.148.52-.047.168-.106.273-.106.593 0-.003.012.008-.05.008H52V26.5c0 3.504-2.441 6.367-5.75 6.957l-.281.05-.215.196A1.114 1.114 0 0145 34c-.29 0-.543-.11-.754-.297l-.215-.195-.281-.051c-.574-.102-1.176-.203-1.75-.3V33h-2v3.95l.105.21S41.61 40 45 40c3.156 0 4.617-2.375 4.813-2.715.91.27 3.199.98 5.921 2.262 1.66.785 3.309 1.734 4.477 2.742C61.379 43.297 62 44.297 62 45.2V47H45.047a2.558 2.558 0 00-.09-.074c-1.715-1.34-3.91-2.418-6.082-3.29-3.238-1.296-6.438-2.128-7.875-2.468v-3.293A10.94 10.94 0 0034.906 30h.27c1.238 0 2.304-.996 2.304-2.25 0 .16.004.004.047-.152.04-.157.106-.367.172-.598.13-.441.29-.887.297-1.453H38V22h2v-3c0-1.453-.887-2.598-2.05-3.293C37.804 9.172 33.163 3.847 27 2.473V2c0-1.094-.906-2-2-2h-2zm0 2h2v2.027c.016.54.457.973 1 .973a.997.997 0 00.926-.625c4.902 1.227 8.601 5.45 9.027 10.625A1.003 1.003 0 0035 16c0 .55.45 1 1 1a.85.85 0 00.223-.027l.43.148A1.98 1.98 0 0138 19v1H10v-1a1.98 1.98 0 011.348-1.875l.425-.152A1.002 1.002 0 0013 16c0-.535-.422-.973-.953-1 .426-5.176 4.125-9.395 9.027-10.625A.998.998 0 0023 4.027V2zm-1 5c-.55 0-1 .45-1 1s.45 1 1 1 1-.45 1-1-.45-1-1-1zm4 0c-.55 0-1 .45-1 1s.45 1 1 1 1-.45 1-1-.45-1-1-1zm17 1c-.55 0-1 .45-1 1s.45 1 1 1 1-.45 1-1-.45-1-1-1zm4 0c-.55 0-1 .45-1 1s.45 1 1 1 1-.45 1-1-.45-1-1-1zm-25 3c-.55 0-1 .45-1 1s.45 1 1 1 1-.45 1-1-.45-1-1-1zm4 0c-.55 0-1 .45-1 1s.45 1 1 1 1-.45 1-1-.45-1-1-1zm25 2c-.55 0-1 .45-1 1s.45 1 1 1 1-.45 1-1-.45-1-1-1zm-35 2c-.55 0-1 .45-1 1s.45 1 1 1 1-.45 1-1-.45-1-1-1zm16 0c-.55 0-1 .45-1 1s.45 1 1 1 1-.45 1-1-.45-1-1-1zm22 5h1v1.219a2.176 2.176 0 00-.762-.14h-.117a3.26 3.26 0 01-.121.01V20zm-42 2h1v1.031c-.047-.004-.102-.011-.14-.015a5.36 5.36 0 01-.165-.012c-.043 0-.02-.004-.133-.004-.19 0-.378.027-.562.066V22zm3 0h18v3.844l1.344-.703a.513.513 0 01.12-.043c.106-.016.259-.035.411-.051.152-.012.3-.027.418-.035.055-.004.102-.008.133-.012h.011c.344 0 .563.234.563.5 0 .016-.094.508-.219.938-.066.218-.129.433-.187.636-.055.203-.114.34-.114.676 0 .125-.101.25-.304.25H33v1.473c0 4.437-3.2 8.101-7.41 8.851l-.285.051-.211.195c-.301.27-.672.43-1.094.43-.422 0-.793-.16-1.094-.43l-.21-.195-.286-.05A8.984 8.984 0 0115 29.472V28h-2.176c-.203 0-.304-.125-.304-.25 0-.336-.06-.473-.114-.676a46.247 46.247 0 00-.187-.637A9.93 9.93 0 0112 25.5c0-.266.219-.5.563-.5h.007c.032.004.082.008.137.012.117.008.266.023.418.035.152.015.305.035.41.05.055.012.117.04.133.044l1.332.703V22zm20 0h1v1.066a2.698 2.698 0 00-.563-.066c-.113 0-.09.004-.132.004a5.36 5.36 0 01-.164.012L35 23.03V22zm13.5 0a1.5 1.5 0 100 3 1.5 1.5 0 000-3zm-29 3a1.5 1.5 0 100 3 1.5 1.5 0 000-3zm9 0a1.5 1.5 0 100 3 1.5 1.5 0 000-3zM48 35.04v1.362c-.117.23-.855 1.598-3 1.598s-2.883-1.367-3-1.598v-1.215c.477.079.73.122 1.172.2.512.37 1.14.613 1.828.613.7 0 1.336-.246 1.852-.629A9.25 9.25 0 0048 35.04zM19 39.2c.871.448 1.805.792 2.797.995.61.477 1.36.805 2.203.805.844 0 1.594-.328 2.203-.805A10.834 10.834 0 0029 39.2v3.457c-.121.242-1.422 2.746-5 2.746-3.578 0-4.879-2.504-5-2.746V39.2zM45 43c-.55 0-1 .45-1 1s.45 1 1 1 1-.45 1-1-.45-1-1-1zm4 0c-.55 0-1 .45-1 1s.45 1 1 1 1-.45 1-1-.45-1-1-1zm4 0c-.55 0-1 .45-1 1s.45 1 1 1 1-.45 1-1-.45-1-1-1zm4 0c-.55 0-1 .45-1 1s.45 1 1 1 1-.45 1-1-.45-1-1-1zm-39.988.227l.093.191S19.18 47.402 24 47.402c4.82 0 6.895-3.984 6.895-3.984l.093-.191c1.52.375 4.29 1.12 7.137 2.265 2.078.832 4.133 1.864 5.605 3.008C45.2 49.648 46 50.828 46 52v3H2v-3c0-1.172.8-2.352 2.27-3.5 1.472-1.145 3.527-2.176 5.605-3.008 2.848-1.144 5.617-1.89 7.137-2.265zM6 51c-.55 0-1 .45-1 1s.45 1 1 1 1-.45 1-1-.45-1-1-1zm4 0c-.55 0-1 .45-1 1s.45 1 1 1 1-.45 1-1-.45-1-1-1zm4 0c-.55 0-1 .45-1 1s.45 1 1 1 1-.45 1-1-.45-1-1-1zm4 0c-.55 0-1 .45-1 1s.45 1 1 1 1-.45 1-1-.45-1-1-1zm4 0c-.55 0-1 .45-1 1s.45 1 1 1 1-.45 1-1-.45-1-1-1zm4 0c-.55 0-1 .45-1 1s.45 1 1 1 1-.45 1-1-.45-1-1-1zm4 0c-.55 0-1 .45-1 1s.45 1 1 1 1-.45 1-1-.45-1-1-1zm4 0c-.55 0-1 .45-1 1s.45 1 1 1 1-.45 1-1-.45-1-1-1zm4 0c-.55 0-1 .45-1 1s.45 1 1 1 1-.45 1-1-.45-1-1-1zm4 0c-.55 0-1 .45-1 1s.45 1 1 1 1-.45 1-1-.45-1-1-1z" fill="#E4B564"/></svg><svg fill="none" viewBox="0 0 54 71" id="benefits-quality" xmlns="http://www.w3.org/2000/svg"><path d="M27 .006c-.984 0-1.968.372-2.713 1.117l-2.03 2.031-2.652-1.1h-.002a3.851 3.851 0 00-5.011 2.077l-.006.01L13.476 7h-2.638A3.854 3.854 0 007 10.838v2.639l-2.858 1.11-.01.005a3.853 3.853 0 00-2.077 5.013l1.1 2.653-2.03 2.03a3.852 3.852 0 00-.002 5.425l2.03 2.03-1.1 2.652v.002a3.852 3.852 0 002.078 5.011l.01.004L7 40.523v3.64A3.854 3.854 0 0010.838 48h.101L4.402 63.184l10.111-1.123 5.85 8.546 6.643-15.619 6.63 15.621 5.85-8.548 10.123 1.124-7.152-16.35H43a3.854 3.854 0 003.838-3.837v-2.463l3.013-1.12.018-.007a3.852 3.852 0 002.076-5.014l-1.1-2.652 2.032-2.03a3.854 3.854 0 000-5.427l-2.031-2.03 1.1-2.651a3.854 3.854 0 00-2.077-5.014l-.01-.004-2.86-1.11v-2.638A3.854 3.854 0 0043.163 7h-2.639l-1.111-2.86-.004-.01a3.852 3.852 0 00-5.014-2.075l-2.652 1.1-2.03-2.032A3.824 3.824 0 0027 .006zm0 1.988c.468 0 .936.182 1.299.545l2.974 2.973 3.887-1.61a1.821 1.821 0 012.4.994L39.156 9h4.006C44.19 9 45 9.81 45 10.838v4.006l4.103 1.594a1.822 1.822 0 01.994 2.4l-1.609 3.887 2.973 2.974a1.824 1.824 0 010 2.6l-2.973 2.973 1.61 3.888a1.82 1.82 0 01-.993 2.399l-4.267 1.586v3.853A1.824 1.824 0 0143 44.836h-3.856l-1.586 4.267a1.822 1.822 0 01-2.398.995l-3.887-1.612-2.974 2.975a1.821 1.821 0 01-2.598 0l-2.975-2.975-3.886 1.612a1.822 1.822 0 01-2.4-.996l-.022-.05L14.754 46h-3.916A1.823 1.823 0 019 44.162v-5.006L4.896 37.56a1.822 1.822 0 01-.996-2.4l1.612-3.887L2.537 28.3a1.821 1.821 0 01.002-2.598l2.975-2.974-1.612-3.887a1.822 1.822 0 01.996-2.4L9 14.843v-4.006C9 9.812 9.812 9 10.838 9h4.008l1.593-4.104a1.822 1.822 0 012.4-.994l3.887 1.61 2.975-2.973A1.83 1.83 0 0127 1.994zm1.129 6.063l-.801.402-.158.88.611.655.348.063.8-.4.159-.884-.612-.654-.347-.062zm-4.502.27l-.801.402-.158.88.613.655.346.062.803-.4.156-.883-.611-.654-.348-.063zm8.933.558l-.8.402-.159.881.612.654.347.063.801-.4.158-.883-.61-.655-.349-.062zm-13.216.844l-.801.4-.158.883.61.654.349.063.8-.403.159-.88-.614-.657-.345-.06zm17.293 1.086l-.801.402-.158.88.61.655.349.063.8-.4.159-.884-.612-.654-.347-.063zm-21.11 1.316l-.8.402-.159.881.612.656.347.06.801-.4.158-.882-.613-.655-.346-.062zm24.58 1.559l-.8.402-.159.883.614.654.345.06.801-.4.158-.883-.611-.654-.348-.063zm-27.656 1.742l-.8.4-.159.883.613.654.346.063.803-.403.156-.883-.611-.654-.348-.06zm30.32 1.898l-.8.4-.159.883.614.655.345.062.803-.402.156-.883-.611-.654-.348-.06zm-5.832 1.61L24 31.878l-6.939-6.94-2.12 2.122L24 36.12l15.06-15.06-2.12-2.122zm-26.666.437l-.8.402-.159.881.614.656.345.061.801-.4.158-.883-.611-.655-.348-.062zm34.145 2.15l-.803.403-.156.88.611.655.348.062.8-.4.159-.883-.614-.654-.345-.063zm-35.262 2.22l-.8.4-.159.882.611.655.348.062.8-.402.16-.881-.612-.654-.348-.063zM45 26l-.8.4v.002l-.16.881.612.654L45 28l.8-.402.159-.881-.612-.654L45 26zM9.156 28.254l-.8.402-.159.881.611.654.348.063.8-.4.16-.883-.612-.655-.348-.062zm35.262 2.219l-.803.4-.156.883.611.654.348.063.8-.403.159-.88-.614-.655-.345-.062zm-34.145 2.15l-.8.4-.159.883.614.654.345.063.801-.402.158-.881-.611-.655-.348-.062zm32.498 2.047l-.8.402-.159.881.614.654.345.063.803-.4.156-.883-.611-.655-.348-.062zm-30.32 1.898l-.8.403-.159.883.613.654.346.06.803-.4.156-.883-.611-.654-.348-.063zm27.656 1.74l-.8.403-.159.883.614.654.345.06.803-.4.156-.883-.611-.654-.348-.062zm-24.58 1.561l-.8.4-.159.883.612.655.347.062.801-.402.158-.881-.611-.654-.348-.063zm21.11 1.316l-.801.4-.158.884.61.654.349.063.8-.403.159-.88-.612-.655-.347-.063zm-17.293 1.087l-.801.402-.158.88.61.657.349.06.8-.4.159-.883-.614-.654-.345-.063zm13.216.843l-.8.4-.159.883.612.655.347.062.801-.402.158-.881-.61-.656-.349-.06zm-8.931.559l-.803.4-.156.883.611.654.348.063.8-.402.159-.881-.614-.655-.345-.062zm4.5.27l-.801.4-.158.883.613.654.346.062.8-.402.159-.88-.612-.655-.347-.063zm12.287 3.214l5.975 13.657-7.877-.875-4.465 6.523-5.446-12.832a3.798 3.798 0 001.11-.756l2.029-2.03 2.652 1.1h.002a3.852 3.852 0 005.012-2.078l.008-.017 1-2.692zM13.117 48h.45l1.07 1.963-.045-.096a3.853 3.853 0 005.013 2.078l2.653-1.1 2.029 2.03c.332.332.716.578 1.121.762l-5.457 12.826-4.465-6.523-7.888.876L13.117 48z" fill="#E4B564"/></svg><svg fill="none" viewBox="0 0 63 66" id="benefits-reliable" xmlns="http://www.w3.org/2000/svg"><path d="M34.953.988a1 1 0 00-.848.567L30.258 9.25c-.82.207-5.223 1.438-8.055 6.895l-.027.043-.746 1.875a1.067 1.067 0 00-.368-.063 8.074 8.074 0 00-6.609 3.45L6.371 32.175l-4.742 1.898a.996.996 0 00-.278 1.735.992.992 0 001.02.117l5-2a.996.996 0 00.426-.324l8.277-10.977.02-.031a6.035 6.035 0 014.554-2.567l-3.96 9.926-6.735 7.25.707.68 1.969 1.894c1.758 1.684 4.363 1.84 6.848 1.172 2.484-.668 4.972-2.152 6.851-4.105.45-.473 1.04-1.313 1.879-2.516a275.255 275.255 0 002.828-4.133c1.797-2.668 3.207-4.812 3.461-5.195h22.512A3.986 3.986 0 0161 29c0 2.219-1.781 4-4 4h-2a.999.999 0 00-.984 1c0 .547.437.992.984 1 2.219 0 4 1.781 4 4 0 2.219-1.781 4-4 4h-1a.999.999 0 00-.984 1c0 .547.437.992.984 1 2.219 0 4 1.781 4 4a3.985 3.985 0 01-3.098 3.887.993.993 0 00-.754.777.995.995 0 00.395 1.008A3.473 3.473 0 0156 57.5c0 1.945-1.555 3.5-3.5 3.5H47v-3c0-2.75-2.25-5-5-5-1.676 0-3.09.887-4 2.16-.91-1.273-2.324-2.16-4-2.16-1.676 0-3.09.887-4 2.16-.91-1.273-2.324-2.16-4-2.16-1.676 0-3.09.887-4 2.16-.91-1.273-2.324-2.16-4-2.16-2.75 0-5 2.25-5 5v3H2a1.006 1.006 0 00-.879.496 1.01 1.01 0 000 1.008c.184.312.52.5.879.496h11.426c.777 1.762 2.535 3 4.574 3 1.676 0 3.09-.887 4-2.16.91 1.273 2.324 2.16 4 2.16 1.676 0 3.09-.887 4-2.16.91 1.273 2.324 2.16 4 2.16 1.676 0 3.09-.887 4-2.16.91 1.273 2.324 2.16 4 2.16 2.039 0 3.797-1.238 4.574-3H52.5c3.027 0 5.5-2.473 5.5-5.5 0-1.258-.531-2.324-1.246-3.25C58.664 53.246 60 51.3 60 49c0-1.922-.973-3.563-2.39-4.66C59.597 43.355 61 41.355 61 39c0-1.758-.797-3.305-2.008-4.406C61.31 33.766 63 31.598 63 29c0-2.844-2-5.23-4.664-5.844l.473-1.422c.75-2.25.398-4.664-.762-6.718l1.902-5.7c.106-.304.059-.64-.125-.906a1.005 1.005 0 00-.812-.426c-.438 0-.828.282-.961.7L55.613 16h.723c.875 1.559 1.148 3.395.574 5.105L56.281 23H34.137a.999.999 0 00-1.016.457s-1.805 2.738-3.746 5.621a278.069 278.069 0 01-2.805 4.102c-.828 1.183-1.57 2.156-1.683 2.277-1.614 1.676-3.852 3.004-5.93 3.559-2.074.558-3.867.347-4.941-.684-.79-.758-.942-.906-1.262-1.21l5.652-6.079 5.578-13.988c2.72-5.22 7.211-6.075 7.211-6.075l.48-.093 4.22-8.442a.996.996 0 00-.047-1 1.002 1.002 0 00-.895-.457zM49 11c-.55 0-1 .45-1 1s.45 1 1 1 1-.45 1-1-.45-1-1-1zm4 1c-.55 0-1 .45-1 1s.45 1 1 1 1-.45 1-1-.45-1-1-1zm-6 21c-.55 0-1 .45-1 1s.45 1 1 1 1-.45 1-1-.45-1-1-1zm4 0c-.55 0-1 .45-1 1s.45 1 1 1 1-.45 1-1-.45-1-1-1zm-1 10c-.55 0-1 .45-1 1s.45 1 1 1 1-.45 1-1-.45-1-1-1zm1 10c-.55 0-1 .45-1 1s.45 1 1 1 1-.45 1-1-.45-1-1-1zm-33 2c1.668 0 3 1.332 3 3a.999.999 0 001 .984.999.999 0 001-.984c0-1.668 1.332-3 3-3s3 1.332 3 3c0 .035.004.066.004.098.008.066.023.133.043.199a.894.894 0 00.199.344.95.95 0 00.406.28.816.816 0 00.192.052 1.106 1.106 0 00.395-.016c.066-.016.128-.039.19-.066.032-.016.06-.032.087-.047.086-.055.164-.117.23-.192.043-.05.082-.105.117-.164a.974.974 0 00.13-.375c.003-.039.007-.074.007-.113 0-1.668 1.332-3 3-3s3 1.332 3 3c0 .035.004.066.004.098.008.035.012.07.02.101.058.266.218.492.445.637l.09.047a.676.676 0 00.093.039.816.816 0 00.192.05.417.417 0 00.097.012h.102a1.062 1.062 0 00.387-.093c.058-.032.117-.067.168-.106.027-.02.054-.039.078-.062.101-.09.18-.2.234-.32.016-.032.027-.063.04-.094.007-.036.019-.067.023-.098a.864.864 0 00.02-.098c.003-.039.007-.074.007-.113 0-1.668 1.332-3 3-3s3 1.332 3 3v3c0 1.668-1.332 3-3 3s-3-1.332-3-3c0-.035-.004-.066-.004-.098a1.211 1.211 0 00-.043-.199 1.55 1.55 0 00-.082-.184.882.882 0 00-.117-.16 1.067 1.067 0 00-.223-.195l-.09-.047a.687.687 0 00-.093-.039.937.937 0 00-.094-.031 1.079 1.079 0 00-.297-.031 1.071 1.071 0 00-.195.027.712.712 0 00-.098.031c-.031.008-.063.024-.094.035a.979.979 0 00-.246.168 1.07 1.07 0 00-.187.235c-.016.027-.032.058-.047.086a.955.955 0 00-.04.093c-.007.036-.019.067-.023.098a.842.842 0 00-.027.195V61c0 1.668-1.332 3-3 3s-3-1.332-3-3c0-.035-.004-.066-.004-.098-.008-.035-.012-.07-.02-.101a1.555 1.555 0 00-.058-.192.999.999 0 00-1.254-.535.94.94 0 00-.34.203c-.05.047-.094.098-.137.149-.015.027-.035.058-.05.086-.016.027-.032.058-.047.086a.84.84 0 00-.063.191.842.842 0 00-.027.195V61c0 1.668-1.332 3-3 3s-3-1.332-3-3a.999.999 0 00-1-.984.999.999 0 00-1 .984c0 1.668-1.332 3-3 3s-3-1.332-3-3v-3c0-1.668 1.332-3 3-3z" fill="#E4B564"/></svg><svg viewBox="0 0 16 16" id="download" xmlns="http://www.w3.org/2000/svg"><path d="M7 2v7.293L4.352 6.648l-.704.704L7.5 11.207l3.855-3.855-.71-.704L8 9.293V2H7zM3 13v1h9v-1H3z"/></svg><svg fill="none" viewBox="0 0 16 16" id="lacation" xmlns="http://www.w3.org/2000/svg"><path d="M8 1a5.01 5.01 0 00-5 5c0 .773.316 1.621.754 2.516.437.898 1.008 1.836 1.582 2.691a44.69 44.69 0 002.277 3.11l.387.476.387-.477s1.136-1.394 2.281-3.109c.57-.855 1.14-1.793 1.578-2.691C12.684 7.62 13 6.773 13 6c0-2.754-2.246-5-5-5zm0 1c2.215 0 4 1.785 4 4 0 .469-.246 1.246-.652 2.078-.407.836-.961 1.742-1.512 2.578-.918 1.375-1.543 2.133-1.836 2.5-.293-.367-.918-1.125-1.836-2.5-.55-.836-1.105-1.742-1.512-2.578C4.246 7.246 4 6.468 4 6c0-2.215 1.785-4 4-4zm0 3c-.55 0-1 .45-1 1s.45 1 1 1 1-.45 1-1-.45-1-1-1z" fill="#E4B564"/></svg><svg fill="none" viewBox="0 0 16 16" id="letter" xmlns="http://www.w3.org/2000/svg"><path d="M2.5 2C1.676 2 1 2.676 1 3.5v8c0 .824.676 1.5 1.5 1.5h11c.824 0 1.5-.676 1.5-1.5v-8c0-.824-.676-1.5-1.5-1.5h-11zm0 1h11c.035 0 .063.012.094.02L8 6.89 2.406 3.02c.031-.008.059-.02.094-.02zm-.5.953L8 8.11l6-4.156V11.5c0 .281-.219.5-.5.5h-11a.494.494 0 01-.5-.5V3.953z" fill="#E4B564"/></svg><svg viewBox="0 0 13 13" id="phone" xmlns="http://www.w3.org/2000/svg"><path d="M2.371.043L.797 1.617A2.697 2.697 0 00.364 4.88c.687 1.18 1.25 2.05 3.605 4.402 2.352 2.356 2.992 2.676 4.152 3.356a2.69 2.69 0 003.258-.434l1.578-1.574-3.046-3.043-1.239 1.238a5.178 5.178 0 01-.629-.347c-.53-.34-1.21-.86-1.808-1.461A13.74 13.74 0 014.64 5.07c-.2-.297-.36-.566-.445-.742l-.008-.016 1.226-1.226L2.371.043zm0 1.414l1.63 1.629-.715.719a.53.53 0 00-.16.406c0 .09.015.152.03.21.036.122.083.227.141.352.121.243.297.532.516.86a15.05 15.05 0 001.71 2.094c.661.656 1.388 1.21 1.985 1.59.297.19.559.335.781.433.114.05.215.09.336.113.059.012.125.02.215.012a.534.534 0 00.356-.16L9.91 9l1.632 1.629-.87.871a1.692 1.692 0 01-2.048.273c-1.18-.691-1.629-.875-3.953-3.195-2.32-2.324-2.765-3.039-3.445-4.203A1.692 1.692 0 011.5 2.328l.871-.871z"/></svg><svg fill="none" viewBox="0 0 16 16" id="phone-gold" xmlns="http://www.w3.org/2000/svg"><path d="M3.371 1.043L1.797 2.617a2.697 2.697 0 00-.434 3.262c.688 1.18 1.25 2.05 3.606 4.402 2.351 2.356 2.992 2.676 4.152 3.356a2.69 2.69 0 003.258-.434l1.578-1.574-3.047-3.043-1.238 1.238a5.178 5.178 0 01-.63-.347c-.53-.34-1.21-.86-1.808-1.461A13.74 13.74 0 015.64 6.07a7.061 7.061 0 01-.445-.742l-.008-.016 1.227-1.226L3.37 1.043zm0 1.414L5 4.086l-.715.719a.53.53 0 00-.16.406c0 .09.015.152.031.21.035.122.082.227.14.352.122.243.298.532.516.86a15.05 15.05 0 001.711 2.094c.66.656 1.387 1.21 1.985 1.59.297.19.558.335.78.433.114.05.216.09.337.113.058.012.125.02.215.012a.534.534 0 00.355-.16L10.91 10l1.633 1.629-.871.871a1.692 1.692 0 01-2.047.273c-1.18-.691-1.629-.875-3.953-3.195-2.32-2.324-2.766-3.039-3.446-4.203A1.692 1.692 0 012.5 3.328l.871-.871z" fill="#E4B564"/></svg><svg fill="none" viewBox="0 0 16 16" id="upload" xmlns="http://www.w3.org/2000/svg"><path d="M7.5 1.793L3.648 5.648l.704.704L7 3.707V11h1V3.707l2.645 2.645.71-.704L7.5 1.793zM3 13v1h9v-1H3z" fill="#fff"/></svg></svg>