<svg width="90" height="90" fill="none" xmlns="http://www.w3.org/2000/svg"><path d="M46.4 5.724a1.33 1.33 0 00-.516.099 1.195 1.195 0 00-.247.132c-.038.027-.088.038-.132.066L4.724 39.77a1.416 1.416 0 00-.187 1.983 1.42 1.42 0 001.983.187l4.73-3.912v35.173H7.03c-.78 0-1.406.626-1.406 1.406 0 .78.626 1.406 1.406 1.406h78.75c.78 0 1.406-.626 1.406-1.406 0-.78-.626-1.406-1.406-1.406h-4.219V38.029l4.725 3.911c.263.215.582.324.9.324.401 0 .802-.175 1.083-.51a1.41 1.41 0 00-.187-1.983L47.3 6.02c-.038-.028-.087-.039-.126-.066a1.145 1.145 0 00-.258-.132 1.238 1.238 0 00-.242-.077 1.543 1.543 0 00-.274-.022zm.006 3.208L78.75 35.7v37.502H14.062V35.7L46.406 8.932zm0 10.827a4.228 4.228 0 00-4.219 4.224c0 1.83 1.181 3.378 2.813 3.96v3.104c-1.181-.89-2.631-1.439-4.219-1.439H37.97c-3.027 0-5.592 1.94-6.581 4.625-.121.105-.225.22-.302.374l-8.438 16.875c-.005.01-.005.027-.01.044-.04.082-.05.17-.072.264-.022.093-.055.186-.06.28 0 .01-.006.022-.006.038 0 3.944 4.323 7.031 9.844 7.031 5.52 0 9.843-3.087 9.843-7.03 0-.017-.005-.028-.005-.04-.006-.093-.038-.186-.06-.28-.023-.093-.033-.186-.072-.269-.005-.016-.005-.027-.01-.038l-8.07-16.133c.554-1.692 2.126-2.928 3.999-2.928h2.812A4.227 4.227 0 0145 36.639v4.22a1.4 1.4 0 001.406 1.405c.78 0 1.406-.626 1.406-1.406V36.64a4.227 4.227 0 014.22-4.218h2.812c1.873 0 3.45 1.236 3.999 2.928l-8.07 16.127c-.005.017-.005.028-.01.044-.04.083-.05.176-.072.27a1.17 1.17 0 00-.06.274c0 .017-.006.028-.006.039 0 3.944 4.323 7.03 9.844 7.03 5.515 0 9.843-3.086 9.843-7.03 0-.011-.01-.022-.01-.039-.006-.093-.034-.187-.056-.274-.021-.094-.032-.187-.07-.27-.006-.016-.006-.027-.012-.044l-8.437-16.875a1.17 1.17 0 00-.302-.368c-.99-2.691-3.555-4.63-6.581-4.63H52.03c-1.587 0-3.038.549-4.219 1.444v-3.109c1.632-.582 2.813-2.126 2.813-3.96a4.227 4.227 0 00-4.219-4.22zm0 2.818c.775 0 1.406.632 1.406 1.406 0 .775-.631 1.406-1.406 1.406A1.409 1.409 0 0145 23.983a1.41 1.41 0 011.406-1.406zM32.344 38.38l6.163 12.32H26.18l6.164-12.32zm28.125 0l6.163 12.32H54.305l6.164-12.32zm-34.74 15.133h13.228c-.988 1.62-3.62 2.813-6.613 2.813-2.994 0-5.625-1.192-6.614-2.813zm28.126 0h13.227c-.988 1.62-3.62 2.813-6.613 2.813-2.994 0-5.625-1.192-6.614-2.813zM18.28 64.764c-.78 0-1.406.627-1.406 1.407v2.812c0 .78.626 1.406 1.406 1.406.78 0 1.406-.626 1.406-1.406v-2.812c0-.78-.626-1.407-1.406-1.407zm7.031 0c-.78 0-1.406.627-1.406 1.407v2.812c0 .78.626 1.406 1.406 1.406.78 0 1.407-.626 1.407-1.406v-2.812c0-.78-.627-1.407-1.407-1.407zm7.032 0c-.78 0-1.407.627-1.407 1.407v2.812c0 .78.627 1.406 1.407 1.406s1.406-.626 1.406-1.406v-2.812c0-.78-.626-1.407-1.406-1.407zm7.03 0c-.78 0-1.405.627-1.405 1.407v2.812c0 .78.626 1.406 1.406 1.406.78 0 1.406-.626 1.406-1.406v-2.812c0-.78-.626-1.407-1.406-1.407zm7.032 0c-.78 0-1.406.627-1.406 1.407v2.812c0 .78.626 1.406 1.406 1.406.78 0 1.406-.626 1.406-1.406v-2.812c0-.78-.626-1.407-1.406-1.407zm7.031 0c-.78 0-1.406.627-1.406 1.407v2.812c0 .78.626 1.406 1.406 1.406.78 0 1.407-.626 1.407-1.406v-2.812c0-.78-.627-1.407-1.407-1.407zm7.032 0c-.78 0-1.407.627-1.407 1.407v2.812c0 .78.627 1.406 1.407 1.406s1.406-.626 1.406-1.406v-2.812c0-.78-.626-1.407-1.406-1.407zm7.03 0c-.78 0-1.405.627-1.405 1.407v2.812c0 .78.626 1.406 1.406 1.406.78 0 1.406-.626 1.406-1.406v-2.812c0-.78-.626-1.407-1.406-1.407zm7.032 0c-.78 0-1.406.627-1.406 1.407v2.812c0 .775.626 1.406 1.406 1.406.78 0 1.406-.626 1.406-1.406v-2.812c0-.78-.626-1.407-1.406-1.407z" fill="#E4B564"/></svg>