<svg width="75" height="75" fill="none" xmlns="http://www.w3.org/2000/svg"><path d="M5.86 4.688a3.522 3.522 0 00-3.516 3.515v9.375c0 .902.352 1.721.915 2.344a3.487 3.487 0 00-.915 2.344v11.718c0 .902.352 1.722.915 2.344a3.488 3.488 0 00-.915 2.344V50.39c0 .901.352 1.72.915 2.343a3.487 3.487 0 00-.915 2.344v9.375a3.522 3.522 0 003.515 3.516h16.407c.901 0 1.72-.353 2.343-.916a3.487 3.487 0 002.344.916h18.75a3.49 3.49 0 002.344-.916 3.487 3.487 0 002.344.916h18.75a3.522 3.522 0 003.515-3.516v-9.375c0-.902-.352-1.721-.915-2.344a3.487 3.487 0 00.915-2.343V38.67c0-.9-.352-1.72-.915-2.343a3.487 3.487 0 00.915-2.344V22.266c0-.902-.352-1.722-.915-2.344a3.487 3.487 0 00.915-2.344V8.203a3.522 3.522 0 00-3.515-3.515h-5.86c-.901 0-1.72.352-2.343.915a3.488 3.488 0 00-2.344-.915h-18.75c-.902 0-1.721.352-2.344.915a3.488 3.488 0 00-2.344-.915h-18.75c-.901 0-1.72.352-2.343.915a3.488 3.488 0 00-2.344-.915h-5.86zm0 2.343h5.859c.645 0 1.172.527 1.172 1.172v9.375c0 .646-.527 1.172-1.172 1.172h-5.86a1.174 1.174 0 01-1.171-1.172V8.203c0-.645.526-1.172 1.171-1.172zm10.546 0h18.75c.646 0 1.172.527 1.172 1.172v9.375c0 .646-.526 1.172-1.172 1.172h-18.75a1.174 1.174 0 01-1.172-1.172V8.203c0-.645.527-1.172 1.172-1.172zm23.438 0h18.75c.645 0 1.172.527 1.172 1.172v9.375c0 .646-.527 1.172-1.172 1.172h-18.75a1.174 1.174 0 01-1.172-1.172V8.203c0-.645.526-1.172 1.172-1.172zm23.437 0h5.86c.645 0 1.171.527 1.171 1.172v9.375c0 .646-.526 1.172-1.171 1.172h-5.86a1.174 1.174 0 01-1.172-1.172V8.203c0-.645.527-1.172 1.172-1.172zM5.86 21.094h16.407c.645 0 1.172.526 1.172 1.172v11.718c0 .646-.527 1.172-1.172 1.172H5.859a1.174 1.174 0 01-1.171-1.172V22.266c0-.646.526-1.172 1.171-1.172zm21.094 0h18.75c.646 0 1.172.526 1.172 1.172v11.718c0 .646-.526 1.172-1.172 1.172h-18.75a1.174 1.174 0 01-1.172-1.172V22.266c0-.646.527-1.172 1.172-1.172zm23.438 0h18.75c.645 0 1.171.526 1.171 1.172v11.718c0 .646-.526 1.172-1.171 1.172H50.39a1.174 1.174 0 01-1.172-1.172V22.266c0-.646.526-1.172 1.172-1.172zM5.859 37.5h5.86c.645 0 1.172.526 1.172 1.172V50.39c0 .645-.527 1.172-1.172 1.172h-5.86a1.174 1.174 0 01-1.171-1.172V38.67c0-.645.526-1.171 1.171-1.171zm10.547 0h18.75c.646 0 1.172.526 1.172 1.172V50.39c0 .645-.526 1.172-1.172 1.172h-18.75a1.174 1.174 0 01-1.172-1.172V38.67c0-.645.527-1.171 1.172-1.171zm23.438 0h18.75c.645 0 1.172.526 1.172 1.172V50.39c0 .645-.527 1.172-1.172 1.172h-18.75a1.174 1.174 0 01-1.172-1.172V38.67c0-.645.526-1.171 1.172-1.171zm23.437 0h5.86c.645 0 1.171.526 1.171 1.172V50.39c0 .645-.526 1.172-1.171 1.172h-5.86a1.174 1.174 0 01-1.172-1.172V38.67c0-.645.527-1.171 1.172-1.171zM5.86 53.906h16.407c.645 0 1.172.527 1.172 1.172v9.375c0 .646-.527 1.172-1.172 1.172H5.859a1.174 1.174 0 01-1.171-1.172v-9.375c0-.645.526-1.172 1.171-1.172zm21.094 0h18.75c.646 0 1.172.527 1.172 1.172v9.375c0 .646-.526 1.172-1.172 1.172h-18.75a1.174 1.174 0 01-1.172-1.172v-9.375c0-.645.527-1.172 1.172-1.172zm23.438 0h18.75c.645 0 1.171.527 1.171 1.172v9.375c0 .646-.526 1.172-1.171 1.172H50.39a1.174 1.174 0 01-1.172-1.172v-9.375c0-.645.526-1.172 1.172-1.172zM8.203 58.594c-.65 0-1.172.522-1.172 1.172v2.343c0 .65.522 1.172 1.172 1.172.65 0 1.172-.522 1.172-1.172v-2.343c0-.65-.522-1.172-1.172-1.172zm5.86 0c-.65 0-1.172.522-1.172 1.172v2.343c0 .65.521 1.172 1.171 1.172s1.172-.522 1.172-1.172v-2.343c0-.65-.521-1.172-1.171-1.172zm5.859 0c-.65 0-1.172.522-1.172 1.172v2.343c0 .65.522 1.172 1.172 1.172.65 0 1.172-.522 1.172-1.172v-2.343c0-.65-.522-1.172-1.172-1.172zm10.547 0c-.65 0-1.172.522-1.172 1.172v2.343c0 .65.522 1.172 1.172 1.172.65 0 1.172-.522 1.172-1.172v-2.343c0-.65-.522-1.172-1.172-1.172zm5.86 0a1.17 1.17 0 00-1.173 1.172v2.343c0 .65.522 1.172 1.172 1.172.65 0 1.172-.522 1.172-1.172v-2.343c0-.65-.522-1.172-1.172-1.172zm5.858 0c-.65 0-1.171.522-1.171 1.172v2.343c0 .65.522 1.172 1.172 1.172.65 0 1.171-.522 1.171-1.172v-2.343c0-.65-.522-1.172-1.172-1.172zm11.72 0a1.17 1.17 0 00-1.173 1.172v2.343c0 .65.522 1.172 1.172 1.172.65 0 1.172-.522 1.172-1.172v-2.343c0-.65-.522-1.172-1.172-1.172zm5.859 0c-.65 0-1.172.522-1.172 1.172v2.343c0 .65.522 1.172 1.172 1.172.65 0 1.172-.522 1.172-1.172v-2.343c0-.65-.522-1.172-1.172-1.172zm5.859 0c-.65 0-1.172.522-1.172 1.172v2.343c0 .65.522 1.172 1.172 1.172.65 0 1.172-.522 1.172-1.172v-2.343c0-.65-.522-1.172-1.172-1.172z" fill="#E4B564"/></svg>