<svg width="75" height="75" fill="none" xmlns="http://www.w3.org/2000/svg"><path d="M7 6.818c-.552 0-1 .436-1 .974v60.39c0 .538.448.974 1 .974h62c.553 0 1-.436 1-.974V7.792a.986.986 0 00-1-.974H7zm1 1.948h60v58.442H8V8.766zm5.5 11.688c-.276 0-.5.219-.5.488v4.87c0 .268.224.487.5.487h49c.276 0 .5-.218.5-.487v-4.87a.494.494 0 00-.5-.488h-4c-.276 0-.5.219-.5.488 0 .268.224.486.5.486H62v3.897H14v-3.896h35.5c.276 0 .5-.219.5-.487a.494.494 0 00-.5-.488h-36zm38 0c-.276 0-.5.219-.5.488 0 .268.224.486.5.486h4c.276 0 .5-.218.5-.486a.494.494 0 00-.5-.488h-4zm-38 9.74c-.276 0-.5.219-.5.488v4.87c0 .269.224.487.5.487h44c.276 0 .5-.218.5-.487v-4.87a.494.494 0 00-.5-.487h-32c-.276 0-.5.218-.5.487s.224.487.5.487H57v3.896H14v-3.896h6.5c.276 0 .5-.218.5-.487a.494.494 0 00-.5-.487h-7zm0 9.741c-.276 0-.5.218-.5.487v4.87c0 .269.224.487.5.487h24c.276 0 .5-.218.5-.487a.494.494 0 00-.5-.487H14V40.91h37v3.896h-5.5c-.276 0-.5.218-.5.487s.224.487.5.487h6c.276 0 .5-.218.5-.487v-4.87a.494.494 0 00-.5-.487h-38zm26 4.87c-.276 0-.5.218-.5.487s.224.487.5.487h3c.276 0 .5-.218.5-.487a.494.494 0 00-.5-.487h-3zm-26 4.87c-.276 0-.5.218-.5.487v4.87c0 .27.224.487.5.487h8c.276 0 .5-.218.5-.487a.494.494 0 00-.5-.487H14V50.65h46v3.896H27.5c-.276 0-.5.219-.5.487 0 .27.224.487.5.487h33c.276 0 .5-.218.5-.487v-4.87a.494.494 0 00-.5-.487h-47z" fill="#E4B564"/></svg>