<svg width="75" height="75" fill="none" xmlns="http://www.w3.org/2000/svg"><path d="M10.547 1.172c-4.524 0-8.203 3.68-8.203 8.203v45.703c0 3.975 2.844 7.296 6.603 8.043 1.315 2.918 4.219 4.848 7.46 4.848H69.14a3.52 3.52 0 003.515-3.516V22.266a3.52 3.52 0 00-3.515-3.516h-1.172v-1.172a3.52 3.52 0 00-3.516-3.515H18.75V9.375c0-4.522-3.68-8.203-8.203-8.203zm0 2.344c3.23 0 5.86 2.628 5.86 5.859v38.802a8.172 8.172 0 00-11.72 0V9.375c0-3.23 2.629-5.86 5.86-5.86zm8.203 12.89h45.703c.646 0 1.172.525 1.172 1.172v42.188c0 .647-.526 1.172-1.172 1.172H10.547a5.866 5.866 0 01-5.86-5.86v-1.172c0-3.23 2.629-5.86 5.86-5.86 3.23 0 5.86 2.63 5.86 5.86v1.172a1.172 1.172 0 102.343 0V16.406zm41.016 3.516a1.172 1.172 0 100 2.344h2.343a1.172 1.172 0 100-2.344h-2.343zm8.203 1.172h1.172c.645 0 1.171.525 1.171 1.172v42.187c0 .647-.526 1.172-1.171 1.172H16.406a5.865 5.865 0 01-4.683-2.344h52.73a3.52 3.52 0 003.516-3.515V21.094zm-24.61 4.687a1.172 1.172 0 100 2.344h4.203L37.5 38.187l-3.859-3.86a1.17 1.17 0 00-1.657 0l-8.203 8.204a1.17 1.17 0 101.657 1.657l7.375-7.375 3.858 3.86a1.17 1.17 0 001.658 0l10.89-10.89v4.201a1.172 1.172 0 102.343 0v-7.03c0-.016-.009-.03-.009-.044a1.131 1.131 0 00-.082-.41c-.005-.01-.014-.017-.018-.027a1.159 1.159 0 00-.209-.312c-.028-.03-.058-.053-.089-.08a1.165 1.165 0 00-.242-.165c-.038-.018-.073-.037-.113-.052a1.177 1.177 0 00-.41-.083h-7.03zm16.407 0a1.172 1.172 0 100 2.344h2.343a1.172 1.172 0 100-2.344h-2.343zm0 5.86a1.172 1.172 0 100 2.343h2.343a1.172 1.172 0 100-2.343h-2.343zm0 5.859a1.172 1.172 0 100 2.344h2.343a1.172 1.172 0 100-2.344h-2.343zm0 5.86a1.172 1.172 0 100 2.343h2.343a1.172 1.172 0 100-2.344h-2.343zm-37.5 3.515a1.171 1.171 0 100 2.344h30.468a1.172 1.172 0 100-2.344H22.266zm37.5 2.344a1.172 1.172 0 100 2.343h2.343a1.172 1.172 0 100-2.343h-2.343zm0 5.86a1.172 1.172 0 100 2.343h2.343a1.172 1.172 0 100-2.344h-2.343z" fill="#E4B564"/></svg>