<svg width="111" height="54" fill="none" xmlns="http://www.w3.org/2000/svg"><path fill-rule="evenodd" clip-rule="evenodd" d="M0 5.569v5.57l16.233.047 16.232.049 6.613 16.424a18163.43 18163.43 0 018.598 21.383L49.66 54l5.918-.05 5.918-.05 8.592-21.38 8.591-21.38H111V0L90.542.048 70.085.096 65.879 11.14a60803.34 60803.34 0 00-7.239 19.02c-1.668 4.387-3.086 7.977-3.15 7.977-.064 0-.213-.319-.33-.708-.118-.39-3.324-8.949-7.126-19.02L41.123.096 20.56.048 0 0v5.569zm0 15.01v5.475h5.292c4.162 0 5.272.05 5.196.236-.053.13-2.36 6.226-5.126 13.546L.172 53.57l-.163.425h11.373l1.037-2.973 1.038-2.974L22.343 48l8.886-.049 1.174 3.02 1.175 3.022 5.8.001c4.567.002 5.782-.048 5.71-.234-.049-.13-3.572-8.88-7.827-19.445l-7.737-19.21H0v5.476zm74.07 13.976L66.275 54l5.911-.05 5.912-.05 2.82-6.89 2.822-6.891h.624c.61 0 .73.155 5.43 6.938l4.807 6.938h13.482l-.451-.614c-.248-.337-2.967-4-6.041-8.138-3.075-4.139-5.608-7.602-5.63-7.696-.022-.094.502-.368 1.163-.609 2.664-.97 4.807-2.36 6.866-4.45 1.394-1.417 3.26-4.084 3.938-5.631l.352-.803H111V15.105h-10.694l-.132 1.18c-.759 6.773-4.494 11.782-9.822 13.173-1.555.406-2.566.484-2.385.184.063-.104 1.325-3.31 2.805-7.127a7454.51 7454.51 0 012.784-7.174c.074-.186-1.158-.236-5.8-.234l-5.894.003-7.793 19.445zm-49.511-3.35c1.45 3.658 2.636 6.715 2.636 6.792 0 .077-2.296.14-5.103.14-3.236 0-5.08-.068-5.041-.184 1.016-3.035 4.713-13.401 4.779-13.401.05 0 1.279 2.994 2.729 6.653z" fill="#fff"/></svg>