<svg width="514" height="371" viewBox="0 0 514 371" fill="none" xmlns="http://www.w3.org/2000/svg">
<path d="M328.799 367.572C288.837 376.953 278.253 324.522 239.552 324.887C188.917 325.366 133.052 379.012 86.4756 369.861C39.2029 360.572 15.2422 319.317 5.50809 278.9C-5.02004 235.187 -1.20473 183.319 30.4656 137.303C61.7635 91.8274 117.698 57.7236 173.06 35.4498C222.117 15.7133 269.412 26.3509 319.186 21.1432C367.305 16.1086 422.52 -10.6794 460.782 5.34619C499.11 21.3993 513.054 62.7365 513.211 102.409C513.35 137.497 481.979 172.59 461.584 208.004C446 235.063 428.854 260.123 407.831 285.387C383.467 314.666 366.92 358.624 328.799 367.572Z" fill="#484C9A"/>
</svg>
